<svg xmlns="http://www.w3.org/2000/svg" xmlns:xlink="http://www.w3.org/1999/xlink" fill="none" version="1.1" width="40" height="40" viewBox="0 0 40 40"><defs><mask id="master_svg0_430_84806"><g style="mix-blend-mode:passthrough"><rect x="0" y="0" width="40" height="40" rx="0" fill="#FFFFFF" fill-opacity="1"/></g></mask><linearGradient x1="0.5" y1="0" x2="0.5" y2="1" id="master_svg1_111_8288"><stop offset="0%" stop-color="#EDCA52" stop-opacity="1"/><stop offset="100%" stop-color="#FAB832" stop-opacity="1"/></linearGradient><linearGradient x1="0.5" y1="0" x2="0.5" y2="1" id="master_svg2_111_8284"><stop offset="0%" stop-color="#CF7B30" stop-opacity="1"/><stop offset="100%" stop-color="#FEBD33" stop-opacity="1"/></linearGradient><linearGradient x1="0.5" y1="0" x2="0.5" y2="1" id="master_svg3_111_8295"><stop offset="0%" stop-color="#EEA637" stop-opacity="1"/><stop offset="100%" stop-color="#BC622D" stop-opacity="1"/></linearGradient><filter id="master_svg4_430_84821" filterUnits="objectBoundingBox" color-interpolation-filters="sRGB" x="-2" y="-2" width="31.999998092651367" height="31.999998092651367"><feFlood flood-opacity="0" result="BackgroundImageFix"/><feColorMatrix in="SourceAlpha" type="matrix" values="0 0 0 0 0 0 0 0 0 0 0 0 0 0 0 0 0 0 127 0"/><feOffset dy="0" dx="0"/><feGaussianBlur stdDeviation="0.5"/><feColorMatrix type="matrix" values="0 0 0 0 0 0 0 0 0 0 0 0 0 0 0 0 0 0 0.3019607961177826 0"/><feBlend mode="normal" in2="BackgroundImageFix" result="effect1_dropShadow"/><feBlend mode="normal" in="SourceGraphic" in2="effect1_dropShadow" result="shape"/><feColorMatrix in="SourceAlpha" type="matrix" result="hardAlpha" values="0 0 0 0 0 0 0 0 0 0 0 0 0 0 0 0 0 0 127 0"/><feOffset dy="0" dx="0"/><feGaussianBlur stdDeviation="0.5"/><feComposite in2="hardAlpha" operator="arithmetic" k2="-1" k3="1"/><feColorMatrix type="matrix" values="0 0 0 0 1 0 0 0 0 1 0 0 0 0 1 0 0 0 0.10000000149011612 0"/><feBlend mode="normal" in2="shape" result="effect2_innerShadow"/></filter><radialGradient cx="0" cy="0" r="1" gradientUnits="userSpaceOnUse" id="master_svg5_111_8280" gradientTransform="translate(20.124999046325684 21.999999046325684) rotate(90) scale(13.999999046325684 13.999999046325684)"><stop offset="0%" stop-color="#F4D78E" stop-opacity="1"/><stop offset="100%" stop-color="#E7C66C" stop-opacity="1"/></radialGradient><filter id="master_svg6_430_84822" filterUnits="objectBoundingBox" color-interpolation-filters="sRGB" x="0" y="0" width="20" height="20"><feFlood flood-opacity="0" result="BackgroundImageFix"/><feBlend mode="normal" in="SourceGraphic" in2="BackgroundImageFix" result="shape"/><feColorMatrix in="SourceAlpha" type="matrix" result="hardAlpha" values="0 0 0 0 0 0 0 0 0 0 0 0 0 0 0 0 0 0 127 0"/><feOffset dy="0" dx="0"/><feGaussianBlur stdDeviation="0.5"/><feComposite in2="hardAlpha" operator="arithmetic" k2="-1" k3="1"/><feColorMatrix type="matrix" values="0 0 0 0 0.7882353067398071 0 0 0 0 0.4901960790157318 0 0 0 0 0.2235294133424759 0 0 0 1 0"/><feBlend mode="normal" in2="shape" result="effect1_innerShadow"/></filter><radialGradient cx="0" cy="0" r="1" gradientUnits="userSpaceOnUse" id="master_svg7_111_8273" gradientTransform="translate(20.125 22) rotate(90) scale(10 10)"><stop offset="0%" stop-color="#FEBD33" stop-opacity="1"/><stop offset="100%" stop-color="#D59F54" stop-opacity="1"/></radialGradient><filter id="master_svg8_430_84816" filterUnits="objectBoundingBox" color-interpolation-filters="sRGB" x="-2" y="-2" width="31.999998092651367" height="31.999998092651367"><feFlood flood-opacity="0" result="BackgroundImageFix"/><feColorMatrix in="SourceAlpha" type="matrix" values="0 0 0 0 0 0 0 0 0 0 0 0 0 0 0 0 0 0 127 0"/><feOffset dy="0" dx="0"/><feGaussianBlur stdDeviation="0.5"/><feColorMatrix type="matrix" values="0 0 0 0 0 0 0 0 0 0 0 0 0 0 0 0 0 0 0.3019607961177826 0"/><feBlend mode="normal" in2="BackgroundImageFix" result="effect1_dropShadow"/><feBlend mode="normal" in="SourceGraphic" in2="effect1_dropShadow" result="shape"/><feColorMatrix in="SourceAlpha" type="matrix" result="hardAlpha" values="0 0 0 0 0 0 0 0 0 0 0 0 0 0 0 0 0 0 127 0"/><feOffset dy="0" dx="0"/><feGaussianBlur stdDeviation="0.5"/><feComposite in2="hardAlpha" operator="arithmetic" k2="-1" k3="1"/><feColorMatrix type="matrix" values="0 0 0 0 1 0 0 0 0 1 0 0 0 0 1 0 0 0 0.10000000149011612 0"/><feBlend mode="normal" in2="shape" result="effect2_innerShadow"/></filter><radialGradient cx="0" cy="0" r="1" gradientUnits="userSpaceOnUse" id="master_svg9_111_8280" gradientTransform="translate(14.999999046325684 41.124022483825684) rotate(90) scale(13.999999046325684 13.999999046325684)"><stop offset="0%" stop-color="#F4D78E" stop-opacity="1"/><stop offset="100%" stop-color="#E7C66C" stop-opacity="1"/></radialGradient><filter id="master_svga_430_84815" filterUnits="objectBoundingBox" color-interpolation-filters="sRGB" x="0" y="0" width="20" height="20"><feFlood flood-opacity="0" result="BackgroundImageFix"/><feBlend mode="normal" in="SourceGraphic" in2="BackgroundImageFix" result="shape"/><feColorMatrix in="SourceAlpha" type="matrix" result="hardAlpha" values="0 0 0 0 0 0 0 0 0 0 0 0 0 0 0 0 0 0 127 0"/><feOffset dy="0" dx="0"/><feGaussianBlur stdDeviation="0.5"/><feComposite in2="hardAlpha" operator="arithmetic" k2="-1" k3="1"/><feColorMatrix type="matrix" values="0 0 0 0 0.7882353067398071 0 0 0 0 0.4901960790157318 0 0 0 0 0.2235294133424759 0 0 0 1 0"/><feBlend mode="normal" in2="shape" result="effect1_innerShadow"/></filter><radialGradient cx="0" cy="0" r="1" gradientUnits="userSpaceOnUse" id="master_svgb_111_8273" gradientTransform="translate(15 41.1240234375) rotate(90) scale(10 10)"><stop offset="0%" stop-color="#FEBD33" stop-opacity="1"/><stop offset="100%" stop-color="#D59F54" stop-opacity="1"/></radialGradient></defs><g style="mix-blend-mode:passthrough" mask="url(#master_svg0_430_84806)"><g style="mix-blend-mode:passthrough"><g transform="matrix(0.8660253882408142,-0.4999999701976776,0.4999999701976776,0.8660253882408142,-2.2153038010001183,1.7323729954659939)"><path d="M13.4677,7.695209999999999C13.1046,7.695209999999999,12.8101,7.99682,12.8101,8.36901C12.8101,8.46651,12.8312,8.55866,12.8677,8.64223L10.50875,9.71648L8.5373,6.25345C8.73231,6.1365300000000005,8.864899999999999,5.922108,8.864899999999999,5.673802C8.864899999999999,5.30161,8.57052,5,8.2073,5C7.84408,5,7.5497,5.30161,7.5497,5.673802C7.5497,5.914742,7.67412,6.1246100000000006,7.85975,6.24367L5.74151,9.71648L3.3826,8.64223C3.4189,8.55852,3.4401900000000003,8.46651,3.4401900000000003,8.36901C3.4401900000000003,7.99695,3.14582,7.695209999999999,2.782597,7.695209999999999C2.419378,7.695209999999999,2.125,7.99682,2.125,8.36901C2.125,8.74107,2.419378,9.04281,2.782597,9.04281C2.836035,9.04281,2.88733,9.034510000000001,2.937018,9.02219L4.09752,13.92778L12.1525,13.92778L13.313,9.02219C13.3627,9.034510000000001,13.414,9.04281,13.4674,9.04281C13.8306,9.04281,14.125,8.7412,14.125,8.36901C14.1251,7.99695,13.8308,7.695209999999999,13.4677,7.695209999999999Z" fill="url(#master_svg1_111_8288)" fill-opacity="1"/></g><g style="mix-blend-mode:passthrough"><ellipse cx="20.125" cy="22" rx="16" ry="16" fill="url(#master_svg2_111_8284)" fill-opacity="1"/></g><g style="mix-blend-mode:passthrough"><ellipse cx="20.125" cy="22" rx="14" ry="14" fill="url(#master_svg3_111_8295)" fill-opacity="1"/></g><g style="mix-blend-mode:passthrough"><g style="mix-blend-mode:passthrough" transform="matrix(1,2.9802320611338473e-8,-2.9802320611338473e-8,1,2.3841856489070778e-7,-1.8253921396649275e-7)" filter="url(#master_svg4_430_84821)"><path d="M20.125,8.000000000000002L32.2494,29L8.00064,29L20.125,8.000000000000002Z" fill="url(#master_svg5_111_8280)" fill-opacity="1"/></g><g style="mix-blend-mode:passthrough" transform="matrix(1,2.9802320611338473e-8,-2.9802320611338473e-8,1,3.576278473360617e-7,-3.0174849641184665e-7)" filter="url(#master_svg6_430_84822)"><path d="M20.125,12.000000000000002L28.7853,27L11.46475,27L20.125,12.000000000000002Z" fill="url(#master_svg7_111_8273)" fill-opacity="1"/></g></g><g style="mix-blend-mode:passthrough" transform="matrix(0.4999999701976776,-0.866025447845459,0.866025447845459,0.4999999701976776,-22.99009451502934,14.42803797495435)"><g style="mix-blend-mode:passthrough" transform="matrix(1,2.9802320611338473e-8,-2.9802320611338473e-8,1,8.083588427520993e-7,-2.9802322387695312e-8)" filter="url(#master_svg8_430_84816)"><path d="M15,27.124023437500004L27.1244,48.1240234375L2.8756399999999998,48.1240234375L15,27.124023437500004Z" fill="url(#master_svg9_111_8280)" fill-opacity="1"/></g><g style="mix-blend-mode:passthrough" transform="matrix(1,2.9802320611338473e-8,-2.9802320611338473e-8,1,9.275681254194978e-7,-1.490116048330492e-7)" filter="url(#master_svga_430_84815)"><path d="M15,31.1240234375L23.6603,46.1240234375L6.33975,46.1240234375L15,31.1240234375Z" fill="url(#master_svgb_111_8273)" fill-opacity="1"/></g></g></g><g style="mix-blend-mode:passthrough"><path d="M20.61589,24.689700000000002L20.9668,22.40195L15.64844,22.40195L16.18164,18.64219L15.7168,18.15L24.21615,18.15L24.03385,19.48529L18.72917,19.48529L18.49219,21.066670000000002L23.81055,21.066670000000002L23.29102,24.721600000000002L23.236330000000002,25.0908Q23.16797,25.491799999999998,22.858069999999998,25.7607Q22.548180000000002,26.025,22.14258,26.025L15.128906,26.025L15.384115,24.179299999999998L15.8444,24.689700000000002L20.61589,24.689700000000002Z" fill="#634303" fill-opacity="1"/></g></g></svg>