<svg xmlns="http://www.w3.org/2000/svg" xmlns:xlink="http://www.w3.org/1999/xlink" fill="none" version="1.1" width="443.1015625" height="64.552734375" viewBox="0 0 443.1015625 64.552734375"><defs><linearGradient x1="1" y1="0.0005000000237487257" x2="0" y2="0" id="master_svg0_230_06301"><stop offset="0%" stop-color="#23A9B1" stop-opacity="0"/><stop offset="99.99999403953552%" stop-color="#0FCED3" stop-opacity="1"/></linearGradient><radialGradient cx="0" cy="0" r="1" gradientUnits="userSpaceOnUse" id="master_svg1_230_02304" gradientTransform="translate(46.53013610839844 32.5) rotate(90) scale(8 19.059768132496174)"><stop offset="2.857142873108387%" stop-color="#00FFFF" stop-opacity="1"/><stop offset="100%" stop-color="#FFFFFF" stop-opacity="0"/></radialGradient><radialGradient cx="0" cy="0" r="1" gradientUnits="userSpaceOnUse" id="master_svg2_230_02304" gradientTransform="translate(46.53013610839844 32.5) rotate(90) scale(8 19.059768132496174)"><stop offset="2.857142873108387%" stop-color="#00FFFF" stop-opacity="1"/><stop offset="100%" stop-color="#FFFFFF" stop-opacity="0"/></radialGradient><filter id="master_svg3_430_84471" filterUnits="objectBoundingBox" color-interpolation-filters="sRGB" x="-20" y="-20" width="72.5167465209961" height="49.10468864440918"><feFlood flood-opacity="0" result="BackgroundImageFix"/><feBlend mode="normal" in="SourceGraphic" in2="BackgroundImageFix" result="shape"/><feGaussianBlur stdDeviation="5" result="effect1_foregroundBlur"/></filter><radialGradient cx="0" cy="0" r="1" gradientUnits="userSpaceOnUse" id="master_svg4_230_02304" gradientTransform="translate(46.25788593292236 32.05234479904175) rotate(90) scale(4.55234432220459 10.84582823888013)"><stop offset="2.857142873108387%" stop-color="#00FFFF" stop-opacity="1"/><stop offset="100%" stop-color="#FFFFFF" stop-opacity="0"/></radialGradient><filter id="master_svg5_430_84474" filterUnits="objectBoundingBox" color-interpolation-filters="sRGB" x="-20" y="-20" width="97.14286041259766" height="48"><feFlood flood-opacity="0" result="BackgroundImageFix"/><feBlend mode="normal" in="SourceGraphic" in2="BackgroundImageFix" result="shape"/><feGaussianBlur stdDeviation="5" result="effect1_foregroundBlur"/></filter><radialGradient cx="0" cy="0" r="1" gradientUnits="userSpaceOnUse" id="master_svg6_230_02297" gradientTransform="translate(46.53013610839844 32.5) rotate(90) scale(4 19.059768132496174)"><stop offset="0%" stop-color="#FFFFFF" stop-opacity="0.10000000149011612"/><stop offset="100%" stop-color="#00FFFF" stop-opacity="1"/></radialGradient><radialGradient cx="0" cy="0" r="1" gradientUnits="userSpaceOnUse" id="master_svg7_230_02297" gradientTransform="translate(46.53013610839844 32.5) rotate(90) scale(4 19.059768132496174)"><stop offset="0%" stop-color="#FFFFFF" stop-opacity="0.10000000149011612"/><stop offset="100%" stop-color="#00FFFF" stop-opacity="1"/></radialGradient><filter id="master_svg8_430_84476" filterUnits="objectBoundingBox" color-interpolation-filters="sRGB" x="-20" y="-20" width="72.5167465209961" height="44.55234432220459"><feFlood flood-opacity="0" result="BackgroundImageFix"/><feBlend mode="normal" in="SourceGraphic" in2="BackgroundImageFix" result="shape"/><feGaussianBlur stdDeviation="5" result="effect1_foregroundBlur"/></filter><radialGradient cx="0" cy="0" r="1" gradientUnits="userSpaceOnUse" id="master_svg9_230_02297" gradientTransform="translate(46.25788593292236 32.276172399520874) rotate(90) scale(2.276172161102295 10.84582823888013)"><stop offset="0%" stop-color="#FFFFFF" stop-opacity="0.10000000149011612"/><stop offset="100%" stop-color="#00FFFF" stop-opacity="1"/></radialGradient><radialGradient cx="0" cy="0" r="1" gradientUnits="userSpaceOnUse" id="master_svga_230_02304" gradientTransform="translate(46.53013515472412 32.5) rotate(90) scale(8 15.24781399704625)"><stop offset="2.857142873108387%" stop-color="#00FFFF" stop-opacity="1"/><stop offset="100%" stop-color="#FFFFFF" stop-opacity="0"/></radialGradient><radialGradient cx="0" cy="0" r="1" gradientUnits="userSpaceOnUse" id="master_svgb_230_02304" gradientTransform="translate(46.53013515472412 32.5) rotate(90) scale(8 15.24781399704625)"><stop offset="2.857142873108387%" stop-color="#00FFFF" stop-opacity="1"/><stop offset="100%" stop-color="#FFFFFF" stop-opacity="0"/></radialGradient><filter id="master_svgc_430_84485" filterUnits="objectBoundingBox" color-interpolation-filters="sRGB" x="-20" y="-20" width="66.01339530944824" height="49.10468864440918"><feFlood flood-opacity="0" result="BackgroundImageFix"/><feBlend mode="normal" in="SourceGraphic" in2="BackgroundImageFix" result="shape"/><feGaussianBlur stdDeviation="5" result="effect1_foregroundBlur"/></filter><radialGradient cx="0" cy="0" r="1" gradientUnits="userSpaceOnUse" id="master_svgd_230_02304" gradientTransform="translate(46.31233596801758 32.05234479904175) rotate(90) scale(4.55234432220459 8.676661954915744)"><stop offset="2.857142873108387%" stop-color="#00FFFF" stop-opacity="1"/><stop offset="100%" stop-color="#FFFFFF" stop-opacity="0"/></radialGradient><filter id="master_svge_430_84479" filterUnits="objectBoundingBox" color-interpolation-filters="sRGB" x="-20" y="-20" width="85.71428680419922" height="48"><feFlood flood-opacity="0" result="BackgroundImageFix"/><feBlend mode="normal" in="SourceGraphic" in2="BackgroundImageFix" result="shape"/><feGaussianBlur stdDeviation="5" result="effect1_foregroundBlur"/></filter><radialGradient cx="0" cy="0" r="1" gradientUnits="userSpaceOnUse" id="master_svgf_230_02297" gradientTransform="translate(46.53013515472412 32.5) rotate(90) scale(4 15.24781399704625)"><stop offset="0%" stop-color="#FFFFFF" stop-opacity="0.10000000149011612"/><stop offset="100%" stop-color="#00FFFF" stop-opacity="1"/></radialGradient><radialGradient cx="0" cy="0" r="1" gradientUnits="userSpaceOnUse" id="master_svgg_230_02297" gradientTransform="translate(46.53013515472412 32.5) rotate(90) scale(4 15.24781399704625)"><stop offset="0%" stop-color="#FFFFFF" stop-opacity="0.10000000149011612"/><stop offset="100%" stop-color="#00FFFF" stop-opacity="1"/></radialGradient><filter id="master_svgh_430_84482" filterUnits="objectBoundingBox" color-interpolation-filters="sRGB" x="-20" y="-20" width="66.01339530944824" height="44.55234432220459"><feFlood flood-opacity="0" result="BackgroundImageFix"/><feBlend mode="normal" in="SourceGraphic" in2="BackgroundImageFix" result="shape"/><feGaussianBlur stdDeviation="5" result="effect1_foregroundBlur"/></filter><radialGradient cx="0" cy="0" r="1" gradientUnits="userSpaceOnUse" id="master_svgi_230_02297" gradientTransform="translate(46.31233596801758 32.276172399520874) rotate(90) scale(2.276172161102295 8.676661954915744)"><stop offset="0%" stop-color="#FFFFFF" stop-opacity="0.10000000149011612"/><stop offset="100%" stop-color="#00FFFF" stop-opacity="1"/></radialGradient></defs><g style="mix-blend-mode:passthrough"><g><path d="M443.1015625,49.5L105.1015625,49.5L105.1015625,48.5L443.1015625,48.5L443.1015625,49.5Z" fill="url(#master_svg0_230_06301)" fill-opacity="1"/></g><g><path d="M104.6644625,49.7428L84.6644625,13.742821L85.1015625,13.5L85.1015625,14L5.1015625,14L5.1015625,13.5L5.6015625,13.5L5.6015625,49.5L4.6015625,49.5L4.6015625,13L85.3957625,13L105.5385625,49.2572L104.6644625,49.7428Z" fill="#0FCED3" fill-opacity="1"/></g><g style="mix-blend-mode:passthrough"><g style="opacity:0.800000011920929;mix-blend-mode:passthrough"><g style="opacity:0.699999988079071;"><g style="mix-blend-mode:passthrough"><g style="opacity:0.5;"><path d="M41.50220590209961,40.3752C57.03950590209961,41.148399999999995,71.8815059020996,38.2488,74.65240590209962,33.89062C77.4234059020996,29.532429999999998,67.0853059020996,25.332399,51.55810590209961,24.611892C36.030905902099605,23.891384,21.17875590209961,26.7207,18.40782090209961,31.07889C15.636885902099609,35.4371,25.97495590209961,39.5844,41.50220590209961,40.3752Z" fill="url(#master_svg1_230_02304)" fill-opacity="0.699999988079071"/></g><g style="opacity:0.5;mix-blend-mode:soft-light"><path d="M41.50220590209961,40.3752C57.03950590209961,41.148399999999995,71.8815059020996,38.2488,74.65240590209962,33.89062C77.4234059020996,29.532429999999998,67.0853059020996,25.332399,51.55810590209961,24.611892C36.030905902099605,23.891384,21.17875590209961,26.7207,18.40782090209961,31.07889C15.636885902099609,35.4371,25.97495590209961,39.5844,41.50220590209961,40.3752Z" fill="url(#master_svg2_230_02304)" fill-opacity="0.699999988079071" style="mix-blend-mode:soft-light"/></g><g style="opacity:0.5;" filter="url(#master_svg3_430_84471)"><path d="M43.396712672424314,36.53367047683716C52.23811267242432,36.97367047683716,60.68391267242431,35.32367047683716,62.26071267242432,32.84367047683716C63.83751267242432,30.363670476837157,57.95471267242432,27.973671476837158,49.11901267242432,27.56367157683716C40.28341267242432,27.153671476837157,31.831862672424315,28.76367047683716,30.255078672424318,31.24367047683716C28.678292672424316,33.72367047683716,34.56110267242432,36.083670476837156,43.396712672424314,36.53367047683716Z" fill="url(#master_svg4_230_02304)" fill-opacity="0.699999988079071"/></g></g><g style="mix-blend-mode:passthrough" filter="url(#master_svg5_430_84474)"><g style="opacity:0.5;"><path d="M41.50220590209961,36.4376C57.03950590209961,36.82421,71.8815059020996,35.37441,74.65240590209962,33.19531C77.4234059020996,31.01622,67.0853059020996,28.9162,51.55810590209961,28.5559458C36.030905902099605,28.195692,21.17875590209961,29.61035,18.40782090209961,31.78944C15.636885902099609,33.96854,25.97495590209961,36.0422,41.50220590209961,36.4376Z" fill="url(#master_svg6_230_02297)" fill-opacity="1"/></g><g style="opacity:0.5;mix-blend-mode:soft-light"><path d="M41.50220590209961,36.4376C57.03950590209961,36.82421,71.8815059020996,35.37441,74.65240590209962,33.19531C77.4234059020996,31.01622,67.0853059020996,28.9162,51.55810590209961,28.5559458C36.030905902099605,28.195692,21.17875590209961,29.61035,18.40782090209961,31.78944C15.636885902099609,33.96854,25.97495590209961,36.0422,41.50220590209961,36.4376Z" fill="url(#master_svg7_230_02297)" fill-opacity="1" style="mix-blend-mode:soft-light"/></g><g style="opacity:0.5;" filter="url(#master_svg8_430_84476)"><path d="M43.396712672424314,34.51684023841858C52.23811267242432,34.73684023841858,60.68391267242431,33.91183023841858,62.26071267242432,32.67184023841858C63.83751267242432,31.43184023841858,57.95471267242432,30.23683523841858,49.11901267242432,30.03183583841858C40.28341267242432,29.82683623841858,31.831862672424315,30.63183623841858,30.255078672424318,31.871840238418578C28.678292672424316,33.11184023841858,34.56110267242432,34.29184023841858,43.396712672424314,34.51684023841858Z" fill="url(#master_svg9_230_02297)" fill-opacity="1"/></g></g></g><g style="opacity:0.5;"><g style="mix-blend-mode:passthrough"><g style="opacity:0.5;"><path d="M42.50779175262451,40.3752C54.93759175262451,41.148399999999995,66.81119175262451,38.2488,69.0279917526245,33.89062C71.24479175262451,29.532429999999998,62.97429175262451,25.332399,50.55249175262451,24.611892C38.130691752624514,23.891384,26.24903175262451,26.7207,24.03228375262451,31.07889C21.815531752624512,35.4371,30.085991752624512,39.5844,42.50779175262451,40.3752Z" fill="url(#master_svga_230_02304)" fill-opacity="0.699999988079071"/></g><g style="opacity:0.5;mix-blend-mode:soft-light"><path d="M42.50779175262451,40.3752C54.93759175262451,41.148399999999995,66.81119175262451,38.2488,69.0279917526245,33.89062C71.24479175262451,29.532429999999998,62.97429175262451,25.332399,50.55249175262451,24.611892C38.130691752624514,23.891384,26.24903175262451,26.7207,24.03228375262451,31.07889C21.815531752624512,35.4371,30.085991752624512,39.5844,42.50779175262451,40.3752Z" fill="url(#master_svgb_230_02304)" fill-opacity="0.699999988079071" style="mix-blend-mode:soft-light"/></g><g style="opacity:0.5;" filter="url(#master_svgc_430_84485)"><path d="M44.023438313293454,36.53367047683716C51.09653831329346,36.97367047683716,57.85313831329346,35.32367047683716,59.11453831329346,32.84367047683716C60.376038313293456,30.363670476837157,55.66973831329346,27.973671476837158,48.60123831329346,27.56367157683716C41.53271831329346,27.153671476837157,34.771518313293456,28.76367047683716,33.51009131329346,31.24367047683716C32.24866831329346,33.72367047683716,36.954918313293454,36.083670476837156,44.023438313293454,36.53367047683716Z" fill="url(#master_svgd_230_02304)" fill-opacity="0.699999988079071"/></g></g><g style="mix-blend-mode:passthrough" filter="url(#master_svge_430_84479)"><g style="opacity:0.5;"><path d="M42.50779175262451,36.4376C54.93759175262451,36.82421,66.81119175262451,35.37441,69.0279917526245,33.19531C71.24479175262451,31.01622,62.97429175262451,28.9162,50.55249175262451,28.5559458C38.130691752624514,28.195692,26.24903175262451,29.61035,24.03228375262451,31.78944C21.815531752624512,33.96854,30.085991752624512,36.0422,42.50779175262451,36.4376Z" fill="url(#master_svgf_230_02297)" fill-opacity="1"/></g><g style="opacity:0.5;mix-blend-mode:soft-light"><path d="M42.50779175262451,36.4376C54.93759175262451,36.82421,66.81119175262451,35.37441,69.0279917526245,33.19531C71.24479175262451,31.01622,62.97429175262451,28.9162,50.55249175262451,28.5559458C38.130691752624514,28.195692,26.24903175262451,29.61035,24.03228375262451,31.78944C21.815531752624512,33.96854,30.085991752624512,36.0422,42.50779175262451,36.4376Z" fill="url(#master_svgg_230_02297)" fill-opacity="1" style="mix-blend-mode:soft-light"/></g><g style="opacity:0.5;" filter="url(#master_svgh_430_84482)"><path d="M44.023438313293454,34.51684023841858C51.09653831329346,34.73684023841858,57.85313831329346,33.91183023841858,59.11453831329346,32.67184023841858C60.376038313293456,31.43184023841858,55.66973831329346,30.23683523841858,48.60123831329346,30.03183583841858C41.53271831329346,29.82683623841858,34.771518313293456,30.63183623841858,33.51009131329346,31.871840238418578C32.24866831329346,33.11184023841858,36.954918313293454,34.29184023841858,44.023438313293454,34.51684023841858Z" fill="url(#master_svgi_230_02297)" fill-opacity="1"/></g></g></g></g><g style="mix-blend-mode:passthrough"><path d="M31.5214825,25.663899999999998L31.5214825,28.43929L29.7167965,28.43929L29.7167965,30.020670000000003L31.5214825,30.020670000000003L31.5214825,32.4679L29.5618485,32.9054L30.0221355,34.6007L31.5214825,34.2043L31.5214825,37.048C31.5214825,37.244,31.4531225,37.3123,31.2571625,37.3123C31.0748725,37.3123,30.4733025,37.3123,29.9264325,37.285C30.1360725,37.7362,30.3593725,38.4334,30.4140625,38.8709C31.4212225,38.8709,32.0957025,38.8254,32.5833325,38.561C33.0755225,38.3104,33.2304725,37.8729,33.2304725,37.0617L33.2304725,33.7531L35.0351525,33.2609L34.8255225,31.6476L33.2304725,32.0441L33.2304725,30.020670000000003L34.8118525,30.020670000000003L34.8118525,28.43929L33.2304725,28.43929L33.2304725,25.65022L31.5214825,25.663899999999998ZM35.0351525,26.81233L35.0351525,28.49397L38.6080725,28.49397L38.6080725,36.9113C38.6080725,37.1847,38.4941425,37.2713,38.216142500000004,37.2713C37.9199225,37.2713,36.871742499999996,37.285,36.0013025,37.2303C36.2701825,37.7043,36.5891925,38.547399999999996,36.6757825,39.0623C37.9882825,39.0623,38.9134125,39.0213,39.5559625,38.7297C40.2031625,38.4334,40.4127625,37.9321,40.4127625,36.9432L40.4127625,28.49397L42.668662499999996,28.49397L42.668662499999996,26.81233L35.0351525,26.81233ZM45.453162500000005,25.65022L45.453162500000005,28.27067L43.7441625,28.27067L43.7441625,29.829259999999998L45.3801625,29.829259999999998C44.9745625,31.5975,44.2317625,33.671099999999996,43.3932625,34.7238C43.6438625,35.1704,43.9947625,35.977000000000004,44.1360625,36.451C44.6100625,35.6717,45.0748625,34.505,45.453162500000005,33.2244L45.453162500000005,39.0578L47.0208625,39.0578L47.0208625,32.2036C47.2988625,32.8507,47.5676625,33.5116,47.704462500000005,33.9718L48.6842625,32.6912C48.4472625,32.2583,47.3717625,30.56298,47.0208625,30.1027L47.0208625,29.829259999999998L48.515662500000005,29.829259999999998L48.515662500000005,28.27067L47.0208625,28.27067L47.0208625,25.631999999999998L45.453162500000005,25.65022ZM50.6165625,31.18733C50.981162499999996,32.8918,51.473262500000004,34.3957,52.1705625,35.658C51.4140625,36.5513,50.5071625,37.2166,49.454462500000005,37.658699999999996C50.2975625,35.6307,50.561862500000004,33.1606,50.6165625,31.18733ZM55.292362499999996,25.7596C53.7975625,26.38395,51.263662499999995,26.71207,48.9941625,26.81233L48.9941625,30.239420000000003C48.9941625,32.5226,48.8665625,35.8859,47.2714625,38.1828C47.663362500000005,38.3377,48.3652625,38.8481,48.6568625,39.1489C48.9667625,38.706900000000005,49.217462499999996,38.2101,49.440762500000005,37.686C49.7779625,38.0278,50.2109625,38.665800000000004,50.4342625,39.076C51.4596625,38.5656,52.3665625,37.9139,53.1230625,37.089C53.824862499999995,37.941199999999995,54.663362500000005,38.6248,55.702462499999996,39.117000000000004C55.939462500000005,38.665800000000004,56.440762500000005,38.0005,56.8189625,37.658699999999996C55.7571625,37.234899999999996,54.8867625,36.5649,54.189462500000005,35.731C55.141962500000005,34.227000000000004,55.798162500000004,32.3267,56.1217625,29.94319L55.0689625,29.64697L54.777362499999995,29.69254L50.6301625,29.69254L50.6301625,28.18864C52.6764625,28.06103,54.8593625,27.76481,56.440762500000005,27.163249999999998L55.292362499999996,25.7596ZM54.2714625,31.18733C54.0208625,32.313,53.6562625,33.3019,53.1822625,34.1815C52.717462499999996,33.2746,52.3665625,32.2674,52.1158625,31.18733L54.2714625,31.18733Z" fill="#FFFFFF" fill-opacity="1"/></g></g></g></svg>