<svg xmlns="http://www.w3.org/2000/svg" xmlns:xlink="http://www.w3.org/1999/xlink" fill="none" version="1.1" width="16" height="16" viewBox="0 0 16 16"><g style="mix-blend-mode:passthrough"><g><path d="M3.69,16L1.85001,16C0.832184,16,0.00549316,15.1778,0,14.16L0,12.31C0.0395203,12.0005,0.302948,11.7685,0.61499,11.7685C0.927063,11.7685,1.19049,12.0005,1.23001,12.31L1.23001,14.16C1.22998,14.5008,1.50922,14.7756,1.85001,14.77L3.69,14.77C4.03244,14.77,4.31003,15.0476,4.31,15.39C4.31003,15.7308,4.03079,16.0056,3.69,16ZM14.15,16L12.31,16C11.9692,16.0056,11.69,15.7309,11.69,15.39C11.69,15.0476,11.9676,14.77,12.31,14.77L14.15,14.77C14.4907,14.7756,14.77,14.5009,14.77,14.16L14.77,12.31C14.8095,12.0005,15.0729,11.7685,15.385,11.7685C15.6971,11.7685,15.9605,12.0005,16,12.31L16,14.16C15.9945,15.1778,15.1678,16,14.15,16ZM15.38,4.31001C15.0431,4.31001,14.77,4.0369,14.77,3.7L14.77,1.85C14.7701,1.50917,14.4908,1.23443,14.15,1.24L12.31,1.24C11.9676,1.24,11.69,0.962418,11.69,0.620003C11.69,0.277584,11.9676,0,12.31,0L14.15,0C15.1695,0.00547791,15.9946,0.830555,16,1.85L16,3.7C16.0001,4.04084,15.7208,4.31558,15.38,4.31001ZM0.619995,4.31001C0.279236,4.31562,0,4.04088,0,3.7L0,1.85C0.00549316,0.830536,0.830566,0.00546646,1.85001,0.0000038147L3.69,0.0000038147C4.03244,0.0000038147,4.31003,0.277588,4.31003,0.620007C4.31003,0.962421,4.03244,1.24001,3.69,1.24001L1.85001,1.24001C1.50925,1.23439,1.23001,1.50913,1.23001,1.85001L1.23001,3.7C1.22998,4.0369,0.956879,4.31001,0.619995,4.31001ZM11.08,12.93L4.91998,12.93C3.90216,12.9245,3.07999,12.0978,3.07999,11.08L3.07999,4.93C3.07996,3.91218,3.90216,3.08552,4.91998,3.08001L11.08,3.08001C12.0978,3.08551,12.92,3.91216,12.92,4.93L12.92,11.08C12.92,12.0978,12.0978,12.9245,11.08,12.93ZM4.91998,4.31001C4.57916,4.30997,4.30441,4.58921,4.31,4.93L4.31,11.08C4.30435,11.4208,4.5791,11.7,4.91998,11.7L11.08,11.7C11.4208,11.7001,11.6956,11.4208,11.69,11.08L11.69,4.93C11.6956,4.58926,11.4209,4.31001,11.08,4.31001L4.91998,4.31001Z" fill="#5D9A9E" fill-opacity="1"/></g></g></svg>