<svg xmlns="http://www.w3.org/2000/svg" xmlns:xlink="http://www.w3.org/1999/xlink" fill="none" version="1.1" width="80" height="28" viewBox="0 0 80 28"><defs><filter id="master_svg0_430_107704/230_19516" filterUnits="objectBoundingBox" color-interpolation-filters="sRGB" x="0" y="0" width="80" height="28"><feFlood flood-opacity="0" result="BackgroundImageFix"/><feBlend mode="normal" in="SourceGraphic" in2="BackgroundImageFix" result="shape"/><feColorMatrix in="SourceAlpha" type="matrix" result="hardAlpha" values="0 0 0 0 0 0 0 0 0 0 0 0 0 0 0 0 0 0 127 0"/><feOffset dy="0" dx="0"/><feGaussianBlur stdDeviation="4"/><feComposite in2="hardAlpha" operator="arithmetic" k2="-1" k3="1"/><feColorMatrix type="matrix" values="0 0 0 0 0.11764705926179886 0 0 0 0 0.8823529481887817 0 0 0 0 0.9215686321258545 0 0 0 0.5 0"/><feBlend mode="normal" in2="shape" result="effect1_innerShadow"/></filter><linearGradient x1="0" y1="0.5997306108474731" x2="1" y2="0.5997306108474731" id="master_svg1_230_18887"><stop offset="0%" stop-color="#0B454A" stop-opacity="0.10000000149011612"/><stop offset="100%" stop-color="#038CA2" stop-opacity="0.699999988079071"/></linearGradient><linearGradient x1="0" y1="0.434982031583786" x2="1" y2="0.434982031583786" id="master_svg2_230_01963"><stop offset="0%" stop-color="#04B3B6" stop-opacity="0.05000000074505806"/><stop offset="56.42856955528259%" stop-color="#0D747A" stop-opacity="0.4931506812572479"/><stop offset="100%" stop-color="#5DC6CD" stop-opacity="0.05000000074505806"/></linearGradient></defs><g style="opacity:0.4000000059604645;mix-blend-mode:passthrough"><g filter="url(#master_svg0_430_107704/230_19516)"><path d="M0,28L0,0L60,0L80,28" fill="url(#master_svg1_230_18887)" fill-opacity="1"/><path d="M80,28L60,0L0,0L0,28L1,28L1,1L59.4854,1L78.7711,28L80,28Z" fill-rule="evenodd" fill="url(#master_svg2_230_01963)" fill-opacity="1"/></g><g style="mix-blend-mode:passthrough"><g><path d="M39.41459632873535,11.15504L32.534596328735354,6.0750446C32.40499632873535,5.9749851,32.22419632873535,5.9749851,32.09459632873535,6.0750446L24.81459632873535,11.165040000000001C24.71417812873535,11.23634,24.654542922935352,11.351890000000001,24.65459632873535,11.47504L24.65459632873535,21.615000000000002C24.65459632873535,21.8249,24.82472832873535,21.994999999999997,25.03459732873535,21.994999999999997L29.634596328735352,21.994999999999997C29.84446632873535,21.9951,30.01459632873535,21.8249,30.01459632873535,21.615000000000002L30.01459632873535,19.405C29.99658632873535,18.139200000000002,30.98054632873535,17.084699999999998,32.244596328735355,17.015C33.54051632873535,16.9754,34.610866328735355,18.0185,34.604596328735354,19.314999999999998L34.604596328735354,21.605C34.60986632873535,21.818199999999997,34.781396328735354,21.989800000000002,34.994596328735355,21.994999999999997L39.20459632873535,21.994999999999997C39.41609632873535,21.9896,39.58469632873535,21.8166,39.58459632873535,21.605L39.58459632873535,11.45504C39.59289632873535,11.33519,39.53549632873535,11.220279999999999,39.43459632873535,11.15504L39.41459632873535,11.15504Z" fill="#1DFFFF" fill-opacity="1"/></g></g></g></svg>