<svg xmlns="http://www.w3.org/2000/svg" xmlns:xlink="http://www.w3.org/1999/xlink" fill="none" version="1.1" width="140" height="28" viewBox="0 0 140 28"><defs><filter id="master_svg0_430_107704/230_19548" filterUnits="objectBoundingBox" color-interpolation-filters="sRGB" x="0" y="0" width="140" height="28"><feFlood flood-opacity="0" result="BackgroundImageFix"/><feBlend mode="normal" in="SourceGraphic" in2="BackgroundImageFix" result="shape"/><feColorMatrix in="SourceAlpha" type="matrix" result="hardAlpha" values="0 0 0 0 0 0 0 0 0 0 0 0 0 0 0 0 0 0 127 0"/><feOffset dy="0" dx="0"/><feGaussianBlur stdDeviation="4"/><feComposite in2="hardAlpha" operator="arithmetic" k2="-1" k3="1"/><feColorMatrix type="matrix" values="0 0 0 0 0.11764705926179886 0 0 0 0 0.8823529481887817 0 0 0 0 0.9215686321258545 0 0 0 0.5 0"/><feBlend mode="normal" in2="shape" result="effect1_innerShadow"/></filter><linearGradient x1="0" y1="0.5997306108474731" x2="1" y2="0.5997306108474731" id="master_svg1_230_18887"><stop offset="0%" stop-color="#0B454A" stop-opacity="0.10000000149011612"/><stop offset="100%" stop-color="#038CA2" stop-opacity="0.699999988079071"/></linearGradient><linearGradient x1="0" y1="0.434982031583786" x2="1" y2="0.434982031583786" id="master_svg2_230_01963"><stop offset="0%" stop-color="#04B3B6" stop-opacity="0.05000000074505806"/><stop offset="56.42856955528259%" stop-color="#0D747A" stop-opacity="0.4931506812572479"/><stop offset="100%" stop-color="#5DC6CD" stop-opacity="0.05000000074505806"/></linearGradient></defs><g style="opacity:0.4000000059604645;mix-blend-mode:passthrough"><g filter="url(#master_svg0_430_107704/230_19548)"><path d="M20,28L0,0L120,0L140,28" fill="url(#master_svg1_230_18887)" fill-opacity="1"/><path d="M140,28L120,0L0,0L20,28L20.4069,27.7094L20.8137,27.4188L1.94319,1L119.485,1L138.771,28L140,28Z" fill-rule="evenodd" fill="url(#master_svg2_230_01963)" fill-opacity="1"/></g><g style="mix-blend-mode:passthrough"><g style="mix-blend-mode:passthrough"><g style="mix-blend-mode:passthrough"><g style="mix-blend-mode:passthrough"><rect x="34.5" y="20.5" width="11" height="1" rx="0.5" fill="#1EE1EB" fill-opacity="1"/></g><g style="mix-blend-mode:passthrough"><path d="M32.5,8.5L32.5,16.5Q32.5,16.598300000000002,32.50963055,16.695999999999998Q32.5192611,16.793799999999997,32.5384294,16.8902Q32.5575978,16.9865,32.5861193,17.0806Q32.614641,17.174599999999998,32.652241,17.2654Q32.689841,17.356099999999998,32.736157,17.4428Q32.782474,17.529400000000003,32.837061,17.6111Q32.891648,17.6928,32.953979,17.7688Q33.016311,17.8447,33.085786,17.9142Q33.155262,17.9837,33.231213,18.046Q33.307164,18.1084,33.388859,18.1629Q33.470554,18.2175,33.55721,18.2638Q33.643860000000004,18.310200000000002,33.73463,18.3478Q33.82541,18.3854,33.91943,18.413899999999998Q34.01345,18.4424,34.10982,18.4616Q34.20619,18.4807,34.30397,18.4904Q34.40175,18.5,34.5,18.5L45.5,18.5Q45.5983,18.5,45.696,18.4904Q45.7938,18.4807,45.8902,18.4616Q45.9865,18.4424,46.080600000000004,18.413899999999998Q46.1746,18.3854,46.2654,18.3478Q46.3561,18.310200000000002,46.4428,18.2638Q46.5294,18.2175,46.6111,18.1629Q46.6928,18.1084,46.7688,18.046Q46.8447,17.9837,46.9142,17.9142Q46.9837,17.8447,47.046,17.7688Q47.1084,17.6928,47.1629,17.6111Q47.2175,17.529400000000003,47.2638,17.4428Q47.3102,17.356099999999998,47.3478,17.2654Q47.385400000000004,17.174599999999998,47.4139,17.0806Q47.4424,16.9865,47.461600000000004,16.8902Q47.4807,16.793799999999997,47.4904,16.695999999999998Q47.5,16.598300000000002,47.5,16.5L47.5,8.5Q47.5,8.40175,47.4904,8.30397Q47.4807,8.20619,47.461600000000004,8.10982Q47.4424,8.01345,47.4139,7.91943Q47.385400000000004,7.82541,47.3478,7.73463Q47.3102,7.64386,47.2638,7.5572099999999995Q47.2175,7.470554,47.1629,7.388859Q47.1084,7.307164,47.046,7.231213Q46.9837,7.1552620000000005,46.9142,7.085786Q46.8447,7.016311,46.7688,6.953979Q46.6928,6.891648,46.6111,6.837061Q46.5294,6.782474,46.4428,6.736157Q46.3561,6.689841,46.2654,6.652241Q46.1746,6.614641,46.080600000000004,6.5861193Q45.9865,6.5575978,45.8902,6.5384294Q45.7938,6.5192611,45.696,6.50963055Q45.5983,6.5,45.5,6.5L34.5,6.5Q34.40175,6.5,34.30397,6.50963055Q34.20619,6.5192611,34.10982,6.5384294Q34.01345,6.5575978,33.91943,6.5861193Q33.82541,6.614641,33.73463,6.652241Q33.643860000000004,6.689841,33.55721,6.736157Q33.470554,6.782474,33.388859,6.837061Q33.307164,6.891648,33.231213,6.953979Q33.155262,7.016311,33.085786,7.085786Q33.016311,7.1552620000000005,32.953979,7.231213Q32.891648,7.307164,32.837061,7.388859Q32.782474,7.470554,32.736157,7.5572099999999995Q32.689841,7.64386,32.652241,7.73463Q32.614641,7.82541,32.5861193,7.91943Q32.5575978,8.01345,32.5384294,8.10982Q32.5192611,8.20619,32.50963055,8.30397Q32.5,8.40175,32.5,8.5ZM38.68861,13.896899999999999C38.51123,13.7939,38.4479,13.5669,38.54644,13.3859L40.07058,10.68949C40.17412,10.51074,40.40012,10.44749,40.58012,10.54724L40.6763,10.59974C40.85368,10.702490000000001,40.91701,10.92973,40.81847,11.110479999999999L39.29432,13.80715C39.20208,13.97589,38.99896,14.044139999999999,38.826570000000004,13.9704L38.78479,13.9494L38.78584,13.9494L38.68861,13.896899999999999ZM42.6119,13.8792C42.4731,13.731580000000001,42.46224,13.51155,42.5859,13.35221L42.6143,13.32021L43.662,12.24924L42.6143,11.179770000000001C42.462469999999996,11.01963,42.46269,10.77616,42.6148,10.61628C42.7502,10.47302,42.9816,10.46041,43.1333,10.58803L43.1648,10.61703L44.4872,11.969249999999999C44.5634,12.04099,44.6054,12.143239999999999,44.602000000000004,12.24924C44.6036,12.34249,44.5731,12.43248,44.5174,12.50473L44.4872,12.53923L43.1648,13.8817C43.0221,14.02894,42.8003,14.038689999999999,42.646100000000004,13.911190000000001L42.6119,13.8792ZM35.58646,11.994250000000001C35.46123,12.15967,35.47312,12.385539999999999,35.6151,12.53823L36.93769,13.882439999999999L36.96922,13.91145C37.1219,14.03745,37.34605,14.02795,37.48796,13.88296C37.64005,13.72316,37.64027,13.47978,37.48848,13.31972L36.43288,12.24973L37.48113,11.18028L37.5095,11.14826C37.63249,10.99377,37.62461,10.765789999999999,37.48481,10.62079L37.449600000000004,10.58829C37.29822,10.46081,37.06717,10.47307,36.93165,10.61578L35.61536,11.961L35.58646,11.994250000000001Z" fill-rule="evenodd" fill="#1EE1EB" fill-opacity="1"/></g></g></g><g><path d="M54.11002809265137,9.599440000000001L54.11002809265137,13.24072C54.11002809265137,15.5011,53.95963809265137,18.55,52.44661309265137,20.7056C52.697264092651366,20.8468,53.14387809265137,21.2251,53.326168092651365,21.453C54.93944809265137,19.137900000000002,55.17642809265136,15.6698,55.17642809265136,13.24072L65.35289809265137,13.24072L65.35289809265137,12.229L55.17642809265136,12.229L55.17642809265136,10.479C58.380208092651365,10.26937,61.953118092651366,9.891110000000001,64.38669809265137,9.2941L63.493498092651365,8.405429999999999C61.33788809265137,8.97509,57.43228809265137,9.39437,54.11002809265137,9.599440000000001ZM56.36588809265137,15.3325L56.36588809265137,21.4393L57.414058092651366,21.4393L57.414058092651366,20.6873L63.22459809265137,20.6873L63.22459809265137,21.4119L64.33199809265136,21.4119L64.33199809265136,15.3325L56.36588809265137,15.3325ZM57.414058092651366,19.7075L57.414058092651366,16.3123L63.22459809265137,16.3123L63.22459809265137,19.7075L57.414058092651366,19.7075ZM68.50199809265136,15.4373L68.50199809265136,21.4347L69.56839809265136,21.4347L69.56839809265136,20.6873L76.37239809265137,20.6873L76.37239809265137,21.4074L77.49349809265136,21.4074L77.49349809265136,15.4373L68.50199809265136,15.4373ZM69.56839809265136,19.6665L69.56839809265136,16.4491L76.37239809265137,16.4491L76.37239809265137,19.6665L69.56839809265136,19.6665ZM67.76369809265137,14.2342C68.30599809265136,14.0155,69.13539809265137,13.98812,77.19729809265137,13.5415C77.54819809265138,13.98812,77.84439809265137,14.4074,78.05399809265137,14.7765L78.94729809265137,14.1157C78.22269809265137,12.91259,76.58199809265136,11.14437,75.21029809265137,9.90934L74.38539809265137,10.48356C75.05529809265137,11.098790000000001,75.78449809265138,11.864419999999999,76.42709809265136,12.59358L69.23109809265137,12.93994C70.47979809265136,11.759599999999999,71.73759809265137,10.28304,72.85869809265137,8.70166L71.80599809265136,8.227699999999999C70.70309809265137,10.009599999999999,69.06249809265137,11.832519999999999,68.56119809265137,12.32015C68.08269809265137,12.7941,67.73179809265136,13.09944,67.41279809265137,13.1678C67.53579809265136,13.45491,67.70439809265136,14.0018,67.76369809265137,14.2342ZM82.95309809265137,14.0428L82.95309809265137,21.4302L84.01499809265137,21.4302L84.01499809265137,20.9334L90.79169809265136,20.9334L90.79169809265136,21.4028L91.83069809265137,21.4028L91.83069809265137,17.8208L84.01499809265137,17.8208L84.01499809265137,16.895699999999998L91.08789809265136,16.895699999999998L91.08789809265136,14.0428L82.95309809265137,14.0428ZM90.79169809265136,20.104L84.01499809265137,20.104L84.01499809265137,18.645699999999998L90.79169809265136,18.645699999999998L90.79169809265136,20.104ZM86.15689809265137,11.36767C86.31179809265137,11.654779999999999,86.46679809265137,11.98291,86.59439809265137,12.27913L81.41279809265137,12.27913L81.41279809265137,14.5988L82.43359809265137,14.5988L82.43359809265137,13.104L91.74409809265137,13.104L91.74409809265137,14.5988L92.81049809265136,14.5988L92.81049809265136,12.27913L87.66989809265137,12.27913C87.54229809265136,11.92366,87.30529809265137,11.495280000000001,87.09569809265136,11.171710000000001L86.15689809265137,11.36767ZM84.01499809265137,14.854L90.06249809265137,14.854L90.06249809265137,16.098100000000002L84.01499809265137,16.098100000000002L84.01499809265137,14.854ZM82.33789809265137,8.214030000000001C81.98699809265136,9.43538,81.37169809265137,10.64306,80.60159809265137,11.45426C80.86589809265136,11.58642,81.29879809265137,11.832519999999999,81.50849809265137,11.978349999999999C81.91409809265137,11.49983,82.29229809265136,10.87548,82.64319809265137,10.18733L83.60939809265136,10.18733C83.91929809265136,10.72965,84.22459809265138,11.38134,84.35219809265138,11.80517L85.24999809265137,11.48616C85.13609809265137,11.13525,84.89909809265137,10.64306,84.63019809265137,10.18733L86.77209809265136,10.18733L86.77209809265136,9.421710000000001L82.99409809265137,9.421710000000001C83.13539809265137,9.08447,83.25849809265137,8.74723,83.35869809265137,8.40999L82.33789809265137,8.214030000000001ZM88.25779809265137,8.24137C88.00719809265136,9.25309,87.51499809265137,10.23291,86.88609809265137,10.92106C87.13669809265136,11.05322,87.57419809265136,11.28108,87.75649809265137,11.426919999999999C88.04819809265138,11.08056,88.32619809265137,10.665849999999999,88.56769809265137,10.18733L89.56119809265137,10.18733C89.98049809265137,10.72054,90.38609809265137,11.395019999999999,90.56839809265136,11.81429L91.42059809265137,11.426919999999999C91.27019809265137,11.08056,90.97399809265136,10.620280000000001,90.65039809265136,10.18733L93.15689809265137,10.18733L93.15689809265137,9.40348L88.93229809265137,9.40348C89.06899809265137,9.08447,89.18289809265136,8.75179,89.27859809265136,8.4191L88.25779809265137,8.24137ZM100.66279809265137,12.52067L102.80469809265136,12.52067L102.80469809265136,14.5304L100.66279809265137,14.5304L100.66279809265137,12.52067ZM103.71609809265136,12.52067L105.85809809265137,12.52067L105.85809809265137,14.5304L103.71609809265136,14.5304L103.71609809265136,12.52067ZM100.66279809265137,9.895669999999999L102.80469809265136,9.895669999999999L102.80469809265136,11.66845L100.66279809265137,11.66845L100.66279809265137,9.895669999999999ZM103.71609809265136,9.895669999999999L105.85809809265137,9.895669999999999L105.85809809265137,11.66845L103.71609809265136,11.66845L103.71609809265136,9.895669999999999ZM98.44789809265137,20.0174L98.44789809265137,20.979L107.53519809265137,20.979L107.53519809265137,20.0174L103.79819809265138,20.0174L103.79819809265138,18.0623L107.06119809265137,18.0623L107.06119809265137,17.1144L103.79819809265138,17.1144L103.79819809265138,15.4373L106.86519809265137,15.4373L106.86519809265137,8.97509L99.69659809265136,8.97509L99.69659809265136,15.4373L102.72269809265137,15.4373L102.72269809265137,17.1144L99.52799809265136,17.1144L99.52799809265136,18.0623L102.72269809265137,18.0623L102.72269809265137,20.0174L98.44789809265137,20.0174ZM94.48759809265137,18.9145L94.75199809265138,19.985500000000002C95.98699809265136,19.575400000000002,97.59569809265136,19.023899999999998,99.10869809265137,18.5181L98.92639809265137,17.4927L97.38609809265137,18.0076L97.38609809265137,14.38L98.79879809265137,14.38L98.79879809265137,13.39567L97.38609809265137,13.39567L97.38609809265137,10.296710000000001L99.00849809265137,10.296710000000001L99.00849809265137,9.31233L94.64259809265137,9.31233L94.64259809265137,10.296710000000001L96.37889809265137,10.296710000000001L96.37889809265137,13.39567L94.78389809265137,13.39567L94.78389809265137,14.38L96.37889809265137,14.38L96.37889809265137,18.267400000000002C95.66339809265136,18.5591,95.02079809265138,18.755000000000003,94.48759809265137,18.9145Z" fill="#1DFFFF" fill-opacity="1"/></g></g></g></svg>