<svg xmlns="http://www.w3.org/2000/svg" xmlns:xlink="http://www.w3.org/1999/xlink" fill="none" version="1.1" width="32.3896484375" height="27.3076171875" viewBox="0 0 32.3896484375 27.3076171875"><defs><linearGradient x1="7.771561172376096e-16" y1="0.5004166960716248" x2="1.0006113052368164" y2="0.5004166960716248" id="master_svg0_230_10117"><stop offset="0%" stop-color="#0B454A" stop-opacity="0.10000000149011612"/><stop offset="99.00000095367432%" stop-color="#038CA2" stop-opacity="0.699999988079071"/></linearGradient><linearGradient x1="1.0855746269226074" y1="0.5" x2="-0.05195599049329758" y2="0.5" id="master_svg1_230_10120"><stop offset="0%" stop-color="#04B3B6" stop-opacity="0"/><stop offset="50%" stop-color="#0D747A" stop-opacity="1"/><stop offset="100%" stop-color="#5DC6CD" stop-opacity="0"/></linearGradient><linearGradient x1="7.771561172376096e-16" y1="0.5004166960716248" x2="1.0006113052368164" y2="0.5004166960716248" id="master_svg2_230_10117"><stop offset="0%" stop-color="#0B454A" stop-opacity="0.10000000149011612"/><stop offset="99.00000095367432%" stop-color="#038CA2" stop-opacity="0.699999988079071"/></linearGradient><linearGradient x1="1.0855746269226074" y1="0.5" x2="-0.05195599049329758" y2="0.5" id="master_svg3_230_10120"><stop offset="0%" stop-color="#04B3B6" stop-opacity="0"/><stop offset="50%" stop-color="#0D747A" stop-opacity="1"/><stop offset="100%" stop-color="#5DC6CD" stop-opacity="0"/></linearGradient></defs><g style="mix-blend-mode:passthrough" transform="matrix(-1,0,0,1,64.779296875,0)"><g style="mix-blend-mode:passthrough"><g style="opacity:0.800000011920929;"><path d="M57.431141395568844,13.6533203125L57.40154139556885,13.5933203125L63.389641395568844,1.6533203125L47.22364139556885,13.6533203125L63.389641395568844,25.6533203125L57.40154139556885,13.7233203125L57.431141395568844,13.6533203125Z" fill="url(#master_svg0_230_10117)" fill-opacity="1"/><path d="M56.94109139556885,13.5283203125L56.97074139556885,13.4583203125L57.431141395568844,13.6533203125L56.982881395568846,13.8748203125L56.84298139556885,13.5916203125L62.942741395568845,1.4291703125L63.389641395568844,1.6533203125L63.687641395568846,2.0547993125L47.52165839556885,14.0548203125L47.22364139556885,13.6533203125L47.52165839556885,13.2518203125L63.687641395568846,25.2518203125L63.389641395568844,25.6533203125L62.942741395568845,25.8776203125L56.85098139556885,13.7411203125L56.94109139556885,13.5283203125ZM57.86194139556885,13.9183203125L57.40154139556885,13.7233203125L57.84834139556885,13.4990203125L64.77954139556886,27.3077203125L46.38476439556885,13.6533203125L64.77824139556884,-0.00012968750000008633L57.84844139556885,13.8174203125L57.40154139556885,13.5933203125L57.84974139556885,13.3718203125L57.98094139556885,13.6373203125L57.86194139556885,13.9183203125Z" fill="url(#master_svg1_230_10120)" fill-opacity="1"/></g><g style="opacity:0.800000011920929;"><path d="M43.59714939117431,13.6533203125L43.56754939117432,13.5933203125L49.55564939117431,1.6533203125L33.389649391174316,13.6533203125L49.55564939117431,25.6533203125L43.56754939117432,13.7233203125L43.59714939117431,13.6533203125Z" fill="url(#master_svg2_230_10117)" fill-opacity="1"/><path d="M43.107099391174316,13.5283203125L43.13674939117432,13.4583203125L43.59714939117431,13.6533203125L43.148889391174315,13.8748203125L43.00898939117432,13.5916203125L49.108749391174314,1.4291703125L49.55564939117431,1.6533203125L49.853649391174315,2.0547993125L33.68766639117432,14.0548203125L33.389649391174316,13.6533203125L33.68766639117432,13.2518203125L49.853649391174315,25.2518203125L49.55564939117431,25.6533203125L49.108749391174314,25.8776203125L43.01698939117432,13.7411203125L43.107099391174316,13.5283203125ZM44.02794939117432,13.9183203125L43.56754939117432,13.7233203125L44.01434939117432,13.4990203125L50.94554939117432,27.3077203125L32.55077239117432,13.6533203125L50.94424939117432,-0.00012968750000008633L44.01444939117432,13.8174203125L43.56754939117432,13.5933203125L44.01574939117432,13.3718203125L44.14694939117432,13.6373203125L44.02794939117432,13.9183203125Z" fill="url(#master_svg3_230_10120)" fill-opacity="1"/></g></g></g></svg>