<svg xmlns="http://www.w3.org/2000/svg" xmlns:xlink="http://www.w3.org/1999/xlink" fill="none" version="1.1" width="32.228515625" height="27.3076171875" viewBox="0 0 32.228515625 27.3076171875"><defs><linearGradient x1="7.771561172376096e-16" y1="0.5004166960716248" x2="1.0006113052368164" y2="0.5004166960716248" id="master_svg0_230_10117"><stop offset="0%" stop-color="#0B454A" stop-opacity="0.10000000149011612"/><stop offset="99.00000095367432%" stop-color="#038CA2" stop-opacity="0.699999988079071"/></linearGradient><linearGradient x1="1.0855746269226074" y1="0.5" x2="-0.05195599049329758" y2="0.5" id="master_svg1_230_10120"><stop offset="0%" stop-color="#04B3B6" stop-opacity="0"/><stop offset="50%" stop-color="#0D747A" stop-opacity="1"/><stop offset="100%" stop-color="#5DC6CD" stop-opacity="0"/></linearGradient><linearGradient x1="7.771561172376096e-16" y1="0.5004166960716248" x2="1.0006113052368164" y2="0.5004166960716248" id="master_svg2_230_10117"><stop offset="0%" stop-color="#0B454A" stop-opacity="0.10000000149011612"/><stop offset="99.00000095367432%" stop-color="#038CA2" stop-opacity="0.699999988079071"/></linearGradient><linearGradient x1="1.0855746269226074" y1="0.5" x2="-0.05195599049329758" y2="0.5" id="master_svg3_230_10120"><stop offset="0%" stop-color="#04B3B6" stop-opacity="0"/><stop offset="50%" stop-color="#0D747A" stop-opacity="1"/><stop offset="100%" stop-color="#5DC6CD" stop-opacity="0"/></linearGradient></defs><g style="mix-blend-mode:passthrough"><g style="mix-blend-mode:passthrough"><g style="opacity:0.800000011920929;"><path d="M24.88035919189453,13.6533203125L24.850759191894532,13.5933203125L30.83885919189453,1.6533203125L14.672859191894531,13.6533203125L30.83885919189453,25.6533203125L24.850759191894532,13.7233203125L24.88035919189453,13.6533203125Z" fill="url(#master_svg0_230_10117)" fill-opacity="1"/><path d="M24.39030919189453,13.5283203125L24.41995919189453,13.4583203125L24.88035919189453,13.6533203125L24.43209919189453,13.8748203125L24.292199191894532,13.5916203125L30.39195919189453,1.4291703125L30.83885919189453,1.6533203125L31.13685919189453,2.0547993125L14.970876191894531,14.0548203125L14.672859191894531,13.6533203125L14.970876191894531,13.2518203125L31.13685919189453,25.2518203125L30.83885919189453,25.6533203125L30.39195919189453,25.8776203125L24.30019919189453,13.7411203125L24.39030919189453,13.5283203125ZM25.311159191894532,13.9183203125L24.850759191894532,13.7233203125L25.297559191894532,13.4990203125L32.22875919189453,27.3077203125L13.833982191894531,13.6533203125L32.22745919189453,-0.00012968750000008633L25.29765919189453,13.8174203125L24.850759191894532,13.5933203125L25.298959191894532,13.3718203125L25.430159191894532,13.6373203125L25.311159191894532,13.9183203125Z" fill="url(#master_svg1_230_10120)" fill-opacity="1"/></g><g style="opacity:0.800000011920929;"><path d="M11.0463671875,13.6533203125L11.0167671875,13.5933203125L17.0048671875,1.6533203125L0.8388671875,13.6533203125L17.0048671875,25.6533203125L11.0167671875,13.7233203125L11.0463671875,13.6533203125Z" fill="url(#master_svg2_230_10117)" fill-opacity="1"/><path d="M10.5563171875,13.5283203125L10.5859671875,13.4583203125L11.0463671875,13.6533203125L10.5981071875,13.8748203125L10.4582071875,13.5916203125L16.557967187499997,1.4291703125L17.0048671875,1.6533203125L17.3028671875,2.0547993125L1.1368841875,14.0548203125L0.8388671875,13.6533203125L1.1368841875,13.2518203125L17.3028671875,25.2518203125L17.0048671875,25.6533203125L16.557967187499997,25.8776203125L10.4662071875,13.7411203125L10.5563171875,13.5283203125ZM11.4771671875,13.9183203125L11.0167671875,13.7233203125L11.4635671875,13.4990203125L18.3947671875,27.3077203125L-0.000009812499999983793,13.6533203125L18.3934671875,-0.00012968750000008633L11.4636671875,13.8174203125L11.0167671875,13.5933203125L11.4649671875,13.3718203125L11.5961671875,13.6373203125L11.4771671875,13.9183203125Z" fill="url(#master_svg3_230_10120)" fill-opacity="1"/></g></g></g></svg>