<svg xmlns="http://www.w3.org/2000/svg" xmlns:xlink="http://www.w3.org/1999/xlink" fill="none" version="1.1" width="140" height="28" viewBox="0 0 140 28"><defs><filter id="master_svg0_453_19919/230_19545" filterUnits="objectBoundingBox" color-interpolation-filters="sRGB" x="0" y="0" width="140" height="28"><feFlood flood-opacity="0" result="BackgroundImageFix"/><feBlend mode="normal" in="SourceGraphic" in2="BackgroundImageFix" result="shape"/><feColorMatrix in="SourceAlpha" type="matrix" result="hardAlpha" values="0 0 0 0 0 0 0 0 0 0 0 0 0 0 0 0 0 0 127 0"/><feOffset dy="0" dx="0"/><feGaussianBlur stdDeviation="4"/><feComposite in2="hardAlpha" operator="arithmetic" k2="-1" k3="1"/><feColorMatrix type="matrix" values="0 0 0 0 0.11764705926179886 0 0 0 0 0.8823529481887817 0 0 0 0 0.9215686321258545 0 0 0 0.5 0"/><feBlend mode="normal" in2="shape" result="effect1_innerShadow"/></filter><linearGradient x1="0" y1="0.5997306108474731" x2="1" y2="0.5997306108474731" id="master_svg1_230_18887"><stop offset="0%" stop-color="#0B454A" stop-opacity="0.10000000149011612"/><stop offset="100%" stop-color="#038CA2" stop-opacity="0.699999988079071"/></linearGradient><linearGradient x1="0" y1="0.434982031583786" x2="1" y2="0.434982031583786" id="master_svg2_230_01963"><stop offset="0%" stop-color="#04B3B6" stop-opacity="0.05000000074505806"/><stop offset="56.42856955528259%" stop-color="#0D747A" stop-opacity="0.4931506812572479"/><stop offset="100%" stop-color="#5DC6CD" stop-opacity="0.05000000074505806"/></linearGradient></defs><g style="opacity:0.4000000059604645;mix-blend-mode:passthrough"><g filter="url(#master_svg0_453_19919/230_19545)"><path d="M20,28L0,0L120,0L140,28" fill="url(#master_svg1_230_18887)" fill-opacity="1"/><path d="M140,28L120,0L0,0L20,28L20.4069,27.7094L20.8137,27.4188L1.94319,1L119.485,1L138.771,28L140,28Z" fill-rule="evenodd" fill="url(#master_svg2_230_01963)" fill-opacity="1"/></g><g style="mix-blend-mode:passthrough"><g style="mix-blend-mode:passthrough"><g style="mix-blend-mode:passthrough"><g><path d="M41.93309688568115,16.55609448297119L42.71175488568115,15.776093482971191L45.18748688568115,18.256093482971192L44.40882688568115,19.03609348297119L41.93309688568115,16.55609448297119Z" fill="#1EE1EB" fill-opacity="1"/></g><g><path d="M47.74313005767822,19.496098390197755C48.36206005767822,20.126098390197754,47.74313005767822,20.666098390197753,47.14416005767822,21.236098390197753C46.54518005767822,21.806098390197754,46.33555005767822,22.156098390197755,45.71662005767822,21.536098390197754L44.448801057678224,20.316098390197755C43.832232057678226,19.761498390197755,43.79607005767822,18.805861390197755,44.368937057678224,18.206095390197753C44.972010057678226,17.643799390197753,45.916470057678225,17.679671390197754,46.47531005767822,18.286095390197755L47.74313005767822,19.496098390197755Z" fill="#1EE1EB" fill-opacity="1"/></g><g><path d="M38.52897,6.136096000644629C34.932,6.124999075744629,32.0101906,9.042873575744629,32.0101906,12.64609357574463C31.80353,16.377463575744628,34.76834,19.51666357574463,38.49901,19.51666357574463C42.2297,19.51666357574463,45.1945,16.377463575744628,44.987899999999996,12.64609357574463C44.9934,9.064033575744629,42.1048,6.152630775744629,38.52897,6.136096000644629ZM38.60883,8.326093575744629C39.01199,8.272713575744628,39.37332,8.57898357574463,39.38749,8.98609357574463C39.38749,10.276093575744628,39.23775,12.136093575744628,39.23775,13.426093575744629C39.23775,13.766093575744629,38.8684,13.90609357574463,38.60883,13.90609357574463C38.26942,13.90609357574463,37.96993,13.766093575744629,37.96993,13.426093575744629C37.96993,12.136093575744628,37.8202,10.276093575744628,37.8202,8.98609357574463C37.8202,8.56609357574463,38.16959,8.37609357574463,38.60883,8.37609357574463L38.60883,8.326093575744629ZM38.60883,16.326063575744627C38.14965,16.32066357574463,37.78024,15.946173575744629,37.78026,15.48609357574463C37.78026,15.02770357574463,38.15122,14.65609357574463,38.60883,14.65609357574463C39.06418,14.661493575744629,39.432,15.02995357574463,39.43741,15.48609357574463C39.45995,15.959493575744629,39.09164,16.35986357574463,38.618809999999996,16.37606357574463L38.60883,16.326063575744627Z" fill="#1EE1EB" fill-opacity="1"/></g></g></g><g><path d="M56.22461,16.1665L56.22461,20.979L57.76497,20.979L57.76497,20.104L61.09635,20.104C61.292320000000004,20.6144,61.41992,21.1567,61.44727,21.5623C62.149100000000004,21.5897,62.7917,21.576,63.1973,21.5076C63.6484,21.4393,63.9674,21.3117,64.2773,20.8924C64.6829,20.3729,64.8379,18.7095,64.9746,14.6535C64.9928,14.4575,65.0065,13.96989,65.0065,13.96989L55.58203,13.96989L55.62305,12.81233L63.9674,12.81233L63.9674,8.77457L53.95964,8.77457L53.95964,12.21077C53.95964,14.7264,53.83203,17.843600000000002,52.277995,20.0767C52.65625,20.2681,53.35807,20.8514,53.63607,21.1841C54.74349,19.575400000000002,55.24479,17.3423,55.4681,15.4373L63.2702,15.4373C63.1699,18.3221,63.0286,19.5343,62.7917,19.8306C62.6686,19.9946,62.5273,20.0539,62.3177,20.0402L61.770830000000004,20.0402L61.770830000000004,16.1665L56.22461,16.1665ZM55.62305,10.18733L62.2904,10.18733L62.2904,11.39957L55.62305,11.39957L55.62305,10.18733ZM57.76497,17.479L60.2168,17.479L60.2168,18.7915L57.76497,18.7915L57.76497,17.479ZM74.5267,8.729L74.5267,21.4803L76.0078,21.4803L76.0078,10.24202L77.5618,10.24202C77.2565,11.40869,76.8053,12.95361,76.4134,14.0291C77.4798,15.1457,77.7715,16.2759,77.7715,17.0461C77.7715,17.52,77.6895,17.848100000000002,77.4525,17.9575C77.3112,18.0213,77.1289,18.0532,76.9466,18.0623C76.7233,18.0623,76.45439999999999,18.0623,76.1491,18.0304C76.3997,18.4725,76.5273,19.156100000000002,76.5547,19.589C76.9329,19.607300000000002,77.3249,19.589,77.6348,19.548000000000002C77.9948,19.506999999999998,78.3184,19.4067,78.569,19.2108C79.0885,18.8507,79.3118,18.162599999999998,79.3118,17.242C79.3118,16.3306,79.1022,15.091,77.9674,13.83317C78.5007,12.52978,79.0885,10.7889,79.5671,9.38981L78.3867,8.665199999999999L78.1497,8.729L74.5267,8.729ZM69.1491,11.354L71.5553,11.354C71.373,12.06038,71.0677,12.95817,70.7578,13.6372L69.0215,13.6372L69.91929999999999,13.382C69.79169999999999,12.82145,69.5,12.00114,69.1491,11.354ZM69.1491,8.51937C69.304,8.915849999999999,69.46809999999999,9.41715,69.5957,9.859210000000001L66.9342,9.859210000000001L66.9342,11.354L68.8255,11.354L67.6634,11.650220000000001C67.9733,12.25634,68.265,13.05843,68.3926,13.6372L66.5879,13.6372L66.5879,15.1457L74.03450000000001,15.1457L74.03450000000001,13.6372L72.3529,13.6372C72.6354,13.03108,72.9271,12.29736,73.2233,11.609210000000001L72.0885,11.354L73.7109,11.354L73.7109,9.859210000000001L71.3457,9.859210000000001C71.1908,9.32601,70.9264,8.61051,70.6758,8.04541L69.1491,8.51937ZM67.2305,16.2759L67.2305,21.576L68.79820000000001,21.576L68.79820000000001,20.979L71.8242,20.979L71.8242,21.5122L73.4876,21.5122L73.4876,16.2759L67.2305,16.2759ZM68.79820000000001,19.520699999999998L68.79820000000001,17.770699999999998L71.8242,17.770699999999998L71.8242,19.520699999999998L68.79820000000001,19.520699999999998ZM89.1146,13.4139L89.1146,16.0298C89.1146,17.410600000000002,88.6908,19.2609,85.5964,20.3319C85.98830000000001,20.6281,86.43950000000001,21.1704,86.6491,21.5076C90.1217,20.1906,90.6823,17.9712,90.6823,16.0435L90.6823,13.4139L89.1146,13.4139ZM90.1354,19.3794C90.91929999999999,20.0949,92.013,21.0474,92.51429999999999,21.6444L93.6764,20.5142C93.11590000000001,19.9399,91.9811,18.9829,91.21090000000001,18.3221L90.1354,19.3794ZM80.9342,12.06038C81.5951,12.47965,82.4473,12.98095,83.1628,13.39567L80.36,13.39567L80.36,14.8813L82.4473,14.8813L82.4473,19.7485C82.4473,19.908,82.3926,19.9536,82.1966,19.9673C82.0007,19.9673,81.3398,19.9673,80.752,19.9536C80.9616,20.4048,81.1895,21.0884,81.2578,21.5623C82.1966,21.5623,82.8939,21.5213,83.4134,21.2707C83.9466,21.02,84.07419999999999,20.5688,84.07419999999999,19.7759L84.07419999999999,14.8813L84.9128,14.8813C84.7578,15.5741,84.5755,16.2485,84.42060000000001,16.7362L85.66929999999999,17.014200000000002C85.98830000000001,16.130000000000003,86.3665,14.7583,86.6764,13.57796L85.64189999999999,13.36377L85.41409999999999,13.39567L84.7715,13.39567L85.1361,12.98095C84.8717,12.81233,84.5072,12.58903,84.1152,12.33838C84.8991,11.55452,85.72399999999999,10.42887,86.3118,9.40348L85.3047,8.651530000000001L85.0085,8.73356L80.6973,8.73356L80.6973,10.18733L83.9603,10.18733C83.6367,10.72965,83.2721,11.26741,82.9258,11.62288L81.8184,10.92562L80.9342,12.06038ZM86.8314,11.317540000000001L86.8314,18.130699999999997L88.3854,18.130699999999997L88.3854,12.81233L91.40690000000001,12.81233L91.40690000000001,18.0714L93.0475,18.0714L93.0475,11.317540000000001L90.5547,11.317540000000001L90.89189999999999,10.18733L93.59440000000001,10.18733L93.59440000000001,8.71989L86.3802,8.71989L86.3802,10.18733L89.0964,10.18733L88.9323,11.317540000000001L86.8314,11.317540000000001ZM96.50200000000001,17.479L96.50200000000001,18.3084L105.5892,18.3084L105.5892,17.479L96.50200000000001,17.479ZM96.50200000000001,16.3123L96.50200000000001,17.1554L105.5892,17.1554L105.5892,16.3123L96.50200000000001,16.3123ZM96.33789999999999,18.6685L96.33789999999999,21.6079L97.91929999999999,21.6079L97.91929999999999,21.2524L104.1491,21.2524L104.1491,21.6079L105.7988,21.6079L105.7988,18.6685L96.33789999999999,18.6685ZM97.91929999999999,20.3957L97.91929999999999,19.520699999999998L104.1491,19.520699999999998L104.1491,20.3957L97.91929999999999,20.3957ZM99.8789,14.216L100.11590000000001,14.6808L94.8249,14.6808L94.8249,15.729L107.2025,15.729L107.2025,14.6808L101.83850000000001,14.6808C101.71090000000001,14.3983,101.5286,14.0747,101.3646,13.8195L99.8789,14.216ZM95.8594,10.06429C95.5814,10.71598,95.0755,11.436029999999999,94.3053,11.987459999999999C94.5697,12.16976,94.9935,12.58447,95.18950000000001,12.86702L95.5221,12.56624L95.5221,14.2205L96.64320000000001,14.2205L96.64320000000001,13.86051L98.4798,13.86051C98.52080000000001,14.0337,98.54820000000001,14.2069,98.54820000000001,14.3481C98.9811,14.3618,99.40039999999999,14.3481,99.64189999999999,14.3208C99.9473,14.2752,100.1842,14.1886,100.39840000000001,13.91976C100.6491,13.6372,100.7585,12.94905,100.8587,11.40869C101.1686,11.61832,101.5423,11.9191,101.72460000000001,12.11507C101.9525,11.9191,102.17580000000001,11.69124,102.3854,11.436029999999999C102.6224,11.81884,102.90039999999999,12.16976,103.21029999999999,12.48421C102.6497,12.82145,101.9798,13.06298,101.2233,13.24528C101.47399999999999,13.51416,101.86590000000001,14.1066,102.0072,14.4028C102.8457,14.1339,103.60220000000001,13.79215,104.2311,13.37288C104.96029999999999,13.86051,105.7988,14.2479,106.7513,14.4894C106.9336,14.1066,107.3255,13.5415,107.6491,13.2316C106.765,13.07666,105.9811,12.7941,105.3112,12.42496C105.7715,11.83707,106.1361,11.18994,106.38669999999999,10.433430000000001L107.3255,10.433430000000001L107.3255,9.31233L103.67060000000001,9.31233C103.8118,9.025220000000001,103.92580000000001,8.73812,104.0215,8.432780000000001L102.70439999999999,8.113769999999999C102.35810000000001,9.27132,101.71090000000001,10.3195,100.8861,11.03955L100.8861,10.97119C100.8997,10.80257,100.8997,10.479,100.8997,10.479L96.9941,10.479L97.0898,10.27392L96.60220000000001,10.18733L97.5,10.18733L97.5,9.71338L98.6302,9.71338L98.6302,10.123529999999999L100.0339,10.123529999999999L100.0339,9.71338L101.40559999999999,9.71338L101.40559999999999,8.729L100.0339,8.729L100.0339,8.20035L98.6302,8.20035L98.6302,8.729L97.5,8.729L97.5,8.20035L96.1237,8.20035L96.1237,8.729L94.6973,8.729L94.6973,9.71338L96.1237,9.71338L96.1237,10.1053L95.8594,10.06429ZM104.91929999999999,10.433430000000001C104.75059999999999,10.87548,104.5137,11.26285,104.2174,11.60465C103.8255,11.26285,103.5065,10.86181,103.2513,10.433430000000001L104.91929999999999,10.433430000000001ZM99.4733,11.349440000000001C99.40039999999999,12.42041,99.3184,12.85335,99.20439999999999,13.01285C99.1224,13.104,99.0404,13.11767,98.9128,13.11767L98.7988,13.11767L98.7988,11.645669999999999L96.2786,11.645669999999999L96.5202,11.349440000000001L99.4733,11.349440000000001ZM96.64320000000001,12.41585L97.66409999999999,12.41585L97.66409999999999,13.104L96.64320000000001,13.104L96.64320000000001,12.41585Z" fill="#1DFFFF" fill-opacity="1"/></g></g></g></svg>