<svg xmlns="http://www.w3.org/2000/svg" xmlns:xlink="http://www.w3.org/1999/xlink" fill="none" version="1.1" width="456" height="265" viewBox="0 0 456 265"><defs><linearGradient x1="0" y1="57.5" x2="6.659999847412109" y2="57.5" id="master_svg0_230_10419"></linearGradient><linearGradient x1="0.3636363744735718" y1="0" x2="0.3636363744735718" y2="1" id="master_svg1_230_02002"><stop offset="2.9999950900673866%" stop-color="#0CDCE2" stop-opacity="0.07999999821186066"/><stop offset="73.92604351043701%" stop-color="#62FFFF" stop-opacity="1"/><stop offset="99.9998927116394%" stop-color="#1EE3E8" stop-opacity="0.05000000074505806"/></linearGradient><linearGradient x1="0.3636363744735718" y1="0" x2="0.3636363744735718" y2="1" id="master_svg2_230_02002"><stop offset="2.9999950900673866%" stop-color="#0CDCE2" stop-opacity="0.07999999821186066"/><stop offset="73.92604351043701%" stop-color="#62FFFF" stop-opacity="1"/><stop offset="99.9998927116394%" stop-color="#1EE3E8" stop-opacity="0.05000000074505806"/></linearGradient><linearGradient x1="0.3636363744735718" y1="0" x2="0.3636363744735718" y2="1" id="master_svg3_230_02002"><stop offset="2.9999950900673866%" stop-color="#0CDCE2" stop-opacity="0.07999999821186066"/><stop offset="73.92604351043701%" stop-color="#62FFFF" stop-opacity="1"/><stop offset="99.9998927116394%" stop-color="#1EE3E8" stop-opacity="0.05000000074505806"/></linearGradient><filter id="master_svg4_430_042314" filterUnits="objectBoundingBox" color-interpolation-filters="sRGB" x="0" y="0" width="446.4906311035156" height="232"><feFlood flood-opacity="0" result="BackgroundImageFix"/><feBlend mode="normal" in="SourceGraphic" in2="BackgroundImageFix" result="shape"/><feColorMatrix in="SourceAlpha" type="matrix" result="hardAlpha" values="0 0 0 0 0 0 0 0 0 0 0 0 0 0 0 0 0 0 127 0"/><feOffset dy="0" dx="0"/><feGaussianBlur stdDeviation="4"/><feComposite in2="hardAlpha" operator="arithmetic" k2="-1" k3="1"/><feColorMatrix type="matrix" values="0 0 0 0 0.11764705926179886 0 0 0 0 0.8823529481887817 0 0 0 0 0.9215686321258545 0 0 0 0.5 0"/><feBlend mode="normal" in2="shape" result="effect1_innerShadow"/></filter><linearGradient x1="0.5" y1="1.0021551847457886" x2="0.5" y2="-0.0021551724057644606" id="master_svg5_230_01950"><stop offset="0%" stop-color="#066475" stop-opacity="1"/><stop offset="100%" stop-color="#02707F" stop-opacity="0.20000000298023224"/></linearGradient><linearGradient x1="0.3636363744735718" y1="0" x2="0.3636363744735718" y2="1" id="master_svg6_230_02002"><stop offset="2.9999950900673866%" stop-color="#0CDCE2" stop-opacity="0.07999999821186066"/><stop offset="73.92604351043701%" stop-color="#62FFFF" stop-opacity="1"/><stop offset="99.9998927116394%" stop-color="#1EE3E8" stop-opacity="0.05000000074505806"/></linearGradient><radialGradient cx="0" cy="0" r="1" gradientUnits="userSpaceOnUse" id="master_svg7_230_02304" gradientTransform="translate(227.99950790405273 32.5) rotate(90) scale(8 30.08525341967288)"><stop offset="2.857142873108387%" stop-color="#00FFFF" stop-opacity="1"/><stop offset="100%" stop-color="#FFFFFF" stop-opacity="0"/></radialGradient><radialGradient cx="0" cy="0" r="1" gradientUnits="userSpaceOnUse" id="master_svg8_230_02304" gradientTransform="translate(227.99950790405273 32.5) rotate(90) scale(8 30.08525341967288)"><stop offset="2.857142873108387%" stop-color="#00FFFF" stop-opacity="1"/><stop offset="100%" stop-color="#FFFFFF" stop-opacity="0"/></radialGradient><filter id="master_svg9_430_046094" filterUnits="objectBoundingBox" color-interpolation-filters="sRGB" x="-20" y="-20" width="91.32667541503906" height="49.10468864440918"><feFlood flood-opacity="0" result="BackgroundImageFix"/><feBlend mode="normal" in="SourceGraphic" in2="BackgroundImageFix" result="shape"/><feGaussianBlur stdDeviation="5" result="effect1_foregroundBlur"/></filter><radialGradient cx="0" cy="0" r="1" gradientUnits="userSpaceOnUse" id="master_svga_230_02304" gradientTransform="translate(227.56976890563965 32.05234456062317) rotate(90) scale(4.55234432220459 17.11980333779138)"><stop offset="2.857142873108387%" stop-color="#00FFFF" stop-opacity="1"/><stop offset="100%" stop-color="#FFFFFF" stop-opacity="0"/></radialGradient><filter id="master_svgb_430_046097" filterUnits="objectBoundingBox" color-interpolation-filters="sRGB" x="-20" y="-20" width="130.19823455810547" height="48"><feFlood flood-opacity="0" result="BackgroundImageFix"/><feBlend mode="normal" in="SourceGraphic" in2="BackgroundImageFix" result="shape"/><feGaussianBlur stdDeviation="5" result="effect1_foregroundBlur"/></filter><radialGradient cx="0" cy="0" r="1" gradientUnits="userSpaceOnUse" id="master_svgc_230_02297" gradientTransform="translate(227.99950790405273 32.5) rotate(90) scale(4 30.08525341967288)"><stop offset="0%" stop-color="#FFFFFF" stop-opacity="0.10000000149011612"/><stop offset="100%" stop-color="#00FFFF" stop-opacity="1"/></radialGradient><radialGradient cx="0" cy="0" r="1" gradientUnits="userSpaceOnUse" id="master_svgd_230_02297" gradientTransform="translate(227.99950790405273 32.5) rotate(90) scale(4 30.08525341967288)"><stop offset="0%" stop-color="#FFFFFF" stop-opacity="0.10000000149011612"/><stop offset="100%" stop-color="#00FFFF" stop-opacity="1"/></radialGradient><filter id="master_svge_430_046099" filterUnits="objectBoundingBox" color-interpolation-filters="sRGB" x="-20" y="-20" width="91.32667541503906" height="44.55234432220459"><feFlood flood-opacity="0" result="BackgroundImageFix"/><feBlend mode="normal" in="SourceGraphic" in2="BackgroundImageFix" result="shape"/><feGaussianBlur stdDeviation="5" result="effect1_foregroundBlur"/></filter><radialGradient cx="0" cy="0" r="1" gradientUnits="userSpaceOnUse" id="master_svgf_230_02297" gradientTransform="translate(227.56976890563965 32.276172280311584) rotate(90) scale(2.276172161102295 17.11980333779138)"><stop offset="0%" stop-color="#FFFFFF" stop-opacity="0.10000000149011612"/><stop offset="100%" stop-color="#00FFFF" stop-opacity="1"/></radialGradient><linearGradient x1="-0.0011013215407729149" y1="0.5" x2="1.0011013746261597" y2="0.5" id="master_svgg_230_02363"><stop offset="0%" stop-color="#0CDCE2" stop-opacity="0.07999999821186066"/><stop offset="50%" stop-color="#62FFFF" stop-opacity="1"/><stop offset="100%" stop-color="#1EE3E8" stop-opacity="0.05000000074505806"/></linearGradient></defs><g style="mix-blend-mode:passthrough"><g style="opacity:0.5;"><ellipse cx="3.336233377456665" cy="68.9999828338623" rx="2.836233377456665" ry="2.8299999237060547" stroke="url(#master_svg0_230_10419)" fill-opacity="0" fill="none" stroke-width="1"/></g><g transform="matrix(-1,0,0,1,911,0)"><path d="M466.8856,24.832386L458.87682,33.832390000000004L458.5033,33.5L459.0033,33.5L459.0033,65.5L458.0033,65.5L458.0033,33.30974L466.1386,24.167614L466.8856,24.832386ZM458.5033,72Q457.05234,72,456.026285,70.9751Q455,69.9499,455,68.5Q455,67.0501,456.026285,66.0249Q457.05234,65,458.5033,65Q459.95426,65,460.98032,66.0249Q462.0066,67.0501,462.0066,68.5Q462.0066,69.9499,460.98032,70.9751Q459.95426,72,458.5033,72L458.5033,72ZM458.5033,71Q459.54037,71,460.2736,70.2676Q461.0066,69.53540000000001,461.0066,68.5Q461.0066,67.46459999999999,460.2736,66.7324Q459.54037,66,458.5033,66Q457.46623,66,456.733,66.7324Q456,67.46459999999999,456,68.5Q456,69.53540000000001,456.733,70.2676Q457.46623,71,458.5033,71L458.5033,71Z" fill="url(#master_svg1_230_02002)" fill-opacity="0.20000000298023224"/></g><g style="mix-blend-mode:passthrough" transform="matrix(1,0,0,-1,0,529)"><g transform="matrix(-1,0,0,1,911,0)"><path d="M466.8856,264.832386L458.87682,273.83239L458.5033,273.5L459.0033,273.5L459.0033,305.5L458.0033,305.5L458.0033,273.30974L466.1386,264.167614L466.8856,264.832386ZM458.5033,312Q457.05234,312,456.026285,310.9751Q455,309.9499,455,308.5Q455,307.0501,456.026285,306.0249Q457.05234,305,458.5033,305Q459.95426,305,460.98032,306.0249Q462.0066,307.0501,462.0066,308.5Q462.0066,309.9499,460.98032,310.9751Q459.95426,312,458.5033,312L458.5033,312ZM458.5033,311Q459.54037,311,460.2736,310.2676Q461.0066,309.5354,461.0066,308.5Q461.0066,307.4646,460.2736,306.7324Q459.54037,306,458.5033,306Q457.46623,306,456.733,306.7324Q456,307.4646,456,308.5Q456,309.5354,456.733,310.2676Q457.46623,311,458.5033,311L458.5033,311Z" fill="url(#master_svg2_230_02002)" fill-opacity="0.20000000298023224"/></g><g><path d="M11.8856,264.832386L3.87682,273.83239L3.5033,273.5L4.003299999999999,273.5L4.003299999999999,305.5L3.0033,305.5L3.0033,273.30974L11.1386,264.167614L11.8856,264.832386ZM3.5033,312Q2.05234,312,1.0262850000000001,310.9751Q0,309.9499,0,308.5Q0,307.0501,1.0262850000000001,306.0249Q2.05234,305,3.5033,305Q4.95426,305,5.98032,306.0249Q7.0066,307.0501,7.0066,308.5Q7.0066,309.9499,5.98032,310.9751Q4.95426,312,3.5033,312L3.5033,312ZM3.5033,311Q4.54037,311,5.2736,310.2676Q6.0066,309.5354,6.0066,308.5Q6.0066,307.4646,5.2736,306.7324Q4.54037,306,3.5033,306Q2.46623,306,1.733,306.7324Q1,307.4646,1,308.5Q1,309.5354,1.733,310.2676Q2.46623,311,3.5033,311L3.5033,311Z" fill="url(#master_svg3_230_02002)" fill-opacity="0.20000000298023224"/></g></g><g style="opacity:0.20000000298023224;" filter="url(#master_svg4_430_042314)"><path d="M442.9907890625,72.5L442.9907890625,37.5L434.9817890625,28.5L269.0997890625,28.5L258.7877890625,34.5L196.7197890625,34.5L186.4087890625,28.5L20.5263890625,28.5L12.5175890625,37.5L12.5175890625,72.5L4.5087890625,79.37L4.5087890625,207.5L12.5175890625,214.94L12.5175890625,252.5L20.5263890625,260.5L174.6957890625,260.5L185.7077890625,253.5L269.8007890625,253.5L280.8127890625,260.5L434.9817890625,260.5L442.9907890625,252.5L442.9907890625,214.94L450.9997890625,207.5L450.9997890625,79.37L442.9907890625,72.5Z" fill="#1E8BFF" fill-opacity="1"/><path d="M442.9907890625,72.5L442.9907890625,37.5L434.9817890625,28.5L269.0997890625,28.5L258.7877890625,34.5L196.7197890625,34.5L186.4087890625,28.5L20.5263890625,28.5L12.5175890625,37.5L12.5175890625,72.5L4.5087890625,79.37L4.5087890625,207.5L12.5175890625,214.94L12.5175890625,252.5L20.5263890625,260.5L174.6957890625,260.5L185.7077890625,253.5L269.8007890625,253.5L280.8127890625,260.5L434.9817890625,260.5L442.9907890625,252.5L442.9907890625,214.94L450.9997890625,207.5L450.9997890625,79.37L442.9907890625,72.5ZM449.9997890625,79.8297L441.9907890625,72.9597L441.9907890625,37.88051L434.5327890625,29.5L269.3697890625,29.5L259.0577890625,35.5L196.4497890625,35.5L186.1387890625,29.5L20.9750890625,29.5L13.5175890625,37.88051L13.5175890625,72.9597L5.5087890625,79.8297L5.5087890625,207.064L13.5175890625,214.504L13.5175890625,252.085L20.9402890625,259.5L174.4047890625,259.5L185.4167890625,252.5L270.0907890625,252.5L281.1037890625,259.5L434.5677890625,259.5L441.9907890625,252.085L441.9907890625,214.504L449.9997890625,207.064L449.9997890625,79.8297Z" fill-rule="evenodd" fill="url(#master_svg5_230_01950)" fill-opacity="1"/></g><g><path d="M11.8856,24.832386L3.87682,33.832390000000004L3.5033,33.5L4.003299999999999,33.5L4.003299999999999,65.5L3.0033,65.5L3.0033,33.30974L11.1386,24.167614L11.8856,24.832386ZM3.5033,72Q2.05234,72,1.0262850000000001,70.9751Q0,69.9499,0,68.5Q0,67.0501,1.0262850000000001,66.0249Q2.05234,65,3.5033,65Q4.95426,65,5.98032,66.0249Q7.0066,67.0501,7.0066,68.5Q7.0066,69.9499,5.98032,70.9751Q4.95426,72,3.5033,72L3.5033,72ZM3.5033,71Q4.54037,71,5.2736,70.2676Q6.0066,69.53540000000001,6.0066,68.5Q6.0066,67.46459999999999,5.2736,66.7324Q4.54037,66,3.5033,66Q2.46623,66,1.733,66.7324Q1,67.46459999999999,1,68.5Q1,69.53540000000001,1.733,70.2676Q2.46623,71,3.5033,71L3.5033,71Z" fill="url(#master_svg6_230_02002)" fill-opacity="0.20000000298023224"/></g><g><path d="M8.0087890625,52.5L8.0087890625,33.30974L16.2932190625,24L34.036889062499995,24L34.036889062499995,25L16.5175890625,25L16.5175890625,24.5L16.8911090625,24.832386L8.8823120625,33.832390000000004L8.5087890625,33.5L9.0087890625,33.5L9.0087890625,52.5L8.0087890625,52.5Z" fill="#FFB031" fill-opacity="1"/></g><g><path d="M421.462890625,24L439.206490625,24L447.490990625,33.30974L447.490990625,52.5L446.490990625,52.5L446.490990625,33.5L446.990990625,33.5L446.617390625,33.832390000000004L438.608590625,24.832386L438.982190625,24.5L438.982190625,25L421.462890625,25L421.462890625,24Z" fill="#FFB031" fill-opacity="1"/></g><g style="mix-blend-mode:passthrough"><g style="opacity:0.699999988079071;"><g style="mix-blend-mode:passthrough"><g style="opacity:0.5;"><path d="M220.062990625,40.3752C244.588190625,41.148399999999995,268.015890625,38.2488,272.389690625,33.89062C276.763590625,29.532429999999998,260.445190625,25.332399,235.935990625,24.611892C211.426790625,23.891384,187.983140625,26.7207,183.609304625,31.07889C179.235470625,35.4371,195.553790625,39.5844,220.062990625,40.3752Z" fill="url(#master_svg7_230_02304)" fill-opacity="0.699999988079071"/></g><g style="opacity:0.5;mix-blend-mode:soft-light"><path d="M220.062990625,40.3752C244.588190625,41.148399999999995,268.015890625,38.2488,272.389690625,33.89062C276.763590625,29.532429999999998,260.445190625,25.332399,235.935990625,24.611892C211.426790625,23.891384,187.983140625,26.7207,183.609304625,31.07889C179.235470625,35.4371,195.553790625,39.5844,220.062990625,40.3752Z" fill="url(#master_svg8_230_02304)" fill-opacity="0.699999988079071" style="mix-blend-mode:soft-light"/></g><g style="opacity:0.5;" filter="url(#master_svg9_430_046094)"><path d="M223.0535311981201,36.53367023841858C237.00943119812013,36.97367023841858,250.3408311981201,35.32367023841858,252.8297311981201,32.84367023841858C255.3186311981201,30.363670238418578,246.03273119812013,27.97367123841858,232.0859311981201,27.56367133841858C218.1391311981201,27.15367123841858,204.79873119812012,28.76367023841858,202.30983419812011,31.24367023841858C199.82093119812012,33.72367023841858,209.10677119812013,36.08367023841858,223.0535311981201,36.53367023841858Z" fill="url(#master_svga_230_02304)" fill-opacity="0.699999988079071"/></g></g><g style="mix-blend-mode:passthrough" filter="url(#master_svgb_430_046097)"><g style="opacity:0.5;"><path d="M220.062990625,36.4376C244.588190625,36.82421,268.015890625,35.37441,272.389690625,33.19531C276.763590625,31.01622,260.445190625,28.9162,235.935990625,28.5559458C211.426790625,28.195692,187.983140625,29.61035,183.609304625,31.78944C179.235470625,33.96854,195.553790625,36.0422,220.062990625,36.4376Z" fill="url(#master_svgc_230_02297)" fill-opacity="1"/></g><g style="opacity:0.5;mix-blend-mode:soft-light"><path d="M220.062990625,36.4376C244.588190625,36.82421,268.015890625,35.37441,272.389690625,33.19531C276.763590625,31.01622,260.445190625,28.9162,235.935990625,28.5559458C211.426790625,28.195692,187.983140625,29.61035,183.609304625,31.78944C179.235470625,33.96854,195.553790625,36.0422,220.062990625,36.4376Z" fill="url(#master_svgd_230_02297)" fill-opacity="1" style="mix-blend-mode:soft-light"/></g><g style="opacity:0.5;" filter="url(#master_svge_430_046099)"><path d="M223.0535311981201,34.51684011920929C237.00943119812013,34.73684011920929,250.3408311981201,33.91183011920929,252.8297311981201,32.67184011920929C255.3186311981201,31.43184011920929,246.03273119812013,30.23683511920929,232.0859311981201,30.03183571920929C218.1391311981201,29.82683611920929,204.79873119812012,30.63183611920929,202.30983419812011,31.87184011920929C199.82093119812012,33.11184011920929,209.10677119812013,34.29184011920929,223.0535311981201,34.51684011920929Z" fill="url(#master_svgf_230_02297)" fill-opacity="1"/></g></g></g></g><g><path d="M189.357421875,27L197.085911875,31.5L258.413321875,31.5L266.141821875,27L189.357421875,27Z" fill="#FEFEF4" fill-opacity="1"/></g><g><path d="M455.174,79.7495L446.991,72.7299L446.991,33.5L447.491,33.5L447.117,33.832390000000004L439.108,24.832386L439.482,24.5L439.482,25L17.0176,25L17.0176,24.5L17.3911,24.832386L9.38232,33.832390000000004L9.0088,33.5L9.5088,33.5L9.5088,72.7299L1.325541,79.7495L1,79.37L1.5,79.37L1.5,207.5L1,207.5L1.340306,207.134L9.5088,214.722L9.5088,256.5L9.0088,256.5L9.36216,256.14599999999996L17.371,264.14599999999996L17.0176,264.5L17.0176,264L439.482,264L439.482,264.5L439.129,264.14599999999996L447.137,256.14599999999996L447.491,256.5L446.991,256.5L446.991,214.722L455.159,207.134L455.499,207.5L454.999,207.5L454.999,79.37L455.499,79.37L455.174,79.7495ZM455.999,79.1402L455.999,207.718L447.831,215.306L447.491,214.94L447.991,214.94L447.991,256.707L439.689,265L16.8107,265L8.5088,256.707L8.5088,214.94L9.0088,214.94L8.66849,215.306L0.5,207.718L0.5,79.1402L8.68326,72.12049999999999L9.0088,72.5L8.5088,72.5L8.5088,33.30974L16.7932,24L439.706,24L447.991,33.30974L447.991,72.5L447.491,72.5L447.816,72.12049999999999L455.825,78.9905L455.999,79.1402Z" fill="url(#master_svgg_230_02363)" fill-opacity="1"/></g><g><path d="M182.19921875,261.5L274.30041875,261.5L268.29381875,257.5L188.20581875,257.5L182.19921875,261.5Z" fill="#066475" fill-opacity="1"/></g><g><path d="M9.0087890625,236.5L9.0087890625,255.5L8.5087890625,255.5L8.8823120625,255.1676L16.8911090625,264.1676L16.5175890625,264.5L16.5175890625,264L34.036889062499995,264L34.036889062499995,265L16.2932190625,265L8.0087890625,255.6903L8.0087890625,236.5L9.0087890625,236.5Z" fill="#FFB031" fill-opacity="1"/></g><g><path d="M421.92578125,264L439.46428125,264L439.46428125,264.5L439.09098125,264.1674L447.10858125,255.1674L447.48198125,255.5L446.98198125,255.5L446.98198125,236.5L447.98198125,236.5L447.98198125,255.6904L439.68858124999997,265L421.92578125,265L421.92578125,264Z" fill="#FFB031" fill-opacity="1"/></g></g></svg>