<svg xmlns="http://www.w3.org/2000/svg" xmlns:xlink="http://www.w3.org/1999/xlink" fill="none" version="1.1" width="371.86328125" height="91.1337890625" viewBox="0 0 371.86328125 91.1337890625"><defs><linearGradient x1="3.552713678800501e-15" y1="0.5000914335250854" x2="1" y2="0.5000914335250854" id="master_svg0_230_13964"><stop offset="0%" stop-color="#0B454A" stop-opacity="0.10000000149011612"/><stop offset="99.00000095367432%" stop-color="#038CA2" stop-opacity="0.699999988079071"/></linearGradient><linearGradient x1="-0.013247613795101643" y1="0.5008228421211243" x2="1.0235729217529297" y2="0.5008228421211243" id="master_svg1_230_13939"><stop offset="0%" stop-color="#04B3B6" stop-opacity="0"/><stop offset="50%" stop-color="#0D747A" stop-opacity="1"/><stop offset="100%" stop-color="#5DC6CD" stop-opacity="0"/></linearGradient><linearGradient x1="-8.881784197001252e-16" y1="0.4999106526374817" x2="1" y2="0.4999106526374817" id="master_svg2_230_13960"><stop offset="0%" stop-color="#0B454A" stop-opacity="0.10000000149011612"/><stop offset="99.00000095367432%" stop-color="#038CA2" stop-opacity="0.699999988079071"/></linearGradient><linearGradient x1="-0.013247613795101643" y1="0.5008228421211243" x2="1.0235729217529297" y2="0.5008228421211243" id="master_svg3_230_13939"><stop offset="0%" stop-color="#04B3B6" stop-opacity="0"/><stop offset="50%" stop-color="#0D747A" stop-opacity="1"/><stop offset="100%" stop-color="#5DC6CD" stop-opacity="0"/></linearGradient><linearGradient x1="3.552713678800501e-15" y1="0.5" x2="1" y2="0.5" id="master_svg4_230_13952"><stop offset="0%" stop-color="#0B454A" stop-opacity="0.10000000149011612"/><stop offset="99.00000095367432%" stop-color="#038CA2" stop-opacity="0.699999988079071"/></linearGradient><linearGradient x1="-0.013247613795101643" y1="0.5008228421211243" x2="1.0235729217529297" y2="0.5008228421211243" id="master_svg5_230_13939"><stop offset="0%" stop-color="#04B3B6" stop-opacity="0"/><stop offset="50%" stop-color="#0D747A" stop-opacity="1"/><stop offset="100%" stop-color="#5DC6CD" stop-opacity="0"/></linearGradient><linearGradient x1="-6.661338147750939e-15" y1="0.5" x2="1" y2="0.5" id="master_svg6_230_13948"><stop offset="0%" stop-color="#0B454A" stop-opacity="0.10000000149011612"/><stop offset="99.00000095367432%" stop-color="#038CA2" stop-opacity="0.699999988079071"/></linearGradient><linearGradient x1="-0.013247613795101643" y1="0.5008228421211243" x2="1.0235729217529297" y2="0.5008228421211243" id="master_svg7_230_13939"><stop offset="0%" stop-color="#04B3B6" stop-opacity="0"/><stop offset="50%" stop-color="#0D747A" stop-opacity="1"/><stop offset="100%" stop-color="#5DC6CD" stop-opacity="0"/></linearGradient><linearGradient x1="6.217248937900877e-15" y1="0.5" x2="1" y2="0.5" id="master_svg8_230_13956"><stop offset="0%" stop-color="#0B454A" stop-opacity="0.10000000149011612"/><stop offset="99.00000095367432%" stop-color="#038CA2" stop-opacity="0.699999988079071"/></linearGradient><linearGradient x1="-0.013247613795101643" y1="0.5008228421211243" x2="1.0235729217529297" y2="0.5008228421211243" id="master_svg9_230_13939"><stop offset="0%" stop-color="#04B3B6" stop-opacity="0"/><stop offset="50%" stop-color="#0D747A" stop-opacity="1"/><stop offset="100%" stop-color="#5DC6CD" stop-opacity="0"/></linearGradient><linearGradient x1="-1.4432899320127035e-15" y1="0.4999128580093384" x2="0.999815821647644" y2="0.4999128580093384" id="master_svga_230_13936"><stop offset="0%" stop-color="#0B454A" stop-opacity="0.10000000149011612"/><stop offset="99.00000095367432%" stop-color="#038CA2" stop-opacity="0.699999988079071"/></linearGradient><linearGradient x1="-0.013247613795101643" y1="0.5008228421211243" x2="1.0235729217529297" y2="0.5008228421211243" id="master_svgb_230_13939"><stop offset="0%" stop-color="#04B3B6" stop-opacity="0"/><stop offset="50%" stop-color="#0D747A" stop-opacity="1"/><stop offset="100%" stop-color="#5DC6CD" stop-opacity="0"/></linearGradient><linearGradient x1="2.7755575615628914e-17" y1="0.5" x2="1" y2="0.5" id="master_svgc_230_13944"><stop offset="0%" stop-color="#0B454A" stop-opacity="0.10000000149011612"/><stop offset="99.00000095367432%" stop-color="#038CA2" stop-opacity="0.699999988079071"/></linearGradient><linearGradient x1="-0.013247613795101643" y1="0.5008228421211243" x2="1.0235729217529297" y2="0.5008228421211243" id="master_svgd_230_13939"><stop offset="0%" stop-color="#04B3B6" stop-opacity="0"/><stop offset="50%" stop-color="#0D747A" stop-opacity="1"/><stop offset="100%" stop-color="#5DC6CD" stop-opacity="0"/></linearGradient></defs><g style="mix-blend-mode:passthrough"><g style="opacity:0.20000000298023224;"><path d="M345.36165336914064,35.85004425048828L370.65235336914066,37.93004425048828L343.2016533691406,62.16004425048828L366.33225336914063,90.54004425048828L341.0415533691406,88.47004425048829L319.3209533691406,60.20004425048828L345.36165336914064,35.85004425048828Z" fill="url(#master_svg0_230_13964)" fill-opacity="1"/><path d="M318.9794543691406,59.83484425048828L345.1819533691406,35.33357425048828L371.86345336914064,37.52796425048828L343.5324533691406,62.53494425048828L343.2016533691406,62.16004425048828L343.5891533691406,61.844144250488284L367.4614533691406,91.13414425048828L340.7799533691406,88.95034425048829L318.64796636914065,60.144844250488276L318.9794543691406,59.83484425048828ZM319.6624523691406,60.56524425048828L319.3209533691406,60.20004425048828L319.7174383691406,59.89544425048828L341.4380533691406,88.16544425048828L341.0415533691406,88.47004425048829L341.0823533691406,87.97174425048829L366.3730533691406,90.04174425048828L366.33225336914063,90.54004425048828L365.9446533691406,90.85594425048828L342.5103533691406,62.10334425048828L370.3214533691406,37.55518425048828L370.65235336914066,37.93004425048828L370.6113533691406,38.42836425048828L345.32065336914064,36.34836225048828L345.36165336914064,35.85004425048828L345.70315336914064,36.21525425048828L319.6624523691406,60.56524425048828Z" fill="url(#master_svg1_230_13939)" fill-opacity="1"/></g><g style="opacity:0.30000001192092896;"><path d="M300.41041313476563,33.760032653808594L325.51111313476565,37.52003265380859L296.50031313476563,59.860032653808595L317.6809131347656,89.73003265380859L292.58021313476564,85.9600326538086L272.7997131347656,56.31003265380859L300.41041313476563,33.760032653808594Z" fill="url(#master_svg2_230_13960)" fill-opacity="1"/><path d="M272.4834351347656,55.922732653808595L300.2656131347656,33.23275765380859L326.7468131347656,37.199552653808595L296.8054131347656,60.256232653808596L296.50031313476563,59.860032653808595L296.9082131347656,59.570832653808594L318.76821313476563,90.3989326538086L292.2871131347656,86.42163265380859L272.13186213476564,56.20993265380859L272.4834351347656,55.922732653808595ZM273.11599113476564,56.697332653808594L272.7997131347656,56.31003265380859L273.2156481347656,56.032532653808595L292.99621313476564,85.6825326538086L292.58021313476564,85.9600326538086L292.65451313476564,85.4655326538086L317.75521313476565,89.2356326538086L317.6809131347656,89.73003265380859L317.2731131347656,90.01923265380859L295.81441313476563,59.7571326538086L325.20611313476564,37.12388265380859L325.51111313476565,37.52003265380859L325.4370131347656,38.01452265380859L300.3364131347656,34.254515653808596L300.41041313476563,33.760032653808594L300.72671313476565,34.1472906538086L273.11599113476564,56.697332653808594Z" fill="url(#master_svg3_230_13939)" fill-opacity="1"/></g><g style="opacity:0.4000000059604645;"><path d="M246.81897993164063,29.620033264160156L271.7795799316406,34.200033264160155L242.05877993164063,55.58003326416016L262.25937993164064,86.12003326416016L237.28867993164062,81.54003326416016L218.47817993164062,51.26003326416016L246.81897993164063,29.620033264160156Z" fill="url(#master_svg4_230_13952)" fill-opacity="1"/><path d="M218.17474093164063,50.86263326416015L246.69147993164063,29.088292264160156L273.0248799316406,33.920173264160155L242.35077993164063,55.98593326416015L242.05877993164063,55.58003326416016L242.47587993164063,55.30423326416016L263.3242799316406,86.82373326416015L236.98077993164063,81.99193326416015L217.8138639316406,51.13823326416016L218.17474093164063,50.86263326416015ZM218.78161893164062,51.65743326416016L218.47817993164062,51.26003326416016L218.90289893164064,50.99623326416015L237.71337993164062,81.27623326416015L237.28867993164062,81.54003326416016L237.37887993164063,81.04823326416016L262.3495799316406,85.62823326416016L262.25937993164064,86.12003326416016L261.8423799316406,86.39583326416016L241.37657993164063,55.45493326416016L271.48757993164065,33.794143264160155L271.7795799316406,34.200033264160155L271.68937993164064,34.691823264160156L246.7286799316406,30.111823264160158L246.81897993164063,29.620033264160156L247.12237993164064,30.017431264160155L218.78161893164062,51.65743326416016Z" fill="url(#master_svg5_230_13939)" fill-opacity="1"/></g><g style="opacity:0.5;"><path d="M189.947450390625,23.680030822753906L214.788150390625,28.900030822753905L184.517250390625,49.510030822753905L203.917850390625,80.5600308227539L179.077150390625,75.33003082275391L161.066650390625,44.57003082275391L189.947450390625,23.680030822753906Z" fill="url(#master_svg6_230_13948)" fill-opacity="1"/><path d="M160.773613390625,44.1649308227539L189.833750390625,23.145209822753905L216.04045039062498,28.652270822753906L184.798650390625,49.92333082275391L184.517250390625,49.510030822753905L184.941350390625,49.24513082275391L204.964350390625,81.2913308227539L178.757550390625,75.7737308227539L160.405808390625,44.43093082275391L160.773613390625,44.1649308227539ZM161.359687390625,44.97513082275391L161.066650390625,44.57003082275391L161.498129390625,44.317430822753906L179.508650390625,75.07743082275391L179.077150390625,75.33003082275391L179.180150390625,74.8407308227539L204.02085039062501,80.07073082275392L203.917850390625,80.5600308227539L203.493750390625,80.82493082275391L183.838550390625,49.36733082275391L214.506750390625,28.486730822753906L214.788150390625,28.900030822753905L214.68525039062501,29.38934082275391L189.844650390625,24.169343822753905L189.947450390625,23.680030822753906L190.240450390625,24.085159822753905L161.359687390625,44.97513082275391Z" fill="url(#master_svg7_230_13939)" fill-opacity="1"/></g><g style="opacity:0.6000000238418579;"><path d="M137.55603376464845,17.03003692626953L162.28673376464843,22.75003692626953L131.60583376464842,42.75003692626953L150.38633376464844,74.19003692626953L125.65573376464843,68.46003692626954L108.25523376464844,37.35003692626953L137.55603376464845,17.03003692626953Z" fill="url(#master_svg8_230_13956)" fill-opacity="1"/><path d="M107.97029876464843,36.939136926269526L137.45303376464844,16.493009926269533L163.54363376464843,22.52754692626953L131.87893376464842,43.16893692626953L131.60583376464842,42.75003692626953L132.03513376464844,42.49363692626953L151.41813376464845,74.94233692626953L125.32733376464844,68.89723692626953L107.59723676464844,37.19783692626953L107.97029876464843,36.939136926269526ZM108.54016876464844,37.76093692626953L108.25523376464844,37.35003692626953L108.69161276464844,37.105936926269536L126.09213376464844,68.21593692626953L125.65573376464843,68.46003692626954L125.76853376464844,67.97293692626954L150.49923376464844,73.70293692626953L150.38633376464844,74.19003692626953L149.95713376464843,74.44643692626954L130.93003376464844,42.59373692626953L162.01363376464843,22.33117692626953L162.28673376464843,22.75003692626953L162.17403376464844,23.23717692626953L137.44333376464843,17.51717692626953L137.55603376464845,17.03003692626953L137.84093376464844,17.44090392626953L108.54016876464844,37.76093692626953Z" fill="url(#master_svg9_230_13939)" fill-opacity="1"/></g><g style="opacity:0.699999988079071;"><path d="M83.44457700805664,9.150039672851562L108.06527700805664,15.320039672851562L77.02437700805663,34.750039672851564L95.22487700805664,66.52003967285157L70.60427700805664,60.350039672851565L53.77377700805664,28.920039672851562L83.44457700805664,9.150039672851562Z" fill="url(#master_svga_230_13936)" fill-opacity="1"/><path d="M53.49652900805664,28.503939672851562L83.35147700805663,8.611246672851562L109.32627700805665,15.120589672851562L77.28967700805664,35.173839672851564L77.02437700805663,34.750039672851564L77.45827700805664,34.501539672851564L96.24257700805664,67.29053967285157L70.26797700805665,60.78123967285156L53.11862500805664,28.75573967285156L53.49652900805664,28.503939672851562ZM54.05102500805664,29.336139672851562L53.77377700805664,28.920039672851562L54.21455800805664,28.68403967285156L71.04497700805663,60.11403967285156L70.60427700805664,60.350039672851565L70.72577700805664,59.865039672851566L95.34647700805664,66.03503967285155L95.22487700805664,66.52003967285157L94.79107700805665,66.76853967285156L76.35147700805663,34.58133967285156L107.79997700805664,14.896219672851561L108.06527700805664,15.320039672851562L107.94367700805664,15.805039672851564L83.32307700805664,9.635041672851562L83.44457700805664,9.150039672851562L83.72187700805664,9.566132672851563L54.05102500805664,29.336139672851562Z" fill="url(#master_svgb_230_13939)" fill-opacity="1"/></g><g><g><path d="M30.63314375,0.5400390625L55.15384375,7.1100390625L23.80294375,26.0400390625L41.48344375,58.1000390625L16.97274375,51.5300390625L0.65234375,19.8300390625L30.63314375,0.5400390625Z" fill="url(#master_svgc_230_13944)" fill-opacity="1"/><path d="M0.38179975,19.4095390625L30.54874375,-0.000210937500000008L56.41764375,6.9310190625L24.06144375,26.4680390625L23.80294375,26.0400390625L24.24084375,25.7985390625L42.48844375,58.8870390625L16.62954375,51.9556390625L-0.000030250000000009436,19.6552390625L0.38179975,19.4095390625ZM0.92288775,20.2505390625L0.65234375,19.8300390625L1.09688775,19.6011390625L17.41734375,51.3011390625L16.97274375,51.5300390625L17.10224375,51.0470390625L41.61294375,57.6170390625L41.48344375,58.1000390625L41.04564375,58.3415390625L23.13294375,25.8605390625L54.89534375,6.6820090625L55.15384375,7.1100390625L55.02444375,7.5929990625L30.50374375,1.0230030625L30.63314375,0.5400390625L30.90374375,0.9605220624999999L0.92288775,20.2505390625Z" fill="url(#master_svgd_230_13939)" fill-opacity="1"/></g></g></g></svg>