<svg xmlns="http://www.w3.org/2000/svg" xmlns:xlink="http://www.w3.org/1999/xlink" fill="none" version="1.1" width="16" height="16" viewBox="0 0 16 16"><g style="mix-blend-mode:passthrough"><g><path d="M11.055352755279541,14.4C11.072532755279541,14.7113,10.835282755279541,14.9785,10.52272275527954,15L3.488302755279541,15C2.294958755279541,14.9727,1.350027255279541,13.9875,1.377996108279541,12.8L1.377996108279541,3.2C1.350027255279541,2.01246,2.294958755279541,1.0273342,3.488302755279541,1L10.52272275527954,1C10.855652755279541,1,11.12552275527954,1.268629,11.12552275527954,1.6C11.12552275527954,1.931372,10.855652755279541,2.2,10.52272275527954,2.2L3.488302755279541,2.2C2.933332755279541,2.2,2.483382755279541,2.64772,2.483382755279541,3.2L2.483382755279541,12.8C2.483382755279541,13.3523,2.933332755279541,13.8,3.488302755279541,13.8L10.52272275527954,13.8C10.835282755279541,13.8215,11.072532755279541,14.0887,11.055352755279541,14.4ZM14.552482755279541,8.32L14.49208275527954,8.379999999999999L11.27641275527954,11.58C11.044312755279542,11.8141,10.664532755279541,11.8141,10.432312755279542,11.58C10.21555275527954,11.3692,10.189672755279542,11.031,10.37196275527954,10.79L10.432312755279542,10.73L12.61298275527954,8.55L6.5835227552795414,8.55C6.402582755279541,8.55,6.251942755279541,8.33,6.221762755279541,8.04L6.221762755279541,8C6.221762755279541,7.7,6.352412755279541,7.45,6.533352755279541,7.41L12.56288275527954,7.41L10.38214275527954,5.23C10.16685275527954,5.02255,10.140842755279541,4.68781,10.321782755279541,4.45L10.38214275527954,4.390000000000001C10.59055275527954,4.17573,10.92704275527954,4.149979999999999,11.166002755279541,4.33L11.22636275527954,4.390000000000001L14.442082755279541,7.59C14.65738275527954,7.79748,14.68338275527954,8.13222,14.502382755279541,8.370000000000001L14.552482755279541,8.32Z" fill="#FEFEF4" fill-opacity="1"/></g></g></svg>