<svg xmlns="http://www.w3.org/2000/svg" xmlns:xlink="http://www.w3.org/1999/xlink" fill="none" version="1.1" width="981" height="647" viewBox="0 0 981 647"><defs><linearGradient x1="12.5" y1="39" x2="968.5" y2="39" id="master_svg0_230_8506"><stop offset="0%" stop-color="#0B454A" stop-opacity="0.10000000149011612"/><stop offset="99.00000095367432%" stop-color="#038CA2" stop-opacity="0.699999988079071"/></linearGradient><linearGradient x1="12" y1="38.75" x2="969" y2="38.75" id="master_svg1_230_8463"><stop offset="0%" stop-color="#04B3B6" stop-opacity="0"/><stop offset="50%" stop-color="#0D747A" stop-opacity="1"/><stop offset="100%" stop-color="#5DC6CD" stop-opacity="0"/></linearGradient><filter id="master_svg2_430_70866" filterUnits="objectBoundingBox" color-interpolation-filters="sRGB" x="0" y="0" width="956" height="44"><feFlood flood-opacity="0" result="BackgroundImageFix"/><feBlend mode="normal" in="SourceGraphic" in2="BackgroundImageFix" result="shape"/><feColorMatrix in="SourceAlpha" type="matrix" result="hardAlpha" values="0 0 0 0 0 0 0 0 0 0 0 0 0 0 0 0 0 0 127 0"/><feOffset dy="0" dx="0"/><feGaussianBlur stdDeviation="4"/><feComposite in2="hardAlpha" operator="arithmetic" k2="-1" k3="1"/><feColorMatrix type="matrix" values="0 0 0 0 0.11764705926179886 0 0 0 0 0.8823529481887817 0 0 0 0 0.9215686321258545 0 0 0 0.5 0"/><feBlend mode="normal" in2="shape" result="effect1_innerShadow"/></filter><linearGradient x1="0" y1="0.5" x2="1" y2="0.5" id="master_svg3_230_09757"><stop offset="0%" stop-color="#0B454A" stop-opacity="0.20000000298023224"/><stop offset="100.00009536743164%" stop-color="#038CA2" stop-opacity="0.699999988079071"/></linearGradient><linearGradient x1="-0.0011013215407729149" y1="0.5" x2="1.0011013746261597" y2="0.5" id="master_svg4_230_02363"><stop offset="0%" stop-color="#0CDCE2" stop-opacity="0.07999999821186066"/><stop offset="50%" stop-color="#62FFFF" stop-opacity="1"/><stop offset="100%" stop-color="#1EE3E8" stop-opacity="0.05000000074505806"/></linearGradient><linearGradient x1="8" y1="36.75" x2="973" y2="36.75" id="master_svg5_230_01958"></linearGradient><linearGradient x1="-0.0011013215407729149" y1="0.5" x2="1.0011013746261597" y2="0.5" id="master_svg6_230_02363"><stop offset="0%" stop-color="#0CDCE2" stop-opacity="0.07999999821186066"/><stop offset="50%" stop-color="#62FFFF" stop-opacity="1"/><stop offset="100%" stop-color="#1EE3E8" stop-opacity="0.05000000074505806"/></linearGradient><linearGradient x1="3.3299999237060547" y1="60.83000183105469" x2="3.3299999237060547" y2="54.16999816894531" id="master_svg7_230_02408"></linearGradient><linearGradient x1="0.3636363744735718" y1="0" x2="0.3636363744735718" y2="1" id="master_svg8_230_02002"><stop offset="2.9999950900673866%" stop-color="#0CDCE2" stop-opacity="0.07999999821186066"/><stop offset="73.92604351043701%" stop-color="#62FFFF" stop-opacity="1"/><stop offset="99.9998927116394%" stop-color="#1EE3E8" stop-opacity="0.05000000074505806"/></linearGradient><linearGradient x1="0.3636363744735718" y1="0" x2="0.3636363744735718" y2="1" id="master_svg9_230_02002"><stop offset="2.9999950900673866%" stop-color="#0CDCE2" stop-opacity="0.07999999821186066"/><stop offset="73.92604351043701%" stop-color="#62FFFF" stop-opacity="1"/><stop offset="99.9998927116394%" stop-color="#1EE3E8" stop-opacity="0.05000000074505806"/></linearGradient><radialGradient cx="0" cy="0" r="1" gradientUnits="userSpaceOnUse" id="master_svga_230_02304" gradientTransform="translate(489.5 32.5) rotate(90) scale(8 33.35459232330322)"><stop offset="2.857142873108387%" stop-color="#00FFFF" stop-opacity="1"/><stop offset="100%" stop-color="#FFFFFF" stop-opacity="0"/></radialGradient><radialGradient cx="0" cy="0" r="1" gradientUnits="userSpaceOnUse" id="master_svgb_230_02304" gradientTransform="translate(489.5 32.5) rotate(90) scale(8 33.35459232330322)"><stop offset="2.857142873108387%" stop-color="#00FFFF" stop-opacity="1"/><stop offset="100%" stop-color="#FFFFFF" stop-opacity="0"/></radialGradient><filter id="master_svgc_430_70861" filterUnits="objectBoundingBox" color-interpolation-filters="sRGB" x="-20" y="-20" width="96.90430068969727" height="49.10468864440918"><feFlood flood-opacity="0" result="BackgroundImageFix"/><feBlend mode="normal" in="SourceGraphic" in2="BackgroundImageFix" result="shape"/><feGaussianBlur stdDeviation="5" result="effect1_foregroundBlur"/></filter><radialGradient cx="0" cy="0" r="1" gradientUnits="userSpaceOnUse" id="master_svgd_230_02304" gradientTransform="translate(489.02356147766113 32.05234456062317) rotate(90) scale(4.55234432220459 18.980197509475147)"><stop offset="2.857142873108387%" stop-color="#00FFFF" stop-opacity="1"/><stop offset="100%" stop-color="#FFFFFF" stop-opacity="0"/></radialGradient><filter id="master_svge_430_70862" filterUnits="objectBoundingBox" color-interpolation-filters="sRGB" x="-20" y="-20" width="140" height="48"><feFlood flood-opacity="0" result="BackgroundImageFix"/><feBlend mode="normal" in="SourceGraphic" in2="BackgroundImageFix" result="shape"/><feGaussianBlur stdDeviation="5" result="effect1_foregroundBlur"/></filter><radialGradient cx="0" cy="0" r="1" gradientUnits="userSpaceOnUse" id="master_svgf_230_02297" gradientTransform="translate(489.5 32.5) rotate(90) scale(4 33.35459232330322)"><stop offset="0%" stop-color="#FFFFFF" stop-opacity="0.10000000149011612"/><stop offset="100%" stop-color="#00FFFF" stop-opacity="1"/></radialGradient><radialGradient cx="0" cy="0" r="1" gradientUnits="userSpaceOnUse" id="master_svgg_230_02297" gradientTransform="translate(489.5 32.5) rotate(90) scale(4 33.35459232330322)"><stop offset="0%" stop-color="#FFFFFF" stop-opacity="0.10000000149011612"/><stop offset="100%" stop-color="#00FFFF" stop-opacity="1"/></radialGradient><filter id="master_svgh_430_70864" filterUnits="objectBoundingBox" color-interpolation-filters="sRGB" x="-20" y="-20" width="96.90430068969727" height="44.55234432220459"><feFlood flood-opacity="0" result="BackgroundImageFix"/><feBlend mode="normal" in="SourceGraphic" in2="BackgroundImageFix" result="shape"/><feGaussianBlur stdDeviation="5" result="effect1_foregroundBlur"/></filter><radialGradient cx="0" cy="0" r="1" gradientUnits="userSpaceOnUse" id="master_svgi_230_02297" gradientTransform="translate(489.02356147766113 32.276172280311584) rotate(90) scale(2.276172161102295 18.980197509475147)"><stop offset="0%" stop-color="#FFFFFF" stop-opacity="0.10000000149011612"/><stop offset="100%" stop-color="#00FFFF" stop-opacity="1"/></radialGradient><radialGradient cx="0" cy="0" r="1" gradientUnits="userSpaceOnUse" id="master_svgj_230_02304" gradientTransform="translate(489.5 32.5) rotate(90) scale(8 26.683673858642578)"><stop offset="2.857142873108387%" stop-color="#00FFFF" stop-opacity="1"/><stop offset="100%" stop-color="#FFFFFF" stop-opacity="0"/></radialGradient><radialGradient cx="0" cy="0" r="1" gradientUnits="userSpaceOnUse" id="master_svgk_230_02304" gradientTransform="translate(489.5 32.5) rotate(90) scale(8 26.683673858642578)"><stop offset="2.857142873108387%" stop-color="#00FFFF" stop-opacity="1"/><stop offset="100%" stop-color="#FFFFFF" stop-opacity="0"/></radialGradient><filter id="master_svgl_430_70855" filterUnits="objectBoundingBox" color-interpolation-filters="sRGB" x="-20" y="-20" width="85.52344131469727" height="49.10468864440918"><feFlood flood-opacity="0" result="BackgroundImageFix"/><feBlend mode="normal" in="SourceGraphic" in2="BackgroundImageFix" result="shape"/><feGaussianBlur stdDeviation="5" result="effect1_foregroundBlur"/></filter><radialGradient cx="0" cy="0" r="1" gradientUnits="userSpaceOnUse" id="master_svgm_230_02304" gradientTransform="translate(489.1188507080078 32.05234456062317) rotate(90) scale(4.55234432220459 15.18415826205546)"><stop offset="2.857142873108387%" stop-color="#00FFFF" stop-opacity="1"/><stop offset="100%" stop-color="#FFFFFF" stop-opacity="0"/></radialGradient><filter id="master_svgn_430_70849" filterUnits="objectBoundingBox" color-interpolation-filters="sRGB" x="-20" y="-20" width="120" height="48"><feFlood flood-opacity="0" result="BackgroundImageFix"/><feBlend mode="normal" in="SourceGraphic" in2="BackgroundImageFix" result="shape"/><feGaussianBlur stdDeviation="5" result="effect1_foregroundBlur"/></filter><radialGradient cx="0" cy="0" r="1" gradientUnits="userSpaceOnUse" id="master_svgo_230_02297" gradientTransform="translate(489.5 32.5) rotate(90) scale(4 26.683673858642578)"><stop offset="0%" stop-color="#FFFFFF" stop-opacity="0.10000000149011612"/><stop offset="100%" stop-color="#00FFFF" stop-opacity="1"/></radialGradient><radialGradient cx="0" cy="0" r="1" gradientUnits="userSpaceOnUse" id="master_svgp_230_02297" gradientTransform="translate(489.5 32.5) rotate(90) scale(4 26.683673858642578)"><stop offset="0%" stop-color="#FFFFFF" stop-opacity="0.10000000149011612"/><stop offset="100%" stop-color="#00FFFF" stop-opacity="1"/></radialGradient><filter id="master_svgq_430_70852" filterUnits="objectBoundingBox" color-interpolation-filters="sRGB" x="-20" y="-20" width="85.52344131469727" height="44.55234432220459"><feFlood flood-opacity="0" result="BackgroundImageFix"/><feBlend mode="normal" in="SourceGraphic" in2="BackgroundImageFix" result="shape"/><feGaussianBlur stdDeviation="5" result="effect1_foregroundBlur"/></filter><radialGradient cx="0" cy="0" r="1" gradientUnits="userSpaceOnUse" id="master_svgr_230_02297" gradientTransform="translate(489.1188507080078 32.276172280311584) rotate(90) scale(2.276172161102295 15.18415826205546)"><stop offset="0%" stop-color="#FFFFFF" stop-opacity="0.10000000149011612"/><stop offset="100%" stop-color="#00FFFF" stop-opacity="1"/></radialGradient><filter id="master_svgs_430_70868" filterUnits="objectBoundingBox" color-interpolation-filters="sRGB" x="0" y="0" width="956" height="574"><feFlood flood-opacity="0" result="BackgroundImageFix"/><feBlend mode="normal" in="SourceGraphic" in2="BackgroundImageFix" result="shape"/><feColorMatrix in="SourceAlpha" type="matrix" result="hardAlpha" values="0 0 0 0 0 0 0 0 0 0 0 0 0 0 0 0 0 0 127 0"/><feOffset dy="0" dx="0"/><feGaussianBlur stdDeviation="4"/><feComposite in2="hardAlpha" operator="arithmetic" k2="-1" k3="1"/><feColorMatrix type="matrix" values="0 0 0 0 0.11764705926179886 0 0 0 0 0.8823529481887817 0 0 0 0 0.9215686321258545 0 0 0 0.5 0"/><feBlend mode="normal" in2="shape" result="effect1_innerShadow"/></filter><linearGradient x1="0.5" y1="1" x2="0.5" y2="1.096345236817342e-15" id="master_svgt_230_01947"><stop offset="0%" stop-color="#02384B" stop-opacity="1"/><stop offset="100%" stop-color="#002531" stop-opacity="0.5"/></linearGradient><linearGradient x1="0" y1="0.434982031583786" x2="1" y2="0.434982031583786" id="master_svgu_230_01963"><stop offset="0%" stop-color="#04B3B6" stop-opacity="0.05000000074505806"/><stop offset="56.42856955528259%" stop-color="#0D747A" stop-opacity="0.4931506812572479"/><stop offset="100%" stop-color="#5DC6CD" stop-opacity="0.05000000074505806"/></linearGradient><linearGradient x1="0.5" y1="1" x2="0.5" y2="1.096345236817342e-15" id="master_svgv_230_14182"><stop offset="0%" stop-color="#002531" stop-opacity="0.5"/><stop offset="100%" stop-color="#02384B" stop-opacity="1"/></linearGradient><linearGradient x1="0" y1="0.434982031583786" x2="1" y2="0.434982031583786" id="master_svgw_230_01963"><stop offset="0%" stop-color="#04B3B6" stop-opacity="0.05000000074505806"/><stop offset="56.42856955528259%" stop-color="#0D747A" stop-opacity="0.4931506812572479"/><stop offset="100%" stop-color="#5DC6CD" stop-opacity="0.05000000074505806"/></linearGradient></defs><g style="mix-blend-mode:passthrough"><g><path d="M968.5,72.5L968.5,37.5L960.5,28.5L527.8,28.5L517.5,34.5L455.5,34.5L445.2,28.5L20.5,28.5L12.5,37.5L12.5,72.5" fill="url(#master_svg0_230_8506)" fill-opacity="1"/></g><g><path d="M12,72.5L12,37.3099L20.27547,28L445.335,28L455.752,34.06796L455.5,34.5L455.5,34L517.5,34L517.5,34.5L517.248,34.06796L527.665,28L960.725,28L969,37.3099L969,72.5L968,72.5L968,37.5L968.5,37.5L968.126,37.83218L960.126,28.832182L960.5,28.5L960.5,29L527.8,29L527.8,28.5L528.052,28.932041L517.635,35L455.365,35L444.948,28.932041L445.2,28.5L445.2,29L20.5,29L20.5,28.5L20.8737,28.832182L12.873705,37.83218L12.5,37.5L13,37.5L13,72.5L12,72.5Z" fill="url(#master_svg1_230_8463)" fill-opacity="1"/></g><g filter="url(#master_svg2_430_70866)"><path d="M968.5,72.5L968.5,37.5L960.5,28.5L531.8,28.5L521.5,34.5L459.5,34.5L449.2,28.5L20.5,28.5L12.5,37.5L12.5,72.5" fill="url(#master_svg3_230_09757)" fill-opacity="1"/><path d="M12,72.5L12,37.3099L20.27547,28L449.335,28L459.752,34.06796L459.5,34.5L459.5,34L521.5,34L521.5,34.5L521.248,34.06796L531.665,28L960.725,28L969,37.3099L969,72.5L968,72.5L968,37.5L968.5,37.5L968.126,37.83218L960.126,28.832182L960.5,28.5L960.5,29L531.8,29L531.8,28.5L532.052,28.932042L521.635,35L459.365,35L448.948,28.932042L449.2,28.5L449.2,29L20.5,29L20.5,28.5L20.8737,28.832182L12.873705,37.83218L12.5,37.5L13,37.5L13,72.5L12,72.5Z" fill="url(#master_svg4_230_02363)" fill-opacity="1"/></g><g><path d="" fill="url(#master_svg5_230_01958)" fill-opacity="1"/></g><g><g><g><path d="M8,72.5L8,33.3099L16.27547,24L964.725,24L973,33.3099L973,72.5L972,72.5L972,33.5L972.5,33.5L972.126,33.83218L964.126,24.832182L964.5,24.5L964.5,25L16.5,25L16.5,24.5L16.8737,24.832182L8.873705,33.83218L8.5,33.5L9,33.5L9,72.5L8,72.5Z" fill="url(#master_svg6_230_02363)" fill-opacity="1"/></g></g></g><g style="opacity:0.5;"><ellipse cx="3.3299999237060547" cy="69.32999992370605" rx="2.8299999237060547" ry="2.8299999237060547" stroke="url(#master_svg7_230_02408)" fill-opacity="0" fill="none" stroke-width="1"/></g><g><path d="M8,52.5L8,33.3099L16.27547,24L34,24L34,25L16.5,25L16.5,24.5L16.8737,24.832182L8.873705,33.83218L8.5,33.5L9,33.5L9,52.5L8,52.5Z" fill="#FFB031" fill-opacity="1"/></g><g><g><g><path d="M8,52.5L8,33.3099L16.27547,24L34,24L34,25L16.5,25L16.5,24.5L16.8737,24.832182L8.873705,33.83218L8.5,33.5L9,33.5L9,52.5L8,52.5Z" fill="#FFB031" fill-opacity="1"/></g></g></g><g><path d="M946.5,24L964.2245,24L972.5,33.3099L972.5,52.5L971.5,52.5L971.5,33.5L972,33.5L971.6263,33.83218L963.6263,24.832182L964,24.5L964,25L946.5,25L946.5,24Z" fill="#FFB031" fill-opacity="1"/></g><g><g><g><path d="M946.5,24L964.2245,24L972.5,33.3099L972.5,52.5L971.5,52.5L971.5,33.5L972,33.5L971.6263,33.83218L963.6263,24.832182L964,24.5L964,25L946.5,25L946.5,24Z" fill="#FFB031" fill-opacity="1"/></g></g></g><g><path d="M11.8856,24.832386L3.87682,33.832390000000004L3.5033,33.5L4.003299999999999,33.5L4.003299999999999,65.5L3.0033,65.5L3.0033,33.30974L11.1386,24.167614L11.8856,24.832386ZM3.5033,72Q2.05234,72,1.0262850000000001,70.9751Q0,69.9499,0,68.5Q0,67.0501,1.0262850000000001,66.0249Q2.05234,65,3.5033,65Q4.95426,65,5.98032,66.0249Q7.0066,67.0501,7.0066,68.5Q7.0066,69.9499,5.98032,70.9751Q4.95426,72,3.5033,72L3.5033,72ZM3.5033,71Q4.54037,71,5.2736,70.2676Q6.0066,69.53540000000001,6.0066,68.5Q6.0066,67.46459999999999,5.2736,66.7324Q4.54037,66,3.5033,66Q2.46623,66,1.733,66.7324Q1,67.46459999999999,1,68.5Q1,69.53540000000001,1.733,70.2676Q2.46623,71,3.5033,71L3.5033,71Z" fill="url(#master_svg8_230_02002)" fill-opacity="0.20000000298023224"/></g><g transform="matrix(-1,0,0,1,1961,0)"><path d="M991.8856,24.832386L983.87682,33.832390000000004L983.5033,33.5L984.0033,33.5L984.0033,65.5L983.0033,65.5L983.0033,33.30974L991.1386,24.167614L991.8856,24.832386ZM983.5033,72Q982.05234,72,981.026285,70.9751Q980,69.9499,980,68.5Q980,67.0501,981.026285,66.0249Q982.05234,65,983.5033,65Q984.95426,65,985.98032,66.0249Q987.0066,67.0501,987.0066,68.5Q987.0066,69.9499,985.98032,70.9751Q984.95426,72,983.5033,72L983.5033,72ZM983.5033,71Q984.54037,71,985.2736,70.2676Q986.0066,69.53540000000001,986.0066,68.5Q986.0066,67.46459999999999,985.2736,66.7324Q984.54037,66,983.5033,66Q982.46623,66,981.733,66.7324Q981,67.46459999999999,981,68.5Q981,69.53540000000001,981.733,70.2676Q982.46623,71,983.5033,71L983.5033,71Z" fill="url(#master_svg9_230_02002)" fill-opacity="0.20000000298023224"/></g><g><path d="M452.5,27.5L460.22,32L521.48,32L529.2,27.5L452.5,27.5Z" fill="#FEFEF4" fill-opacity="1"/></g><g style="mix-blend-mode:passthrough"><g style="opacity:0.699999988079071;"><g style="mix-blend-mode:passthrough"><g style="opacity:0.5;"><path d="M480.7011,40.3752C507.8913,41.148399999999995,533.8649,38.2488,538.7141,33.89062C543.563,29.532429999999998,525.4715,25.332399,498.2989,24.611892C471.1263,23.891384,445.13509,26.7207,440.285951,31.07889C435.43682,35.4371,453.5284,39.5844,480.7011,40.3752Z" fill="url(#master_svga_230_02304)" fill-opacity="0.699999988079071"/></g><g style="opacity:0.5;mix-blend-mode:soft-light"><path d="M480.7011,40.3752C507.8913,41.148399999999995,533.8649,38.2488,538.7141,33.89062C543.563,29.532429999999998,525.4715,25.332399,498.2989,24.611892C471.1263,23.891384,445.13509,26.7207,440.285951,31.07889C435.43682,35.4371,453.5284,39.5844,480.7011,40.3752Z" fill="url(#master_svgb_230_02304)" fill-opacity="0.699999988079071" style="mix-blend-mode:soft-light"/></g><g style="opacity:0.5;" filter="url(#master_svgc_430_70861)"><path d="M484.0166111328125,36.53367023841858C499.4890111328125,36.97367023841858,514.2691111328124,35.32367023841858,517.0285111328125,32.84367023841858C519.7878111328125,30.363670238418578,509.4929111328125,27.97367123841858,494.0305111328125,27.56367133841858C478.5681111328125,27.15367123841858,463.7780211328125,28.76367023841858,461.0186511328125,31.24367023841858C458.2592811328125,33.72367023841858,468.5542011328125,36.08367023841858,484.0166111328125,36.53367023841858Z" fill="url(#master_svgd_230_02304)" fill-opacity="0.699999988079071"/></g></g><g style="mix-blend-mode:passthrough" filter="url(#master_svge_430_70862)"><g style="opacity:0.5;"><path d="M480.7011,36.4376C507.8913,36.82421,533.8649,35.37441,538.7141,33.19531C543.563,31.01622,525.4715,28.9162,498.2989,28.5559458C471.1263,28.195692,445.13509,29.61035,440.285951,31.78944C435.43682,33.96854,453.5284,36.0422,480.7011,36.4376Z" fill="url(#master_svgf_230_02297)" fill-opacity="1"/></g><g style="opacity:0.5;mix-blend-mode:soft-light"><path d="M480.7011,36.4376C507.8913,36.82421,533.8649,35.37441,538.7141,33.19531C543.563,31.01622,525.4715,28.9162,498.2989,28.5559458C471.1263,28.195692,445.13509,29.61035,440.285951,31.78944C435.43682,33.96854,453.5284,36.0422,480.7011,36.4376Z" fill="url(#master_svgg_230_02297)" fill-opacity="1" style="mix-blend-mode:soft-light"/></g><g style="opacity:0.5;" filter="url(#master_svgh_430_70864)"><path d="M484.0166111328125,34.51684011920929C499.4890111328125,34.73684011920929,514.2691111328124,33.91183011920929,517.0285111328125,32.67184011920929C519.7878111328125,31.43184011920929,509.4929111328125,30.23683511920929,494.0305111328125,30.03183571920929C478.5681111328125,29.82683611920929,463.7780211328125,30.63183611920929,461.0186511328125,31.87184011920929C458.2592811328125,33.11184011920929,468.5542011328125,34.29184011920929,484.0166111328125,34.51684011920929Z" fill="url(#master_svgi_230_02297)" fill-opacity="1"/></g></g></g><g style="opacity:0.5;"><g style="mix-blend-mode:passthrough"><g style="opacity:0.5;"><path d="M482.4609,40.3752C504.2131,41.148399999999995,524.9919,38.2488,528.8712,33.89062C532.7506,29.532429999999998,518.2772,25.332399,496.5391,24.611892C474.8011,23.891384,454.00807,26.7207,450.128761,31.07889C446.24945,35.4371,460.7228,39.5844,482.4609,40.3752Z" fill="url(#master_svgj_230_02304)" fill-opacity="0.699999988079071"/></g><g style="opacity:0.5;mix-blend-mode:soft-light"><path d="M482.4609,40.3752C504.2131,41.148399999999995,524.9919,38.2488,528.8712,33.89062C532.7506,29.532429999999998,518.2772,25.332399,496.5391,24.611892C474.8011,23.891384,454.00807,26.7207,450.128761,31.07889C446.24945,35.4371,460.7228,39.5844,482.4609,40.3752Z" fill="url(#master_svgk_230_02304)" fill-opacity="0.699999988079071" style="mix-blend-mode:soft-light"/></g><g style="opacity:0.5;" filter="url(#master_svgl_430_70855)"><path d="M485.1132300506592,36.53367023841858C497.49123005065917,36.97367023841858,509.31533005065916,35.32367023841858,511.5228300506592,32.84367023841858C513.7303300506592,30.363670238418578,505.4943300506592,27.97367123841858,493.12443005065916,27.56367133841858C480.7545300506592,27.15367123841858,468.9224200506592,28.76367023841858,466.7149220506592,31.24367023841858C464.5074300506592,33.72367023841858,472.7433600506592,36.08367023841858,485.1132300506592,36.53367023841858Z" fill="url(#master_svgm_230_02304)" fill-opacity="0.699999988079071"/></g></g><g style="mix-blend-mode:passthrough" filter="url(#master_svgn_430_70849)"><g style="opacity:0.5;"><path d="M482.4609,36.4376C504.2131,36.82421,524.9919,35.37441,528.8712,33.19531C532.7506,31.01622,518.2772,28.9162,496.5391,28.5559458C474.8011,28.195692,454.00807,29.61035,450.128761,31.78944C446.24945,33.96854,460.7228,36.0422,482.4609,36.4376Z" fill="url(#master_svgo_230_02297)" fill-opacity="1"/></g><g style="opacity:0.5;mix-blend-mode:soft-light"><path d="M482.4609,36.4376C504.2131,36.82421,524.9919,35.37441,528.8712,33.19531C532.7506,31.01622,518.2772,28.9162,496.5391,28.5559458C474.8011,28.195692,454.00807,29.61035,450.128761,31.78944C446.24945,33.96854,460.7228,36.0422,482.4609,36.4376Z" fill="url(#master_svgp_230_02297)" fill-opacity="1" style="mix-blend-mode:soft-light"/></g><g style="opacity:0.5;" filter="url(#master_svgq_430_70852)"><path d="M485.1132300506592,34.51684011920929C497.49123005065917,34.73684011920929,509.31533005065916,33.91183011920929,511.5228300506592,32.67184011920929C513.7303300506592,31.43184011920929,505.4943300506592,30.23683511920929,493.12443005065916,30.03183571920929C480.7545300506592,29.82683611920929,468.9224200506592,30.63183611920929,466.7149220506592,31.87184011920929C464.5074300506592,33.11184011920929,472.7433600506592,34.29184011920929,485.1132300506592,34.51684011920929Z" fill="url(#master_svgr_230_02297)" fill-opacity="1"/></g></g></g></g><g style="mix-blend-mode:passthrough"><g style="mix-blend-mode:passthrough"></g><g style="mix-blend-mode:passthrough"><g style="mix-blend-mode:passthrough"><g style="mix-blend-mode:passthrough"><g><path d="M458.38545051757814,44.29371C456.7708605175781,46.91871,453.8437805175781,49.351,450.9114885175781,50.7156C451.2187805175781,50.9708,451.5677405175781,51.3718,451.74482051757815,51.6948C452.38545051757814,51.3718,453.02607051757815,51.0073,453.65107051757815,50.6062L453.65107051757815,51.6427L457.8750305175781,51.6427L457.8750305175781,54.2416L453.74482051757815,54.2416L453.74482051757815,55.3093L457.8750305175781,55.3093L457.8750305175781,57.976L451.71357051757815,57.976L451.71357051757815,59.064499999999995L465.3646305175781,59.064499999999995L465.3646305175781,57.976L459.11982051757815,57.976L459.11982051757815,55.3093L463.4427305175781,55.3093L463.4427305175781,54.2416L459.11982051757815,54.2416L459.11982051757815,51.6427L463.4427305175781,51.6427L463.4427305175781,50.5906C464.0521305175781,51.0073,464.65623051757814,51.3875,465.2969305175781,51.7625C465.4740305175781,51.4031,465.82813051757813,50.9916,466.1302305175781,50.7468C463.52083051757813,49.33538,461.15623051757814,47.61663,459.1719105175781,45.23642L459.4427405175781,44.80413L458.38545051757814,44.29371ZM453.69795051757814,50.575C455.5052405175781,49.36663,457.1875305175781,47.83017,458.5000305175781,46.14267C460.01565051757814,47.94475,461.63543051757813,49.33538,463.4115305175781,50.575L453.69795051757814,50.575ZM473.1042305175781,44.69475C473.4896305175781,45.33538,473.9219305175781,46.18433,474.1771305175781,46.80933L467.3125305175781,46.80933L467.3125305175781,47.976L473.82813051757813,47.976L473.82813051757813,50.3093L468.8646305175781,50.3093L468.8646305175781,57.564499999999995L470.0677305175781,57.564499999999995L470.0677305175781,51.4812L473.82813051757813,51.4812L473.82813051757813,59.45L475.0573305175781,59.45L475.0573305175781,51.4812L479.0573305175781,51.4812L479.0573305175781,56.017700000000005C479.0573305175781,56.2468,478.9792305175781,56.330200000000005,478.6927305175781,56.3458C478.4167305175781,56.3614,477.4427305175781,56.3614,476.3542305175781,56.3093C476.53123051757814,56.6635,476.7240305175781,57.142700000000005,476.77083051757813,57.4968C478.14583051757813,57.4968,479.0417305175781,57.4968,479.6042305175781,57.2885C480.1302305175781,57.0958,480.2917305175781,56.726,480.2917305175781,56.0333L480.2917305175781,50.3093L475.0573305175781,50.3093L475.0573305175781,47.976L481.71353051757814,47.976L481.71353051757814,46.80933L475.2969305175781,46.80933L475.5365305175781,46.73121C475.2969305175781,46.09058,474.7396305175781,45.08017,474.27603051757814,44.32496L473.1042305175781,44.69475ZM489.07293051757813,51.1739C489.2188305175781,51.0437,489.7292305175781,50.976,490.46353051757814,50.976L491.6042305175781,50.976C490.9323305175781,52.752,489.77603051757814,54.2208,488.3073305175781,55.1895L488.1146305175781,54.2573L486.40103051757814,54.8979L486.40103051757814,49.6427L488.1615305175781,49.6427L488.1615305175781,48.50725L486.40103051757814,48.50725L486.40103051757814,44.71038L485.26563051757813,44.71038L485.26563051757813,48.50725L483.2969305175781,48.50725L483.2969305175781,49.6427L485.26563051757813,49.6427L485.26563051757813,55.3198C484.4323305175781,55.626999999999995,483.6823305175781,55.8979,483.07293051757813,56.0958L483.4740305175781,57.3198C484.8490305175781,56.7729,486.65623051757814,56.0437,488.33853051757814,55.3666L488.3073305175781,55.2208C488.5625305175781,55.3823,488.9948305175781,55.705200000000005,489.1719305175781,55.8979C490.70833051757813,54.7729,492.01563051757813,53.075,492.7396305175781,50.976L494.08333051757813,50.976C493.07293051757813,54.4343,491.28123051757814,57.1114,488.5625305175781,58.751999999999995C488.83333051757813,58.9135,489.2969305175781,59.2468,489.4896305175781,59.45C492.1927305175781,57.626999999999995,494.0990305175781,54.7729,495.20313051757813,50.976L496.2917305175781,50.976C496.0000305175781,55.7208,495.6667305175781,57.564499999999995,495.2500305175781,58.0125C495.08853051757814,58.205200000000005,494.94793051757813,58.2573,494.6927305175781,58.2416C494.40103051757814,58.2416,493.7969305175781,58.2416,493.14063051757813,58.1739C493.32813051757813,58.4968,493.45833051757813,58.976,493.4740305175781,59.3093C494.14583051757813,59.3458,494.8021305175781,59.3614,495.1875305175781,59.3093C495.65103051757814,59.2625,495.9688305175781,59.1375,496.27603051757814,58.751999999999995C496.83333051757813,58.0958,497.1719305175781,56.0958,497.5052305175781,50.4343C497.52083051757813,50.2573,497.5365305175781,49.8406,497.5365305175781,49.8406L491.1042305175781,49.8406C492.6927305175781,48.79892,494.3698305175781,47.43954,496.08333051757813,45.88746L495.1875305175781,45.21038L494.9323305175781,45.30933L488.5000305175781,45.30933L488.5000305175781,46.44996L493.65103051757814,46.44996C492.26043051757813,47.731210000000004,490.70833051757813,48.84058,490.1771305175781,49.17913C489.5521305175781,49.5906,488.96353051757814,49.9291,488.5625305175781,49.976C488.7240305175781,50.3406,488.9792305175781,50.8979,489.07293051757813,51.1739ZM508.9167305175781,50.3302L508.9167305175781,53.3198C508.9167305175781,54.8979,508.4323305175781,57.0125,504.89583051757813,58.2364C505.3438305175781,58.575,505.8594305175781,59.1948,506.0990305175781,59.580200000000005C510.0677305175781,58.075,510.70833051757813,55.5385,510.70833051757813,53.3354L510.70833051757813,50.3302L508.9167305175781,50.3302ZM510.08333051757813,57.1479C510.9792305175781,57.965599999999995,512.2292305175781,59.0541,512.8021305175781,59.7364L514.1302305175782,58.4448C513.4896305175781,57.7885,512.1927305175782,56.6948,511.3125305175781,55.939499999999995L510.08333051757813,57.1479ZM499.5677305175781,48.78329C500.32293051757813,49.262460000000004,501.2969305175781,49.8354,502.1146305175781,50.3093L498.9115305175781,50.3093L498.9115305175781,52.0073L501.2969305175781,52.0073L501.2969305175781,57.5698C501.2969305175781,57.751999999999995,501.2344305175781,57.8041,501.01043051757813,57.8198C500.7865305175781,57.8198,500.03123051757814,57.8198,499.3594305175781,57.8041C499.5990305175781,58.3198,499.8594305175781,59.101,499.9375305175781,59.642700000000005C501.01043051757813,59.642700000000005,501.8073305175781,59.5958,502.40103051757814,59.3093C503.01043051757813,59.0229,503.15623051757814,58.5073,503.15623051757814,57.601L503.15623051757814,52.0073L504.1146305175781,52.0073C503.9375305175781,52.7989,503.7292305175781,53.5698,503.5521305175781,54.127L504.9792305175781,54.4448C505.3438305175781,53.4343,505.77603051757814,51.8666,506.1302305175781,50.5177L504.94793051757813,50.2729L504.6875305175781,50.3093L503.95313051757813,50.3093L504.3698305175781,49.8354C504.0677305175781,49.6427,503.65103051757814,49.387460000000004,503.20313051757813,49.101C504.0990305175781,48.20517,505.0417305175781,46.91871,505.71353051757814,45.74683L504.5625305175781,44.88746L504.2240305175781,44.98121L499.2969305175781,44.98121L499.2969305175781,46.64267L503.02603051757814,46.64267C502.65623051757814,47.26246,502.2396305175781,47.87704,501.8438305175781,48.28329L500.57813051757813,47.48642L499.5677305175781,48.78329ZM506.3073305175781,47.93433L506.3073305175781,55.7208L508.08333051757813,55.7208L508.08333051757813,49.6427L511.5365305175781,49.6427L511.5365305175781,55.653099999999995L513.4115305175782,55.653099999999995L513.4115305175782,47.93433L510.5625305175781,47.93433L510.94793051757813,46.64267L514.0365305175782,46.64267L514.0365305175782,44.96558L505.7917305175781,44.96558L505.7917305175781,46.64267L508.89583051757813,46.64267L508.70833051757813,47.93433L506.3073305175781,47.93433ZM517.3594305175782,54.976L517.3594305175782,55.9239L527.7448305175781,55.9239L527.7448305175781,54.976L517.3594305175782,54.976ZM517.3594305175782,53.6427L517.3594305175782,54.6062L527.7448305175781,54.6062L527.7448305175781,53.6427L517.3594305175782,53.6427ZM517.1719305175782,56.3354L517.1719305175782,59.6948L518.9792305175781,59.6948L518.9792305175781,59.2885L526.0990305175782,59.2885L526.0990305175782,59.6948L527.9844305175782,59.6948L527.9844305175782,56.3354L517.1719305175782,56.3354ZM518.9792305175781,58.3093L518.9792305175781,57.3093L526.0990305175782,57.3093L526.0990305175782,58.3093L518.9792305175781,58.3093ZM521.2188305175781,51.2468L521.4896305175781,51.7781L515.4427305175782,51.7781L515.4427305175782,52.976L529.5885305175781,52.976L529.5885305175781,51.7781L523.4583305175781,51.7781C523.3125305175781,51.4552,523.1042305175781,51.0854,522.9167305175781,50.7937L521.2188305175781,51.2468ZM516.6250305175781,46.50204C516.3073305175781,47.24683,515.7292305175781,48.06975,514.8490305175782,48.699960000000004C515.1510305175781,48.90829,515.6354305175781,49.38225,515.8594305175782,49.7052L516.2396305175781,49.36142L516.2396305175781,51.252L517.5208305175781,51.252L517.5208305175781,50.8406L519.6198305175781,50.8406C519.6667305175781,51.0385,519.6979305175781,51.2364,519.6979305175781,51.3979C520.1927305175782,51.4135,520.6719305175782,51.3979,520.9479305175781,51.3666C521.2969305175782,51.3145,521.5677305175782,51.2156,521.8125305175781,50.9083C522.0990305175782,50.5854,522.2240305175782,49.7989,522.3385305175781,48.0385C522.6927305175782,48.27808,523.1198305175781,48.62183,523.3281305175781,48.84579C523.5885305175781,48.62183,523.8438305175781,48.36142,524.0833305175781,48.06975C524.3542305175781,48.50725,524.6719305175782,48.90829,525.0260305175781,49.26767C524.3854305175781,49.6531,523.6198305175781,49.9291,522.7552305175782,50.1375C523.0417305175781,50.4448,523.4896305175781,51.1218,523.6510305175781,51.4604C524.6094305175782,51.1531,525.4740305175782,50.7625,526.1927305175782,50.2833C527.0260305175781,50.8406,527.9844305175782,51.2833,529.0729305175781,51.5593C529.2812305175781,51.1218,529.7292305175781,50.476,530.0990305175782,50.1218C529.0885305175781,49.9448,528.1927305175782,49.6218,527.4271305175781,49.199960000000004C527.9531305175781,48.52808,528.3698305175781,47.7885,528.6562305175781,46.92392L529.7292305175781,46.92392L529.7292305175781,45.64267L525.5521305175781,45.64267C525.7135305175781,45.31454,525.8438305175781,44.98642,525.9531305175781,44.63746L524.4479305175781,44.27288C524.0521305175781,45.59579,523.3125305175781,46.79371,522.3698305175781,47.61663L522.3698305175781,47.5385C522.3854305175781,47.34579,522.3854305175781,46.976,522.3854305175781,46.976L517.9219305175782,46.976L518.0312305175781,46.74163L517.4740305175782,46.64267L518.5000305175781,46.64267L518.5000305175781,46.101L519.7917305175781,46.101L519.7917305175781,46.56975L521.3958305175781,46.56975L521.3958305175781,46.101L522.9635305175781,46.101L522.9635305175781,44.976L521.3958305175781,44.976L521.3958305175781,44.37183L519.7917305175781,44.37183L519.7917305175781,44.976L518.5000305175781,44.976L518.5000305175781,44.37183L516.9271305175781,44.37183L516.9271305175781,44.976L515.2969305175782,44.976L515.2969305175782,46.101L516.9271305175781,46.101L516.9271305175781,46.54892L516.6250305175781,46.50204ZM526.9792305175781,46.92392C526.7865305175782,47.42913,526.5156305175781,47.87183,526.1771305175781,48.262460000000004C525.7292305175781,47.87183,525.3646305175781,47.4135,525.0729305175781,46.92392L526.9792305175781,46.92392ZM520.7552305175782,47.97079C520.6719305175782,49.19475,520.5781305175781,49.6895,520.4479305175781,49.8718C520.3542305175781,49.976,520.2604305175781,49.9916,520.1146305175781,49.9916L519.9844305175782,49.9916L519.9844305175782,48.30933L517.1042305175781,48.30933L517.3802305175782,47.97079L520.7552305175782,47.97079ZM517.5208305175781,49.18954L518.6875305175781,49.18954L518.6875305175781,49.976L517.5208305175781,49.976L517.5208305175781,49.18954Z" fill="#1DFFFF" fill-opacity="1"/></g></g></g></g></g><g filter="url(#master_svgs_430_70868)"><path d="M12.5,72.5L12.5,627.35L34.86,646.5L946.14,646.5L968.5,627.35L968.5,299.33000000000004L950.98,278.05L950.98,167.39L968.5,146.11L968.5,72.5" fill="url(#master_svgt_230_01947)" fill-opacity="1"/><path d="M969,72.5L969,146.2893L951.366,167.70780000000002L950.98,167.39L951.48,167.39L951.48,278.05L950.98,278.05L951.366,277.73199999999997L969,299.151L969,627.58L946.325,647L34.6751,647L12,627.58L12,72.5L13,72.5L13,627.35L12.5,627.35L12.825242,626.97L35.185199999999995,646.12L34.86,646.5L34.86,646L946.14,646L946.14,646.5L945.815,646.12L968.175,626.97L968.5,627.35L968,627.35L968,299.33000000000004L968.5,299.33000000000004L968.114,299.648L950.48,278.22900000000004L950.48,167.2107L968.114,145.79219999999998L968.5,146.11L968,146.11L968,72.5L969,72.5Z" fill="url(#master_svgu_230_01963)" fill-opacity="1"/></g><g><path d="M957.5,275.5L968.5,288.5L968.5,157.5L957.5,170.5L957.5,275.5Z" fill="url(#master_svgv_230_14182)" fill-opacity="1"/><path d="M958,170.5L958,275.5L957.5,275.5L957.881693,275.177L968.8817,288.177L968.5,288.5L968,288.5L968,157.5L968.5,157.5L968.8817,157.822971L957.881693,170.823L957.5,170.5L958,170.5ZM957,170.3168L969,156.13503L969,289.865L957,275.683L957,170.5L957,170.3168Z" fill="url(#master_svgw_230_01963)" fill-opacity="1"/></g></g></svg>