<svg xmlns="http://www.w3.org/2000/svg" xmlns:xlink="http://www.w3.org/1999/xlink" fill="none" version="1.1" width="140" height="28" viewBox="0 0 140 28"><defs><filter id="master_svg0_430_107704/230_19569/230_18884" filterUnits="objectBoundingBox" color-interpolation-filters="sRGB" x="0" y="0" width="140" height="28"><feFlood flood-opacity="0" result="BackgroundImageFix"/><feBlend mode="normal" in="SourceGraphic" in2="BackgroundImageFix" result="shape"/><feColorMatrix in="SourceAlpha" type="matrix" result="hardAlpha" values="0 0 0 0 0 0 0 0 0 0 0 0 0 0 0 0 0 0 127 0"/><feOffset dy="0" dx="0"/><feGaussianBlur stdDeviation="4"/><feComposite in2="hardAlpha" operator="arithmetic" k2="-1" k3="1"/><feColorMatrix type="matrix" values="0 0 0 0 0.11764705926179886 0 0 0 0 0.8823529481887817 0 0 0 0 0.9215686321258545 0 0 0 0.5 0"/><feBlend mode="normal" in2="shape" result="effect1_innerShadow"/></filter><linearGradient x1="0" y1="0.5997306108474731" x2="1" y2="0.5997306108474731" id="master_svg1_230_18887"><stop offset="0%" stop-color="#0B454A" stop-opacity="0.10000000149011612"/><stop offset="100%" stop-color="#038CA2" stop-opacity="0.699999988079071"/></linearGradient><linearGradient x1="0" y1="0.434982031583786" x2="1" y2="0.434982031583786" id="master_svg2_230_01963"><stop offset="0%" stop-color="#04B3B6" stop-opacity="0.05000000074505806"/><stop offset="56.42856955528259%" stop-color="#0D747A" stop-opacity="0.4931506812572479"/><stop offset="100%" stop-color="#5DC6CD" stop-opacity="0.05000000074505806"/></linearGradient></defs><g style="opacity:0.4000000059604645;mix-blend-mode:passthrough"><g filter="url(#master_svg0_430_107704/230_19569/230_18884)"><path d="M20,28L0,0L120,0L140,28" fill="url(#master_svg1_230_18887)" fill-opacity="1"/><path d="M140,28L120,0L0,0L20,28L20.4069,27.7094L20.8137,27.4188L1.94319,1L119.485,1L138.771,28L140,28Z" fill-rule="evenodd" fill="url(#master_svg2_230_01963)" fill-opacity="1"/></g><g style="mix-blend-mode:passthrough"><g style="mix-blend-mode:passthrough"><g><path d="M35.88726585647583,10.9C35.41609585647583,8.02,34.31334585647583,6,33.02012585647583,6C31.72690585647583,6,30.63419485647583,8,30.16302085647583,10.9L35.88726585647583,10.9ZM29.87229585647583,13.99C29.87229585647583,14.71,29.87229585647583,15.4,29.97254385647583,16.060000000000002L35.98751585647583,16.060000000000002C36.13453585647583,14.68724,36.13453585647583,13.30276,35.98751585647583,11.93L29.97254385647583,11.93C30.00261785647583,12.59,29.92241605647583,13.280000000000001,29.92241605647583,13.99L29.87229585647583,13.99Z" fill="#1DFFFF" fill-opacity="1"/></g><g><path d="M40.418628203125,10.900001831054688C39.487178203125,8.689291831054687,37.610668203125,7.011972831054687,35.305908203125,6.3300018310546875C36.183734203125,7.712691831054688,36.738768203125,9.274521831054688,36.929958203125,10.900001831054688L40.418628203125,10.900001831054688Z" fill="#1DFFFF" fill-opacity="1"/></g><g><path d="M30.734470478019716,6.3300018310546875C28.433500478019713,7.014567831054688,26.561075478019713,8.691521831054688,25.631760478019714,10.900001831054688L29.120450478019713,10.900001831054688C29.303830478019716,9.274231831054689,29.855780478019714,7.711431831054687,30.734470478019716,6.3300018310546875Z" fill="#1DFFFF" fill-opacity="1"/></g><g><path d="M40.76942201049805,11.930000305175781L37.02009201049805,11.930000305175781C37.153764010498044,13.303440305175782,37.153764010498044,14.686560305175782,37.02009201049805,16.06000030517578L40.71930201049805,16.06000030517578C40.90501201049805,15.38558030517578,40.999422010498044,14.68940030517578,41.000002010498044,13.990000305175782C40.997162010498045,13.29470030517578,40.906212010498045,12.602546305175782,40.72933201049805,11.930000305175781L40.76942201049805,11.930000305175781Z" fill="#1DFFFF" fill-opacity="1"/></g><g><path d="M28.88985,13.990000305175782C28.887999999999998,13.302080305175782,28.92146,12.614509305175782,28.990099999999998,11.930000305175781L25.280873,11.930000305175781C24.9063755,13.28132030517578,24.9063755,14.70868030517578,25.280873,16.06000030517578L29.00013,16.06000030517578C28.9279,15.372340305175781,28.89109,14.68143030517578,28.88985,13.990000305175782ZM30.16302,17.09000030517578C30.63419,19.97000030517578,31.73694,22.00000030517578,33.02013,22.00000030517578C34.30332,22.00000030517578,35.4161,20.00000030517578,35.887299999999996,17.09000030517578L30.16302,17.09000030517578Z" fill="#1DFFFF" fill-opacity="1"/></g><g><path d="M35.31583786010742,21.660003967285157C37.614957860107424,20.968003967285156,39.48771786010742,19.294033967285156,40.428557860107425,17.090003967285156L36.92985786010742,17.090003967285156C36.74646786010742,18.715773967285156,36.19451986010742,20.278573967285155,35.31583786010742,21.660003967285157Z" fill="#1DFFFF" fill-opacity="1"/></g><g><path d="M25.631760478019714,17.089996337890625C26.561075478019713,19.298476337890627,28.433500478019713,20.975426337890624,30.734460478019713,21.659996337890625C29.864440478019716,20.274386337890625,29.313210478019712,18.713606337890624,29.120440478019713,17.089998245240626L25.631760478019714,17.089996337890625Z" fill="#1DFFFF" fill-opacity="1"/></g></g><g><path d="M51.89974,8.132C50.48698,10.42887,47.92578,12.55713,45.360026,13.75114C45.628906,13.97444,45.934245,14.3254,46.08919,14.6079C46.64974,14.3254,47.21029,14.0063,47.75716,13.65543L47.75716,14.5623L51.45312,14.5623L51.45312,16.836399999999998L47.83919,16.836399999999998L47.83919,17.770699999999998L51.45312,17.770699999999998L51.45312,20.104L46.06185,20.104L46.06185,21.0565L58.0065,21.0565L58.0065,20.104L52.542320000000004,20.104L52.542320000000004,17.770699999999998L56.3249,17.770699999999998L56.3249,16.836399999999998L52.542320000000004,16.836399999999998L52.542320000000004,14.5623L56.3249,14.5623L56.3249,13.64176C56.8581,14.0063,57.3867,14.339,57.9473,14.6672C58.102199999999996,14.3527,58.4121,13.99267,58.6764,13.77848C56.3932,12.54345,54.32422,11.03955,52.58789,8.95687L52.82487,8.578610000000001L51.89974,8.132ZM47.79818,13.62809C49.37956,12.5708,50.85156,11.2264,52,9.74983C53.32617,11.32666,54.74349,12.54345,56.2975,13.62809L47.79818,13.62809ZM64.7786,8.48291C65.1159,9.04345,65.4941,9.786290000000001,65.7174,10.333169999999999L59.7109,10.333169999999999L59.7109,11.354L65.4121,11.354L65.4121,13.39567L61.069,13.39567L61.069,19.744L62.121700000000004,19.744L62.121700000000004,14.4211L65.4121,14.4211L65.4121,21.3937L66.4876,21.3937L66.4876,14.4211L69.9876,14.4211L69.9876,18.3905C69.9876,18.591,69.91929999999999,18.663899999999998,69.6686,18.677599999999998C69.4271,18.691200000000002,68.5749,18.691200000000002,67.6224,18.645699999999998C67.7773,18.9556,67.946,19.3748,67.987,19.6847C69.1901,19.6847,69.974,19.6847,70.4661,19.5024C70.9264,19.3338,71.0677,19.0103,71.0677,18.4041L71.0677,13.39567L66.4876,13.39567L66.4876,11.354L72.3118,11.354L72.3118,10.333169999999999L66.6973,10.333169999999999L66.90690000000001,10.26481C66.6973,9.70426,66.2096,8.82015,65.804,8.15934L64.7786,8.48291ZM78.7513,14.1522C78.8789,14.0382,79.3255,13.979,79.96809999999999,13.979L80.9661,13.979C80.3783,15.533,79.3665,16.818199999999997,78.0814,17.6658L77.9128,16.850099999999998L76.4134,17.410600000000002L76.4134,12.81233L77.9538,12.81233L77.9538,11.81884L76.4134,11.81884L76.4134,8.49658L75.4199,8.49658L75.4199,11.81884L73.6973,11.81884L73.6973,12.81233L75.4199,12.81233L75.4199,17.7798C74.6908,18.0487,74.03450000000001,18.285600000000002,73.5013,18.4588L73.8522,19.5298C75.0553,19.051299999999998,76.6367,18.4132,78.1087,17.8208L78.0814,17.693199999999997C78.3047,17.8345,78.68289999999999,18.117,78.83789999999999,18.285600000000002C80.1823,17.301299999999998,81.3262,15.8156,81.9596,13.979L83.1354,13.979C82.2513,17.005000000000003,80.6836,19.3475,78.3047,20.783C78.54169999999999,20.9243,78.9473,21.216,79.11590000000001,21.3937C81.4811,19.7987,83.1491,17.301299999999998,84.1152,13.979L85.0677,13.979C84.8125,18.130699999999997,84.52080000000001,19.744,84.1562,20.1359C84.015,20.3045,83.89189999999999,20.3501,83.6686,20.3364C83.4134,20.3364,82.8848,20.3364,82.31049999999999,20.2772C82.47460000000001,20.5597,82.58850000000001,20.979,82.60220000000001,21.2707C83.1901,21.3026,83.76429999999999,21.3162,84.10159999999999,21.2707C84.5072,21.2297,84.7852,21.1203,85.054,20.783C85.54169999999999,20.2088,85.83789999999999,18.4588,86.12960000000001,13.50504C86.14320000000001,13.35009,86.15690000000001,12.98551,86.15690000000001,12.98551L80.5286,12.98551C81.9186,12.07405,83.3861,10.884599999999999,84.8854,9.526530000000001L84.10159999999999,8.93408L83.8783,9.020669999999999L78.25,9.020669999999999L78.25,10.018709999999999L82.7572,10.018709999999999C81.5404,11.13981,80.1823,12.11051,79.7174,12.40673C79.17060000000001,12.76676,78.65559999999999,13.06298,78.3047,13.104C78.446,13.42301,78.66929999999999,13.91064,78.7513,14.1522ZM96.1146,13.4139L96.1146,16.0298C96.1146,17.410600000000002,95.6908,19.2609,92.5964,20.3319C92.98830000000001,20.6281,93.43950000000001,21.1704,93.6491,21.5076C97.1217,20.1906,97.6823,17.9712,97.6823,16.0435L97.6823,13.4139L96.1146,13.4139ZM97.1354,19.3794C97.91929999999999,20.0949,99.013,21.0474,99.51429999999999,21.6444L100.6764,20.5142C100.11590000000001,19.9399,98.9811,18.9829,98.21090000000001,18.3221L97.1354,19.3794ZM87.9342,12.06038C88.5951,12.47965,89.4473,12.98095,90.1628,13.39567L87.36,13.39567L87.36,14.8813L89.4473,14.8813L89.4473,19.7485C89.4473,19.908,89.3926,19.9536,89.19659999999999,19.9673C89.0007,19.9673,88.3398,19.9673,87.75200000000001,19.9536C87.9616,20.4048,88.18950000000001,21.0884,88.2578,21.5623C89.19659999999999,21.5623,89.8939,21.5213,90.4134,21.2707C90.94659999999999,21.02,91.07419999999999,20.5688,91.07419999999999,19.7759L91.07419999999999,14.8813L91.9128,14.8813C91.7578,15.5741,91.5755,16.2485,91.42060000000001,16.7362L92.66929999999999,17.014200000000002C92.98830000000001,16.130000000000003,93.3665,14.7583,93.6764,13.57796L92.64189999999999,13.36377L92.41409999999999,13.39567L91.7715,13.39567L92.1361,12.98095C91.8717,12.81233,91.5072,12.58903,91.1152,12.33838C91.8991,11.55452,92.72399999999999,10.42887,93.3118,9.40348L92.3047,8.651530000000001L92.0085,8.73356L87.6973,8.73356L87.6973,10.18733L90.96029999999999,10.18733C90.63669999999999,10.72965,90.2721,11.26741,89.92580000000001,11.62288L88.8184,10.92562L87.9342,12.06038ZM93.8314,11.317540000000001L93.8314,18.130699999999997L95.3854,18.130699999999997L95.3854,12.81233L98.40690000000001,12.81233L98.40690000000001,18.0714L100.0475,18.0714L100.0475,11.317540000000001L97.5547,11.317540000000001L97.89189999999999,10.18733L100.59440000000001,10.18733L100.59440000000001,8.71989L93.3802,8.71989L93.3802,10.18733L96.0964,10.18733L95.9323,11.317540000000001L93.8314,11.317540000000001ZM103.50200000000001,17.479L103.50200000000001,18.3084L112.5892,18.3084L112.5892,17.479L103.50200000000001,17.479ZM103.50200000000001,16.3123L103.50200000000001,17.1554L112.5892,17.1554L112.5892,16.3123L103.50200000000001,16.3123ZM103.33789999999999,18.6685L103.33789999999999,21.6079L104.91929999999999,21.6079L104.91929999999999,21.2524L111.1491,21.2524L111.1491,21.6079L112.7988,21.6079L112.7988,18.6685L103.33789999999999,18.6685ZM104.91929999999999,20.3957L104.91929999999999,19.520699999999998L111.1491,19.520699999999998L111.1491,20.3957L104.91929999999999,20.3957ZM106.8789,14.216L107.11590000000001,14.6808L101.8249,14.6808L101.8249,15.729L114.2025,15.729L114.2025,14.6808L108.83850000000001,14.6808C108.71090000000001,14.3983,108.5286,14.0747,108.3646,13.8195L106.8789,14.216ZM102.8594,10.06429C102.5814,10.71598,102.0755,11.436029999999999,101.3053,11.987459999999999C101.5697,12.16976,101.9935,12.58447,102.18950000000001,12.86702L102.5221,12.56624L102.5221,14.2205L103.64320000000001,14.2205L103.64320000000001,13.86051L105.4798,13.86051C105.52080000000001,14.0337,105.54820000000001,14.2069,105.54820000000001,14.3481C105.9811,14.3618,106.40039999999999,14.3481,106.64189999999999,14.3208C106.9473,14.2752,107.1842,14.1886,107.39840000000001,13.91976C107.6491,13.6372,107.7585,12.94905,107.8587,11.40869C108.1686,11.61832,108.5423,11.9191,108.72460000000001,12.11507C108.9525,11.9191,109.1758,11.69124,109.3854,11.436029999999999C109.6224,11.81884,109.9004,12.16976,110.2103,12.48421C109.6497,12.82145,108.9798,13.06298,108.2233,13.24528C108.47399999999999,13.51416,108.86590000000001,14.1066,109.0072,14.4028C109.8457,14.1339,110.6022,13.79215,111.2311,13.37288C111.9603,13.86051,112.7988,14.2479,113.7513,14.4894C113.9336,14.1066,114.3255,13.5415,114.6491,13.2316C113.765,13.07666,112.9811,12.7941,112.3112,12.42496C112.7715,11.83707,113.1361,11.18994,113.3867,10.433430000000001L114.3255,10.433430000000001L114.3255,9.31233L110.6706,9.31233C110.8119,9.025220000000001,110.9258,8.73812,111.0215,8.432780000000001L109.7044,8.113769999999999C109.3581,9.27132,108.71090000000001,10.3195,107.8861,11.03955L107.8861,10.97119C107.8997,10.80257,107.8997,10.479,107.8997,10.479L103.9941,10.479L104.0898,10.27392L103.60220000000001,10.18733L104.5,10.18733L104.5,9.71338L105.6302,9.71338L105.6302,10.123529999999999L107.0339,10.123529999999999L107.0339,9.71338L108.40559999999999,9.71338L108.40559999999999,8.729L107.0339,8.729L107.0339,8.20035L105.6302,8.20035L105.6302,8.729L104.5,8.729L104.5,8.20035L103.1237,8.20035L103.1237,8.729L101.6973,8.729L101.6973,9.71338L103.1237,9.71338L103.1237,10.1053L102.8594,10.06429ZM111.9193,10.433430000000001C111.7506,10.87548,111.5137,11.26285,111.2174,11.60465C110.8255,11.26285,110.5065,10.86181,110.2513,10.433430000000001L111.9193,10.433430000000001ZM106.4733,11.349440000000001C106.40039999999999,12.42041,106.3184,12.85335,106.20439999999999,13.01285C106.1224,13.104,106.0404,13.11767,105.9128,13.11767L105.7988,13.11767L105.7988,11.645669999999999L103.2786,11.645669999999999L103.5202,11.349440000000001L106.4733,11.349440000000001ZM103.64320000000001,12.41585L104.66409999999999,12.41585L104.66409999999999,13.104L103.64320000000001,13.104L103.64320000000001,12.41585Z" fill="#1DFFFF" fill-opacity="1"/></g></g></g></svg>