<svg xmlns="http://www.w3.org/2000/svg" xmlns:xlink="http://www.w3.org/1999/xlink" fill="none" version="1.1" width="371.86328125" height="91.1337890625" viewBox="0 0 371.86328125 91.1337890625"><defs><linearGradient x1="3.552713678800501e-15" y1="0.5000914335250854" x2="1" y2="0.5000914335250854" id="master_svg0_230_13964"><stop offset="0%" stop-color="#0B454A" stop-opacity="0.10000000149011612"/><stop offset="99.00000095367432%" stop-color="#038CA2" stop-opacity="0.699999988079071"/></linearGradient><linearGradient x1="-0.013247613795101643" y1="0.5008228421211243" x2="1.0235729217529297" y2="0.5008228421211243" id="master_svg1_230_13939"><stop offset="0%" stop-color="#04B3B6" stop-opacity="0"/><stop offset="50%" stop-color="#0D747A" stop-opacity="1"/><stop offset="100%" stop-color="#5DC6CD" stop-opacity="0"/></linearGradient><linearGradient x1="-8.881784197001252e-16" y1="0.4999106526374817" x2="1" y2="0.4999106526374817" id="master_svg2_230_13960"><stop offset="0%" stop-color="#0B454A" stop-opacity="0.10000000149011612"/><stop offset="99.00000095367432%" stop-color="#038CA2" stop-opacity="0.699999988079071"/></linearGradient><linearGradient x1="-0.013247613795101643" y1="0.5008228421211243" x2="1.0235729217529297" y2="0.5008228421211243" id="master_svg3_230_13939"><stop offset="0%" stop-color="#04B3B6" stop-opacity="0"/><stop offset="50%" stop-color="#0D747A" stop-opacity="1"/><stop offset="100%" stop-color="#5DC6CD" stop-opacity="0"/></linearGradient><linearGradient x1="3.552713678800501e-15" y1="0.5" x2="1" y2="0.5" id="master_svg4_230_13952"><stop offset="0%" stop-color="#0B454A" stop-opacity="0.10000000149011612"/><stop offset="99.00000095367432%" stop-color="#038CA2" stop-opacity="0.699999988079071"/></linearGradient><linearGradient x1="-0.013247613795101643" y1="0.5008228421211243" x2="1.0235729217529297" y2="0.5008228421211243" id="master_svg5_230_13939"><stop offset="0%" stop-color="#04B3B6" stop-opacity="0"/><stop offset="50%" stop-color="#0D747A" stop-opacity="1"/><stop offset="100%" stop-color="#5DC6CD" stop-opacity="0"/></linearGradient><linearGradient x1="-6.661338147750939e-15" y1="0.5" x2="1" y2="0.5" id="master_svg6_230_13948"><stop offset="0%" stop-color="#0B454A" stop-opacity="0.10000000149011612"/><stop offset="99.00000095367432%" stop-color="#038CA2" stop-opacity="0.699999988079071"/></linearGradient><linearGradient x1="-0.013247613795101643" y1="0.5008228421211243" x2="1.0235729217529297" y2="0.5008228421211243" id="master_svg7_230_13939"><stop offset="0%" stop-color="#04B3B6" stop-opacity="0"/><stop offset="50%" stop-color="#0D747A" stop-opacity="1"/><stop offset="100%" stop-color="#5DC6CD" stop-opacity="0"/></linearGradient><linearGradient x1="6.217248937900877e-15" y1="0.5" x2="1" y2="0.5" id="master_svg8_230_13956"><stop offset="0%" stop-color="#0B454A" stop-opacity="0.10000000149011612"/><stop offset="99.00000095367432%" stop-color="#038CA2" stop-opacity="0.699999988079071"/></linearGradient><linearGradient x1="-0.013247613795101643" y1="0.5008228421211243" x2="1.0235729217529297" y2="0.5008228421211243" id="master_svg9_230_13939"><stop offset="0%" stop-color="#04B3B6" stop-opacity="0"/><stop offset="50%" stop-color="#0D747A" stop-opacity="1"/><stop offset="100%" stop-color="#5DC6CD" stop-opacity="0"/></linearGradient><linearGradient x1="-1.4432899320127035e-15" y1="0.4999128580093384" x2="0.999815821647644" y2="0.4999128580093384" id="master_svga_230_13936"><stop offset="0%" stop-color="#0B454A" stop-opacity="0.10000000149011612"/><stop offset="99.00000095367432%" stop-color="#038CA2" stop-opacity="0.699999988079071"/></linearGradient><linearGradient x1="-0.013247613795101643" y1="0.5008228421211243" x2="1.0235729217529297" y2="0.5008228421211243" id="master_svgb_230_13939"><stop offset="0%" stop-color="#04B3B6" stop-opacity="0"/><stop offset="50%" stop-color="#0D747A" stop-opacity="1"/><stop offset="100%" stop-color="#5DC6CD" stop-opacity="0"/></linearGradient><linearGradient x1="2.7755575615628914e-17" y1="0.5" x2="1" y2="0.5" id="master_svgc_230_13944"><stop offset="0%" stop-color="#0B454A" stop-opacity="0.10000000149011612"/><stop offset="99.00000095367432%" stop-color="#038CA2" stop-opacity="0.699999988079071"/></linearGradient><linearGradient x1="-0.013247613795101643" y1="0.5008228421211243" x2="1.0235729217529297" y2="0.5008228421211243" id="master_svgd_230_13939"><stop offset="0%" stop-color="#04B3B6" stop-opacity="0"/><stop offset="50%" stop-color="#0D747A" stop-opacity="1"/><stop offset="100%" stop-color="#5DC6CD" stop-opacity="0"/></linearGradient></defs><g style="mix-blend-mode:passthrough" transform="matrix(-1,0,0,1,742.421875,0)"><g style="opacity:0.20000000298023224;"><path d="M715.9202471191406,35.85004425048828L741.2109471191407,37.93004425048828L713.7602471191407,62.16004425048828L736.8908471191406,90.54004425048828L711.6001471191406,88.47004425048829L689.8795471191406,60.20004425048828L715.9202471191406,35.85004425048828Z" fill="url(#master_svg0_230_13964)" fill-opacity="1"/><path d="M689.5380481191406,59.83484425048828L715.7405471191406,35.33357425048828L742.4220471191406,37.52796425048828L714.0910471191406,62.53494425048828L713.7602471191407,62.16004425048828L714.1477471191406,61.844144250488284L738.0200471191406,91.13414425048828L711.3385471191406,88.95034425048829L689.2065601191406,60.144844250488276L689.5380481191406,59.83484425048828ZM690.2210461191406,60.56524425048828L689.8795471191406,60.20004425048828L690.2760321191406,59.89544425048828L711.9966471191407,88.16544425048828L711.6001471191406,88.47004425048829L711.6409471191406,87.97174425048829L736.9316471191406,90.04174425048828L736.8908471191406,90.54004425048828L736.5032471191406,90.85594425048828L713.0689471191406,62.10334425048828L740.8800471191406,37.55518425048828L741.2109471191407,37.93004425048828L741.1699471191406,38.42836425048828L715.8792471191406,36.34836225048828L715.9202471191406,35.85004425048828L716.2617471191406,36.21525425048828L690.2210461191406,60.56524425048828Z" fill="url(#master_svg1_230_13939)" fill-opacity="1"/></g><g style="opacity:0.30000001192092896;"><path d="M670.9690068847656,33.760032653808594L696.0697068847657,37.52003265380859L667.0589068847656,59.860032653808595L688.2395068847657,89.73003265380859L663.1388068847656,85.9600326538086L643.3583068847656,56.31003265380859L670.9690068847656,33.760032653808594Z" fill="url(#master_svg2_230_13960)" fill-opacity="1"/><path d="M643.0420288847656,55.922732653808595L670.8242068847657,33.23275765380859L697.3054068847656,37.199552653808595L667.3640068847657,60.256232653808596L667.0589068847656,59.860032653808595L667.4668068847657,59.570832653808594L689.3268068847656,90.3989326538086L662.8457068847656,86.42163265380859L642.6904558847656,56.20993265380859L643.0420288847656,55.922732653808595ZM643.6745848847656,56.697332653808594L643.3583068847656,56.31003265380859L643.7742418847656,56.032532653808595L663.5548068847656,85.6825326538086L663.1388068847656,85.9600326538086L663.2131068847656,85.4655326538086L688.3138068847657,89.2356326538086L688.2395068847657,89.73003265380859L687.8317068847656,90.01923265380859L666.3730068847656,59.7571326538086L695.7647068847656,37.12388265380859L696.0697068847657,37.52003265380859L695.9956068847656,38.01452265380859L670.8950068847656,34.254515653808596L670.9690068847656,33.760032653808594L671.2853068847656,34.1472906538086L643.6745848847656,56.697332653808594Z" fill="url(#master_svg3_230_13939)" fill-opacity="1"/></g><g style="opacity:0.4000000059604645;"><path d="M617.3775736816406,29.620033264160156L642.3381736816407,34.200033264160155L612.6173736816406,55.58003326416016L632.8179736816406,86.12003326416016L607.8472736816407,81.54003326416016L589.0367736816406,51.26003326416016L617.3775736816406,29.620033264160156Z" fill="url(#master_svg4_230_13952)" fill-opacity="1"/><path d="M588.7333346816406,50.86263326416015L617.2500736816406,29.088292264160156L643.5834736816406,33.920173264160155L612.9093736816407,55.98593326416015L612.6173736816406,55.58003326416016L613.0344736816406,55.30423326416016L633.8828736816406,86.82373326416015L607.5393736816407,81.99193326416015L588.3724576816406,51.13823326416016L588.7333346816406,50.86263326416015ZM589.3402126816407,51.65743326416016L589.0367736816406,51.26003326416016L589.4614926816406,50.99623326416015L608.2719736816406,81.27623326416015L607.8472736816407,81.54003326416016L607.9374736816407,81.04823326416016L632.9081736816406,85.62823326416016L632.8179736816406,86.12003326416016L632.4009736816406,86.39583326416016L611.9351736816407,55.45493326416016L642.0461736816407,33.794143264160155L642.3381736816407,34.200033264160155L642.2479736816406,34.691823264160156L617.2872736816406,30.111823264160158L617.3775736816406,29.620033264160156L617.6809736816406,30.017431264160155L589.3402126816407,51.65743326416016Z" fill="url(#master_svg5_230_13939)" fill-opacity="1"/></g><g style="opacity:0.5;"><path d="M560.506044140625,23.680030822753906L585.346744140625,28.900030822753905L555.075844140625,49.510030822753905L574.476444140625,80.5600308227539L549.635744140625,75.33003082275391L531.625244140625,44.57003082275391L560.506044140625,23.680030822753906Z" fill="url(#master_svg6_230_13948)" fill-opacity="1"/><path d="M531.332207140625,44.1649308227539L560.392344140625,23.145209822753905L586.599044140625,28.652270822753906L555.357244140625,49.92333082275391L555.075844140625,49.510030822753905L555.499944140625,49.24513082275391L575.522944140625,81.2913308227539L549.316144140625,75.7737308227539L530.964402140625,44.43093082275391L531.332207140625,44.1649308227539ZM531.918281140625,44.97513082275391L531.625244140625,44.57003082275391L532.056723140625,44.317430822753906L550.067244140625,75.07743082275391L549.635744140625,75.33003082275391L549.738744140625,74.8407308227539L574.579444140625,80.07073082275392L574.476444140625,80.5600308227539L574.052344140625,80.82493082275391L554.397144140625,49.36733082275391L585.065344140625,28.486730822753906L585.346744140625,28.900030822753905L585.243844140625,29.38934082275391L560.403244140625,24.169343822753905L560.506044140625,23.680030822753906L560.799044140625,24.085159822753905L531.918281140625,44.97513082275391Z" fill="url(#master_svg7_230_13939)" fill-opacity="1"/></g><g style="opacity:0.6000000238418579;"><path d="M508.1146275146484,17.03003692626953L532.8453275146485,22.75003692626953L502.1644275146484,42.75003692626953L520.9449275146485,74.19003692626953L496.21432751464846,68.46003692626954L478.81382751464844,37.35003692626953L508.1146275146484,17.03003692626953Z" fill="url(#master_svg8_230_13956)" fill-opacity="1"/><path d="M478.5288925146484,36.939136926269526L508.01162751464847,16.493009926269533L534.1022275146485,22.52754692626953L502.4375275146484,43.16893692626953L502.1644275146484,42.75003692626953L502.59372751464844,42.49363692626953L521.9767275146485,74.94233692626953L495.8859275146484,68.89723692626953L478.1558305146484,37.19783692626953L478.5288925146484,36.939136926269526ZM479.09876251464846,37.76093692626953L478.81382751464844,37.35003692626953L479.2502065146484,37.105936926269536L496.65072751464845,68.21593692626953L496.21432751464846,68.46003692626954L496.32712751464845,67.97293692626954L521.0578275146485,73.70293692626953L520.9449275146485,74.19003692626953L520.5157275146485,74.44643692626954L501.48862751464844,42.59373692626953L532.5722275146485,22.33117692626953L532.8453275146485,22.75003692626953L532.7326275146485,23.23717692626953L508.00192751464846,17.51717692626953L508.1146275146484,17.03003692626953L508.3995275146484,17.44090392626953L479.09876251464846,37.76093692626953Z" fill="url(#master_svg9_230_13939)" fill-opacity="1"/></g><g style="opacity:0.699999988079071;"><path d="M454.0031707580566,9.150039672851562L478.6238707580566,15.320039672851562L447.58297075805666,34.750039672851564L465.78347075805664,66.52003967285157L441.16287075805667,60.350039672851565L424.33237075805664,28.920039672851562L454.0031707580566,9.150039672851562Z" fill="url(#master_svga_230_13936)" fill-opacity="1"/><path d="M424.05512275805665,28.503939672851562L453.91007075805663,8.611246672851562L479.88487075805665,15.120589672851562L447.84827075805663,35.173839672851564L447.58297075805666,34.750039672851564L448.01687075805665,34.501539672851564L466.8011707580566,67.29053967285157L440.8265707580566,60.78123967285156L423.67721875805665,28.75573967285156L424.05512275805665,28.503939672851562ZM424.6096187580566,29.336139672851562L424.33237075805664,28.920039672851562L424.77315175805666,28.68403967285156L441.60357075805666,60.11403967285156L441.16287075805667,60.350039672851565L441.28437075805664,59.865039672851566L465.90507075805664,66.03503967285155L465.78347075805664,66.52003967285157L465.3496707580566,66.76853967285156L446.91007075805663,34.58133967285156L478.35857075805666,14.896219672851561L478.6238707580566,15.320039672851562L478.5022707580566,15.805039672851564L453.88167075805666,9.635041672851562L454.0031707580566,9.150039672851562L454.28047075805665,9.566132672851563L424.6096187580566,29.336139672851562Z" fill="url(#master_svgb_230_13939)" fill-opacity="1"/></g><g><g><path d="M401.1917375,0.5400390625L425.7124375,7.1100390625L394.3615375,26.0400390625L412.0420375,58.1000390625L387.5313375,51.5300390625L371.2109375,19.8300390625L401.1917375,0.5400390625Z" fill="url(#master_svgc_230_13944)" fill-opacity="1"/><path d="M370.9403935,19.4095390625L401.10733749999997,-0.000210937500000008L426.9762375,6.9310190625L394.6200375,26.4680390625L394.3615375,26.0400390625L394.7994375,25.7985390625L413.0470375,58.8870390625L387.1881375,51.9556390625L370.5585635,19.6552390625L370.9403935,19.4095390625ZM371.4814815,20.2505390625L371.2109375,19.8300390625L371.6554815,19.6011390625L387.9759375,51.3011390625L387.5313375,51.5300390625L387.6608375,51.0470390625L412.1715375,57.6170390625L412.0420375,58.1000390625L411.6042375,58.3415390625L393.6915375,25.8605390625L425.4539375,6.6820090625L425.7124375,7.1100390625L425.5830375,7.5929990625L401.0623375,1.0230030625L401.1917375,0.5400390625L401.4623375,0.9605220624999999L371.4814815,20.2505390625Z" fill="url(#master_svgd_230_13939)" fill-opacity="1"/></g></g></g></svg>