<svg xmlns="http://www.w3.org/2000/svg" xmlns:xlink="http://www.w3.org/1999/xlink" fill="none" version="1.1" width="443.1015625" height="64.552734375" viewBox="0 0 443.1015625 64.552734375"><defs><linearGradient x1="1" y1="0.0005000000237487257" x2="0" y2="0" id="master_svg0_230_06301"><stop offset="0%" stop-color="#23A9B1" stop-opacity="0"/><stop offset="99.99999403953552%" stop-color="#0FCED3" stop-opacity="1"/></linearGradient><radialGradient cx="0" cy="0" r="1" gradientUnits="userSpaceOnUse" id="master_svg1_230_02304" gradientTransform="translate(46.53013372421265 32.5) rotate(90) scale(8 19.059766860119453)"><stop offset="2.857142873108387%" stop-color="#00FFFF" stop-opacity="1"/><stop offset="100%" stop-color="#FFFFFF" stop-opacity="0"/></radialGradient><radialGradient cx="0" cy="0" r="1" gradientUnits="userSpaceOnUse" id="master_svg2_230_02304" gradientTransform="translate(46.53013372421265 32.5) rotate(90) scale(8 19.059766860119453)"><stop offset="2.857142873108387%" stop-color="#00FFFF" stop-opacity="1"/><stop offset="100%" stop-color="#FFFFFF" stop-opacity="0"/></radialGradient><filter id="master_svg3_430_71110" filterUnits="objectBoundingBox" color-interpolation-filters="sRGB" x="-20" y="-20" width="72.5167465209961" height="49.10468864440918"><feFlood flood-opacity="0" result="BackgroundImageFix"/><feBlend mode="normal" in="SourceGraphic" in2="BackgroundImageFix" result="shape"/><feGaussianBlur stdDeviation="5" result="effect1_foregroundBlur"/></filter><radialGradient cx="0" cy="0" r="1" gradientUnits="userSpaceOnUse" id="master_svg4_230_02304" gradientTransform="translate(46.257885456085205 32.05234479904175) rotate(90) scale(4.55234432220459 10.84582823888013)"><stop offset="2.857142873108387%" stop-color="#00FFFF" stop-opacity="1"/><stop offset="100%" stop-color="#FFFFFF" stop-opacity="0"/></radialGradient><filter id="master_svg5_430_71111" filterUnits="objectBoundingBox" color-interpolation-filters="sRGB" x="-20" y="-20" width="97.14285659790039" height="48"><feFlood flood-opacity="0" result="BackgroundImageFix"/><feBlend mode="normal" in="SourceGraphic" in2="BackgroundImageFix" result="shape"/><feGaussianBlur stdDeviation="5" result="effect1_foregroundBlur"/></filter><radialGradient cx="0" cy="0" r="1" gradientUnits="userSpaceOnUse" id="master_svg6_230_02297" gradientTransform="translate(46.53013372421265 32.5) rotate(90) scale(4 19.059766860119453)"><stop offset="0%" stop-color="#FFFFFF" stop-opacity="0.10000000149011612"/><stop offset="100%" stop-color="#00FFFF" stop-opacity="1"/></radialGradient><radialGradient cx="0" cy="0" r="1" gradientUnits="userSpaceOnUse" id="master_svg7_230_02297" gradientTransform="translate(46.53013372421265 32.5) rotate(90) scale(4 19.059766860119453)"><stop offset="0%" stop-color="#FFFFFF" stop-opacity="0.10000000149011612"/><stop offset="100%" stop-color="#00FFFF" stop-opacity="1"/></radialGradient><filter id="master_svg8_430_71112" filterUnits="objectBoundingBox" color-interpolation-filters="sRGB" x="-20" y="-20" width="72.5167465209961" height="44.55234432220459"><feFlood flood-opacity="0" result="BackgroundImageFix"/><feBlend mode="normal" in="SourceGraphic" in2="BackgroundImageFix" result="shape"/><feGaussianBlur stdDeviation="5" result="effect1_foregroundBlur"/></filter><radialGradient cx="0" cy="0" r="1" gradientUnits="userSpaceOnUse" id="master_svg9_230_02297" gradientTransform="translate(46.257885456085205 32.276172399520874) rotate(90) scale(2.276172161102295 10.84582823888013)"><stop offset="0%" stop-color="#FFFFFF" stop-opacity="0.10000000149011612"/><stop offset="100%" stop-color="#00FFFF" stop-opacity="1"/></radialGradient><radialGradient cx="0" cy="0" r="1" gradientUnits="userSpaceOnUse" id="master_svga_230_02304" gradientTransform="translate(46.53013467788696 32.5) rotate(90) scale(8 15.24781399704625)"><stop offset="2.857142873108387%" stop-color="#00FFFF" stop-opacity="1"/><stop offset="100%" stop-color="#FFFFFF" stop-opacity="0"/></radialGradient><radialGradient cx="0" cy="0" r="1" gradientUnits="userSpaceOnUse" id="master_svgb_230_02304" gradientTransform="translate(46.53013467788696 32.5) rotate(90) scale(8 15.24781399704625)"><stop offset="2.857142873108387%" stop-color="#00FFFF" stop-opacity="1"/><stop offset="100%" stop-color="#FFFFFF" stop-opacity="0"/></radialGradient><filter id="master_svgc_430_71104" filterUnits="objectBoundingBox" color-interpolation-filters="sRGB" x="-20" y="-20" width="66.01339721679688" height="49.10468864440918"><feFlood flood-opacity="0" result="BackgroundImageFix"/><feBlend mode="normal" in="SourceGraphic" in2="BackgroundImageFix" result="shape"/><feGaussianBlur stdDeviation="5" result="effect1_foregroundBlur"/></filter><radialGradient cx="0" cy="0" r="1" gradientUnits="userSpaceOnUse" id="master_svgd_230_02304" gradientTransform="translate(46.31233549118042 32.05234479904175) rotate(90) scale(4.55234432220459 8.676662591104105)"><stop offset="2.857142873108387%" stop-color="#00FFFF" stop-opacity="1"/><stop offset="100%" stop-color="#FFFFFF" stop-opacity="0"/></radialGradient><filter id="master_svge_430_71098" filterUnits="objectBoundingBox" color-interpolation-filters="sRGB" x="-20" y="-20" width="85.71428680419922" height="48"><feFlood flood-opacity="0" result="BackgroundImageFix"/><feBlend mode="normal" in="SourceGraphic" in2="BackgroundImageFix" result="shape"/><feGaussianBlur stdDeviation="5" result="effect1_foregroundBlur"/></filter><radialGradient cx="0" cy="0" r="1" gradientUnits="userSpaceOnUse" id="master_svgf_230_02297" gradientTransform="translate(46.53013467788696 32.5) rotate(90) scale(4 15.24781399704625)"><stop offset="0%" stop-color="#FFFFFF" stop-opacity="0.10000000149011612"/><stop offset="100%" stop-color="#00FFFF" stop-opacity="1"/></radialGradient><radialGradient cx="0" cy="0" r="1" gradientUnits="userSpaceOnUse" id="master_svgg_230_02297" gradientTransform="translate(46.53013467788696 32.5) rotate(90) scale(4 15.24781399704625)"><stop offset="0%" stop-color="#FFFFFF" stop-opacity="0.10000000149011612"/><stop offset="100%" stop-color="#00FFFF" stop-opacity="1"/></radialGradient><filter id="master_svgh_430_71099" filterUnits="objectBoundingBox" color-interpolation-filters="sRGB" x="-20" y="-20" width="66.01339721679688" height="44.55234432220459"><feFlood flood-opacity="0" result="BackgroundImageFix"/><feBlend mode="normal" in="SourceGraphic" in2="BackgroundImageFix" result="shape"/><feGaussianBlur stdDeviation="5" result="effect1_foregroundBlur"/></filter><radialGradient cx="0" cy="0" r="1" gradientUnits="userSpaceOnUse" id="master_svgi_230_02297" gradientTransform="translate(46.31233549118042 32.276172399520874) rotate(90) scale(2.276172161102295 8.676662591104105)"><stop offset="0%" stop-color="#FFFFFF" stop-opacity="0.10000000149011612"/><stop offset="100%" stop-color="#00FFFF" stop-opacity="1"/></radialGradient></defs><g style="mix-blend-mode:passthrough"><g><path d="M443.1015625,49.5L105.1015625,49.5L105.1015625,48.5L443.1015625,48.5L443.1015625,49.5Z" fill="url(#master_svg0_230_06301)" fill-opacity="1"/></g><g><path d="M104.6644625,49.7428L84.6644625,13.742821L85.1015625,13.5L85.1015625,14L5.1015625,14L5.1015625,13.5L5.6015625,13.5L5.6015625,49.5L4.6015625,49.5L4.6015625,13L85.3957625,13L105.5385625,49.2572L104.6644625,49.7428Z" fill="#0FCED3" fill-opacity="1"/></g><g style="mix-blend-mode:passthrough"><g style="opacity:0.800000011920929;mix-blend-mode:passthrough"><g style="opacity:0.699999988079071;"><g style="mix-blend-mode:passthrough"><g style="opacity:0.5;"><path d="M41.50220542526245,40.3752C57.039505425262455,41.148399999999995,71.88150542526245,38.2488,74.65240542526246,33.89062C77.42340542526244,29.532429999999998,67.08530542526245,25.332399,51.558105425262454,24.611892C36.030905425262446,23.891384,21.17875542526245,26.7207,18.40782042526245,31.07889C15.63688542526245,35.4371,25.97495542526245,39.5844,41.50220542526245,40.3752Z" fill="url(#master_svg1_230_02304)" fill-opacity="0.699999988079071"/></g><g style="opacity:0.5;mix-blend-mode:soft-light"><path d="M41.50220542526245,40.3752C57.039505425262455,41.148399999999995,71.88150542526245,38.2488,74.65240542526246,33.89062C77.42340542526244,29.532429999999998,67.08530542526245,25.332399,51.558105425262454,24.611892C36.030905425262446,23.891384,21.17875542526245,26.7207,18.40782042526245,31.07889C15.63688542526245,35.4371,25.97495542526245,39.5844,41.50220542526245,40.3752Z" fill="url(#master_svg2_230_02304)" fill-opacity="0.699999988079071" style="mix-blend-mode:soft-light"/></g><g style="opacity:0.5;" filter="url(#master_svg3_430_71110)"><path d="M43.396712195587156,36.53367047683716C52.23811219558716,36.97367047683716,60.683912195587155,35.32367047683716,62.26071219558716,32.84367047683716C63.83751219558716,30.363670476837157,57.95471219558716,27.973671476837158,49.11901219558716,27.56367157683716C40.28341219558716,27.153671476837157,31.831862195587156,28.76367047683716,30.25507819558716,31.24367047683716C28.678292195587158,33.72367047683716,34.56110219558716,36.083670476837156,43.396712195587156,36.53367047683716Z" fill="url(#master_svg4_230_02304)" fill-opacity="0.699999988079071"/></g></g><g style="mix-blend-mode:passthrough" filter="url(#master_svg5_430_71111)"><g style="opacity:0.5;"><path d="M41.50220542526245,36.4376C57.039505425262455,36.82421,71.88150542526245,35.37441,74.65240542526246,33.19531C77.42340542526244,31.01622,67.08530542526245,28.9162,51.558105425262454,28.5559458C36.030905425262446,28.195692,21.17875542526245,29.61035,18.40782042526245,31.78944C15.63688542526245,33.96854,25.97495542526245,36.0422,41.50220542526245,36.4376Z" fill="url(#master_svg6_230_02297)" fill-opacity="1"/></g><g style="opacity:0.5;mix-blend-mode:soft-light"><path d="M41.50220542526245,36.4376C57.039505425262455,36.82421,71.88150542526245,35.37441,74.65240542526246,33.19531C77.42340542526244,31.01622,67.08530542526245,28.9162,51.558105425262454,28.5559458C36.030905425262446,28.195692,21.17875542526245,29.61035,18.40782042526245,31.78944C15.63688542526245,33.96854,25.97495542526245,36.0422,41.50220542526245,36.4376Z" fill="url(#master_svg7_230_02297)" fill-opacity="1" style="mix-blend-mode:soft-light"/></g><g style="opacity:0.5;" filter="url(#master_svg8_430_71112)"><path d="M43.396712195587156,34.51684023841858C52.23811219558716,34.73684023841858,60.683912195587155,33.91183023841858,62.26071219558716,32.67184023841858C63.83751219558716,31.43184023841858,57.95471219558716,30.23683523841858,49.11901219558716,30.03183583841858C40.28341219558716,29.82683623841858,31.831862195587156,30.63183623841858,30.25507819558716,31.871840238418578C28.678292195587158,33.11184023841858,34.56110219558716,34.29184023841858,43.396712195587156,34.51684023841858Z" fill="url(#master_svg9_230_02297)" fill-opacity="1"/></g></g></g><g style="opacity:0.5;"><g style="mix-blend-mode:passthrough"><g style="opacity:0.5;"><path d="M42.507791275787355,40.3752C54.937591275787355,41.148399999999995,66.81119127578735,38.2488,69.02799127578734,33.89062C71.24479127578735,29.532429999999998,62.97429127578735,25.332399,50.552491275787354,24.611892C38.130691275787356,23.891384,26.249031275787353,26.7207,24.032283275787353,31.07889C21.815531275787354,35.4371,30.085991275787354,39.5844,42.507791275787355,40.3752Z" fill="url(#master_svga_230_02304)" fill-opacity="0.699999988079071"/></g><g style="opacity:0.5;mix-blend-mode:soft-light"><path d="M42.507791275787355,40.3752C54.937591275787355,41.148399999999995,66.81119127578735,38.2488,69.02799127578734,33.89062C71.24479127578735,29.532429999999998,62.97429127578735,25.332399,50.552491275787354,24.611892C38.130691275787356,23.891384,26.249031275787353,26.7207,24.032283275787353,31.07889C21.815531275787354,35.4371,30.085991275787354,39.5844,42.507791275787355,40.3752Z" fill="url(#master_svgb_230_02304)" fill-opacity="0.699999988079071" style="mix-blend-mode:soft-light"/></g><g style="opacity:0.5;" filter="url(#master_svgc_430_71104)"><path d="M44.02343688278198,36.53367047683716C51.09653688278198,36.97367047683716,57.85313688278198,35.32367047683716,59.114536882781984,32.84367047683716C60.37603688278198,30.363670476837157,55.66973688278198,27.973671476837158,48.60123688278198,27.56367157683716C41.53271688278198,27.153671476837157,34.77151688278198,28.76367047683716,33.51008988278198,31.24367047683716C32.24866688278198,33.72367047683716,36.95491688278198,36.083670476837156,44.02343688278198,36.53367047683716Z" fill="url(#master_svgd_230_02304)" fill-opacity="0.699999988079071"/></g></g><g style="mix-blend-mode:passthrough" filter="url(#master_svge_430_71098)"><g style="opacity:0.5;"><path d="M42.507791275787355,36.4376C54.937591275787355,36.82421,66.81119127578735,35.37441,69.02799127578734,33.19531C71.24479127578735,31.01622,62.97429127578735,28.9162,50.552491275787354,28.5559458C38.130691275787356,28.195692,26.249031275787353,29.61035,24.032283275787353,31.78944C21.815531275787354,33.96854,30.085991275787354,36.0422,42.507791275787355,36.4376Z" fill="url(#master_svgf_230_02297)" fill-opacity="1"/></g><g style="opacity:0.5;mix-blend-mode:soft-light"><path d="M42.507791275787355,36.4376C54.937591275787355,36.82421,66.81119127578735,35.37441,69.02799127578734,33.19531C71.24479127578735,31.01622,62.97429127578735,28.9162,50.552491275787354,28.5559458C38.130691275787356,28.195692,26.249031275787353,29.61035,24.032283275787353,31.78944C21.815531275787354,33.96854,30.085991275787354,36.0422,42.507791275787355,36.4376Z" fill="url(#master_svgg_230_02297)" fill-opacity="1" style="mix-blend-mode:soft-light"/></g><g style="opacity:0.5;" filter="url(#master_svgh_430_71099)"><path d="M44.02343688278198,34.51684023841858C51.09653688278198,34.73684023841858,57.85313688278198,33.91183023841858,59.114536882781984,32.67184023841858C60.37603688278198,31.43184023841858,55.66973688278198,30.23683523841858,48.60123688278198,30.03183583841858C41.53271688278198,29.82683623841858,34.77151688278198,30.63183623841858,33.51008988278198,31.871840238418578C32.24866688278198,33.11184023841858,36.95491688278198,34.29184023841858,44.02343688278198,34.51684023841858Z" fill="url(#master_svgi_230_02297)" fill-opacity="1"/></g></g></g></g><g style="mix-blend-mode:passthrough"><path d="M20.6295525,26.04671C20.866532499999998,26.538899999999998,21.1354125,27.154130000000002,21.3450525,27.68733L15.7031245,27.68733L15.7031245,29.341630000000002L21.1764325,29.341630000000002L21.1764325,30.895670000000003L16.8925825,30.895670000000003L16.8925825,37.604L18.5833325,37.604L18.5833325,32.55L21.1764325,32.55L21.1764325,38.994L22.9264325,38.994L22.9264325,32.55L25.724562499999998,32.55L25.724562499999998,35.7355C25.724562499999998,35.908699999999996,25.6425625,35.9816,25.419262500000002,35.9816C25.1959625,35.9816,24.366532499999998,35.9816,23.669272499999998,35.9543C23.8925825,36.4009,24.1569025,37.1164,24.2298125,37.604C25.318962499999998,37.604,26.1165625,37.5767,26.718062500000002,37.326C27.2923625,37.0617,27.474562499999998,36.5832,27.474562499999998,35.7629L27.474562499999998,30.895670000000003L22.9264325,30.895670000000003L22.9264325,29.341630000000002L28.5546625,29.341630000000002L28.5546625,27.68733L23.3320325,27.68733C23.1087225,27.09033,22.6438825,26.17887,22.2975225,25.49528L20.6295525,26.04671ZM34.9941625,31.9894C35.1217625,31.857300000000002,35.6959625,31.770699999999998,36.251962500000005,31.770699999999998L36.3795625,31.770699999999998C35.9329625,33.0103,35.190062499999996,34.0767,34.2239625,34.8286L34.0553625,34.063L32.751962500000005,34.5278L32.751962500000005,30.604L34.141962500000005,30.604L34.141962500000005,29.00895L32.751962500000005,29.00895L32.751962500000005,25.800620000000002L31.1842625,25.800620000000002L31.1842625,29.00895L29.657562499999997,29.00895L29.657562499999997,30.604L31.1842625,30.604L31.1842625,35.033699999999996C30.5416625,35.2479,29.9537625,35.4484,29.4615625,35.5942L30.0084625,37.367000000000004C31.2981625,36.8475,32.9068625,36.1867,34.3925625,35.553200000000004L34.3378625,35.3208C34.6295625,35.5213,34.939462500000005,35.7674,35.1080625,35.9269C36.338562499999995,35.0747,37.3730625,33.589,37.9472625,31.770699999999998L38.7447625,31.770699999999998C38.001962500000005,34.5552,36.6301625,36.8019,34.574862499999995,38.1144C34.939462500000005,38.3241,35.5820625,38.770700000000005,35.8463625,39.0213C37.9199625,37.4946,39.4329625,34.9881,40.2851625,31.770699999999998L40.763662499999995,31.770699999999998C40.5540625,35.4484,40.2851625,36.9478,39.966162499999996,37.3078C39.824862499999995,37.4946,39.6835625,37.5539,39.4602625,37.5539C39.2096625,37.5539,38.717462499999996,37.5402,38.1705625,37.481C38.439462500000005,37.9185,38.6217625,38.5884,38.6354625,39.0623C39.2916625,39.076,39.8932625,39.0623,40.2851625,38.994C40.749962499999995,38.9393,41.0963625,38.7843,41.4199625,38.3514C41.925762500000005,37.7362,42.203762499999996,35.8677,42.4863625,30.91845C42.513662499999995,30.72249,42.527362499999995,30.202959999999997,42.527362499999995,30.202959999999997L37.6692625,30.202959999999997C38.8860625,29.309730000000002,40.189462500000005,28.19775,41.4062625,27.04476L40.2167625,26.09684L39.852262499999995,26.229L34.3378625,26.229L34.3378625,27.81494L38.061162499999995,27.81494C37.0950625,28.66259,36.1425625,29.31884,35.7779625,29.569499999999998C35.2447625,29.93408,34.729862499999996,30.239420000000003,34.3059625,30.31233C34.5338625,30.83642,34.8801625,31.6339,34.9941625,31.9894ZM43.8990625,29.14567L43.8990625,30.840980000000002L46.852262499999995,30.840980000000002C46.236962500000004,33.365700000000004,45.0292625,35.3573,43.4068625,36.4966C43.812462499999995,36.756299999999996,44.486962500000004,37.4263,44.764962499999996,37.804500000000004C46.738262500000005,36.3097,48.2512625,33.379400000000004,48.8801625,29.49658L47.7636625,29.07731L47.4537625,29.14567L43.8990625,29.14567ZM54.2988625,28.14762C53.6699625,29.04996,52.7037625,30.11181,51.8242625,30.9458C51.5279625,30.36702,51.2636625,29.765459999999997,51.0540625,29.14567L51.0540625,25.65022L49.2584625,25.65022L49.2584625,36.8839C49.2584625,37.13,49.1764625,37.2166,48.9394625,37.2166C48.6705625,37.2166,47.9140625,37.2166,47.1438625,37.1893C47.4127625,37.6906,47.7044625,38.547399999999996,47.7773625,39.0623C48.9075625,39.0623,49.7506625,38.9803,50.3111625,38.6886C50.8717625,38.378699999999995,51.0540625,37.8729,51.0540625,36.8976L51.0540625,32.7459C52.1568625,34.9106,53.6425625,36.6698,55.6158625,37.7362C55.8984625,37.244,56.4726625,36.5103,56.8645625,36.1502C55.1145625,35.3573,53.6699625,33.9855,52.5898625,32.313C53.5878625,31.49267,54.8320625,30.30778,55.8528625,29.2596L54.2988625,28.14762ZM62.9941625,30.54476C63.3723625,32.4588,63.7232625,34.9699,63.8326625,36.455600000000004L65.4869625,35.9862C65.3456625,34.5278,64.94006250000001,32.0714,64.52086249999999,30.18929L62.9941625,30.54476ZM64.83986250000001,25.850749999999998C65.0676625,26.548009999999998,65.3593625,27.48226,65.4732625,28.1066L62.1829625,28.1066L62.1829625,29.729L70.0077625,29.729L70.0077625,28.1066L65.6829625,28.1066L67.1503625,27.6691C66.99996250000001,27.05843,66.70376250000001,26.142409999999998,66.43946249999999,25.445149999999998L64.83986250000001,25.850749999999998ZM61.6633625,36.8566L61.6633625,38.479L70.4863625,38.479L70.4863625,36.8566L68.0891625,36.8566C68.5950625,35.0701,69.1145625,32.5728,69.4609625,30.41715L67.6972625,30.13004C67.5149625,32.2173,67.04106250000001,34.9881,66.56246250000001,36.8566L61.6633625,36.8566ZM60.7245625,25.704909999999998C60.0136625,27.78759,58.7923625,29.801920000000003,57.5208625,31.08707C57.7988625,31.5018,58.2591625,32.4451,58.4140625,32.8735C58.7239625,32.5454,59.0156625,32.1854,59.3118625,31.788899999999998L59.3118625,39.0623L61.0071625,39.0623L61.0071625,29.11377C61.5084625,28.206870000000002,61.9459625,27.204259999999998,62.3059625,26.229L60.7245625,25.704909999999998Z" fill="#FFFFFF" fill-opacity="1"/></g></g></g></svg>