<svg xmlns="http://www.w3.org/2000/svg" xmlns:xlink="http://www.w3.org/1999/xlink" fill="none" version="1.1" width="139.3330078125" height="161" viewBox="0 0 139.3330078125 161"><defs><filter id="master_svg0_430_84419" filterUnits="objectBoundingBox" color-interpolation-filters="sRGB" x="0" y="0" width="139" height="161"><feFlood flood-opacity="0" result="BackgroundImageFix"/><feBlend mode="normal" in="SourceGraphic" in2="BackgroundImageFix" result="shape"/><feColorMatrix in="SourceAlpha" type="matrix" result="hardAlpha" values="0 0 0 0 0 0 0 0 0 0 0 0 0 0 0 0 0 0 127 0"/><feOffset dy="0" dx="0"/><feGaussianBlur stdDeviation="4"/><feComposite in2="hardAlpha" operator="arithmetic" k2="-1" k3="1"/><feColorMatrix type="matrix" values="0 0 0 0 1 0 0 0 0 0.95686274766922 0 0 0 0 0.3607843220233917 0 0 0 0.5 0"/><feBlend mode="normal" in2="shape" result="effect1_innerShadow"/></filter><linearGradient x1="0" y1="0.5997306108474731" x2="1" y2="0.5997306108474731" id="master_svg1_283_12791"><stop offset="0%" stop-color="#FFF45C" stop-opacity="0.20000000298023224"/><stop offset="100%" stop-color="#FFF45C" stop-opacity="0.5"/></linearGradient><linearGradient x1="0" y1="0.434982031583786" x2="1" y2="0.434982031583786" id="master_svg2_283_12794"><stop offset="2.857142873108387%" stop-color="#FFF45C" stop-opacity="0.05000000074505806"/><stop offset="56.42856955528259%" stop-color="#FFF45C" stop-opacity="0.4931506812572479"/><stop offset="100%" stop-color="#FFF45C" stop-opacity="0.05000000074505806"/></linearGradient></defs><g style="mix-blend-mode:passthrough"><g style="opacity:0.5;mix-blend-mode:passthrough" filter="url(#master_svg0_430_84419)"><rect x="0" y="0" width="139" height="161" rx="0" fill="url(#master_svg1_283_12791)" fill-opacity="0.5"/><rect x="0.5" y="0.5" width="138" height="160" rx="0" stroke="url(#master_svg2_283_12794)" fill-opacity="0" fill="none" stroke-width="1"/></g><g style="mix-blend-mode:passthrough"><path d="M0,0L11.2366,0L11.2366,1L1,1L1,9.79053L-1.77636e-15,9.79053L0,0ZM0,149.034L0,161L11.2366,161L11.2366,160L1,160L1,149.034L0,149.034ZM138.333,149.034L138.333,160L128.097,160L128.097,161L139.333,161L139.333,149.034L138.333,149.034ZM139.333,9.79053L139.333,0L128.097,0L128.097,1L138.333,1L138.333,9.79053L139.333,9.79053Z" fill-rule="evenodd" fill="#FFF45C" fill-opacity="1"/></g><g style="opacity:0.30000001192092896;mix-blend-mode:soft-light"><g><g style="opacity:0.23999999463558197;mix-blend-mode:overlay" transform="matrix(1,-0.006169050000607967,0.006755683105438948,1,-0.10234752456253204,0.6399094116109154)"><ellipse cx="115.87357425689697" cy="26.906854271888733" rx="12.144570350646973" ry="11.757013320922852" fill="#FFF45C" fill-opacity="1" style="mix-blend-mode:overlay"/></g><g style="opacity:0.30000001192092896;mix-blend-mode:overlay" transform="matrix(0.9998385310173035,-0.012847079895436764,0.013694990426301956,0.9998953342437744,-0.8102109410492346,0.698555033385901)"><ellipse cx="65.92410564422607" cy="71.46276092529297" rx="12.036654472351074" ry="11.666290283203125" fill="#FFF45C" fill-opacity="1" style="mix-blend-mode:overlay"/></g><g style="opacity:0.6000000238418579;mix-blend-mode:overlay"><path d="M61.7101026171875,122.4074658227539C59.5767456171875,120.3944758227539,59.5328696171875,117.0883358227539,61.6121026171875,115.0229558227539C63.6913326171875,112.9575678227539,67.1063226171875,112.9150428227539,69.2397426171875,114.92797582275391C71.3731326171875,116.9409058227539,71.4171326171875,120.24702582275391,69.3379726171875,122.31247582275391C67.2592626171875,124.3792558227539,63.8430426171875,124.42175582275391,61.7101026171875,122.4074658227539Z" fill="#FFF45C" fill-opacity="1" style="mix-blend-mode:overlay"/></g><g style="opacity:0.3100000023841858;mix-blend-mode:overlay"><path d="M11.62346,89.73625382080078C9.493163,87.72019382080079,9.454358,84.41396382080079,11.53678,82.35157382080078C13.619209999999999,80.28918382080079,17.0343,80.25160082080077,19.16461,82.26764382080079C21.2949,84.28367382080079,21.3337,87.58990382080079,19.25133,89.65231382080079C17.1689,91.71475382080078,13.75377,91.75235382080078,11.62346,89.73625382080078Z" fill="#FFF45C" fill-opacity="1" style="mix-blend-mode:overlay"/></g><g style="opacity:0.6600000262260437;mix-blend-mode:overlay"><path d="M74.9488621484375,34.312236701049805C72.8155081484375,32.2992467010498,72.7716391484375,28.993116701049804,74.8508721484375,26.927736701049806C76.9301021484375,24.862355701049804,80.3450921484375,24.819832701049805,82.4785121484375,26.832756701049803C84.6119021484375,28.845676701049804,84.6559021484375,32.1518167010498,82.5767321484375,34.2172467010498C80.4974721484375,36.2827467010498,77.0823121484375,36.3253467010498,74.9488621484375,34.312236701049805Z" fill="#FFF45C" fill-opacity="1" style="mix-blend-mode:overlay"/></g><g style="opacity:0.3400000035762787;mix-blend-mode:overlay"><path d="M20.262248125,143.77308685302734C16.749698125,140.45788685302733,16.677813125,135.01388685302734,20.101688125,131.61293685302735C23.525548125,128.21198985302735,29.148878125,128.14178485302733,32.662178125,131.45613685302735C36.175478125,134.77048685302734,36.248578125,140.21448685302735,32.825578125,143.61618685302733C29.401378125,147.01898685302734,23.775908125,147.08918685302734,20.262248125,143.77308685302734Z" fill="#FFF45C" fill-opacity="1" style="mix-blend-mode:overlay"/></g></g></g></g></svg>