<svg xmlns="http://www.w3.org/2000/svg" xmlns:xlink="http://www.w3.org/1999/xlink" fill="none" version="1.1" width="361" height="265" viewBox="0 0 361 265"><defs><linearGradient x1="-0.0011013215407729149" y1="0.5" x2="1.0011013746261597" y2="0.5" id="master_svg0_230_02363"><stop offset="0%" stop-color="#0CDCE2" stop-opacity="0.07999999821186066"/><stop offset="50%" stop-color="#62FFFF" stop-opacity="1"/><stop offset="100%" stop-color="#1EE3E8" stop-opacity="0.05000000074505806"/></linearGradient><filter id="master_svg1_430_83499" filterUnits="objectBoundingBox" color-interpolation-filters="sRGB" x="0" y="0" width="349.7203369140625" height="232"><feFlood flood-opacity="0" result="BackgroundImageFix"/><feBlend mode="normal" in="SourceGraphic" in2="BackgroundImageFix" result="shape"/><feColorMatrix in="SourceAlpha" type="matrix" result="hardAlpha" values="0 0 0 0 0 0 0 0 0 0 0 0 0 0 0 0 0 0 127 0"/><feOffset dy="0" dx="0"/><feGaussianBlur stdDeviation="4"/><feComposite in2="hardAlpha" operator="arithmetic" k2="-1" k3="1"/><feColorMatrix type="matrix" values="0 0 0 0 0.11764705926179886 0 0 0 0 0.8823529481887817 0 0 0 0 0.9215686321258545 0 0 0 0.5 0"/><feBlend mode="normal" in2="shape" result="effect1_innerShadow"/></filter><linearGradient x1="0.5" y1="1.0021551847457886" x2="0.5" y2="-0.0021551724057644606" id="master_svg2_230_01950"><stop offset="0%" stop-color="#066475" stop-opacity="1"/><stop offset="100%" stop-color="#02707F" stop-opacity="0.20000000298023224"/></linearGradient><linearGradient x1="0" y1="57.5" x2="6.659999847412109" y2="57.5" id="master_svg3_230_10419"></linearGradient><linearGradient x1="0.3636363744735718" y1="0" x2="0.3636363744735718" y2="1" id="master_svg4_230_02002"><stop offset="2.9999950900673866%" stop-color="#0CDCE2" stop-opacity="0.07999999821186066"/><stop offset="73.92604351043701%" stop-color="#62FFFF" stop-opacity="1"/><stop offset="99.9998927116394%" stop-color="#1EE3E8" stop-opacity="0.05000000074505806"/></linearGradient><linearGradient x1="0.3636363744735718" y1="0" x2="0.3636363744735718" y2="1" id="master_svg5_230_02002"><stop offset="2.9999950900673866%" stop-color="#0CDCE2" stop-opacity="0.07999999821186066"/><stop offset="73.92604351043701%" stop-color="#62FFFF" stop-opacity="1"/><stop offset="99.9998927116394%" stop-color="#1EE3E8" stop-opacity="0.05000000074505806"/></linearGradient><linearGradient x1="0.3636363744735718" y1="0" x2="0.3636363744735718" y2="1" id="master_svg6_230_02002"><stop offset="2.9999950900673866%" stop-color="#0CDCE2" stop-opacity="0.07999999821186066"/><stop offset="73.92604351043701%" stop-color="#62FFFF" stop-opacity="1"/><stop offset="99.9998927116394%" stop-color="#1EE3E8" stop-opacity="0.05000000074505806"/></linearGradient><linearGradient x1="0.3636363744735718" y1="0" x2="0.3636363744735718" y2="1" id="master_svg7_230_02002"><stop offset="2.9999950900673866%" stop-color="#0CDCE2" stop-opacity="0.07999999821186066"/><stop offset="73.92604351043701%" stop-color="#62FFFF" stop-opacity="1"/><stop offset="99.9998927116394%" stop-color="#1EE3E8" stop-opacity="0.05000000074505806"/></linearGradient><radialGradient cx="0" cy="0" r="1" gradientUnits="userSpaceOnUse" id="master_svg8_230_02304" gradientTransform="translate(180.61985778808594 32.5) rotate(90) scale(8 36.34460636530275)"><stop offset="2.857142873108387%" stop-color="#00FFFF" stop-opacity="1"/><stop offset="100%" stop-color="#FFFFFF" stop-opacity="0"/></radialGradient><radialGradient cx="0" cy="0" r="1" gradientUnits="userSpaceOnUse" id="master_svg9_230_02304" gradientTransform="translate(180.61985778808594 32.5) rotate(90) scale(8 36.34460636530275)"><stop offset="2.857142873108387%" stop-color="#00FFFF" stop-opacity="1"/><stop offset="100%" stop-color="#FFFFFF" stop-opacity="0"/></radialGradient><filter id="master_svga_430_84174" filterUnits="objectBoundingBox" color-interpolation-filters="sRGB" x="-20" y="-20" width="102.0053939819336" height="49.10468864440918"><feFlood flood-opacity="0" result="BackgroundImageFix"/><feBlend mode="normal" in="SourceGraphic" in2="BackgroundImageFix" result="shape"/><feGaussianBlur stdDeviation="5" result="effect1_foregroundBlur"/></filter><radialGradient cx="0" cy="0" r="1" gradientUnits="userSpaceOnUse" id="master_svgb_230_02304" gradientTransform="translate(180.10071563720703 32.05234456062317) rotate(90) scale(4.55234432220459 20.68164638113194)"><stop offset="2.857142873108387%" stop-color="#00FFFF" stop-opacity="1"/><stop offset="100%" stop-color="#FFFFFF" stop-opacity="0"/></radialGradient><filter id="master_svgc_430_84176" filterUnits="objectBoundingBox" color-interpolation-filters="sRGB" x="-20" y="-20" width="148.96432495117188" height="48"><feFlood flood-opacity="0" result="BackgroundImageFix"/><feBlend mode="normal" in="SourceGraphic" in2="BackgroundImageFix" result="shape"/><feGaussianBlur stdDeviation="5" result="effect1_foregroundBlur"/></filter><radialGradient cx="0" cy="0" r="1" gradientUnits="userSpaceOnUse" id="master_svgd_230_02297" gradientTransform="translate(180.61985778808594 32.5) rotate(90) scale(4 36.34460636530275)"><stop offset="0%" stop-color="#FFFFFF" stop-opacity="0.10000000149011612"/><stop offset="100%" stop-color="#00FFFF" stop-opacity="1"/></radialGradient><radialGradient cx="0" cy="0" r="1" gradientUnits="userSpaceOnUse" id="master_svge_230_02297" gradientTransform="translate(180.61985778808594 32.5) rotate(90) scale(4 36.34460636530275)"><stop offset="0%" stop-color="#FFFFFF" stop-opacity="0.10000000149011612"/><stop offset="100%" stop-color="#00FFFF" stop-opacity="1"/></radialGradient><filter id="master_svgf_430_84178" filterUnits="objectBoundingBox" color-interpolation-filters="sRGB" x="-20" y="-20" width="102.0053939819336" height="44.55234432220459"><feFlood flood-opacity="0" result="BackgroundImageFix"/><feBlend mode="normal" in="SourceGraphic" in2="BackgroundImageFix" result="shape"/><feGaussianBlur stdDeviation="5" result="effect1_foregroundBlur"/></filter><radialGradient cx="0" cy="0" r="1" gradientUnits="userSpaceOnUse" id="master_svgg_230_02297" gradientTransform="translate(180.10071563720703 32.276172280311584) rotate(90) scale(2.276172161102295 20.68164638113194)"><stop offset="0%" stop-color="#FFFFFF" stop-opacity="0.10000000149011612"/><stop offset="100%" stop-color="#00FFFF" stop-opacity="1"/></radialGradient></defs><g style="mix-blend-mode:passthrough"><g style="mix-blend-mode:passthrough"><g><path d="M359.6060078125,79.77770000000001L349.7200078125,72.7582L349.7200078125,33.5L350.2200078125,33.5L349.8800078125,33.86609L340.2050078125,24.866094L340.5450078125,24.5L340.5450078125,25L21.0581078125,25L21.0581078125,24.5L21.3987078125,24.866094L11.7236078125,33.86609L11.3830678125,33.5L11.8831078125,33.5L11.8831078125,72.7582L1.9974888124999999,79.77770000000001L1.7080078125,79.37L2.2080078125,79.37L2.2080078125,207.5L1.7080078125,207.5L2.0128028125,207.104L11.8831078125,214.694L11.8831078125,256.5L11.3830678125,256.5L11.7016878125,256.115L21.3767078125,264.115L21.0581078125,264.5L21.0581078125,264L340.5450078125,264L340.5450078125,264.5L340.2270078125,264.115L349.9020078125,256.115L350.2200078125,256.5L349.7200078125,256.5L349.7200078125,214.694L359.5910078125,207.104L359.8950078125,207.5L359.3950078125,207.5L359.3950078125,79.37L359.8950078125,79.37L359.6060078125,79.77770000000001ZM360.3950078125,79.1118L360.3950078125,207.746L350.5250078125,215.336L350.2200078125,214.94L350.7200078125,214.94L350.7200078125,256.735L340.7250078125,265L20.8782078125,265L10.8830678125,256.735L10.8830678125,214.94L11.3830678125,214.94L11.0782778125,215.336L1.2080078125,207.746L1.2080078125,79.1118L11.0935878125,72.0923L11.3830678125,72.5L10.8830678125,72.5L10.8830678125,33.28223L20.8615078125,24L340.7420078125,24L350.7200078125,33.28223L350.7200078125,72.5L350.2200078125,72.5L350.5100078125,72.0923L360.1850078125,78.9623L360.3950078125,79.1118Z" fill="url(#master_svg0_230_02363)" fill-opacity="1"/></g><g style="opacity:0.20000000298023224;" filter="url(#master_svg1_430_83499)"><path d="M345.37703125,72.5L345.37703125,37.5L335.70203125,28.5L229.53603125,28.5L217.07903125,34.5L142.09703125,34.5L129.64103125,28.5L24.68213125,28.5L15.00709125,37.5L15.00709125,72.5L5.33203125,79.37L5.33203125,207.5L15.00709125,214.94L15.00709125,252.5L24.68213125,260.5L116.69903125,260.5L130.00203125000002,253.5L231.59003125,253.5L244.89403125,260.5L335.70203125,260.5L345.37703125,252.5L345.37703125,214.94L355.05203125,207.5L355.05203125,79.37L345.37703125,72.5Z" fill="#1E8BFF" fill-opacity="1"/><path d="M345.37703125,72.5L345.37703125,37.5L335.70203125,28.5L229.53603125,28.5L217.07903125,34.5L142.09703125,34.5L129.64103125,28.5L24.68213125,28.5L15.00709125,37.5L15.00709125,72.5L5.33203125,79.37L5.33203125,207.5L15.00709125,214.94L15.00709125,252.5L24.68213125,260.5L116.69903125,260.5L130.00203125000002,253.5L231.59003125,253.5L244.89403125,260.5L335.70203125,260.5L345.37703125,252.5L345.37703125,214.94L355.05203125,207.5L355.05203125,79.37L345.37703125,72.5ZM354.05203125,79.88640000000001L344.37703125,73.0164L344.37703125,37.93553L335.30903125,29.5L229.76403125,29.5L217.30703125,35.5L141.86903125,35.5L129.41203124999998,29.5L25.07533125,29.5L16.00713125,37.93554L16.00713125,73.0164L6.33203125,79.88640000000001L6.33203125,207.007L16.00713125,214.448L16.00713125,252.029L25.04203125,259.5L116.45203125,259.5L129.75503125,252.5L231.83703125,252.5L245.14103125,259.5L335.34203125,259.5L344.37703125,252.029L344.37703125,214.448L354.05203125,207.008L354.05203125,79.88640000000001Z" fill-rule="evenodd" fill="url(#master_svg2_230_01950)" fill-opacity="1"/></g><g style="opacity:0.5;"><ellipse cx="3.9263229370117188" cy="68.99992179870605" rx="3.4263229370117188" ry="2.8299999237060547" stroke="url(#master_svg3_230_10419)" fill-opacity="0" fill="none" stroke-width="1"/></g><g transform="matrix(-1,0,0,1,721,0)"><path d="M374.1438,24.866094L364.4687,33.86609L364.12815,33.5L364.62815,33.5L364.62815,65.5L363.62815,65.5L363.62815,33.28223L373.4627,24.133906L374.1438,24.866094ZM364.12815,72Q362.44537,72,361.244038,71.0067Q360,69.97800000000001,360,68.5Q360,67.02199999999999,361.244038,65.9933Q362.44537,65,364.12815,65Q365.81092,65,367.01226,65.9933Q368.2563,67.02199999999999,368.2563,68.5Q368.2563,69.97800000000001,367.01226,71.0067Q365.81092,72,364.12815,72L364.12815,72ZM364.12815,71Q365.45104,71,366.37502,70.23599999999999Q367.2563,69.5073,367.2563,68.5Q367.2563,67.4927,366.37502,66.76400000000001Q365.45104,66,364.12815,66Q362.80526,66,361.88128,66.76400000000001Q361,67.4927,361,68.5Q361,69.5073,361.88128,70.23599999999999Q362.80526,71,364.12815,71L364.12815,71Z" fill="url(#master_svg4_230_02002)" fill-opacity="0.20000000298023224"/></g><g transform="matrix(-1,0,0,-1,721,529)"><path d="M374.1438,264.866094L364.4687,273.86609L364.12815,273.5L364.62815,273.5L364.62815,305.5L363.62815,305.5L363.62815,273.28223L373.4627,264.133906L374.1438,264.866094ZM364.12815,312Q362.44537,312,361.244038,311.0067Q360,309.978,360,308.5Q360,307.022,361.244038,305.9933Q362.44537,305,364.12815,305Q365.81092,305,367.01226,305.9933Q368.2563,307.022,368.2563,308.5Q368.2563,309.978,367.01226,311.0067Q365.81092,312,364.12815,312L364.12815,312ZM364.12815,311Q365.45104,311,366.37502,310.236Q367.2563,309.5073,367.2563,308.5Q367.2563,307.4927,366.37502,306.764Q365.45104,306,364.12815,306Q362.80526,306,361.88128,306.764Q361,307.4927,361,308.5Q361,309.5073,361.88128,310.236Q362.80526,311,364.12815,311L364.12815,311Z" fill="url(#master_svg5_230_02002)" fill-opacity="0.20000000298023224"/></g><g transform="matrix(1,0,0,-1,0,529)"><path d="M14.1438,264.866094L4.4687,273.86609L4.12815,273.5L4.62815,273.5L4.62815,305.5L3.62815,305.5L3.62815,273.28223L13.4627,264.133906L14.1438,264.866094ZM4.12815,312Q2.44537,312,1.244038,311.0067Q0,309.978,0,308.5Q0,307.022,1.244038,305.9933Q2.44537,305,4.12815,305Q5.81092,305,7.01226,305.9933Q8.2563,307.022,8.2563,308.5Q8.2563,309.978,7.01226,311.0067Q5.81092,312,4.12815,312L4.12815,312ZM4.12815,311Q5.45104,311,6.37502,310.236Q7.2563,309.5073,7.2563,308.5Q7.2563,307.4927,6.37502,306.764Q5.45104,306,4.12815,306Q2.80526,306,1.88128,306.764Q1,307.4927,1,308.5Q1,309.5073,1.88128,310.236Q2.80526,311,4.12815,311L4.12815,311Z" fill="url(#master_svg6_230_02002)" fill-opacity="0.20000000298023224"/></g><g><path d="M14.1438,24.866094L4.4687,33.86609L4.12815,33.5L4.62815,33.5L4.62815,65.5L3.62815,65.5L3.62815,33.28223L13.4627,24.133906L14.1438,24.866094ZM4.12815,72Q2.44537,72,1.244038,71.0067Q0,69.97800000000001,0,68.5Q0,67.02199999999999,1.244038,65.9933Q2.44537,65,4.12815,65Q5.81092,65,7.01226,65.9933Q8.2563,67.02199999999999,8.2563,68.5Q8.2563,69.97800000000001,7.01226,71.0067Q5.81092,72,4.12815,72L4.12815,72ZM4.12815,71Q5.45104,71,6.37502,70.23599999999999Q7.2563,69.5073,7.2563,68.5Q7.2563,67.4927,6.37502,66.76400000000001Q5.45104,66,4.12815,66Q2.80526,66,1.88128,66.76400000000001Q1,67.4927,1,68.5Q1,69.5073,1.88128,70.23599999999999Q2.80526,71,4.12815,71L4.12815,71Z" fill="url(#master_svg7_230_02002)" fill-opacity="0.20000000298023224"/></g><g><path d="M10.873046875,52.5L10.873046875,33.28223L20.851506875,24L42.212346875,24L42.212346875,25L21.048106875000002,25L21.048106875000002,24.5L21.388646875,24.866094L11.713597875,33.86609L11.373046875,33.5L11.873046875,33.5L11.873046875,52.5L10.873046875,52.5Z" fill="#FFB031" fill-opacity="1"/></g><g><path d="M319.42578125,24L340.78658125,24L350.76508125,33.28223L350.76508125,52.5L349.76508125,52.5L349.76508125,33.5L350.26508125,33.5L349.92448125,33.86609L340.24938125,24.866095L340.58998125,24.5L340.58998125,25L319.42578125,25L319.42578125,24Z" fill="#FFB031" fill-opacity="1"/></g><g style="mix-blend-mode:passthrough"><g style="opacity:0.699999988079071;"><g style="mix-blend-mode:passthrough"><g style="opacity:0.5;"><path d="M171.0321953125,40.3752C200.6597953125,41.148399999999995,228.9616953125,38.2488,234.2456953125,33.89062C239.5296953125,29.532429999999998,219.81599531249998,25.332399,190.20759531250002,24.611892C160.5990953125,23.891384,132.2779253125,26.7207,126.9941023125,31.07889C121.7102753125,35.4371,141.4236953125,39.5844,171.0321953125,40.3752Z" fill="url(#master_svg8_230_02304)" fill-opacity="0.699999988079071"/></g><g style="opacity:0.5;mix-blend-mode:soft-light"><path d="M171.0321953125,40.3752C200.6597953125,41.148399999999995,228.9616953125,38.2488,234.2456953125,33.89062C239.5296953125,29.532429999999998,219.81599531249998,25.332399,190.20759531250002,24.611892C160.5990953125,23.891384,132.2779253125,26.7207,126.9941023125,31.07889C121.7102753125,35.4371,141.4236953125,39.5844,171.0321953125,40.3752Z" fill="url(#master_svg9_230_02304)" fill-opacity="0.699999988079071" style="mix-blend-mode:soft-light"/></g><g style="opacity:0.5;" filter="url(#master_svga_430_84174)"><path d="M174.64491864624023,36.53367023841858C191.50431864624022,36.97367023841858,207.60931864624024,35.32367023841858,210.61611864624024,32.84367023841858C213.62281864624023,30.363670238418578,202.40501864624025,27.97367123841858,185.55651864624025,27.56367133841858C168.70801864624025,27.15367123841858,152.59207864624022,28.76367023841858,149.58535064624024,31.24367023841858C146.57862864624025,33.72367023841858,157.79640864624022,36.08367023841858,174.64491864624023,36.53367023841858Z" fill="url(#master_svgb_230_02304)" fill-opacity="0.699999988079071"/></g></g><g style="mix-blend-mode:passthrough" filter="url(#master_svgc_430_84176)"><g style="opacity:0.5;"><path d="M171.0321953125,36.4376C200.6597953125,36.82421,228.9616953125,35.37441,234.2456953125,33.19531C239.5296953125,31.01622,219.81599531249998,28.9162,190.20759531250002,28.5559458C160.5990953125,28.195692,132.2779253125,29.61035,126.9941023125,31.78944C121.7102753125,33.96854,141.4236953125,36.0422,171.0321953125,36.4376Z" fill="url(#master_svgd_230_02297)" fill-opacity="1"/></g><g style="opacity:0.5;mix-blend-mode:soft-light"><path d="M171.0321953125,36.4376C200.6597953125,36.82421,228.9616953125,35.37441,234.2456953125,33.19531C239.5296953125,31.01622,219.81599531249998,28.9162,190.20759531250002,28.5559458C160.5990953125,28.195692,132.2779253125,29.61035,126.9941023125,31.78944C121.7102753125,33.96854,141.4236953125,36.0422,171.0321953125,36.4376Z" fill="url(#master_svge_230_02297)" fill-opacity="1" style="mix-blend-mode:soft-light"/></g><g style="opacity:0.5;" filter="url(#master_svgf_430_84178)"><path d="M174.64491864624023,34.51684011920929C191.50431864624022,34.73684011920929,207.60931864624024,33.91183011920929,210.61611864624024,32.67184011920929C213.62281864624023,31.43184011920929,202.40501864624025,30.23683511920929,185.55651864624025,30.03183571920929C168.70801864624025,29.82683611920929,152.59207864624022,30.63183611920929,149.58535064624024,31.87184011920929C146.57862864624025,33.11184011920929,157.79640864624022,34.29184011920929,174.64491864624023,34.51684011920929Z" fill="url(#master_svgg_230_02297)" fill-opacity="1"/></g></g></g></g><g><path d="M133.3857421875,27L142.7221821875,31.5L216.8089421875,31.5L226.1454421875,27L133.3857421875,27Z" fill="#FEFEF4" fill-opacity="1"/></g><g><path d="M124.9296875,261.5L236.1926875,261.5L228.9366875,257.5L132.1859875,257.5L124.9296875,261.5Z" fill="#066475" fill-opacity="1"/></g><g><path d="M11.873046875,236.5L11.873046875,255.5L11.373046875,255.5L11.713597875,255.1339L21.388646875,264.1339L21.048106875000002,264.5L21.048106875000002,264L42.212346875,264L42.212346875,265L20.851506875,265L10.873046875,255.7178L10.873046875,236.5L11.873046875,236.5Z" fill="#FFB031" fill-opacity="1"/></g><g><path d="M319.42578125,264L340.61328125,264L340.61328125,264.5L340.27298125,264.1337L349.95868125,255.1337L350.29898125,255.5L349.79898125,255.5L349.79898125,236.5L350.79898125,236.5L350.79898125,255.7179L340.80978125,265L319.42578125,265L319.42578125,264Z" fill="#FFB031" fill-opacity="1"/></g></g></g></svg>