<svg xmlns="http://www.w3.org/2000/svg" xmlns:xlink="http://www.w3.org/1999/xlink" fill="none" version="1.1" width="981" height="647" viewBox="0 0 981 647"><defs><linearGradient x1="12.5" y1="39" x2="968.5" y2="39" id="master_svg0_230_8506"><stop offset="0%" stop-color="#0B454A" stop-opacity="0.10000000149011612"/><stop offset="99.00000095367432%" stop-color="#038CA2" stop-opacity="0.699999988079071"/></linearGradient><linearGradient x1="12" y1="38.75" x2="969" y2="38.75" id="master_svg1_230_8463"><stop offset="0%" stop-color="#04B3B6" stop-opacity="0"/><stop offset="50%" stop-color="#0D747A" stop-opacity="1"/><stop offset="100%" stop-color="#5DC6CD" stop-opacity="0"/></linearGradient><filter id="master_svg2_430_70866" filterUnits="objectBoundingBox" color-interpolation-filters="sRGB" x="0" y="0" width="956" height="44"><feFlood flood-opacity="0" result="BackgroundImageFix"/><feBlend mode="normal" in="SourceGraphic" in2="BackgroundImageFix" result="shape"/><feColorMatrix in="SourceAlpha" type="matrix" result="hardAlpha" values="0 0 0 0 0 0 0 0 0 0 0 0 0 0 0 0 0 0 127 0"/><feOffset dy="0" dx="0"/><feGaussianBlur stdDeviation="4"/><feComposite in2="hardAlpha" operator="arithmetic" k2="-1" k3="1"/><feColorMatrix type="matrix" values="0 0 0 0 0.11764705926179886 0 0 0 0 0.8823529481887817 0 0 0 0 0.9215686321258545 0 0 0 0.5 0"/><feBlend mode="normal" in2="shape" result="effect1_innerShadow"/></filter><linearGradient x1="0" y1="0.5" x2="1" y2="0.5" id="master_svg3_230_09757"><stop offset="0%" stop-color="#0B454A" stop-opacity="0.20000000298023224"/><stop offset="100.00009536743164%" stop-color="#038CA2" stop-opacity="0.699999988079071"/></linearGradient><linearGradient x1="-0.0011013215407729149" y1="0.5" x2="1.0011013746261597" y2="0.5" id="master_svg4_230_02363"><stop offset="0%" stop-color="#0CDCE2" stop-opacity="0.07999999821186066"/><stop offset="50%" stop-color="#62FFFF" stop-opacity="1"/><stop offset="100%" stop-color="#1EE3E8" stop-opacity="0.05000000074505806"/></linearGradient><linearGradient x1="8" y1="36.75" x2="973" y2="36.75" id="master_svg5_230_01958"></linearGradient><linearGradient x1="-0.0011013215407729149" y1="0.5" x2="1.0011013746261597" y2="0.5" id="master_svg6_230_02363"><stop offset="0%" stop-color="#0CDCE2" stop-opacity="0.07999999821186066"/><stop offset="50%" stop-color="#62FFFF" stop-opacity="1"/><stop offset="100%" stop-color="#1EE3E8" stop-opacity="0.05000000074505806"/></linearGradient><linearGradient x1="3.3299999237060547" y1="60.83000183105469" x2="3.3299999237060547" y2="54.16999816894531" id="master_svg7_230_02408"></linearGradient><linearGradient x1="0.3636363744735718" y1="0" x2="0.3636363744735718" y2="1" id="master_svg8_230_02002"><stop offset="2.9999950900673866%" stop-color="#0CDCE2" stop-opacity="0.07999999821186066"/><stop offset="73.92604351043701%" stop-color="#62FFFF" stop-opacity="1"/><stop offset="99.9998927116394%" stop-color="#1EE3E8" stop-opacity="0.05000000074505806"/></linearGradient><linearGradient x1="0.3636363744735718" y1="0" x2="0.3636363744735718" y2="1" id="master_svg9_230_02002"><stop offset="2.9999950900673866%" stop-color="#0CDCE2" stop-opacity="0.07999999821186066"/><stop offset="73.92604351043701%" stop-color="#62FFFF" stop-opacity="1"/><stop offset="99.9998927116394%" stop-color="#1EE3E8" stop-opacity="0.05000000074505806"/></linearGradient><radialGradient cx="0" cy="0" r="1" gradientUnits="userSpaceOnUse" id="master_svga_230_02304" gradientTransform="translate(489.5 32.5) rotate(90) scale(8 33.35459232330322)"><stop offset="2.857142873108387%" stop-color="#00FFFF" stop-opacity="1"/><stop offset="100%" stop-color="#FFFFFF" stop-opacity="0"/></radialGradient><radialGradient cx="0" cy="0" r="1" gradientUnits="userSpaceOnUse" id="master_svgb_230_02304" gradientTransform="translate(489.5 32.5) rotate(90) scale(8 33.35459232330322)"><stop offset="2.857142873108387%" stop-color="#00FFFF" stop-opacity="1"/><stop offset="100%" stop-color="#FFFFFF" stop-opacity="0"/></radialGradient><filter id="master_svgc_430_70861" filterUnits="objectBoundingBox" color-interpolation-filters="sRGB" x="-20" y="-20" width="96.90430068969727" height="49.10468864440918"><feFlood flood-opacity="0" result="BackgroundImageFix"/><feBlend mode="normal" in="SourceGraphic" in2="BackgroundImageFix" result="shape"/><feGaussianBlur stdDeviation="5" result="effect1_foregroundBlur"/></filter><radialGradient cx="0" cy="0" r="1" gradientUnits="userSpaceOnUse" id="master_svgd_230_02304" gradientTransform="translate(489.02356147766113 32.05234456062317) rotate(90) scale(4.55234432220459 18.980197509475147)"><stop offset="2.857142873108387%" stop-color="#00FFFF" stop-opacity="1"/><stop offset="100%" stop-color="#FFFFFF" stop-opacity="0"/></radialGradient><filter id="master_svge_430_70862" filterUnits="objectBoundingBox" color-interpolation-filters="sRGB" x="-20" y="-20" width="140" height="48"><feFlood flood-opacity="0" result="BackgroundImageFix"/><feBlend mode="normal" in="SourceGraphic" in2="BackgroundImageFix" result="shape"/><feGaussianBlur stdDeviation="5" result="effect1_foregroundBlur"/></filter><radialGradient cx="0" cy="0" r="1" gradientUnits="userSpaceOnUse" id="master_svgf_230_02297" gradientTransform="translate(489.5 32.5) rotate(90) scale(4 33.35459232330322)"><stop offset="0%" stop-color="#FFFFFF" stop-opacity="0.10000000149011612"/><stop offset="100%" stop-color="#00FFFF" stop-opacity="1"/></radialGradient><radialGradient cx="0" cy="0" r="1" gradientUnits="userSpaceOnUse" id="master_svgg_230_02297" gradientTransform="translate(489.5 32.5) rotate(90) scale(4 33.35459232330322)"><stop offset="0%" stop-color="#FFFFFF" stop-opacity="0.10000000149011612"/><stop offset="100%" stop-color="#00FFFF" stop-opacity="1"/></radialGradient><filter id="master_svgh_430_70864" filterUnits="objectBoundingBox" color-interpolation-filters="sRGB" x="-20" y="-20" width="96.90430068969727" height="44.55234432220459"><feFlood flood-opacity="0" result="BackgroundImageFix"/><feBlend mode="normal" in="SourceGraphic" in2="BackgroundImageFix" result="shape"/><feGaussianBlur stdDeviation="5" result="effect1_foregroundBlur"/></filter><radialGradient cx="0" cy="0" r="1" gradientUnits="userSpaceOnUse" id="master_svgi_230_02297" gradientTransform="translate(489.02356147766113 32.276172280311584) rotate(90) scale(2.276172161102295 18.980197509475147)"><stop offset="0%" stop-color="#FFFFFF" stop-opacity="0.10000000149011612"/><stop offset="100%" stop-color="#00FFFF" stop-opacity="1"/></radialGradient><radialGradient cx="0" cy="0" r="1" gradientUnits="userSpaceOnUse" id="master_svgj_230_02304" gradientTransform="translate(489.5 32.5) rotate(90) scale(8 26.683673858642578)"><stop offset="2.857142873108387%" stop-color="#00FFFF" stop-opacity="1"/><stop offset="100%" stop-color="#FFFFFF" stop-opacity="0"/></radialGradient><radialGradient cx="0" cy="0" r="1" gradientUnits="userSpaceOnUse" id="master_svgk_230_02304" gradientTransform="translate(489.5 32.5) rotate(90) scale(8 26.683673858642578)"><stop offset="2.857142873108387%" stop-color="#00FFFF" stop-opacity="1"/><stop offset="100%" stop-color="#FFFFFF" stop-opacity="0"/></radialGradient><filter id="master_svgl_430_70855" filterUnits="objectBoundingBox" color-interpolation-filters="sRGB" x="-20" y="-20" width="85.52344131469727" height="49.10468864440918"><feFlood flood-opacity="0" result="BackgroundImageFix"/><feBlend mode="normal" in="SourceGraphic" in2="BackgroundImageFix" result="shape"/><feGaussianBlur stdDeviation="5" result="effect1_foregroundBlur"/></filter><radialGradient cx="0" cy="0" r="1" gradientUnits="userSpaceOnUse" id="master_svgm_230_02304" gradientTransform="translate(489.1188507080078 32.05234456062317) rotate(90) scale(4.55234432220459 15.18415826205546)"><stop offset="2.857142873108387%" stop-color="#00FFFF" stop-opacity="1"/><stop offset="100%" stop-color="#FFFFFF" stop-opacity="0"/></radialGradient><filter id="master_svgn_430_70849" filterUnits="objectBoundingBox" color-interpolation-filters="sRGB" x="-20" y="-20" width="120" height="48"><feFlood flood-opacity="0" result="BackgroundImageFix"/><feBlend mode="normal" in="SourceGraphic" in2="BackgroundImageFix" result="shape"/><feGaussianBlur stdDeviation="5" result="effect1_foregroundBlur"/></filter><radialGradient cx="0" cy="0" r="1" gradientUnits="userSpaceOnUse" id="master_svgo_230_02297" gradientTransform="translate(489.5 32.5) rotate(90) scale(4 26.683673858642578)"><stop offset="0%" stop-color="#FFFFFF" stop-opacity="0.10000000149011612"/><stop offset="100%" stop-color="#00FFFF" stop-opacity="1"/></radialGradient><radialGradient cx="0" cy="0" r="1" gradientUnits="userSpaceOnUse" id="master_svgp_230_02297" gradientTransform="translate(489.5 32.5) rotate(90) scale(4 26.683673858642578)"><stop offset="0%" stop-color="#FFFFFF" stop-opacity="0.10000000149011612"/><stop offset="100%" stop-color="#00FFFF" stop-opacity="1"/></radialGradient><filter id="master_svgq_430_70852" filterUnits="objectBoundingBox" color-interpolation-filters="sRGB" x="-20" y="-20" width="85.52344131469727" height="44.55234432220459"><feFlood flood-opacity="0" result="BackgroundImageFix"/><feBlend mode="normal" in="SourceGraphic" in2="BackgroundImageFix" result="shape"/><feGaussianBlur stdDeviation="5" result="effect1_foregroundBlur"/></filter><radialGradient cx="0" cy="0" r="1" gradientUnits="userSpaceOnUse" id="master_svgr_230_02297" gradientTransform="translate(489.1188507080078 32.276172280311584) rotate(90) scale(2.276172161102295 15.18415826205546)"><stop offset="0%" stop-color="#FFFFFF" stop-opacity="0.10000000149011612"/><stop offset="100%" stop-color="#00FFFF" stop-opacity="1"/></radialGradient><filter id="master_svgs_430_70868" filterUnits="objectBoundingBox" color-interpolation-filters="sRGB" x="0" y="0" width="956" height="574"><feFlood flood-opacity="0" result="BackgroundImageFix"/><feBlend mode="normal" in="SourceGraphic" in2="BackgroundImageFix" result="shape"/><feColorMatrix in="SourceAlpha" type="matrix" result="hardAlpha" values="0 0 0 0 0 0 0 0 0 0 0 0 0 0 0 0 0 0 127 0"/><feOffset dy="0" dx="0"/><feGaussianBlur stdDeviation="4"/><feComposite in2="hardAlpha" operator="arithmetic" k2="-1" k3="1"/><feColorMatrix type="matrix" values="0 0 0 0 0.11764705926179886 0 0 0 0 0.8823529481887817 0 0 0 0 0.9215686321258545 0 0 0 0.5 0"/><feBlend mode="normal" in2="shape" result="effect1_innerShadow"/></filter><linearGradient x1="0.5" y1="1" x2="0.5" y2="1.096345236817342e-15" id="master_svgt_230_01947"><stop offset="0%" stop-color="#02384B" stop-opacity="1"/><stop offset="100%" stop-color="#002531" stop-opacity="0.5"/></linearGradient><linearGradient x1="0" y1="0.434982031583786" x2="1" y2="0.434982031583786" id="master_svgu_230_01963"><stop offset="0%" stop-color="#04B3B6" stop-opacity="0.05000000074505806"/><stop offset="56.42856955528259%" stop-color="#0D747A" stop-opacity="0.4931506812572479"/><stop offset="100%" stop-color="#5DC6CD" stop-opacity="0.05000000074505806"/></linearGradient><linearGradient x1="0.5" y1="1" x2="0.5" y2="1.096345236817342e-15" id="master_svgv_230_14182"><stop offset="0%" stop-color="#002531" stop-opacity="0.5"/><stop offset="100%" stop-color="#02384B" stop-opacity="1"/></linearGradient><linearGradient x1="0" y1="0.434982031583786" x2="1" y2="0.434982031583786" id="master_svgw_230_01963"><stop offset="0%" stop-color="#04B3B6" stop-opacity="0.05000000074505806"/><stop offset="56.42856955528259%" stop-color="#0D747A" stop-opacity="0.4931506812572479"/><stop offset="100%" stop-color="#5DC6CD" stop-opacity="0.05000000074505806"/></linearGradient></defs><g style="mix-blend-mode:passthrough"><g><path d="M968.5,72.5L968.5,37.5L960.5,28.5L527.8,28.5L517.5,34.5L455.5,34.5L445.2,28.5L20.5,28.5L12.5,37.5L12.5,72.5" fill="url(#master_svg0_230_8506)" fill-opacity="1"/></g><g><path d="M12,72.5L12,37.3099L20.27547,28L445.335,28L455.752,34.06796L455.5,34.5L455.5,34L517.5,34L517.5,34.5L517.248,34.06796L527.665,28L960.725,28L969,37.3099L969,72.5L968,72.5L968,37.5L968.5,37.5L968.126,37.83218L960.126,28.832182L960.5,28.5L960.5,29L527.8,29L527.8,28.5L528.052,28.932041L517.635,35L455.365,35L444.948,28.932041L445.2,28.5L445.2,29L20.5,29L20.5,28.5L20.8737,28.832182L12.873705,37.83218L12.5,37.5L13,37.5L13,72.5L12,72.5Z" fill="url(#master_svg1_230_8463)" fill-opacity="1"/></g><g filter="url(#master_svg2_430_70866)"><path d="M968.5,72.5L968.5,37.5L960.5,28.5L531.8,28.5L521.5,34.5L459.5,34.5L449.2,28.5L20.5,28.5L12.5,37.5L12.5,72.5" fill="url(#master_svg3_230_09757)" fill-opacity="1"/><path d="M12,72.5L12,37.3099L20.27547,28L449.335,28L459.752,34.06796L459.5,34.5L459.5,34L521.5,34L521.5,34.5L521.248,34.06796L531.665,28L960.725,28L969,37.3099L969,72.5L968,72.5L968,37.5L968.5,37.5L968.126,37.83218L960.126,28.832182L960.5,28.5L960.5,29L531.8,29L531.8,28.5L532.052,28.932042L521.635,35L459.365,35L448.948,28.932042L449.2,28.5L449.2,29L20.5,29L20.5,28.5L20.8737,28.832182L12.873705,37.83218L12.5,37.5L13,37.5L13,72.5L12,72.5Z" fill="url(#master_svg4_230_02363)" fill-opacity="1"/></g><g><path d="" fill="url(#master_svg5_230_01958)" fill-opacity="1"/></g><g><g><g><path d="M8,72.5L8,33.3099L16.27547,24L964.725,24L973,33.3099L973,72.5L972,72.5L972,33.5L972.5,33.5L972.126,33.83218L964.126,24.832182L964.5,24.5L964.5,25L16.5,25L16.5,24.5L16.8737,24.832182L8.873705,33.83218L8.5,33.5L9,33.5L9,72.5L8,72.5Z" fill="url(#master_svg6_230_02363)" fill-opacity="1"/></g></g></g><g style="opacity:0.5;"><ellipse cx="3.3299999237060547" cy="69.32999992370605" rx="2.8299999237060547" ry="2.8299999237060547" stroke="url(#master_svg7_230_02408)" fill-opacity="0" fill="none" stroke-width="1"/></g><g><path d="M8,52.5L8,33.3099L16.27547,24L34,24L34,25L16.5,25L16.5,24.5L16.8737,24.832182L8.873705,33.83218L8.5,33.5L9,33.5L9,52.5L8,52.5Z" fill="#FFB031" fill-opacity="1"/></g><g><g><g><path d="M8,52.5L8,33.3099L16.27547,24L34,24L34,25L16.5,25L16.5,24.5L16.8737,24.832182L8.873705,33.83218L8.5,33.5L9,33.5L9,52.5L8,52.5Z" fill="#FFB031" fill-opacity="1"/></g></g></g><g><path d="M946.5,24L964.2245,24L972.5,33.3099L972.5,52.5L971.5,52.5L971.5,33.5L972,33.5L971.6263,33.83218L963.6263,24.832182L964,24.5L964,25L946.5,25L946.5,24Z" fill="#FFB031" fill-opacity="1"/></g><g><g><g><path d="M946.5,24L964.2245,24L972.5,33.3099L972.5,52.5L971.5,52.5L971.5,33.5L972,33.5L971.6263,33.83218L963.6263,24.832182L964,24.5L964,25L946.5,25L946.5,24Z" fill="#FFB031" fill-opacity="1"/></g></g></g><g><path d="M11.8856,24.832386L3.87682,33.832390000000004L3.5033,33.5L4.003299999999999,33.5L4.003299999999999,65.5L3.0033,65.5L3.0033,33.30974L11.1386,24.167614L11.8856,24.832386ZM3.5033,72Q2.05234,72,1.0262850000000001,70.9751Q0,69.9499,0,68.5Q0,67.0501,1.0262850000000001,66.0249Q2.05234,65,3.5033,65Q4.95426,65,5.98032,66.0249Q7.0066,67.0501,7.0066,68.5Q7.0066,69.9499,5.98032,70.9751Q4.95426,72,3.5033,72L3.5033,72ZM3.5033,71Q4.54037,71,5.2736,70.2676Q6.0066,69.53540000000001,6.0066,68.5Q6.0066,67.46459999999999,5.2736,66.7324Q4.54037,66,3.5033,66Q2.46623,66,1.733,66.7324Q1,67.46459999999999,1,68.5Q1,69.53540000000001,1.733,70.2676Q2.46623,71,3.5033,71L3.5033,71Z" fill="url(#master_svg8_230_02002)" fill-opacity="0.20000000298023224"/></g><g transform="matrix(-1,0,0,1,1961,0)"><path d="M991.8856,24.832386L983.87682,33.832390000000004L983.5033,33.5L984.0033,33.5L984.0033,65.5L983.0033,65.5L983.0033,33.30974L991.1386,24.167614L991.8856,24.832386ZM983.5033,72Q982.05234,72,981.026285,70.9751Q980,69.9499,980,68.5Q980,67.0501,981.026285,66.0249Q982.05234,65,983.5033,65Q984.95426,65,985.98032,66.0249Q987.0066,67.0501,987.0066,68.5Q987.0066,69.9499,985.98032,70.9751Q984.95426,72,983.5033,72L983.5033,72ZM983.5033,71Q984.54037,71,985.2736,70.2676Q986.0066,69.53540000000001,986.0066,68.5Q986.0066,67.46459999999999,985.2736,66.7324Q984.54037,66,983.5033,66Q982.46623,66,981.733,66.7324Q981,67.46459999999999,981,68.5Q981,69.53540000000001,981.733,70.2676Q982.46623,71,983.5033,71L983.5033,71Z" fill="url(#master_svg9_230_02002)" fill-opacity="0.20000000298023224"/></g><g><path d="M452.5,27.5L460.22,32L521.48,32L529.2,27.5L452.5,27.5Z" fill="#FEFEF4" fill-opacity="1"/></g><g style="mix-blend-mode:passthrough"><g style="opacity:0.699999988079071;"><g style="mix-blend-mode:passthrough"><g style="opacity:0.5;"><path d="M480.7011,40.3752C507.8913,41.148399999999995,533.8649,38.2488,538.7141,33.89062C543.563,29.532429999999998,525.4715,25.332399,498.2989,24.611892C471.1263,23.891384,445.13509,26.7207,440.285951,31.07889C435.43682,35.4371,453.5284,39.5844,480.7011,40.3752Z" fill="url(#master_svga_230_02304)" fill-opacity="0.699999988079071"/></g><g style="opacity:0.5;mix-blend-mode:soft-light"><path d="M480.7011,40.3752C507.8913,41.148399999999995,533.8649,38.2488,538.7141,33.89062C543.563,29.532429999999998,525.4715,25.332399,498.2989,24.611892C471.1263,23.891384,445.13509,26.7207,440.285951,31.07889C435.43682,35.4371,453.5284,39.5844,480.7011,40.3752Z" fill="url(#master_svgb_230_02304)" fill-opacity="0.699999988079071" style="mix-blend-mode:soft-light"/></g><g style="opacity:0.5;" filter="url(#master_svgc_430_70861)"><path d="M484.0166111328125,36.53367023841858C499.4890111328125,36.97367023841858,514.2691111328124,35.32367023841858,517.0285111328125,32.84367023841858C519.7878111328125,30.363670238418578,509.4929111328125,27.97367123841858,494.0305111328125,27.56367133841858C478.5681111328125,27.15367123841858,463.7780211328125,28.76367023841858,461.0186511328125,31.24367023841858C458.2592811328125,33.72367023841858,468.5542011328125,36.08367023841858,484.0166111328125,36.53367023841858Z" fill="url(#master_svgd_230_02304)" fill-opacity="0.699999988079071"/></g></g><g style="mix-blend-mode:passthrough" filter="url(#master_svge_430_70862)"><g style="opacity:0.5;"><path d="M480.7011,36.4376C507.8913,36.82421,533.8649,35.37441,538.7141,33.19531C543.563,31.01622,525.4715,28.9162,498.2989,28.5559458C471.1263,28.195692,445.13509,29.61035,440.285951,31.78944C435.43682,33.96854,453.5284,36.0422,480.7011,36.4376Z" fill="url(#master_svgf_230_02297)" fill-opacity="1"/></g><g style="opacity:0.5;mix-blend-mode:soft-light"><path d="M480.7011,36.4376C507.8913,36.82421,533.8649,35.37441,538.7141,33.19531C543.563,31.01622,525.4715,28.9162,498.2989,28.5559458C471.1263,28.195692,445.13509,29.61035,440.285951,31.78944C435.43682,33.96854,453.5284,36.0422,480.7011,36.4376Z" fill="url(#master_svgg_230_02297)" fill-opacity="1" style="mix-blend-mode:soft-light"/></g><g style="opacity:0.5;" filter="url(#master_svgh_430_70864)"><path d="M484.0166111328125,34.51684011920929C499.4890111328125,34.73684011920929,514.2691111328124,33.91183011920929,517.0285111328125,32.67184011920929C519.7878111328125,31.43184011920929,509.4929111328125,30.23683511920929,494.0305111328125,30.03183571920929C478.5681111328125,29.82683611920929,463.7780211328125,30.63183611920929,461.0186511328125,31.87184011920929C458.2592811328125,33.11184011920929,468.5542011328125,34.29184011920929,484.0166111328125,34.51684011920929Z" fill="url(#master_svgi_230_02297)" fill-opacity="1"/></g></g></g><g style="opacity:0.5;"><g style="mix-blend-mode:passthrough"><g style="opacity:0.5;"><path d="M482.4609,40.3752C504.2131,41.148399999999995,524.9919,38.2488,528.8712,33.89062C532.7506,29.532429999999998,518.2772,25.332399,496.5391,24.611892C474.8011,23.891384,454.00807,26.7207,450.128761,31.07889C446.24945,35.4371,460.7228,39.5844,482.4609,40.3752Z" fill="url(#master_svgj_230_02304)" fill-opacity="0.699999988079071"/></g><g style="opacity:0.5;mix-blend-mode:soft-light"><path d="M482.4609,40.3752C504.2131,41.148399999999995,524.9919,38.2488,528.8712,33.89062C532.7506,29.532429999999998,518.2772,25.332399,496.5391,24.611892C474.8011,23.891384,454.00807,26.7207,450.128761,31.07889C446.24945,35.4371,460.7228,39.5844,482.4609,40.3752Z" fill="url(#master_svgk_230_02304)" fill-opacity="0.699999988079071" style="mix-blend-mode:soft-light"/></g><g style="opacity:0.5;" filter="url(#master_svgl_430_70855)"><path d="M485.1132300506592,36.53367023841858C497.49123005065917,36.97367023841858,509.31533005065916,35.32367023841858,511.5228300506592,32.84367023841858C513.7303300506592,30.363670238418578,505.4943300506592,27.97367123841858,493.12443005065916,27.56367133841858C480.7545300506592,27.15367123841858,468.9224200506592,28.76367023841858,466.7149220506592,31.24367023841858C464.5074300506592,33.72367023841858,472.7433600506592,36.08367023841858,485.1132300506592,36.53367023841858Z" fill="url(#master_svgm_230_02304)" fill-opacity="0.699999988079071"/></g></g><g style="mix-blend-mode:passthrough" filter="url(#master_svgn_430_70849)"><g style="opacity:0.5;"><path d="M482.4609,36.4376C504.2131,36.82421,524.9919,35.37441,528.8712,33.19531C532.7506,31.01622,518.2772,28.9162,496.5391,28.5559458C474.8011,28.195692,454.00807,29.61035,450.128761,31.78944C446.24945,33.96854,460.7228,36.0422,482.4609,36.4376Z" fill="url(#master_svgo_230_02297)" fill-opacity="1"/></g><g style="opacity:0.5;mix-blend-mode:soft-light"><path d="M482.4609,36.4376C504.2131,36.82421,524.9919,35.37441,528.8712,33.19531C532.7506,31.01622,518.2772,28.9162,496.5391,28.5559458C474.8011,28.195692,454.00807,29.61035,450.128761,31.78944C446.24945,33.96854,460.7228,36.0422,482.4609,36.4376Z" fill="url(#master_svgp_230_02297)" fill-opacity="1" style="mix-blend-mode:soft-light"/></g><g style="opacity:0.5;" filter="url(#master_svgq_430_70852)"><path d="M485.1132300506592,34.51684011920929C497.49123005065917,34.73684011920929,509.31533005065916,33.91183011920929,511.5228300506592,32.67184011920929C513.7303300506592,31.43184011920929,505.4943300506592,30.23683511920929,493.12443005065916,30.03183571920929C480.7545300506592,29.82683611920929,468.9224200506592,30.63183611920929,466.7149220506592,31.87184011920929C464.5074300506592,33.11184011920929,472.7433600506592,34.29184011920929,485.1132300506592,34.51684011920929Z" fill="url(#master_svgr_230_02297)" fill-opacity="1"/></g></g></g></g><g style="mix-blend-mode:passthrough"><g style="mix-blend-mode:passthrough"></g><g style="mix-blend-mode:passthrough"><g style="mix-blend-mode:passthrough"><g style="mix-blend-mode:passthrough"><g style="mix-blend-mode:passthrough"><g style="mix-blend-mode:passthrough"><g><path d="M455.4193649291992,53.556087036132816L456.19851192919924,52.78608703613281L458.6758149291992,55.25608703613281L457.89666492919923,56.03608703613281L455.4193649291992,53.556087036132816Z" fill="#1DFFFF" fill-opacity="1"/></g><g><path d="M461.2429850784302,56.50609294433594C461.86230507843015,57.126082944335934,461.2429850784302,57.66609294433594,460.6436350784302,58.23608294433594C460.04428507843016,58.80608294433594,459.8345250784302,59.156082944335935,459.2152050784302,58.53608294433594L457.9466020784302,57.31608294433594C457.3267660784302,56.764382944335935,457.28606907843016,55.80862294433594,457.8567040784302,55.206084944335934C458.4635550784302,54.64268494433594,459.4117050784302,54.678504944335934,459.9743850784302,55.286086944335935L461.2429850784302,56.50609294433594Z" fill="#1DFFFF" fill-opacity="1"/></g><g><path d="M452.0131105175781,43.136077880859375C448.4239305175781,43.14158630085937,445.5156994175781,46.052987880859376,445.5102122175781,49.64607788085937C445.30355951757815,53.37737788085938,448.27020051757813,56.51647788085938,452.0031205175781,56.51647788085938C455.7360305175781,56.51647788085938,458.7027305175781,53.37737788085938,458.4960305175781,49.64607788085937C458.4960305175781,46.058487880859374,455.5967305175781,43.147079480859375,452.0131105175781,43.136077880859375ZM452.1030105175781,45.32607788085937C452.5064105175781,45.272717880859375,452.86795051757815,45.57896788085937,452.88216051757814,45.986077880859376C452.88216051757814,47.276077880859376,452.73233051757813,49.136077880859375,452.73233051757813,50.426077880859374C452.73233051757813,50.76607788085938,452.3627405175781,50.90607788085937,452.1030105175781,50.90607788085937C451.7533905175781,50.90607788085937,451.4637005175781,50.76607788085938,451.4637005175781,50.426077880859374C451.4637005175781,49.136077880859375,451.31387051757815,47.276077880859376,451.31387051757815,45.986077880859376C451.31390051757813,45.566077880859375,451.6634905175781,45.32607788085937,452.1030105175781,45.32607788085937ZM452.1030105175781,53.32607788085937C451.6435205175781,53.32067788085938,451.2739005175781,52.94614788085937,451.27393051757815,52.486077880859376C451.27393051757815,52.02767788085937,451.6451405175781,51.65607788085937,452.1030105175781,51.65607788085937C452.5586605175781,51.66144788085938,452.9267305175781,52.029927880859375,452.9320905175781,52.486077880859376C452.9270605175781,52.940157880859374,452.56637051757815,53.310077880859374,452.1130105175781,53.32607788085937L452.1030105175781,53.32607788085937Z" fill="#1DFFFF" fill-opacity="1"/></g></g></g><g><path d="M476.32815051757814,53.476L476.32815051757814,58.976L478.08857051757815,58.976L478.08857051757815,57.976L481.89583051757813,57.976C482.1198305175781,58.5593,482.26563051757813,59.1791,482.2969305175781,59.642700000000005C483.0990305175781,59.6739,483.83333051757813,59.6583,484.2969305175781,59.580200000000005C484.8125305175781,59.501999999999995,485.1771305175781,59.3562,485.53123051757814,58.876999999999995C485.9948305175781,58.2833,486.1719305175781,56.3823,486.32813051757813,51.7468C486.3490305175781,51.5229,486.3646305175781,50.9656,486.3646305175781,50.9656L475.5937805175781,50.9656L475.64065051757814,49.6427L485.1771305175781,49.6427L485.1771305175781,45.02808L473.7396105175781,45.02808L473.7396105175781,48.95517C473.7396105175781,51.8302,473.5937805175781,55.3927,471.8177385175781,57.9448C472.2500305175781,58.1635,473.0521105175781,58.830200000000005,473.36982051757815,59.2104C474.63545051757814,57.3718,475.2083605175781,54.8198,475.46357051757815,52.6427L484.3802305175781,52.6427C484.26563051757813,55.939499999999995,484.1042305175781,57.325,483.83333051757813,57.6635C483.6927305175781,57.851,483.53123051757814,57.9187,483.2917305175781,57.903099999999995L482.6667305175781,57.903099999999995L482.6667305175781,53.476L476.32815051757814,53.476ZM475.64065051757814,46.64267L483.26043051757813,46.64267L483.26043051757813,48.02808L475.64065051757814,48.02808L475.64065051757814,46.64267ZM478.08857051757815,54.976L480.89065051757814,54.976L480.89065051757814,56.476L478.08857051757815,56.476L478.08857051757815,54.976ZM497.2448305175781,44.976L497.2448305175781,59.5489L498.9375305175781,59.5489L498.9375305175781,46.70517L500.71353051757814,46.70517C500.3646305175781,48.0385,499.8490305175781,49.8041,499.40103051757814,51.0333C500.6198305175781,52.3093,500.95313051757813,53.601,500.95313051757813,54.4812C500.95313051757813,55.0229,500.8594305175781,55.3979,500.58853051757814,55.5229C500.4271305175781,55.5958,500.2188305175781,55.6323,500.01043051757813,55.642700000000005C499.7552305175781,55.642700000000005,499.44793051757813,55.642700000000005,499.0990305175781,55.6062C499.38543051757813,56.1114,499.53123051757814,56.892700000000005,499.5625305175781,57.3875C499.9948305175781,57.4083,500.4427305175781,57.3875,500.7969305175781,57.340599999999995C501.20833051757813,57.2937,501.57813051757813,57.1791,501.8646305175781,56.955200000000005C502.45833051757813,56.5437,502.71353051757814,55.7573,502.71353051757814,54.7052C502.71353051757814,53.6635,502.4740305175781,52.2468,501.1771305175781,50.8093C501.7865305175781,49.31975,502.45833051757813,47.33017,503.0052305175781,45.73121L501.65623051757814,44.90308L501.38543051757813,44.976L497.2448305175781,44.976ZM491.0990305175781,47.976L493.8490305175781,47.976C493.64063051757813,48.78329,493.2917305175781,49.8093,492.9375305175781,50.5854L490.95313051757813,50.5854L491.9792305175781,50.2937C491.83333051757813,49.6531,491.5000305175781,48.71558,491.0990305175781,47.976ZM491.0990305175781,44.73642C491.27603051757814,45.18954,491.46353051757814,45.76246,491.6094305175781,46.26767L488.5677305175781,46.26767L488.5677305175781,47.976L490.7292305175781,47.976L489.40103051757814,48.31454C489.7552305175781,49.00725,490.08853051757814,49.9239,490.2344305175781,50.5854L488.1719305175781,50.5854L488.1719305175781,52.3093L496.6823305175781,52.3093L496.6823305175781,50.5854L494.76043051757813,50.5854C495.08333051757813,49.8927,495.4167305175781,49.05413,495.7552305175781,48.26767L494.45833051757813,47.976L496.3125305175781,47.976L496.3125305175781,46.26767L493.6094305175781,46.26767C493.4323305175781,45.65829,493.1302305175781,44.84058,492.8438305175781,44.19475L491.0990305175781,44.73642ZM488.90623051757814,53.601L488.90623051757814,59.6583L490.69793051757813,59.6583L490.69793051757813,58.976L494.15623051757814,58.976L494.15623051757814,59.5854L496.0573305175781,59.5854L496.0573305175781,53.601L488.90623051757814,53.601ZM490.69793051757813,57.3093L490.69793051757813,55.3093L494.15623051757814,55.3093L494.15623051757814,57.3093L490.69793051757813,57.3093ZM513.9167305175781,50.3302L513.9167305175781,53.3198C513.9167305175781,54.8979,513.4323305175781,57.0125,509.89583051757813,58.2364C510.3438305175781,58.575,510.8594305175781,59.1948,511.0990305175781,59.580200000000005C515.0677305175782,58.075,515.7083305175781,55.5385,515.7083305175781,53.3354L515.7083305175781,50.3302L513.9167305175781,50.3302ZM515.0833305175781,57.1479C515.9792305175781,57.965599999999995,517.2292305175781,59.0541,517.8021305175781,59.7364L519.1302305175782,58.4448C518.4896305175781,57.7885,517.1927305175782,56.6948,516.3125305175781,55.939499999999995L515.0833305175781,57.1479ZM504.5677305175781,48.78329C505.32293051757813,49.262460000000004,506.2969305175781,49.8354,507.1146305175781,50.3093L503.9115305175781,50.3093L503.9115305175781,52.0073L506.2969305175781,52.0073L506.2969305175781,57.5698C506.2969305175781,57.751999999999995,506.2344305175781,57.8041,506.01043051757813,57.8198C505.7865305175781,57.8198,505.03123051757814,57.8198,504.3594305175781,57.8041C504.5990305175781,58.3198,504.8594305175781,59.101,504.9375305175781,59.642700000000005C506.01043051757813,59.642700000000005,506.8073305175781,59.5958,507.40103051757814,59.3093C508.01043051757813,59.0229,508.15623051757814,58.5073,508.15623051757814,57.601L508.15623051757814,52.0073L509.1146305175781,52.0073C508.9375305175781,52.7989,508.7292305175781,53.5698,508.5521305175781,54.127L509.9792305175781,54.4448C510.3438305175781,53.4343,510.77603051757814,51.8666,511.1302305175781,50.5177L509.94793051757813,50.2729L509.6875305175781,50.3093L508.95313051757813,50.3093L509.3698305175781,49.8354C509.0677305175781,49.6427,508.65103051757814,49.387460000000004,508.20313051757813,49.101C509.0990305175781,48.20517,510.0417305175781,46.91871,510.71353051757814,45.74683L509.5625305175781,44.88746L509.2240305175781,44.98121L504.2969305175781,44.98121L504.2969305175781,46.64267L508.02603051757814,46.64267C507.65623051757814,47.26246,507.2396305175781,47.87704,506.8438305175781,48.28329L505.57813051757813,47.48642L504.5677305175781,48.78329ZM511.3073305175781,47.93433L511.3073305175781,55.7208L513.0833305175781,55.7208L513.0833305175781,49.6427L516.5365305175782,49.6427L516.5365305175782,55.653099999999995L518.4115305175782,55.653099999999995L518.4115305175782,47.93433L515.5625305175781,47.93433L515.9479305175781,46.64267L519.0365305175782,46.64267L519.0365305175782,44.96558L510.7917305175781,44.96558L510.7917305175781,46.64267L513.8958305175781,46.64267L513.7083305175781,47.93433L511.3073305175781,47.93433ZM522.3594305175782,54.976L522.3594305175782,55.9239L532.7448305175781,55.9239L532.7448305175781,54.976L522.3594305175782,54.976ZM522.3594305175782,53.6427L522.3594305175782,54.6062L532.7448305175781,54.6062L532.7448305175781,53.6427L522.3594305175782,53.6427ZM522.1719305175782,56.3354L522.1719305175782,59.6948L523.9792305175781,59.6948L523.9792305175781,59.2885L531.0990305175782,59.2885L531.0990305175782,59.6948L532.9844305175782,59.6948L532.9844305175782,56.3354L522.1719305175782,56.3354ZM523.9792305175781,58.3093L523.9792305175781,57.3093L531.0990305175782,57.3093L531.0990305175782,58.3093L523.9792305175781,58.3093ZM526.2188305175781,51.2468L526.4896305175781,51.7781L520.4427305175782,51.7781L520.4427305175782,52.976L534.5885305175781,52.976L534.5885305175781,51.7781L528.4583305175781,51.7781C528.3125305175781,51.4552,528.1042305175781,51.0854,527.9167305175781,50.7937L526.2188305175781,51.2468ZM521.6250305175781,46.50204C521.3073305175781,47.24683,520.7292305175781,48.06975,519.8490305175782,48.699960000000004C520.1510305175781,48.90829,520.6354305175781,49.38225,520.8594305175782,49.7052L521.2396305175781,49.36142L521.2396305175781,51.252L522.5208305175781,51.252L522.5208305175781,50.8406L524.6198305175781,50.8406C524.6667305175781,51.0385,524.6979305175781,51.2364,524.6979305175781,51.3979C525.1927305175782,51.4135,525.6719305175782,51.3979,525.9479305175781,51.3666C526.2969305175782,51.3145,526.5677305175782,51.2156,526.8125305175781,50.9083C527.0990305175782,50.5854,527.2240305175782,49.7989,527.3385305175781,48.0385C527.6927305175782,48.27808,528.1198305175781,48.62183,528.3281305175781,48.84579C528.5885305175781,48.62183,528.8438305175781,48.36142,529.0833305175781,48.06975C529.3542305175781,48.50725,529.6719305175782,48.90829,530.0260305175781,49.26767C529.3854305175781,49.6531,528.6198305175781,49.9291,527.7552305175782,50.1375C528.0417305175781,50.4448,528.4896305175781,51.1218,528.6510305175781,51.4604C529.6094305175782,51.1531,530.4740305175782,50.7625,531.1927305175782,50.2833C532.0260305175781,50.8406,532.9844305175782,51.2833,534.0729305175781,51.5593C534.2812305175781,51.1218,534.7292305175781,50.476,535.0990305175782,50.1218C534.0885305175781,49.9448,533.1927305175782,49.6218,532.4271305175781,49.199960000000004C532.9531305175781,48.52808,533.3698305175781,47.7885,533.6562305175781,46.92392L534.7292305175781,46.92392L534.7292305175781,45.64267L530.5521305175781,45.64267C530.7135305175781,45.31454,530.8438305175781,44.98642,530.9531305175781,44.63746L529.4479305175781,44.27288C529.0521305175781,45.59579,528.3125305175781,46.79371,527.3698305175781,47.61663L527.3698305175781,47.5385C527.3854305175781,47.34579,527.3854305175781,46.976,527.3854305175781,46.976L522.9219305175782,46.976L523.0312305175781,46.74163L522.4740305175782,46.64267L523.5000305175781,46.64267L523.5000305175781,46.101L524.7917305175781,46.101L524.7917305175781,46.56975L526.3958305175781,46.56975L526.3958305175781,46.101L527.9635305175781,46.101L527.9635305175781,44.976L526.3958305175781,44.976L526.3958305175781,44.37183L524.7917305175781,44.37183L524.7917305175781,44.976L523.5000305175781,44.976L523.5000305175781,44.37183L521.9271305175781,44.37183L521.9271305175781,44.976L520.2969305175782,44.976L520.2969305175782,46.101L521.9271305175781,46.101L521.9271305175781,46.54892L521.6250305175781,46.50204ZM531.9792305175781,46.92392C531.7865305175782,47.42913,531.5156305175781,47.87183,531.1771305175781,48.262460000000004C530.7292305175781,47.87183,530.3646305175781,47.4135,530.0729305175781,46.92392L531.9792305175781,46.92392ZM525.7552305175782,47.97079C525.6719305175782,49.19475,525.5781305175781,49.6895,525.4479305175781,49.8718C525.3542305175781,49.976,525.2604305175781,49.9916,525.1146305175781,49.9916L524.9844305175782,49.9916L524.9844305175782,48.30933L522.1042305175781,48.30933L522.3802305175782,47.97079L525.7552305175782,47.97079ZM522.5208305175781,49.18954L523.6875305175781,49.18954L523.6875305175781,49.976L522.5208305175781,49.976L522.5208305175781,49.18954Z" fill="#1DFFFF" fill-opacity="1"/></g></g></g></g><g style="mix-blend-mode:passthrough"><g><path d="M946.19,58.999956130981445L944.35001,58.999956130981445C943.332184,58.999956130981445,942.50549316,58.17775613098144,942.5,57.15995613098144L942.5,55.30995613098145C942.5395203,55.00045613098145,942.802948,54.76845613098145,943.11499,54.76845613098145C943.427063,54.76845613098145,943.69049,55.00045613098145,943.73001,55.30995613098145L943.73001,57.15995613098144C943.72998,57.50075613098144,944.00922,57.77555613098144,944.35001,57.76995613098144L946.19,57.76995613098144C946.53244,57.76995613098144,946.81003,58.04755613098145,946.81,58.389956130981446C946.81003,58.73075613098145,946.53079,59.00555613098145,946.19,58.999956130981445ZM956.65,58.999956130981445L954.81,58.999956130981445C954.4692,59.00555613098145,954.19,58.730856130981444,954.19,58.389956130981446C954.19,58.04755613098145,954.4676,57.76995613098144,954.81,57.76995613098144L956.65,57.76995613098144C956.9907,57.77555613098144,957.27,57.50085613098145,957.27,57.15995613098144L957.27,55.30995613098145C957.3095,55.00045613098145,957.5729,54.76845613098145,957.885,54.76845613098145C958.1971,54.76845613098145,958.4605,55.00045613098145,958.5,55.30995613098145L958.5,57.15995613098144C958.4945,58.17775613098144,957.6677999999999,58.999956130981445,956.65,58.999956130981445ZM957.88,47.309966130981444C957.5431,47.309966130981444,957.27,47.03685613098145,957.27,46.69995613098145L957.27,44.84995613098145C957.2701,44.50912613098144,956.9908,44.23438613098145,956.65,44.23995613098145L954.81,44.23995613098145C954.4676,44.23995613098145,954.19,43.962374130981445,954.19,43.61995913098144C954.19,43.27754013098144,954.4676,42.999956130981445,954.81,42.999956130981445L956.65,42.999956130981445C957.6695,43.00543404098145,958.4946,43.83051113098144,958.5,44.84995613098145L958.5,46.69995613098145C958.5001,47.04079613098145,958.2208,47.31553613098144,957.88,47.309966130981444ZM943.119995,47.309966130981444C942.779236,47.31557613098145,942.5,47.04083613098145,942.5,46.69995613098145L942.5,44.84995613098145C942.50549316,43.83049213098145,943.330566,43.005422590981446,944.35001,42.99995994568145L946.19,42.99995994568145C946.53244,42.99995994568145,946.81003,43.27754413098145,946.81003,43.619963130981446C946.81003,43.962377130981444,946.53244,44.23996613098144,946.19,44.23996613098144L944.35001,44.23996613098144C944.00925,44.23434613098144,943.73001,44.509086130981444,943.73001,44.84996613098144L943.73001,46.69995613098145C943.72998,47.03685613098145,943.456879,47.309966130981444,943.119995,47.309966130981444ZM953.58,55.929956130981445L947.41998,55.929956130981445C946.40216,55.92445613098145,945.57999,55.097756130981445,945.57999,54.079956130981444L945.57999,47.929956130981445C945.57996,46.912136130981445,946.40216,46.08547613098145,947.41998,46.07996613098145L953.58,46.07996613098145C954.5978,46.085466130981445,955.42,46.912116130981445,955.42,47.929956130981445L955.42,54.079956130981444C955.42,55.097756130981445,954.5978,55.92445613098145,953.58,55.929956130981445ZM947.41998,47.309966130981444C947.07916,47.309926130981445,946.80441,47.58916613098145,946.81,47.929956130981445L946.81,54.079956130981444C946.80435,54.420756130981445,947.0791,54.69995613098145,947.41998,54.69995613098145L953.58,54.69995613098145C953.9208,54.700056130981444,954.1956,54.420756130981445,954.19,54.079956130981444L954.19,47.929956130981445C954.1956,47.58921613098145,953.9209,47.309966130981444,953.58,47.309966130981444L947.41998,47.309966130981444Z" fill="#5D9A9E" fill-opacity="1"/></g></g></g><g filter="url(#master_svgs_430_70868)"><path d="M12.5,72.5L12.5,627.35L34.86,646.5L946.14,646.5L968.5,627.35L968.5,299.33000000000004L950.98,278.05L950.98,167.39L968.5,146.11L968.5,72.5" fill="url(#master_svgt_230_01947)" fill-opacity="1"/><path d="M969,72.5L969,146.2893L951.366,167.70780000000002L950.98,167.39L951.48,167.39L951.48,278.05L950.98,278.05L951.366,277.73199999999997L969,299.151L969,627.58L946.325,647L34.6751,647L12,627.58L12,72.5L13,72.5L13,627.35L12.5,627.35L12.825242,626.97L35.185199999999995,646.12L34.86,646.5L34.86,646L946.14,646L946.14,646.5L945.815,646.12L968.175,626.97L968.5,627.35L968,627.35L968,299.33000000000004L968.5,299.33000000000004L968.114,299.648L950.48,278.22900000000004L950.48,167.2107L968.114,145.79219999999998L968.5,146.11L968,146.11L968,72.5L969,72.5Z" fill="url(#master_svgu_230_01963)" fill-opacity="1"/></g><g><path d="M957.5,275.5L968.5,288.5L968.5,157.5L957.5,170.5L957.5,275.5Z" fill="url(#master_svgv_230_14182)" fill-opacity="1"/><path d="M958,170.5L958,275.5L957.5,275.5L957.881693,275.177L968.8817,288.177L968.5,288.5L968,288.5L968,157.5L968.5,157.5L968.8817,157.822971L957.881693,170.823L957.5,170.5L958,170.5ZM957,170.3168L969,156.13503L969,289.865L957,275.683L957,170.5L957,170.3168Z" fill="url(#master_svgw_230_01963)" fill-opacity="1"/></g></g></svg>