<svg xmlns="http://www.w3.org/2000/svg" xmlns:xlink="http://www.w3.org/1999/xlink" fill="none" version="1.1" width="981" height="647" viewBox="0 0 981 647"><defs><linearGradient x1="12.5" y1="39" x2="968.5" y2="39" id="master_svg0_230_8506"><stop offset="0%" stop-color="#0B454A" stop-opacity="0.10000000149011612"/><stop offset="99.00000095367432%" stop-color="#038CA2" stop-opacity="0.699999988079071"/></linearGradient><linearGradient x1="12" y1="38.75" x2="969" y2="38.75" id="master_svg1_230_8463"><stop offset="0%" stop-color="#04B3B6" stop-opacity="0"/><stop offset="50%" stop-color="#0D747A" stop-opacity="1"/><stop offset="100%" stop-color="#5DC6CD" stop-opacity="0"/></linearGradient><filter id="master_svg2_430_70866" filterUnits="objectBoundingBox" color-interpolation-filters="sRGB" x="0" y="0" width="956" height="44"><feFlood flood-opacity="0" result="BackgroundImageFix"/><feBlend mode="normal" in="SourceGraphic" in2="BackgroundImageFix" result="shape"/><feColorMatrix in="SourceAlpha" type="matrix" result="hardAlpha" values="0 0 0 0 0 0 0 0 0 0 0 0 0 0 0 0 0 0 127 0"/><feOffset dy="0" dx="0"/><feGaussianBlur stdDeviation="4"/><feComposite in2="hardAlpha" operator="arithmetic" k2="-1" k3="1"/><feColorMatrix type="matrix" values="0 0 0 0 0.11764705926179886 0 0 0 0 0.8823529481887817 0 0 0 0 0.9215686321258545 0 0 0 0.5 0"/><feBlend mode="normal" in2="shape" result="effect1_innerShadow"/></filter><linearGradient x1="0" y1="0.5" x2="1" y2="0.5" id="master_svg3_230_09757"><stop offset="0%" stop-color="#0B454A" stop-opacity="0.20000000298023224"/><stop offset="100.00009536743164%" stop-color="#038CA2" stop-opacity="0.699999988079071"/></linearGradient><linearGradient x1="-0.0011013215407729149" y1="0.5" x2="1.0011013746261597" y2="0.5" id="master_svg4_230_02363"><stop offset="0%" stop-color="#0CDCE2" stop-opacity="0.07999999821186066"/><stop offset="50%" stop-color="#62FFFF" stop-opacity="1"/><stop offset="100%" stop-color="#1EE3E8" stop-opacity="0.05000000074505806"/></linearGradient><linearGradient x1="8" y1="36.75" x2="973" y2="36.75" id="master_svg5_230_01958"></linearGradient><linearGradient x1="-0.0011013215407729149" y1="0.5" x2="1.0011013746261597" y2="0.5" id="master_svg6_230_02363"><stop offset="0%" stop-color="#0CDCE2" stop-opacity="0.07999999821186066"/><stop offset="50%" stop-color="#62FFFF" stop-opacity="1"/><stop offset="100%" stop-color="#1EE3E8" stop-opacity="0.05000000074505806"/></linearGradient><linearGradient x1="3.3299999237060547" y1="60.83000183105469" x2="3.3299999237060547" y2="54.16999816894531" id="master_svg7_230_02408"></linearGradient><linearGradient x1="0.3636363744735718" y1="0" x2="0.3636363744735718" y2="1" id="master_svg8_230_02002"><stop offset="2.9999950900673866%" stop-color="#0CDCE2" stop-opacity="0.07999999821186066"/><stop offset="73.92604351043701%" stop-color="#62FFFF" stop-opacity="1"/><stop offset="99.9998927116394%" stop-color="#1EE3E8" stop-opacity="0.05000000074505806"/></linearGradient><linearGradient x1="0.3636363744735718" y1="0" x2="0.3636363744735718" y2="1" id="master_svg9_230_02002"><stop offset="2.9999950900673866%" stop-color="#0CDCE2" stop-opacity="0.07999999821186066"/><stop offset="73.92604351043701%" stop-color="#62FFFF" stop-opacity="1"/><stop offset="99.9998927116394%" stop-color="#1EE3E8" stop-opacity="0.05000000074505806"/></linearGradient><radialGradient cx="0" cy="0" r="1" gradientUnits="userSpaceOnUse" id="master_svga_230_02304" gradientTransform="translate(489.5 32.5) rotate(90) scale(8 33.35459232330322)"><stop offset="2.857142873108387%" stop-color="#00FFFF" stop-opacity="1"/><stop offset="100%" stop-color="#FFFFFF" stop-opacity="0"/></radialGradient><radialGradient cx="0" cy="0" r="1" gradientUnits="userSpaceOnUse" id="master_svgb_230_02304" gradientTransform="translate(489.5 32.5) rotate(90) scale(8 33.35459232330322)"><stop offset="2.857142873108387%" stop-color="#00FFFF" stop-opacity="1"/><stop offset="100%" stop-color="#FFFFFF" stop-opacity="0"/></radialGradient><filter id="master_svgc_430_70861" filterUnits="objectBoundingBox" color-interpolation-filters="sRGB" x="-20" y="-20" width="96.90430068969727" height="49.10468864440918"><feFlood flood-opacity="0" result="BackgroundImageFix"/><feBlend mode="normal" in="SourceGraphic" in2="BackgroundImageFix" result="shape"/><feGaussianBlur stdDeviation="5" result="effect1_foregroundBlur"/></filter><radialGradient cx="0" cy="0" r="1" gradientUnits="userSpaceOnUse" id="master_svgd_230_02304" gradientTransform="translate(489.02356147766113 32.05234456062317) rotate(90) scale(4.55234432220459 18.980197509475147)"><stop offset="2.857142873108387%" stop-color="#00FFFF" stop-opacity="1"/><stop offset="100%" stop-color="#FFFFFF" stop-opacity="0"/></radialGradient><filter id="master_svge_430_70862" filterUnits="objectBoundingBox" color-interpolation-filters="sRGB" x="-20" y="-20" width="140" height="48"><feFlood flood-opacity="0" result="BackgroundImageFix"/><feBlend mode="normal" in="SourceGraphic" in2="BackgroundImageFix" result="shape"/><feGaussianBlur stdDeviation="5" result="effect1_foregroundBlur"/></filter><radialGradient cx="0" cy="0" r="1" gradientUnits="userSpaceOnUse" id="master_svgf_230_02297" gradientTransform="translate(489.5 32.5) rotate(90) scale(4 33.35459232330322)"><stop offset="0%" stop-color="#FFFFFF" stop-opacity="0.10000000149011612"/><stop offset="100%" stop-color="#00FFFF" stop-opacity="1"/></radialGradient><radialGradient cx="0" cy="0" r="1" gradientUnits="userSpaceOnUse" id="master_svgg_230_02297" gradientTransform="translate(489.5 32.5) rotate(90) scale(4 33.35459232330322)"><stop offset="0%" stop-color="#FFFFFF" stop-opacity="0.10000000149011612"/><stop offset="100%" stop-color="#00FFFF" stop-opacity="1"/></radialGradient><filter id="master_svgh_430_70864" filterUnits="objectBoundingBox" color-interpolation-filters="sRGB" x="-20" y="-20" width="96.90430068969727" height="44.55234432220459"><feFlood flood-opacity="0" result="BackgroundImageFix"/><feBlend mode="normal" in="SourceGraphic" in2="BackgroundImageFix" result="shape"/><feGaussianBlur stdDeviation="5" result="effect1_foregroundBlur"/></filter><radialGradient cx="0" cy="0" r="1" gradientUnits="userSpaceOnUse" id="master_svgi_230_02297" gradientTransform="translate(489.02356147766113 32.276172280311584) rotate(90) scale(2.276172161102295 18.980197509475147)"><stop offset="0%" stop-color="#FFFFFF" stop-opacity="0.10000000149011612"/><stop offset="100%" stop-color="#00FFFF" stop-opacity="1"/></radialGradient><radialGradient cx="0" cy="0" r="1" gradientUnits="userSpaceOnUse" id="master_svgj_230_02304" gradientTransform="translate(489.5 32.5) rotate(90) scale(8 26.683673858642578)"><stop offset="2.857142873108387%" stop-color="#00FFFF" stop-opacity="1"/><stop offset="100%" stop-color="#FFFFFF" stop-opacity="0"/></radialGradient><radialGradient cx="0" cy="0" r="1" gradientUnits="userSpaceOnUse" id="master_svgk_230_02304" gradientTransform="translate(489.5 32.5) rotate(90) scale(8 26.683673858642578)"><stop offset="2.857142873108387%" stop-color="#00FFFF" stop-opacity="1"/><stop offset="100%" stop-color="#FFFFFF" stop-opacity="0"/></radialGradient><filter id="master_svgl_430_70855" filterUnits="objectBoundingBox" color-interpolation-filters="sRGB" x="-20" y="-20" width="85.52344131469727" height="49.10468864440918"><feFlood flood-opacity="0" result="BackgroundImageFix"/><feBlend mode="normal" in="SourceGraphic" in2="BackgroundImageFix" result="shape"/><feGaussianBlur stdDeviation="5" result="effect1_foregroundBlur"/></filter><radialGradient cx="0" cy="0" r="1" gradientUnits="userSpaceOnUse" id="master_svgm_230_02304" gradientTransform="translate(489.1188507080078 32.05234456062317) rotate(90) scale(4.55234432220459 15.18415826205546)"><stop offset="2.857142873108387%" stop-color="#00FFFF" stop-opacity="1"/><stop offset="100%" stop-color="#FFFFFF" stop-opacity="0"/></radialGradient><filter id="master_svgn_430_70849" filterUnits="objectBoundingBox" color-interpolation-filters="sRGB" x="-20" y="-20" width="120" height="48"><feFlood flood-opacity="0" result="BackgroundImageFix"/><feBlend mode="normal" in="SourceGraphic" in2="BackgroundImageFix" result="shape"/><feGaussianBlur stdDeviation="5" result="effect1_foregroundBlur"/></filter><radialGradient cx="0" cy="0" r="1" gradientUnits="userSpaceOnUse" id="master_svgo_230_02297" gradientTransform="translate(489.5 32.5) rotate(90) scale(4 26.683673858642578)"><stop offset="0%" stop-color="#FFFFFF" stop-opacity="0.10000000149011612"/><stop offset="100%" stop-color="#00FFFF" stop-opacity="1"/></radialGradient><radialGradient cx="0" cy="0" r="1" gradientUnits="userSpaceOnUse" id="master_svgp_230_02297" gradientTransform="translate(489.5 32.5) rotate(90) scale(4 26.683673858642578)"><stop offset="0%" stop-color="#FFFFFF" stop-opacity="0.10000000149011612"/><stop offset="100%" stop-color="#00FFFF" stop-opacity="1"/></radialGradient><filter id="master_svgq_430_70852" filterUnits="objectBoundingBox" color-interpolation-filters="sRGB" x="-20" y="-20" width="85.52344131469727" height="44.55234432220459"><feFlood flood-opacity="0" result="BackgroundImageFix"/><feBlend mode="normal" in="SourceGraphic" in2="BackgroundImageFix" result="shape"/><feGaussianBlur stdDeviation="5" result="effect1_foregroundBlur"/></filter><radialGradient cx="0" cy="0" r="1" gradientUnits="userSpaceOnUse" id="master_svgr_230_02297" gradientTransform="translate(489.1188507080078 32.276172280311584) rotate(90) scale(2.276172161102295 15.18415826205546)"><stop offset="0%" stop-color="#FFFFFF" stop-opacity="0.10000000149011612"/><stop offset="100%" stop-color="#00FFFF" stop-opacity="1"/></radialGradient><filter id="master_svgs_430_70868" filterUnits="objectBoundingBox" color-interpolation-filters="sRGB" x="0" y="0" width="956" height="574"><feFlood flood-opacity="0" result="BackgroundImageFix"/><feBlend mode="normal" in="SourceGraphic" in2="BackgroundImageFix" result="shape"/><feColorMatrix in="SourceAlpha" type="matrix" result="hardAlpha" values="0 0 0 0 0 0 0 0 0 0 0 0 0 0 0 0 0 0 127 0"/><feOffset dy="0" dx="0"/><feGaussianBlur stdDeviation="4"/><feComposite in2="hardAlpha" operator="arithmetic" k2="-1" k3="1"/><feColorMatrix type="matrix" values="0 0 0 0 0.11764705926179886 0 0 0 0 0.8823529481887817 0 0 0 0 0.9215686321258545 0 0 0 0.5 0"/><feBlend mode="normal" in2="shape" result="effect1_innerShadow"/></filter><linearGradient x1="0.5" y1="1" x2="0.5" y2="1.096345236817342e-15" id="master_svgt_230_01947"><stop offset="0%" stop-color="#02384B" stop-opacity="1"/><stop offset="100%" stop-color="#002531" stop-opacity="0.5"/></linearGradient><linearGradient x1="0" y1="0.434982031583786" x2="1" y2="0.434982031583786" id="master_svgu_230_01963"><stop offset="0%" stop-color="#04B3B6" stop-opacity="0.05000000074505806"/><stop offset="56.42856955528259%" stop-color="#0D747A" stop-opacity="0.4931506812572479"/><stop offset="100%" stop-color="#5DC6CD" stop-opacity="0.05000000074505806"/></linearGradient><linearGradient x1="0.5" y1="1" x2="0.5" y2="1.096345236817342e-15" id="master_svgv_230_14182"><stop offset="0%" stop-color="#002531" stop-opacity="0.5"/><stop offset="100%" stop-color="#02384B" stop-opacity="1"/></linearGradient><linearGradient x1="0" y1="0.434982031583786" x2="1" y2="0.434982031583786" id="master_svgw_230_01963"><stop offset="0%" stop-color="#04B3B6" stop-opacity="0.05000000074505806"/><stop offset="56.42856955528259%" stop-color="#0D747A" stop-opacity="0.4931506812572479"/><stop offset="100%" stop-color="#5DC6CD" stop-opacity="0.05000000074505806"/></linearGradient></defs><g style="mix-blend-mode:passthrough"><g><path d="M968.5,72.5L968.5,37.5L960.5,28.5L527.8,28.5L517.5,34.5L455.5,34.5L445.2,28.5L20.5,28.5L12.5,37.5L12.5,72.5" fill="url(#master_svg0_230_8506)" fill-opacity="1"/></g><g><path d="M12,72.5L12,37.3099L20.27547,28L445.335,28L455.752,34.06796L455.5,34.5L455.5,34L517.5,34L517.5,34.5L517.248,34.06796L527.665,28L960.725,28L969,37.3099L969,72.5L968,72.5L968,37.5L968.5,37.5L968.126,37.83218L960.126,28.832182L960.5,28.5L960.5,29L527.8,29L527.8,28.5L528.052,28.932041L517.635,35L455.365,35L444.948,28.932041L445.2,28.5L445.2,29L20.5,29L20.5,28.5L20.8737,28.832182L12.873705,37.83218L12.5,37.5L13,37.5L13,72.5L12,72.5Z" fill="url(#master_svg1_230_8463)" fill-opacity="1"/></g><g filter="url(#master_svg2_430_70866)"><path d="M968.5,72.5L968.5,37.5L960.5,28.5L531.8,28.5L521.5,34.5L459.5,34.5L449.2,28.5L20.5,28.5L12.5,37.5L12.5,72.5" fill="url(#master_svg3_230_09757)" fill-opacity="1"/><path d="M12,72.5L12,37.3099L20.27547,28L449.335,28L459.752,34.06796L459.5,34.5L459.5,34L521.5,34L521.5,34.5L521.248,34.06796L531.665,28L960.725,28L969,37.3099L969,72.5L968,72.5L968,37.5L968.5,37.5L968.126,37.83218L960.126,28.832182L960.5,28.5L960.5,29L531.8,29L531.8,28.5L532.052,28.932042L521.635,35L459.365,35L448.948,28.932042L449.2,28.5L449.2,29L20.5,29L20.5,28.5L20.8737,28.832182L12.873705,37.83218L12.5,37.5L13,37.5L13,72.5L12,72.5Z" fill="url(#master_svg4_230_02363)" fill-opacity="1"/></g><g><path d="" fill="url(#master_svg5_230_01958)" fill-opacity="1"/></g><g><g><g><path d="M8,72.5L8,33.3099L16.27547,24L964.725,24L973,33.3099L973,72.5L972,72.5L972,33.5L972.5,33.5L972.126,33.83218L964.126,24.832182L964.5,24.5L964.5,25L16.5,25L16.5,24.5L16.8737,24.832182L8.873705,33.83218L8.5,33.5L9,33.5L9,72.5L8,72.5Z" fill="url(#master_svg6_230_02363)" fill-opacity="1"/></g></g></g><g style="opacity:0.5;"><ellipse cx="3.3299999237060547" cy="69.32999992370605" rx="2.8299999237060547" ry="2.8299999237060547" stroke="url(#master_svg7_230_02408)" fill-opacity="0" fill="none" stroke-width="1"/></g><g><path d="M8,52.5L8,33.3099L16.27547,24L34,24L34,25L16.5,25L16.5,24.5L16.8737,24.832182L8.873705,33.83218L8.5,33.5L9,33.5L9,52.5L8,52.5Z" fill="#FFB031" fill-opacity="1"/></g><g><g><g><path d="M8,52.5L8,33.3099L16.27547,24L34,24L34,25L16.5,25L16.5,24.5L16.8737,24.832182L8.873705,33.83218L8.5,33.5L9,33.5L9,52.5L8,52.5Z" fill="#FFB031" fill-opacity="1"/></g></g></g><g><path d="M946.5,24L964.2245,24L972.5,33.3099L972.5,52.5L971.5,52.5L971.5,33.5L972,33.5L971.6263,33.83218L963.6263,24.832182L964,24.5L964,25L946.5,25L946.5,24Z" fill="#FFB031" fill-opacity="1"/></g><g><g><g><path d="M946.5,24L964.2245,24L972.5,33.3099L972.5,52.5L971.5,52.5L971.5,33.5L972,33.5L971.6263,33.83218L963.6263,24.832182L964,24.5L964,25L946.5,25L946.5,24Z" fill="#FFB031" fill-opacity="1"/></g></g></g><g><path d="M11.8856,24.832386L3.87682,33.832390000000004L3.5033,33.5L4.003299999999999,33.5L4.003299999999999,65.5L3.0033,65.5L3.0033,33.30974L11.1386,24.167614L11.8856,24.832386ZM3.5033,72Q2.05234,72,1.0262850000000001,70.9751Q0,69.9499,0,68.5Q0,67.0501,1.0262850000000001,66.0249Q2.05234,65,3.5033,65Q4.95426,65,5.98032,66.0249Q7.0066,67.0501,7.0066,68.5Q7.0066,69.9499,5.98032,70.9751Q4.95426,72,3.5033,72L3.5033,72ZM3.5033,71Q4.54037,71,5.2736,70.2676Q6.0066,69.53540000000001,6.0066,68.5Q6.0066,67.46459999999999,5.2736,66.7324Q4.54037,66,3.5033,66Q2.46623,66,1.733,66.7324Q1,67.46459999999999,1,68.5Q1,69.53540000000001,1.733,70.2676Q2.46623,71,3.5033,71L3.5033,71Z" fill="url(#master_svg8_230_02002)" fill-opacity="0.20000000298023224"/></g><g transform="matrix(-1,0,0,1,1961,0)"><path d="M991.8856,24.832386L983.87682,33.832390000000004L983.5033,33.5L984.0033,33.5L984.0033,65.5L983.0033,65.5L983.0033,33.30974L991.1386,24.167614L991.8856,24.832386ZM983.5033,72Q982.05234,72,981.026285,70.9751Q980,69.9499,980,68.5Q980,67.0501,981.026285,66.0249Q982.05234,65,983.5033,65Q984.95426,65,985.98032,66.0249Q987.0066,67.0501,987.0066,68.5Q987.0066,69.9499,985.98032,70.9751Q984.95426,72,983.5033,72L983.5033,72ZM983.5033,71Q984.54037,71,985.2736,70.2676Q986.0066,69.53540000000001,986.0066,68.5Q986.0066,67.46459999999999,985.2736,66.7324Q984.54037,66,983.5033,66Q982.46623,66,981.733,66.7324Q981,67.46459999999999,981,68.5Q981,69.53540000000001,981.733,70.2676Q982.46623,71,983.5033,71L983.5033,71Z" fill="url(#master_svg9_230_02002)" fill-opacity="0.20000000298023224"/></g><g><path d="M452.5,27.5L460.22,32L521.48,32L529.2,27.5L452.5,27.5Z" fill="#FEFEF4" fill-opacity="1"/></g><g style="mix-blend-mode:passthrough"><g style="opacity:0.699999988079071;"><g style="mix-blend-mode:passthrough"><g style="opacity:0.5;"><path d="M480.7011,40.3752C507.8913,41.148399999999995,533.8649,38.2488,538.7141,33.89062C543.563,29.532429999999998,525.4715,25.332399,498.2989,24.611892C471.1263,23.891384,445.13509,26.7207,440.285951,31.07889C435.43682,35.4371,453.5284,39.5844,480.7011,40.3752Z" fill="url(#master_svga_230_02304)" fill-opacity="0.699999988079071"/></g><g style="opacity:0.5;mix-blend-mode:soft-light"><path d="M480.7011,40.3752C507.8913,41.148399999999995,533.8649,38.2488,538.7141,33.89062C543.563,29.532429999999998,525.4715,25.332399,498.2989,24.611892C471.1263,23.891384,445.13509,26.7207,440.285951,31.07889C435.43682,35.4371,453.5284,39.5844,480.7011,40.3752Z" fill="url(#master_svgb_230_02304)" fill-opacity="0.699999988079071" style="mix-blend-mode:soft-light"/></g><g style="opacity:0.5;" filter="url(#master_svgc_430_70861)"><path d="M484.0166111328125,36.53367023841858C499.4890111328125,36.97367023841858,514.2691111328124,35.32367023841858,517.0285111328125,32.84367023841858C519.7878111328125,30.363670238418578,509.4929111328125,27.97367123841858,494.0305111328125,27.56367133841858C478.5681111328125,27.15367123841858,463.7780211328125,28.76367023841858,461.0186511328125,31.24367023841858C458.2592811328125,33.72367023841858,468.5542011328125,36.08367023841858,484.0166111328125,36.53367023841858Z" fill="url(#master_svgd_230_02304)" fill-opacity="0.699999988079071"/></g></g><g style="mix-blend-mode:passthrough" filter="url(#master_svge_430_70862)"><g style="opacity:0.5;"><path d="M480.7011,36.4376C507.8913,36.82421,533.8649,35.37441,538.7141,33.19531C543.563,31.01622,525.4715,28.9162,498.2989,28.5559458C471.1263,28.195692,445.13509,29.61035,440.285951,31.78944C435.43682,33.96854,453.5284,36.0422,480.7011,36.4376Z" fill="url(#master_svgf_230_02297)" fill-opacity="1"/></g><g style="opacity:0.5;mix-blend-mode:soft-light"><path d="M480.7011,36.4376C507.8913,36.82421,533.8649,35.37441,538.7141,33.19531C543.563,31.01622,525.4715,28.9162,498.2989,28.5559458C471.1263,28.195692,445.13509,29.61035,440.285951,31.78944C435.43682,33.96854,453.5284,36.0422,480.7011,36.4376Z" fill="url(#master_svgg_230_02297)" fill-opacity="1" style="mix-blend-mode:soft-light"/></g><g style="opacity:0.5;" filter="url(#master_svgh_430_70864)"><path d="M484.0166111328125,34.51684011920929C499.4890111328125,34.73684011920929,514.2691111328124,33.91183011920929,517.0285111328125,32.67184011920929C519.7878111328125,31.43184011920929,509.4929111328125,30.23683511920929,494.0305111328125,30.03183571920929C478.5681111328125,29.82683611920929,463.7780211328125,30.63183611920929,461.0186511328125,31.87184011920929C458.2592811328125,33.11184011920929,468.5542011328125,34.29184011920929,484.0166111328125,34.51684011920929Z" fill="url(#master_svgi_230_02297)" fill-opacity="1"/></g></g></g><g style="opacity:0.5;"><g style="mix-blend-mode:passthrough"><g style="opacity:0.5;"><path d="M482.4609,40.3752C504.2131,41.148399999999995,524.9919,38.2488,528.8712,33.89062C532.7506,29.532429999999998,518.2772,25.332399,496.5391,24.611892C474.8011,23.891384,454.00807,26.7207,450.128761,31.07889C446.24945,35.4371,460.7228,39.5844,482.4609,40.3752Z" fill="url(#master_svgj_230_02304)" fill-opacity="0.699999988079071"/></g><g style="opacity:0.5;mix-blend-mode:soft-light"><path d="M482.4609,40.3752C504.2131,41.148399999999995,524.9919,38.2488,528.8712,33.89062C532.7506,29.532429999999998,518.2772,25.332399,496.5391,24.611892C474.8011,23.891384,454.00807,26.7207,450.128761,31.07889C446.24945,35.4371,460.7228,39.5844,482.4609,40.3752Z" fill="url(#master_svgk_230_02304)" fill-opacity="0.699999988079071" style="mix-blend-mode:soft-light"/></g><g style="opacity:0.5;" filter="url(#master_svgl_430_70855)"><path d="M485.1132300506592,36.53367023841858C497.49123005065917,36.97367023841858,509.31533005065916,35.32367023841858,511.5228300506592,32.84367023841858C513.7303300506592,30.363670238418578,505.4943300506592,27.97367123841858,493.12443005065916,27.56367133841858C480.7545300506592,27.15367123841858,468.9224200506592,28.76367023841858,466.7149220506592,31.24367023841858C464.5074300506592,33.72367023841858,472.7433600506592,36.08367023841858,485.1132300506592,36.53367023841858Z" fill="url(#master_svgm_230_02304)" fill-opacity="0.699999988079071"/></g></g><g style="mix-blend-mode:passthrough" filter="url(#master_svgn_430_70849)"><g style="opacity:0.5;"><path d="M482.4609,36.4376C504.2131,36.82421,524.9919,35.37441,528.8712,33.19531C532.7506,31.01622,518.2772,28.9162,496.5391,28.5559458C474.8011,28.195692,454.00807,29.61035,450.128761,31.78944C446.24945,33.96854,460.7228,36.0422,482.4609,36.4376Z" fill="url(#master_svgo_230_02297)" fill-opacity="1"/></g><g style="opacity:0.5;mix-blend-mode:soft-light"><path d="M482.4609,36.4376C504.2131,36.82421,524.9919,35.37441,528.8712,33.19531C532.7506,31.01622,518.2772,28.9162,496.5391,28.5559458C474.8011,28.195692,454.00807,29.61035,450.128761,31.78944C446.24945,33.96854,460.7228,36.0422,482.4609,36.4376Z" fill="url(#master_svgp_230_02297)" fill-opacity="1" style="mix-blend-mode:soft-light"/></g><g style="opacity:0.5;" filter="url(#master_svgq_430_70852)"><path d="M485.1132300506592,34.51684011920929C497.49123005065917,34.73684011920929,509.31533005065916,33.91183011920929,511.5228300506592,32.67184011920929C513.7303300506592,31.43184011920929,505.4943300506592,30.23683511920929,493.12443005065916,30.03183571920929C480.7545300506592,29.82683611920929,468.9224200506592,30.63183611920929,466.7149220506592,31.87184011920929C464.5074300506592,33.11184011920929,472.7433600506592,34.29184011920929,485.1132300506592,34.51684011920929Z" fill="url(#master_svgr_230_02297)" fill-opacity="1"/></g></g></g></g><g style="mix-blend-mode:passthrough"><g style="mix-blend-mode:passthrough"></g><g style="mix-blend-mode:passthrough"></g></g><g filter="url(#master_svgs_430_70868)"><path d="M12.5,72.5L12.5,627.35L34.86,646.5L946.14,646.5L968.5,627.35L968.5,299.33000000000004L950.98,278.05L950.98,167.39L968.5,146.11L968.5,72.5" fill="url(#master_svgt_230_01947)" fill-opacity="1"/><path d="M969,72.5L969,146.2893L951.366,167.70780000000002L950.98,167.39L951.48,167.39L951.48,278.05L950.98,278.05L951.366,277.73199999999997L969,299.151L969,627.58L946.325,647L34.6751,647L12,627.58L12,72.5L13,72.5L13,627.35L12.5,627.35L12.825242,626.97L35.185199999999995,646.12L34.86,646.5L34.86,646L946.14,646L946.14,646.5L945.815,646.12L968.175,626.97L968.5,627.35L968,627.35L968,299.33000000000004L968.5,299.33000000000004L968.114,299.648L950.48,278.22900000000004L950.48,167.2107L968.114,145.79219999999998L968.5,146.11L968,146.11L968,72.5L969,72.5Z" fill="url(#master_svgu_230_01963)" fill-opacity="1"/></g><g><path d="M957.5,275.5L968.5,288.5L968.5,157.5L957.5,170.5L957.5,275.5Z" fill="url(#master_svgv_230_14182)" fill-opacity="1"/><path d="M958,170.5L958,275.5L957.5,275.5L957.881693,275.177L968.8817,288.177L968.5,288.5L968,288.5L968,157.5L968.5,157.5L968.8817,157.822971L957.881693,170.823L957.5,170.5L958,170.5ZM957,170.3168L969,156.13503L969,289.865L957,275.683L957,170.5L957,170.3168Z" fill="url(#master_svgw_230_01963)" fill-opacity="1"/></g></g></svg>