<svg xmlns="http://www.w3.org/2000/svg" xmlns:xlink="http://www.w3.org/1999/xlink" fill="none" version="1.1" width="100" height="40" viewBox="0 0 100 40"><g style="mix-blend-mode:passthrough"><rect x="0.5" y="0.5" width="99" height="39" rx="3.5" fill-opacity="0" stroke-opacity="1" stroke="#FFF45C" fill="none" stroke-width="1"/><g style="mix-blend-mode:passthrough"><path d="M47.899100000000004,16.90739C47.5618,19.02197,46.974000000000004,20.8677,46.2174,22.412599999999998C45.50651,20.8221,45.02799,18.94905,44.72266,16.90739L47.899100000000004,16.90739ZM43.08203,15.895669999999999L43.08203,16.90739L43.78385,16.90739C44.17578,19.423009999999998,44.75,21.669800000000002,45.62956,23.4836C44.79102,24.8553,43.79753,25.912599999999998,42.70378,26.6144C42.94075,26.8149,43.23698,27.175,43.39193,27.4302C44.426429999999996,26.701,45.37891,25.744,46.1764,24.5272C46.878299999999996,25.6847,47.7441,26.6281,48.8105,27.3299C48.9746,27.0565,49.2982,26.6737,49.5352,26.4868C48.4049,25.7987,47.4935,24.8006,46.778,23.5428C47.8581,21.583199999999998,48.6419,19.09489,49.0065,16.03694L48.3594,15.86832L48.177099999999996,15.895669999999999L43.08203,15.895669999999999ZM36.528646,24.4269L36.765625,25.456899999999997L40.98112,24.714L40.98112,27.4028L42.00651,27.4028L42.00651,24.5272L43.25065,24.285600000000002L43.19596,23.3696L42.00651,23.5701L42.00651,15.895669999999999L43.02734,15.895669999999999L43.02734,14.94775L36.669922,14.94775L36.669922,15.895669999999999L37.60872,15.895669999999999L37.60872,24.2173L36.528646,24.4269ZM38.61589,15.895669999999999L40.98112,15.895669999999999L40.98112,17.93733L38.61589,17.93733L38.61589,15.895669999999999ZM38.61589,18.84879L40.98112,18.84879L40.98112,20.854L38.61589,20.854L38.61589,18.84879ZM38.61589,21.7791L40.98112,21.7791L40.98112,23.6795L38.61589,24.0578L38.61589,21.7791ZM62.0814,14.692540000000001C61.7305,15.54476,61.087900000000005,16.69775,60.5957,17.43603L61.4935,17.82796C61.9948,17.11702,62.600899999999996,16.06429,63.088499999999996,15.09814L62.0814,14.692540000000001ZM54.912800000000004,15.18473C55.5143,16.01871,56.102199999999996,17.16259,56.325500000000005,17.89632L57.2643,17.42236C57.041,16.68408,56.398399999999995,15.58577,55.7923,14.765460000000001L54.912800000000004,15.18473ZM51.1895,15.18473C52.0553,15.65869,53.1081,16.41064,53.6094,16.94384L54.251999999999995,16.10986C53.736999999999995,15.58577,52.6706,14.87939,51.8184,14.446449999999999L51.1895,15.18473ZM50.5286,19.03564C51.412800000000004,19.4777,52.488299999999995,20.1886,53.0215,20.680799999999998L53.636700000000005,19.874180000000003C53.1081,19.381999999999998,52.0143,18.71207,51.1302,18.288249999999998L50.5286,19.03564ZM50.961600000000004,26.6509L51.873,27.3345C52.615899999999996,25.9946,53.4818,24.1899,54.1289,22.604L53.3451,21.9067C52.629599999999996,23.6567,51.649699999999996,25.548000000000002,50.961600000000004,26.6509ZM56.339200000000005,21.7655L61.5072,21.7655L61.5072,23.4608L56.339200000000005,23.4608L56.339200000000005,21.7655ZM56.339200000000005,20.854L56.339200000000005,19.395670000000003L61.5072,19.395670000000003L61.5072,20.854L56.339200000000005,20.854ZM58.4538,14.27327L58.4538,18.40218L55.3047,18.40218L55.3047,27.4712L56.339200000000005,27.4712L56.339200000000005,24.354L61.5072,24.354L61.5072,26.1405C61.5072,26.341,61.4388,26.3957,61.224599999999995,26.4139C61.0013,26.4276,60.2585,26.4276,59.460899999999995,26.3957C59.602199999999996,26.6782,59.7572,27.1112,59.7982,27.3937C60.864599999999996,27.3937,61.561800000000005,27.3937,61.9948,27.2251C62.4049,27.0565,62.528,26.7329,62.528,26.1541L62.528,18.40218L59.5065,18.40218L59.5065,14.27327L58.4538,14.27327Z" fill="#FFF45C" fill-opacity="1"/></g></g></svg>