<svg xmlns="http://www.w3.org/2000/svg" xmlns:xlink="http://www.w3.org/1999/xlink" fill="none" version="1.1" width="100" height="40" viewBox="0 0 100 40"><g style="mix-blend-mode:passthrough"><rect x="0" y="0" width="100" height="40" rx="4" fill="#FFF45C" fill-opacity="1"/><g style="mix-blend-mode:passthrough"><path d="M42.6901,17.52718L47.365899999999996,17.52718L47.365899999999996,18.58447L42.6901,18.58447L42.6901,17.52718ZM42.6901,15.53108L47.365899999999996,15.53108L47.365899999999996,16.77067L42.6901,16.77067L42.6901,15.53108ZM41.72396,14.729L41.72396,19.395670000000003L48.373,19.395670000000003L48.373,14.729L41.72396,14.729ZM42.00651,22.1528C41.77865,24.281100000000002,41.14974,25.8579,39.9056,26.8514C40.12891,26.9927,40.5345,27.3117,40.68945,27.4712C41.43229,26.8241,41.98828,25.9718,42.38021,24.91C43.291669999999996,26.8787,44.77734,27.2707,46.819,27.2707L49.2708,27.2707C49.3118,26.9927,49.4531,26.5597,49.5944,26.3228C49.102199999999996,26.3364,47.2109,26.3364,46.864599999999996,26.3364C46.3861,26.3364,45.93945,26.3228,45.520179999999996,26.2498L45.520179999999996,24.0578L48.4596,24.0578L48.4596,23.1873L45.520179999999996,23.1873L45.520179999999996,21.4373L49.1432,21.4373L49.1432,20.5578L41.09505,20.5578L41.09505,21.4373L44.52669,21.4373L44.52669,25.985500000000002C43.72461,25.6346,43.10937,25.005699999999997,42.70378,23.8345C42.81771,23.356,42.89974,22.831899999999997,42.9681,22.2713L42.00651,22.1528ZM38.292320000000004,14.28239L38.292320000000004,17.24918L36.55599,17.24918L36.55599,18.229L38.292320000000004,18.229L38.292320000000004,21.3963C37.58138,21.6333,36.920573,21.8247,36.405599,21.975099999999998L36.669922,23.0688L38.292320000000004,22.5083L38.292320000000004,26.1496C38.292320000000004,26.341,38.22396,26.3957,38.05534,26.3957C37.88672,26.4139,37.33984,26.4139,36.738281,26.3957C36.865885,26.6782,37.00716,27.1112,37.03451,27.3618C37.91406,27.3755,38.46094,27.3345,38.79818,27.1658C39.14909,27.0155,39.27214,26.7192,39.27214,26.1496L39.27214,22.1665L40.82617,21.6196L40.68945,20.6535L39.27214,21.091L39.27214,18.229L40.82617,18.229L40.82617,17.24918L39.27214,17.24918L39.27214,14.28239L38.292320000000004,14.28239ZM54.447900000000004,17.79606C53.6094,18.88069,52.224000000000004,20.0018,50.9798,20.712699999999998C51.2168,20.8859,51.6087,21.3006,51.8047,21.5103C53.0215,20.6991,54.5072,19.41845,55.473299999999995,18.1971L54.447900000000004,17.79606ZM58.649699999999996,18.39306C59.9531,19.30452,61.5072,20.658,62.2227,21.569499999999998L63.102199999999996,20.8586C62.332,19.96077,60.750699999999995,18.6665,59.474599999999995,17.78239L58.649699999999996,18.39306ZM54.9264,20.288899999999998L53.9876,20.5851C54.5482,21.9797,55.3047,23.1645,56.2708,24.130699999999997C54.7988,25.27,52.912099999999995,26.0083,50.6562,26.4914C50.852199999999996,26.7375,51.1895,27.2069,51.2988,27.4621C53.5547,26.8924,55.500699999999995,26.0675,57.041,24.8416C58.526700000000005,26.0675,60.413399999999996,26.8924,62.7376,27.3481C62.8789,27.0474,63.1751,26.6053,63.412099999999995,26.3638C61.1562,25.9946,59.2786,25.2427,57.8249,24.144399999999997C58.8184,23.1645,59.602199999999996,21.9797,60.1764,20.5168L59.128299999999996,20.216C58.649699999999996,21.5285,57.9525,22.594900000000003,57.041,23.4608C56.115899999999996,22.581200000000003,55.414100000000005,21.5103,54.9264,20.288899999999998ZM55.851600000000005,14.51481C56.2025,15.07535,56.5762,15.80452,56.790400000000005,16.33317L50.934200000000004,16.33317L50.934200000000004,17.354L63.0339,17.354L63.0339,16.33317L57.236999999999995,16.33317L57.865899999999996,16.06884C57.6836,15.558430000000001,57.223299999999995,14.75179,56.8451,14.1639L55.851600000000005,14.51481Z" fill="#082932" fill-opacity="1"/></g></g></svg>