<svg xmlns="http://www.w3.org/2000/svg" xmlns:xlink="http://www.w3.org/1999/xlink" fill="none" version="1.1" width="1776" height="40" viewBox="0 0 1776 40"><defs><linearGradient x1="0" y1="0.5" x2="1" y2="0.5" id="master_svg0_327_13811"><stop offset="0%" stop-color="#0B454A" stop-opacity="0.20000000298023224"/><stop offset="53.57142686843872%" stop-color="#038CA2" stop-opacity="0.5"/><stop offset="100%" stop-color="#0B454A" stop-opacity="0.20000000298023224"/></linearGradient><linearGradient x1="-0.0011013215407729149" y1="0.5" x2="1.0011013746261597" y2="0.5" id="master_svg1_230_02363"><stop offset="0%" stop-color="#0CDCE2" stop-opacity="0.07999999821186066"/><stop offset="50%" stop-color="#62FFFF" stop-opacity="1"/><stop offset="100%" stop-color="#1EE3E8" stop-opacity="0.05000000074505806"/></linearGradient></defs><g style="mix-blend-mode:passthrough"><rect x="0" y="0" width="1776" height="40" rx="0" fill="url(#master_svg0_327_13811)" fill-opacity="1"/><rect x="0.5" y="0.5" width="1775" height="39" rx="0" stroke="url(#master_svg1_230_02363)" fill-opacity="0" fill="none" stroke-width="1"/><g style="mix-blend-mode:passthrough"><g style="mix-blend-mode:passthrough"><g style="mix-blend-mode:passthrough"><path d="M865.93359,16.300620000000002C865.71029,16.829259999999998,865.31836,17.59944,865.00846,18.091630000000002L866.07487,18.56559C866.43945,18.132649999999998,866.88607,17.49007,867.34635,16.8566L865.93359,16.300620000000002ZM865.23633,24.895699999999998C864.98112,25.397,864.64388,25.839,864.27018,26.2218L863.12174,25.6522L863.54102,24.895699999999998L865.23633,24.895699999999998ZM861.11654,26.194499999999998C861.76367,26.4497,862.44727,26.7915,863.12174,27.1515C862.31966,27.6483,861.38542,28.022,860.360026,28.2498C860.642578,28.5461,860.961589,29.1476,861.11654,29.5304C862.37891,29.175,863.51367,28.66,864.46615,27.9354C864.87174,28.1906,865.23633,28.4458,865.52799,28.6782L866.52148,27.561700000000002C866.24349,27.3657,865.89258,27.1515,865.52799,26.9237C866.24349,26.0942,866.79036,25.0688,867.13672,23.8201L866.22982,23.4783L865.97461,23.537599999999998L864.21094,23.537599999999998L864.43424,22.9634L862.95312,22.680799999999998C862.85286,22.9634,862.74349,23.2414,862.61589,23.537599999999998L860.838542,23.537599999999998L860.838542,24.895699999999998L861.91406,24.895699999999998C861.64974,25.3833,861.37174,25.825400000000002,861.11654,26.194499999999998ZM860.934245,16.87483C861.27148,17.41715,861.60872,18.14632,861.70443,18.62483L860.601562,18.62483L860.601562,19.93733L862.67057,19.93733C862.02799,20.6665,861.13021,21.31819,860.305339,21.673659999999998C860.615234,21.997230000000002,860.979818,22.576,861.17578,22.977C861.87305,22.5623,862.61589,21.95621,863.25846,21.27262L863.25846,22.5897L864.8125,22.5897L864.8125,20.99007C865.3457,21.436680000000003,865.89258,21.92431,866.20247,22.2342L867.08203,21.0083C866.83138,20.81233,866.0612,20.3247,865.41406,19.93733L867.47396,19.93733L867.47396,18.62483L864.8125,18.62483L864.8125,16.131999999999998L863.25846,16.131999999999998L863.25846,18.62483L861.81836,18.62483L862.98047,18.11897C862.86654,17.613120000000002,862.50195,16.90218,862.14193,16.36897L860.934245,16.87483ZM868.56771,16.173009999999998C868.25781,18.69319,867.62891,21.154130000000002,866.50781,22.694499999999998C866.84505,22.9451,867.47396,23.523899999999998,867.71094,23.8065C867.97982,23.4191,868.23047,22.977,868.45378,22.4894C868.72266,23.610500000000002,869.04167,24.604,869.44727,25.4972C868.72266,26.6958,867.69727,27.593600000000002,866.2845,28.2498C866.5625,28.578,867.01367,29.2889,867.15039,29.6307C868.46745,28.9471,869.48828,28.0903,870.2767,27.023899999999998C870.9056,28.0037,871.6895,28.8332,872.6556,29.4438C872.8926,29.02,873.3848,28.4048,873.7448,28.104C872.6829,27.506999999999998,871.8444,26.6092,871.1836,25.4972C871.8581,24.098100000000002,872.2773,22.393700000000003,872.5417,20.329259999999998L873.4258,20.329259999999998L873.4258,18.77067L869.67057,18.77067C869.83919,18.00504,869.99414,17.22119,870.1081,16.40999L868.56771,16.173009999999998ZM870.974,20.329259999999998C870.8327,21.5734,870.623,22.6899,870.304,23.6515C869.92578,22.630699999999997,869.64323,21.51416,869.44727,20.329259999999998L870.974,20.329259999999998ZM880.7904,24.982300000000002L880.7904,29.5578L882.2305,29.5578L882.2305,29.1431L885.6165,29.1431L885.6165,29.5441L887.1296,29.5441L887.1296,24.982300000000002L884.6094,24.982300000000002L884.6094,23.688000000000002L887.4531,23.688000000000002L887.4531,22.270699999999998L884.6094,22.270699999999998L884.6094,20.81233L887.0612,20.81233L887.0612,16.729L879.3457,16.729L879.3457,21.07666C879.3457,23.451,879.2363,26.4862,877.8327,28.6144C878.1973,28.7967,878.9128,29.3026,879.1908,29.6033C880.2708,28.0129,880.7038,25.6841,880.8724,23.688000000000002L883.0417,23.688000000000002L883.0417,24.982300000000002L880.7904,24.982300000000002ZM880.9681,18.173659999999998L885.4798,18.173659999999998L885.4798,19.3859L880.9681,19.3859L880.9681,18.173659999999998ZM880.9681,20.81233L883.0417,20.81233L883.0417,22.270699999999998L880.9544,22.270699999999998L880.9681,21.07666L880.9681,20.81233ZM882.2305,27.8123L882.2305,26.354L885.6165,26.354L885.6165,27.8123L882.2305,27.8123ZM875.987,16.163899999999998L875.987,18.77067L874.515,18.77067L874.515,20.311030000000002L875.987,20.311030000000002L875.987,23.100099999999998L874.2917,23.505699999999997L874.6699,25.0688L875.987,24.6997L875.987,27.5708C875.987,27.7576,875.9277,27.8123,875.7637,27.8123C875.5951,27.8306,875.1029,27.8306,874.5879,27.8123C874.7975,28.2498,874.9798,28.9471,875.0208,29.3527C875.9277,29.3527,876.5475,29.298,876.9668,29.0337C877.3997,28.7785,877.5273,28.3592,877.5273,27.5845L877.5273,24.2804L878.9674,23.8612L878.7578,22.357300000000002L877.5273,22.694499999999998L877.5273,20.311030000000002L878.9401,20.311030000000002L878.9401,18.77067L877.5273,18.77067L877.5273,16.163899999999998L875.987,16.163899999999998ZM896.6360999999999,17.72705L896.6360999999999,25.839L898.2904,25.839L898.2904,17.72705L896.6360999999999,17.72705ZM899.5345,16.300620000000002L899.5345,27.5161C899.5345,27.744,899.4525,27.8123,899.2109,27.8123C898.974,27.8306,898.2038,27.8306,897.5065,27.7987C897.7298,28.2498,897.9668,28.9608,898.0352,29.4119C899.1836,29.4256,899.9674,29.3709,900.5006,29.1157C901.0339,28.8514,901.2161,28.4185,901.2161,27.4979L901.2161,16.300620000000002L899.5345,16.300620000000002ZM890.4199,24.1847C890.9395,24.6268,891.6094,25.2283,892.0742,25.6978C891.2174,26.828,890.1237,27.6711,888.8385,28.1632C889.1895,28.5005,889.6224,29.1567,889.8457,29.6307C893.0677000000001,28.0949,895.082,25.2101,895.7565,20.20621L894.7038,19.90088L894.4121,19.93733L891.8464,19.93733C891.9876,19.46338,892.1289,18.97119,892.2383,18.479L896.0072,18.479L896.0072,16.87028L888.6699,16.87028L888.6699,18.479L890.5475,18.479C890.11,20.34749,889.4128,22.1112,888.4056,23.255000000000003C888.7656,23.523899999999998,889.4264000000001,24.125500000000002,889.6771,24.4399C890.3197,23.6515,890.8665,22.6398,891.3177,21.4777L893.9062,21.4777C893.6829,22.4803,893.373,23.3826,892.9811,24.1984C892.5208,23.7837,891.86,23.255000000000003,891.3860999999999,22.8813L890.4199,24.1847ZM905.2858,29.5487C905.7096,29.2707,906.3522,29.0701,910.3581,27.8123C910.2578,27.4478,910.1165,26.736800000000002,910.0755,26.253700000000002L907.054,27.115099999999998L907.054,24.6359C907.7103,24.139200000000002,908.3255,23.583199999999998,908.8587,23.0181C909.9206,26.0487,911.6569,28.1951,914.569,29.216C914.8242,28.7466,915.3118,28.0493,915.6764000000001,27.6847C914.4186,27.3201,913.3522,26.704900000000002,912.5,25.9165C913.3112,25.438000000000002,914.2227,24.8091,915.0202,24.2121L913.6165,23.131999999999998C913.0879,23.674300000000002,912.2904,24.3123,911.5475,24.841C911.0964,24.2394,910.7363,23.583199999999998,910.4538,22.854L915.1888,22.854L915.1888,21.42757L909.8112,21.42757L909.8112,20.684730000000002L914.1634,20.684730000000002L914.1634,19.354L909.8112,19.354L909.8112,18.72965L914.7103,18.72965L914.7103,17.31233L909.8112,17.31233L909.8112,16.17757L908.1159,16.17757L908.1159,17.31233L903.3854,17.31233L903.3854,18.72965L908.1159,18.72965L908.1159,19.354L904.0827,19.354L904.0827,20.684730000000002L908.1159,20.684730000000002L908.1159,21.42757L902.7839,21.42757L902.7839,22.854L906.7578,22.854C905.5409999999999,23.8612,903.8594,24.7498,902.2917,25.2603C902.6426,25.6112,903.1439,26.267400000000002,903.3854,26.677599999999998C904.028,26.4269,904.6706,26.1216,905.304,25.770699999999998L905.304,26.8371C905.304,27.4797,904.9121,27.8306,904.5885,28.0037C904.8529,28.3547,905.1901,29.1248,905.2858,29.5487Z" fill="#FFFFFF" fill-opacity="1"/></g></g></g></g></svg>