<svg xmlns="http://www.w3.org/2000/svg" xmlns:xlink="http://www.w3.org/1999/xlink" fill="none" version="1.1" width="460" height="188" viewBox="0 0 460 188"><defs><filter id="master_svg0_430_012038" filterUnits="objectBoundingBox" color-interpolation-filters="sRGB" x="-40" y="-40" width="480" height="208"><feFlood flood-opacity="0" result="BackgroundImageFix"/><feColorMatrix in="SourceAlpha" type="matrix" values="0 0 0 0 0 0 0 0 0 0 0 0 0 0 0 0 0 0 127 0"/><feOffset dy="0" dx="0"/><feGaussianBlur stdDeviation="10"/><feColorMatrix type="matrix" values="0 0 0 0 0 0 0 0 0 0 0 0 0 0 0 0 0 0 0.20000000298023224 0"/><feBlend mode="normal" in2="BackgroundImageFix" result="effect1_dropShadow"/><feBlend mode="normal" in="SourceGraphic" in2="effect1_dropShadow" result="shape"/></filter></defs><g style="mix-blend-mode:passthrough"><g filter="url(#master_svg0_430_012038)"><rect x="30" y="30" width="400" height="128" rx="6" fill="#073B49" fill-opacity="1"/></g><g><path d="M131.70833,88.476L131.70833,94.3614C131.70833,96.7937,131.63021,100.0906,130.557292,102.4291C130.828125,102.4916,131.30729,102.7625,131.53125,102.95C132.23958,101.4187,132.55729,99.39789999999999,132.70312,97.476L135.10417,97.476L135.10417,101.4031C135.10417,101.6114,135.02083,101.6739,134.82812,101.6895C134.63542,101.6895,134.01562,101.71039999999999,133.30729,101.6739C133.46875,101.99680000000001,133.59896,102.5073,133.64583,102.80930000000001C134.67188,102.80930000000001,135.27604,102.7781,135.66146,102.58539999999999C136.0625,102.39789999999999,136.1875,102.0281,136.1875,101.4187L136.1875,88.476L131.70833,88.476ZM132.79688,89.56454L135.10417,89.56454L135.10417,92.37704L132.79688,92.37704L132.79688,89.56454ZM132.79688,93.476L135.10417,93.476L135.10417,96.3562L132.76562,96.3562C132.78125,95.6687,132.79688,95.0125,132.79688,94.4239L132.79688,93.476ZM138.28646,88.68954L138.28646,90.47079C138.28646,91.63746,138.03125,93.0073,136.31771,94.002C136.52604,94.1739,136.94271,94.5958,137.08854,94.8145C138.97396,93.74680000000001,139.39062,91.98642,139.39062,90.50204L139.39062,89.80933L142.125,89.80933L142.125,92.46558C142.125,93.6948,142.3333,94.1427,143.375,94.1427C143.5677,94.1427,144.224,94.1427,144.4323,94.1427C144.7188,94.1427,145.0208,94.127,145.1979,94.0645C145.1667,93.7937,145.1354,93.3302,145.1042,93.02289999999999C144.9115,93.0698,144.625,93.1062,144.4323,93.1062C144.2552,93.1062,143.6302,93.1062,143.4531,93.1062C143.2448,93.1062,143.2292,92.95517,143.2292,92.48121L143.2292,88.68954L138.28646,88.68954ZM143.0052,96.2677C142.4792,97.5333,141.6927,98.6062,140.75,99.46039999999999C139.79167,98.5698,139.03646,97.4864,138.51042,96.2677L143.0052,96.2677ZM136.79688,95.1427L136.79688,96.2677L137.72396,96.2677L137.45312,96.3614C138.04688,97.8458,138.84375,99.1323,139.86979,100.18430000000001C138.76562,100.976,137.5,101.5541,136.20833,101.8823C136.41146,102.1635,136.67188,102.6427,136.78125,102.9708C138.19271,102.52289999999999,139.53646,101.8823,140.7188,100.976C141.8542,101.89789999999999,143.1979,102.5906,144.7188,103.0177C144.8802,102.6895,145.1979,102.1948,145.4375,101.93430000000001C144,101.58539999999999,142.7031,100.9916,141.6302,100.2C142.8958,98.9812,143.901,97.4031,144.4792,95.4031L143.776,95.101L143.5677,95.1427L136.79688,95.1427ZM156.3333,99.877C157.6615,100.627,159.3438,101.74680000000001,160.1406,102.4864L161.0729,101.7625C160.1927,101.0281,158.5104,99.9708,157.1979,99.2677L156.3333,99.877ZM148.7969,95.80930000000001L148.7969,96.77289999999999L159.2292,96.77289999999999L159.2292,95.80930000000001L148.7969,95.80930000000001ZM150.3333,99.2208C149.4844,100.226,148.0625,101.2052,146.7031,101.80930000000001C146.974,102.002,147.4375,102.4031,147.6302,102.6114C148.9583,101.9083,150.4948,100.77289999999999,151.4531,99.6062L150.3333,99.2208ZM146.8594,97.80930000000001L146.8594,98.8198L153.4062,98.8198L153.4062,101.5541C153.4062,101.74680000000001,153.3594,101.80930000000001,153.1198,101.80930000000001C152.8802,101.8302,152.125,101.8302,151.2292,101.7937C151.3906,102.1166,151.5677,102.5645,151.6146,102.8823C152.7812,102.8823,153.5156,102.8666,154,102.6895C154.4948,102.5177,154.6198,102.21039999999999,154.6198,101.58539999999999L154.6198,98.8198L161.1823,98.8198L161.1823,97.80930000000001L146.8594,97.80930000000001ZM148,90.89788L148,94.7416L160.0938,94.7416L160.0938,90.89788L156.3333,90.89788L156.3333,89.476L160.8646,89.476L160.8646,88.48642L147.0365,88.48642L147.0365,89.476L151.5521,89.476L151.5521,90.89788L148,90.89788ZM152.6562,89.476L155.1979,89.476L155.1979,90.89788L152.6562,90.89788L152.6562,89.476ZM149.1198,91.80933L151.5521,91.80933L151.5521,93.80930000000001L149.1198,93.80930000000001L149.1198,91.80933ZM152.6562,91.80933L155.1979,91.80933L155.1979,93.80930000000001L152.6562,93.80930000000001L152.6562,91.80933ZM156.3333,91.80933L158.9115,91.80933L158.9115,93.80930000000001L156.3333,93.80930000000001L156.3333,91.80933ZM169.0885,88.31454C168.7969,88.976,168.2865,89.976,167.8854,90.56975L168.6719,90.976C169.0885,90.4135,169.6302,89.56975,170.0938,88.7885L169.0885,88.31454ZM163.4062,88.7885C163.8229,89.50204,164.2552,90.43433,164.3958,91.02808L165.3073,90.601C165.1667,89.99163,164.7344,89.07496,164.2865,88.4135L163.4062,88.7885ZM168.5573,97.476C168.1875,98.3198,167.6771,99.0333,167.0677,99.6531C166.4635,99.3458,165.8385,99.0333,165.2448,98.7781C165.4688,98.3875,165.724,97.95,165.9479,97.476L168.5573,97.476ZM163.7552,99.2156C164.5417,99.52289999999999,165.4219,99.9291,166.224,100.351C165.1979,101.0958,163.9635,101.6166,162.651,101.9239C162.8594,102.1531,163.1198,102.575,163.2292,102.8666C164.7031,102.46039999999999,166.0625,101.825,167.2135,100.8875C167.7396,101.21039999999999,168.224,101.5177,168.5885,101.7937L169.3594,101.002C168.9896,100.7416,168.526,100.45,168,100.1583C168.8438,99.2312,169.5156,98.0958,169.9167,96.6948L169.2604,96.4239L169.0677,96.4708L166.4479,96.4708L166.7969,95.6323L165.724,95.4395C165.6146,95.7625,165.4531,96.1166,165.2917,96.4708L163.1198,96.4708L163.1198,97.476L164.7969,97.476C164.4635,98.127,164.0938,98.726,163.7552,99.2156ZM166.1094,87.97079L166.1094,91.14267L162.7969,91.14267L162.7969,92.13746L165.7396,92.13746C164.974,93.18430000000001,163.7396,94.18430000000001,162.6198,94.6687C162.8594,94.8927,163.1354,95.30930000000001,163.276,95.58539999999999C164.2552,95.0541,165.3073,94.1531,166.1094,93.2L166.1094,95.1635L167.2292,95.1635L167.2292,92.976C168,93.5385,168.974,94.2937,169.375,94.6687L170.0469,93.7989C169.6615,93.52289999999999,168.2552,92.62183,167.4688,92.13746L170.4948,92.13746L170.4948,91.14267L167.2292,91.14267L167.2292,87.97079L166.1094,87.97079ZM172.0625,88.12704C171.6615,91.11142,170.9427,93.8145,169.6927,95.502C169.9479,95.6635,170.4167,96.0541,170.6042,96.24680000000001C171.0208,95.64789999999999,171.375,94.9395,171.6927,94.1531C172.0469,95.7312,172.5104,97.1895,173.1042,98.4656C172.2083,100.0073,170.9583,101.1948,169.2135,102.0541C169.4375,102.2989,169.776,102.7833,169.8854,103.0437C171.5156,102.1531,172.75,101.0333,173.6927,99.6062C174.4948,100.9812,175.4844,102.08539999999999,176.7344,102.851C176.9271,102.5437,177.2812,102.12180000000001,177.5521,101.8927C176.2083,101.1635,175.151,99.976,174.3333,98.4864C175.1823,96.825,175.7292,94.7573,176.0781,92.26767L177.1667,92.26767L177.1667,91.14267L172.6042,91.14267C172.8281,90.226,173.0208,89.26246,173.1667,88.27808L172.0625,88.12704ZM174.9427,92.26767C174.6875,94.1791,174.3021,95.8406,173.724,97.2208C173.1198,95.7573,172.6719,94.05930000000001,172.3646,92.26767L174.9427,92.26767ZM185.7396,97.80930000000001L185.7396,103.075L186.7969,103.075L186.7969,102.4708L191.7292,102.4708L191.7292,103.0125L192.8281,103.0125L192.8281,97.80930000000001L189.7448,97.80930000000001L189.7448,95.80930000000001L193.3281,95.80930000000001L193.3281,94.77289999999999L189.7448,94.77289999999999L189.7448,92.86663L192.7656,92.86663L192.7656,88.77288L184.3177,88.77288L184.3177,93.6114C184.3177,96.24680000000001,184.1719,99.825,182.5104,102.4239C182.7812,102.5437,183.276,102.8666,183.5,103.0437C184.8281,101.1114,185.276,98.21039999999999,185.4219,95.80930000000001L188.6042,95.80930000000001L188.6042,97.80930000000001L185.7396,97.80930000000001ZM185.4844,89.80933L191.6146,89.80933L191.6146,91.80933L185.4844,91.80933L185.4844,89.80933ZM185.4844,92.86663L188.6042,92.86663L188.6042,94.77289999999999L185.4688,94.77289999999999L185.4844,93.6114L185.4844,92.86663ZM186.7969,101.476L186.7969,98.83539999999999L191.7292,98.83539999999999L191.7292,101.476L186.7969,101.476ZM180.6719,88.02288L180.6719,91.35621L178.6719,91.35621L178.6719,92.476L180.6719,92.476L180.6719,96.02289999999999C179.8385,96.2781,179.0677,96.5073,178.4635,96.6687L178.7812,97.8614L180.6719,97.24680000000001L180.6719,101.5125C180.6719,101.74680000000001,180.5885,101.80930000000001,180.3958,101.80930000000001C180.2031,101.8302,179.5833,101.8302,178.8958,101.80930000000001C179.0365,102.1323,179.1979,102.627,179.2292,102.9135C180.2396,102.9291,180.8594,102.8823,181.2448,102.6895C181.6458,102.5177,181.7917,102.1791,181.7917,101.5125L181.7917,96.877L183.6302,96.2625L183.4531,95.1583L181.7917,95.68430000000001L181.7917,92.476L183.599,92.476L183.599,91.35621L181.7917,91.35621L181.7917,88.02288L180.6719,88.02288ZM196.224,101.80930000000001C196.7969,101.80930000000001,197.276,101.3614,197.276,100.71039999999999C197.276,100.0333,196.7969,99.58539999999999,196.224,99.58539999999999C195.6302,99.58539999999999,195.1667,100.0333,195.1667,100.71039999999999C195.1667,101.3614,195.6302,101.80930000000001,196.224,101.80930000000001ZM202.3802,101.476L203.8698,101.476L203.8698,91.05933L207.4219,91.05933L207.4219,89.80933L198.8281,89.80933L198.8281,91.05933L202.3802,91.05933L202.3802,101.476ZM208.2708,101.476L209.8385,101.476L211.5156,98.325C211.8229,97.7364,212.125,97.14789999999999,212.4635,96.43430000000001L212.526,96.43430000000001C212.9115,97.14789999999999,213.2292,97.7364,213.5365,98.325L215.276,101.476L216.9115,101.476L213.4688,95.5281L216.6719,89.80933L215.1198,89.80933L213.5521,92.7885C213.2604,93.3302,213.0365,93.825,212.7188,94.5073L212.6562,94.5073C212.2708,93.825,212.0312,93.3302,211.724,92.7885L210.125,89.80933L208.4948,89.80933L211.6927,95.4448L208.2708,101.476ZM221.3802,101.476L222.8698,101.476L222.8698,91.05933L226.4219,91.05933L226.4219,89.80933L217.8281,89.80933L217.8281,91.05933L221.3802,91.05933L221.3802,101.476Z" fill="#09B8BC" fill-opacity="1"/></g><g><path d="M109.9871,85.06029C109.7543,81.09576,106.4714,77.9999774082,102.5,78L67.5003,78L67.05709999999999,78.0128571C63.0936,78.246999,59.99932,81.52958,59.999430000000004,85.5L59.999430000000004,93L54.99971,93C52.23845,93,50,95.2384,50,97.9997L50,118.00030000000001C50,120.7616,52.23845,123,54.99971,123L60.000299999999996,123L60.000299999999996,130.5L60.0131,130.93970000000002C60.246,134.9042,63.5289,138,67.5003,138L102.5,138L102.9397,137.9871C106.9042,137.7543,110,134.47140000000002,110,130.5L110,85.5L109.9871,85.06029ZM67.5003,82.99971L102.5,82.99971L102.7957,83.01429C104.0555,83.16301,105.0042,84.2315,105.0029,85.5L105.0029,130.5034L104.98570000000001,130.7966C104.837,132.0563,103.7685,133.0051,102.5,133.0037L67.5003,133.0037L67.2071,132.9857C65.9474,132.837,64.9986,131.76850000000002,65,130.5L65,123L75.0003,123C77.7616,123,80,120.7616,80,118.00030000000001L80,97.9997C80,95.2384,77.7616,93,75.0003,93L64.9974,93L64.9974,85.5L65.0146,85.20686C65.16329999999999,83.94711,66.23179999999999,82.99836,67.5003,82.99971ZM102.4537,98.0001C102.4537,96.6373,101.3623,95.5255,99.99969999999999,95.5003L87.5,95.5003C86.10130000000001,95.4744,84.95349999999999,96.6012,84.95349999999999,98.0001C84.95349999999999,99.3991,86.10130000000001,100.52590000000001,87.5,100.5L99.99969999999999,100.5C101.3623,100.4748,102.4537,99.363,102.4537,98.0001ZM56.98112,114.5L54.91211,114.5L54.91211,105.7363L52,105.7363L52,104L59.9069,104L59.9069,105.7363L56.98112,105.7363L56.98112,114.5ZM62.7233,114.5L60.5404,114.5L63.4388,109.10419999999999L60.690799999999996,104L63.0013,104L64.0404,106.1829C64.291,106.666,64.5007,107.1764,64.8105,107.8281L64.8652,107.8281C65.1159,107.1764,65.3392,106.666,65.5671,106.1829L66.5469,104L68.7298,104L66,109.1862L68.9121,114.5L66.6152,114.5L65.4531,112.1803C65.2025,111.638,64.9336,111.0866,64.64189999999999,110.4486L64.5827,110.4486C64.3184,111.0866,64.0814,111.638,63.8307,112.1803L62.7233,114.5ZM74.4811,114.5L72.4121,114.5L72.4121,105.7363L69.5,105.7363L69.5,104L77.40690000000001,104L77.40690000000001,105.7363L74.4811,105.7363L74.4811,114.5ZM102.4537,108.0004C102.4537,106.63759999999999,101.3623,105.5258,99.99969999999999,105.50059999999999L87.5,105.50059999999999C86.1374,105.5258,85.04599999999999,106.63759999999999,85.04599999999999,108.0004C85.04599999999999,109.3633,86.1374,110.4751,87.5,110.50030000000001L99.99969999999999,110.50030000000001C101.3623,110.4751,102.4537,109.3633,102.4537,108.0004ZM102.4537,117.9999C102.4537,116.637,101.3623,115.5252,99.99969999999999,115.5L87.5,115.5C86.10130000000001,115.47409999999999,84.95349999999999,116.6009,84.95349999999999,117.9999C84.95349999999999,119.3988,86.10130000000001,120.5256,87.5,120.49969999999999L99.99969999999999,120.49969999999999C101.3623,120.4745,102.4537,119.36269999999999,102.4537,117.9999Z" fill-rule="evenodd" fill="#FFF45C" fill-opacity="1"/></g></g></svg>