<svg xmlns="http://www.w3.org/2000/svg" xmlns:xlink="http://www.w3.org/1999/xlink" fill="none" version="1.1" width="443.1015625" height="64.552734375" viewBox="0 0 443.1015625 64.552734375"><defs><linearGradient x1="1" y1="0.0005000000237487257" x2="0" y2="0" id="master_svg0_230_06301"><stop offset="0%" stop-color="#23A9B1" stop-opacity="0"/><stop offset="99.99999403953552%" stop-color="#0FCED3" stop-opacity="1"/></linearGradient><radialGradient cx="0" cy="0" r="1" gradientUnits="userSpaceOnUse" id="master_svg1_230_02304" gradientTransform="translate(46.53013563156128 32.5) rotate(90) scale(8 19.059768132496174)"><stop offset="2.857142873108387%" stop-color="#00FFFF" stop-opacity="1"/><stop offset="100%" stop-color="#FFFFFF" stop-opacity="0"/></radialGradient><radialGradient cx="0" cy="0" r="1" gradientUnits="userSpaceOnUse" id="master_svg2_230_02304" gradientTransform="translate(46.53013563156128 32.5) rotate(90) scale(8 19.059768132496174)"><stop offset="2.857142873108387%" stop-color="#00FFFF" stop-opacity="1"/><stop offset="100%" stop-color="#FFFFFF" stop-opacity="0"/></radialGradient><filter id="master_svg3_430_84451" filterUnits="objectBoundingBox" color-interpolation-filters="sRGB" x="-20" y="-20" width="72.5167465209961" height="49.10468864440918"><feFlood flood-opacity="0" result="BackgroundImageFix"/><feBlend mode="normal" in="SourceGraphic" in2="BackgroundImageFix" result="shape"/><feGaussianBlur stdDeviation="5" result="effect1_foregroundBlur"/></filter><radialGradient cx="0" cy="0" r="1" gradientUnits="userSpaceOnUse" id="master_svg4_230_02304" gradientTransform="translate(46.257885456085205 32.05234479904175) rotate(90) scale(4.55234432220459 10.84582823888013)"><stop offset="2.857142873108387%" stop-color="#00FFFF" stop-opacity="1"/><stop offset="100%" stop-color="#FFFFFF" stop-opacity="0"/></radialGradient><filter id="master_svg5_430_84452" filterUnits="objectBoundingBox" color-interpolation-filters="sRGB" x="-20" y="-20" width="97.14286041259766" height="48"><feFlood flood-opacity="0" result="BackgroundImageFix"/><feBlend mode="normal" in="SourceGraphic" in2="BackgroundImageFix" result="shape"/><feGaussianBlur stdDeviation="5" result="effect1_foregroundBlur"/></filter><radialGradient cx="0" cy="0" r="1" gradientUnits="userSpaceOnUse" id="master_svg6_230_02297" gradientTransform="translate(46.53013563156128 32.5) rotate(90) scale(4 19.059768132496174)"><stop offset="0%" stop-color="#FFFFFF" stop-opacity="0.10000000149011612"/><stop offset="100%" stop-color="#00FFFF" stop-opacity="1"/></radialGradient><radialGradient cx="0" cy="0" r="1" gradientUnits="userSpaceOnUse" id="master_svg7_230_02297" gradientTransform="translate(46.53013563156128 32.5) rotate(90) scale(4 19.059768132496174)"><stop offset="0%" stop-color="#FFFFFF" stop-opacity="0.10000000149011612"/><stop offset="100%" stop-color="#00FFFF" stop-opacity="1"/></radialGradient><filter id="master_svg8_430_84455" filterUnits="objectBoundingBox" color-interpolation-filters="sRGB" x="-20" y="-20" width="72.5167465209961" height="44.55234432220459"><feFlood flood-opacity="0" result="BackgroundImageFix"/><feBlend mode="normal" in="SourceGraphic" in2="BackgroundImageFix" result="shape"/><feGaussianBlur stdDeviation="5" result="effect1_foregroundBlur"/></filter><radialGradient cx="0" cy="0" r="1" gradientUnits="userSpaceOnUse" id="master_svg9_230_02297" gradientTransform="translate(46.257885456085205 32.276172399520874) rotate(90) scale(2.276172161102295 10.84582823888013)"><stop offset="0%" stop-color="#FFFFFF" stop-opacity="0.10000000149011612"/><stop offset="100%" stop-color="#00FFFF" stop-opacity="1"/></radialGradient><radialGradient cx="0" cy="0" r="1" gradientUnits="userSpaceOnUse" id="master_svga_230_02304" gradientTransform="translate(46.53013467788696 32.5) rotate(90) scale(8 15.24781399704625)"><stop offset="2.857142873108387%" stop-color="#00FFFF" stop-opacity="1"/><stop offset="100%" stop-color="#FFFFFF" stop-opacity="0"/></radialGradient><radialGradient cx="0" cy="0" r="1" gradientUnits="userSpaceOnUse" id="master_svgb_230_02304" gradientTransform="translate(46.53013467788696 32.5) rotate(90) scale(8 15.24781399704625)"><stop offset="2.857142873108387%" stop-color="#00FFFF" stop-opacity="1"/><stop offset="100%" stop-color="#FFFFFF" stop-opacity="0"/></radialGradient><filter id="master_svgc_430_84445" filterUnits="objectBoundingBox" color-interpolation-filters="sRGB" x="-20" y="-20" width="66.01339530944824" height="49.10468864440918"><feFlood flood-opacity="0" result="BackgroundImageFix"/><feBlend mode="normal" in="SourceGraphic" in2="BackgroundImageFix" result="shape"/><feGaussianBlur stdDeviation="5" result="effect1_foregroundBlur"/></filter><radialGradient cx="0" cy="0" r="1" gradientUnits="userSpaceOnUse" id="master_svgd_230_02304" gradientTransform="translate(46.31233549118042 32.05234479904175) rotate(90) scale(4.55234432220459 8.676661954915744)"><stop offset="2.857142873108387%" stop-color="#00FFFF" stop-opacity="1"/><stop offset="100%" stop-color="#FFFFFF" stop-opacity="0"/></radialGradient><filter id="master_svge_430_84439" filterUnits="objectBoundingBox" color-interpolation-filters="sRGB" x="-20" y="-20" width="85.71428680419922" height="48"><feFlood flood-opacity="0" result="BackgroundImageFix"/><feBlend mode="normal" in="SourceGraphic" in2="BackgroundImageFix" result="shape"/><feGaussianBlur stdDeviation="5" result="effect1_foregroundBlur"/></filter><radialGradient cx="0" cy="0" r="1" gradientUnits="userSpaceOnUse" id="master_svgf_230_02297" gradientTransform="translate(46.53013467788696 32.5) rotate(90) scale(4 15.24781399704625)"><stop offset="0%" stop-color="#FFFFFF" stop-opacity="0.10000000149011612"/><stop offset="100%" stop-color="#00FFFF" stop-opacity="1"/></radialGradient><radialGradient cx="0" cy="0" r="1" gradientUnits="userSpaceOnUse" id="master_svgg_230_02297" gradientTransform="translate(46.53013467788696 32.5) rotate(90) scale(4 15.24781399704625)"><stop offset="0%" stop-color="#FFFFFF" stop-opacity="0.10000000149011612"/><stop offset="100%" stop-color="#00FFFF" stop-opacity="1"/></radialGradient><filter id="master_svgh_430_84442" filterUnits="objectBoundingBox" color-interpolation-filters="sRGB" x="-20" y="-20" width="66.01339530944824" height="44.55234432220459"><feFlood flood-opacity="0" result="BackgroundImageFix"/><feBlend mode="normal" in="SourceGraphic" in2="BackgroundImageFix" result="shape"/><feGaussianBlur stdDeviation="5" result="effect1_foregroundBlur"/></filter><radialGradient cx="0" cy="0" r="1" gradientUnits="userSpaceOnUse" id="master_svgi_230_02297" gradientTransform="translate(46.31233549118042 32.276172399520874) rotate(90) scale(2.276172161102295 8.676661954915744)"><stop offset="0%" stop-color="#FFFFFF" stop-opacity="0.10000000149011612"/><stop offset="100%" stop-color="#00FFFF" stop-opacity="1"/></radialGradient></defs><g style="mix-blend-mode:passthrough"><g><path d="M443.1015625,49.5L105.1015625,49.5L105.1015625,48.5L443.1015625,48.5L443.1015625,49.5Z" fill="url(#master_svg0_230_06301)" fill-opacity="1"/></g><g><path d="M104.6644625,49.7428L84.6644625,13.742821L85.1015625,13.5L85.1015625,14L5.1015625,14L5.1015625,13.5L5.6015625,13.5L5.6015625,49.5L4.6015625,49.5L4.6015625,13L85.3957625,13L105.5385625,49.2572L104.6644625,49.7428Z" fill="#0FCED3" fill-opacity="1"/></g><g style="mix-blend-mode:passthrough"><g style="opacity:0.800000011920929;mix-blend-mode:passthrough"><g style="opacity:0.699999988079071;"><g style="mix-blend-mode:passthrough"><g style="opacity:0.5;"><path d="M41.50220542526245,40.3752C57.039505425262455,41.148399999999995,71.88150542526245,38.2488,74.65240542526246,33.89062C77.42340542526244,29.532429999999998,67.08530542526245,25.332399,51.558105425262454,24.611892C36.030905425262446,23.891384,21.17875542526245,26.7207,18.40782042526245,31.07889C15.63688542526245,35.4371,25.97495542526245,39.5844,41.50220542526245,40.3752Z" fill="url(#master_svg1_230_02304)" fill-opacity="0.699999988079071"/></g><g style="opacity:0.5;mix-blend-mode:soft-light"><path d="M41.50220542526245,40.3752C57.039505425262455,41.148399999999995,71.88150542526245,38.2488,74.65240542526246,33.89062C77.42340542526244,29.532429999999998,67.08530542526245,25.332399,51.558105425262454,24.611892C36.030905425262446,23.891384,21.17875542526245,26.7207,18.40782042526245,31.07889C15.63688542526245,35.4371,25.97495542526245,39.5844,41.50220542526245,40.3752Z" fill="url(#master_svg2_230_02304)" fill-opacity="0.699999988079071" style="mix-blend-mode:soft-light"/></g><g style="opacity:0.5;" filter="url(#master_svg3_430_84451)"><path d="M43.396712195587156,36.53367047683716C52.23811219558716,36.97367047683716,60.683912195587155,35.32367047683716,62.26071219558716,32.84367047683716C63.83751219558716,30.363670476837157,57.95471219558716,27.973671476837158,49.11901219558716,27.56367157683716C40.28341219558716,27.153671476837157,31.831862195587156,28.76367047683716,30.25507819558716,31.24367047683716C28.678292195587158,33.72367047683716,34.56110219558716,36.083670476837156,43.396712195587156,36.53367047683716Z" fill="url(#master_svg4_230_02304)" fill-opacity="0.699999988079071"/></g></g><g style="mix-blend-mode:passthrough" filter="url(#master_svg5_430_84452)"><g style="opacity:0.5;"><path d="M41.50220542526245,36.4376C57.039505425262455,36.82421,71.88150542526245,35.37441,74.65240542526246,33.19531C77.42340542526244,31.01622,67.08530542526245,28.9162,51.558105425262454,28.5559458C36.030905425262446,28.195692,21.17875542526245,29.61035,18.40782042526245,31.78944C15.63688542526245,33.96854,25.97495542526245,36.0422,41.50220542526245,36.4376Z" fill="url(#master_svg6_230_02297)" fill-opacity="1"/></g><g style="opacity:0.5;mix-blend-mode:soft-light"><path d="M41.50220542526245,36.4376C57.039505425262455,36.82421,71.88150542526245,35.37441,74.65240542526246,33.19531C77.42340542526244,31.01622,67.08530542526245,28.9162,51.558105425262454,28.5559458C36.030905425262446,28.195692,21.17875542526245,29.61035,18.40782042526245,31.78944C15.63688542526245,33.96854,25.97495542526245,36.0422,41.50220542526245,36.4376Z" fill="url(#master_svg7_230_02297)" fill-opacity="1" style="mix-blend-mode:soft-light"/></g><g style="opacity:0.5;" filter="url(#master_svg8_430_84455)"><path d="M43.396712195587156,34.51684023841858C52.23811219558716,34.73684023841858,60.683912195587155,33.91183023841858,62.26071219558716,32.67184023841858C63.83751219558716,31.43184023841858,57.95471219558716,30.23683523841858,49.11901219558716,30.03183583841858C40.28341219558716,29.82683623841858,31.831862195587156,30.63183623841858,30.25507819558716,31.871840238418578C28.678292195587158,33.11184023841858,34.56110219558716,34.29184023841858,43.396712195587156,34.51684023841858Z" fill="url(#master_svg9_230_02297)" fill-opacity="1"/></g></g></g><g style="opacity:0.5;"><g style="mix-blend-mode:passthrough"><g style="opacity:0.5;"><path d="M42.507791275787355,40.3752C54.937591275787355,41.148399999999995,66.81119127578735,38.2488,69.02799127578734,33.89062C71.24479127578735,29.532429999999998,62.97429127578735,25.332399,50.552491275787354,24.611892C38.130691275787356,23.891384,26.249031275787353,26.7207,24.032283275787353,31.07889C21.815531275787354,35.4371,30.085991275787354,39.5844,42.507791275787355,40.3752Z" fill="url(#master_svga_230_02304)" fill-opacity="0.699999988079071"/></g><g style="opacity:0.5;mix-blend-mode:soft-light"><path d="M42.507791275787355,40.3752C54.937591275787355,41.148399999999995,66.81119127578735,38.2488,69.02799127578734,33.89062C71.24479127578735,29.532429999999998,62.97429127578735,25.332399,50.552491275787354,24.611892C38.130691275787356,23.891384,26.249031275787353,26.7207,24.032283275787353,31.07889C21.815531275787354,35.4371,30.085991275787354,39.5844,42.507791275787355,40.3752Z" fill="url(#master_svgb_230_02304)" fill-opacity="0.699999988079071" style="mix-blend-mode:soft-light"/></g><g style="opacity:0.5;" filter="url(#master_svgc_430_84445)"><path d="M44.023437836456296,36.53367047683716C51.0965378364563,36.97367047683716,57.8531378364563,35.32367047683716,59.1145378364563,32.84367047683716C60.3760378364563,30.363670476837157,55.6697378364563,27.973671476837158,48.6012378364563,27.56367157683716C41.5327178364563,27.153671476837157,34.7715178364563,28.76367047683716,33.5100908364563,31.24367047683716C32.2486678364563,33.72367047683716,36.954917836456296,36.083670476837156,44.023437836456296,36.53367047683716Z" fill="url(#master_svgd_230_02304)" fill-opacity="0.699999988079071"/></g></g><g style="mix-blend-mode:passthrough" filter="url(#master_svge_430_84439)"><g style="opacity:0.5;"><path d="M42.507791275787355,36.4376C54.937591275787355,36.82421,66.81119127578735,35.37441,69.02799127578734,33.19531C71.24479127578735,31.01622,62.97429127578735,28.9162,50.552491275787354,28.5559458C38.130691275787356,28.195692,26.249031275787353,29.61035,24.032283275787353,31.78944C21.815531275787354,33.96854,30.085991275787354,36.0422,42.507791275787355,36.4376Z" fill="url(#master_svgf_230_02297)" fill-opacity="1"/></g><g style="opacity:0.5;mix-blend-mode:soft-light"><path d="M42.507791275787355,36.4376C54.937591275787355,36.82421,66.81119127578735,35.37441,69.02799127578734,33.19531C71.24479127578735,31.01622,62.97429127578735,28.9162,50.552491275787354,28.5559458C38.130691275787356,28.195692,26.249031275787353,29.61035,24.032283275787353,31.78944C21.815531275787354,33.96854,30.085991275787354,36.0422,42.507791275787355,36.4376Z" fill="url(#master_svgg_230_02297)" fill-opacity="1" style="mix-blend-mode:soft-light"/></g><g style="opacity:0.5;" filter="url(#master_svgh_430_84442)"><path d="M44.023437836456296,34.51684023841858C51.0965378364563,34.73684023841858,57.8531378364563,33.91183023841858,59.1145378364563,32.67184023841858C60.3760378364563,31.43184023841858,55.6697378364563,30.23683523841858,48.6012378364563,30.03183583841858C41.5327178364563,29.82683623841858,34.7715178364563,30.63183623841858,33.5100908364563,31.871840238418578C32.2486678364563,33.11184023841858,36.954917836456296,34.29184023841858,44.023437836456296,34.51684023841858Z" fill="url(#master_svgi_230_02297)" fill-opacity="1"/></g></g></g></g><g style="mix-blend-mode:passthrough"><path d="M26.581362499999997,26.2928C25.6562625,26.74853,24.243492500000002,27.21793,22.8398425,27.58252L22.8398425,25.663899999999998L21.1627625,25.663899999999998L21.1627625,29.66064C21.1627625,31.296709999999997,21.6777325,31.770699999999998,23.6419225,31.770699999999998C24.033852500000002,31.770699999999998,25.934262500000003,31.770699999999998,26.358062500000003,31.770699999999998C27.9667625,31.770699999999998,28.454462499999998,31.24202,28.6686625,29.204909999999998C28.2037625,29.11832,27.506462499999998,28.84033,27.141962499999998,28.57601C27.0416625,30.025219999999997,26.9322625,30.2622,26.2441625,30.2622C25.770162499999998,30.2622,24.1705725,30.2622,23.7923125,30.2622C22.981122499999998,30.2622,22.8398425,30.18929,22.8398425,29.64697L22.8398425,29.01806C24.521482499999998,28.66715,26.3990625,28.16585,27.8255625,27.56884L26.581362499999997,26.2928ZM22.7304725,36.1457L26.312462500000002,36.1457L26.312462500000002,37.1392L22.7304725,37.1392L22.7304725,36.1457ZM22.7304725,34.8468L22.7304725,33.8123L26.312462500000002,33.8123L26.312462500000002,34.8468L22.7304725,34.8468ZM21.1354125,32.4406L21.1354125,39.076L22.7304725,39.076L22.7304725,38.479L26.312462500000002,38.479L26.312462500000002,39.0076L27.9804625,39.0076L27.9804625,32.4406L21.1354125,32.4406ZM17.366532499999998,25.631999999999998L17.366532499999998,28.27067L15.6165365,28.27067L15.6165365,29.829259999999998L17.366532499999998,29.829259999999998L17.366532499999998,32.4178L15.4069015,32.8644L15.7988285,34.596199999999996L17.366532499999998,34.1131L17.366532499999998,37.2759C17.366532499999998,37.481,17.2845025,37.5356,17.1022125,37.5539C16.9199225,37.5539,16.3457025,37.5539,15.7988285,37.522C15.9947915,37.9595,16.2044225,38.643100000000004,16.2591125,39.0623C17.2571625,39.0623,17.9134125,39.0213,18.3873725,38.770700000000005C18.8658825,38.506299999999996,19.0071625,38.1007,19.0071625,37.2576L19.0071625,33.707499999999996L20.6705725,33.229L20.4609425,31.770699999999998L19.0071625,32.1125L19.0071625,29.829259999999998L20.4472625,29.829259999999998L20.4472625,28.27067L19.0071625,28.27067L19.0071625,25.631999999999998L17.366532499999998,25.631999999999998ZM35.0351625,25.800620000000002C34.811862500000004,26.329259999999998,34.4199625,27.09944,34.1100625,27.591630000000002L35.1764625,28.06559C35.541062499999995,27.632649999999998,35.9876625,26.99007,36.4479625,26.3566L35.0351625,25.800620000000002ZM34.3378625,34.3957C34.0826625,34.897,33.7454625,35.339,33.3717625,35.7218L32.223262500000004,35.1522L32.6425625,34.3957L34.3378625,34.3957ZM30.218062500000002,35.6945C30.8652625,35.9497,31.5488625,36.2915,32.223262500000004,36.6515C31.4212625,37.1483,30.4869625,37.522,29.4615625,37.7498C29.7441625,38.046099999999996,30.0631625,38.6476,30.218062500000002,39.0304C31.4804625,38.675,32.6152625,38.16,33.5676625,37.4354C33.973262500000004,37.6906,34.3378625,37.9458,34.6295625,38.178200000000004L35.6230625,37.0617C35.3450625,36.865700000000004,34.9941625,36.6515,34.6295625,36.4237C35.3450625,35.5942,35.891962500000005,34.568799999999996,36.238262500000005,33.3201L35.3313625,32.978300000000004L35.076162499999995,33.0376L33.312462499999995,33.0376L33.535762500000004,32.4634L32.0546625,32.1808C31.9544625,32.4634,31.8450625,32.7414,31.7174625,33.0376L29.9400625,33.0376L29.9400625,34.3957L31.015662499999998,34.3957C30.7512625,34.8833,30.4732625,35.3254,30.218062500000002,35.6945ZM30.0357625,26.37483C30.3730625,26.91715,30.7102625,27.64632,30.8059625,28.12483L29.703162499999998,28.12483L29.703162499999998,29.43733L31.7721625,29.43733C31.1295625,30.1665,30.231762500000002,30.81819,29.406862500000003,31.173659999999998C29.7167625,31.497230000000002,30.081362499999997,32.076,30.277362500000002,32.477000000000004C30.974562499999998,32.0623,31.7174625,31.45621,32.3600625,30.77262L32.3600625,32.0897L33.9140625,32.0897L33.9140625,30.49007C34.4472625,30.936680000000003,34.9941625,31.42431,35.3040625,31.7342L36.1835625,30.5083C35.9329625,30.31233,35.1627625,29.8247,34.515662500000005,29.43733L36.575562500000004,29.43733L36.575562500000004,28.12483L33.9140625,28.12483L33.9140625,25.631999999999998L32.3600625,25.631999999999998L32.3600625,28.12483L30.9199625,28.12483L32.0820625,27.61897C31.9680625,27.113120000000002,31.6035625,26.40218,31.2434625,25.86897L30.0357625,26.37483ZM37.6692625,25.673009999999998C37.3593625,28.19319,36.7304625,30.654130000000002,35.6093625,32.1945C35.9466625,32.4451,36.575562500000004,33.0239,36.812462499999995,33.3065C37.0813625,32.9191,37.3320625,32.477000000000004,37.5553625,31.9894C37.8242625,33.1105,38.1432625,34.104,38.5488625,34.9972C37.8242625,36.1958,36.7988625,37.0936,35.3860625,37.7498C35.6640625,38.078,36.1152625,38.7889,36.251962500000005,39.130700000000004C37.5689625,38.4471,38.589862499999995,37.5903,39.378262500000005,36.5239C40.0071625,37.503699999999995,40.791062499999995,38.333200000000005,41.7571625,38.943799999999996C41.9941625,38.519999999999996,42.4863625,37.9048,42.8463625,37.604C41.784462500000004,37.007,40.9459625,36.1092,40.2851625,34.9972C40.9596625,33.5981,41.3788625,31.893700000000003,41.6432625,29.829259999999998L42.527362499999995,29.829259999999998L42.527362499999995,28.27067L38.7721625,28.27067C38.940762500000005,27.50504,39.0956625,26.72119,39.2096625,25.90999L37.6692625,25.673009999999998ZM40.075562500000004,29.829259999999998C39.9342625,31.0734,39.724562500000005,32.1899,39.4055625,33.1515C39.027362499999995,32.1307,38.7447625,31.01416,38.5488625,29.829259999999998L40.075562500000004,29.829259999999998ZM52.9863625,32.7004L52.9863625,33.5298L47.2441625,33.5298L47.2441625,32.7004L52.9863625,32.7004ZM45.5351625,31.479L45.5351625,39.0487L47.2441625,39.0487L47.2441625,36.7244L52.9863625,36.7244L52.9863625,37.3488C52.9863625,37.5402,52.8997625,37.594899999999996,52.6490625,37.604C52.4394625,37.604,51.5279625,37.604,50.8580625,37.567499999999995C51.0676625,37.982299999999995,51.3046625,38.602000000000004,51.3730625,39.035C52.5077625,39.035,53.3326625,39.0213,53.9205625,38.798C54.5084625,38.5701,54.7044625,38.164500000000004,54.7044625,37.3625L54.7044625,31.479L45.5351625,31.479ZM47.2441625,34.6873L52.9863625,34.6873L52.9863625,35.5623L47.2441625,35.5623L47.2441625,34.6873ZM47.3854625,25.631999999999998L47.3854625,26.69384L44.163362500000005,26.69384L44.163362500000005,27.979L47.3854625,27.979L47.3854625,28.97249C46.041062499999995,29.19124,44.764962499999996,29.391759999999998,43.826162499999995,29.50114L44.049462500000004,30.90934L47.3854625,30.32145L47.3854625,31.23291L49.0624625,31.23291L49.0624625,25.631999999999998L47.3854625,25.631999999999998ZM50.5344625,25.631999999999998L50.5344625,29.19124C50.5344625,30.695149999999998,50.9400625,31.14632,52.6217625,31.14632C52.9544625,31.14632,54.2304625,31.14632,54.5813625,31.14632C55.8391625,31.14632,56.2903625,30.72705,56.4544625,29.19124C56.0077625,29.081870000000002,55.3378625,28.81754,54.9869625,28.55322C54.9322625,29.560380000000002,54.8320625,29.729,54.4127625,29.729C54.1165625,29.729,53.0956625,29.729,52.8587625,29.729C52.3255625,29.729,52.2434625,29.66976,52.2434625,29.173009999999998L52.2434625,28.43017C53.5012625,28.13395,54.9003625,27.75569,56.0214625,27.36377L54.9459625,26.16064C54.2441625,26.47054,53.2369625,26.80322,52.2434625,27.08577L52.2434625,25.631999999999998L50.5344625,25.631999999999998ZM62.7844625,25.96012L63.1354625,26.81233L57.9127625,26.81233L57.9127625,28.24332L65.8242625,28.24332C65.3730625,28.52588,64.83986250000001,28.83121,64.2701625,29.131999999999998L62.2102625,28.27978L61.5676625,29.01351L63.0898625,29.71989C62.4745625,30.016109999999998,61.8456625,30.266759999999998,61.2577625,30.47184C61.5084625,30.681469999999997,61.8867625,31.1372,62.0553625,31.374180000000003L60.9798625,31.374180000000003L60.9798625,28.56233L59.3665625,28.56233L59.3665625,32.6457L63.2037625,32.6457L62.8391625,33.5207L58.4413625,33.5207L58.4413625,39.035L60.0820625,39.035L60.0820625,34.938L62.0006625,34.938C61.8456625,35.1613,61.7180625,35.339,61.6360625,35.4393C61.2988625,35.8677,61.0481625,36.1502,60.7382625,36.2323C60.9205625,36.6652,61.1894625,37.4582,61.2714625,37.7772C61.6633625,37.594899999999996,62.2512625,37.4992,66.24346249999999,37.0389L66.6490625,37.6359L67.72456249999999,36.8429C67.4055625,36.3416,66.74476250000001,35.576,66.1842625,34.938L68.2304625,34.938L68.2304625,37.567499999999995C68.2304625,37.7635,68.1484625,37.818200000000004,67.9068625,37.831900000000005C67.6835625,37.831900000000005,66.73116250000001,37.8455,66.0201625,37.804500000000004C66.24346249999999,38.1554,66.4804625,38.6704,66.57616250000001,39.0623C67.6972625,39.0623,68.50846250000001,39.0623,69.0826625,38.8664C69.6705625,38.6567,69.8665625,38.3241,69.8665625,37.581199999999995L69.8665625,33.5207L64.66206249999999,33.5207L65.0540625,32.6457L68.9869625,32.6457L68.9869625,28.60335L67.3053625,28.60335L67.3053625,31.374180000000003L62.0963625,31.374180000000003C62.7844625,31.08707,63.5273625,30.72249,64.2701625,30.33512C65.0540625,30.72249,65.7786625,31.08707,66.25716249999999,31.374180000000003L66.9407625,30.48095C66.5351625,30.248530000000002,65.98826249999999,29.988770000000002,65.3867625,29.70166C65.9062625,29.382649999999998,66.3938625,29.06364,66.8313625,28.74918L65.8652625,28.24332L70.3450625,28.24332L70.3450625,26.81233L64.8854625,26.81233C64.7167625,26.39762,64.4798625,25.90543,64.2838625,25.51351L62.7844625,25.96012ZM64.9264625,35.339L65.3730625,35.8996L62.8665625,36.1502C63.1900625,35.772,63.4817625,35.3527,63.7779625,34.938L65.5279625,34.938L64.9264625,35.339Z" fill="#FFFFFF" fill-opacity="1"/></g></g></g></svg>