<svg xmlns="http://www.w3.org/2000/svg" xmlns:xlink="http://www.w3.org/1999/xlink" fill="none" version="1.1" width="140" height="28" viewBox="0 0 140 28"><defs><filter id="master_svg0_430_107704/230_19581" filterUnits="objectBoundingBox" color-interpolation-filters="sRGB" x="0" y="0" width="140" height="28"><feFlood flood-opacity="0" result="BackgroundImageFix"/><feBlend mode="normal" in="SourceGraphic" in2="BackgroundImageFix" result="shape"/><feColorMatrix in="SourceAlpha" type="matrix" result="hardAlpha" values="0 0 0 0 0 0 0 0 0 0 0 0 0 0 0 0 0 0 127 0"/><feOffset dy="0" dx="0"/><feGaussianBlur stdDeviation="4"/><feComposite in2="hardAlpha" operator="arithmetic" k2="-1" k3="1"/><feColorMatrix type="matrix" values="0 0 0 0 0.11764705926179886 0 0 0 0 0.8823529481887817 0 0 0 0 0.9215686321258545 0 0 0 0.5 0"/><feBlend mode="normal" in2="shape" result="effect1_innerShadow"/></filter><linearGradient x1="0" y1="0.5997306108474731" x2="1" y2="0.5997306108474731" id="master_svg1_230_18887"><stop offset="0%" stop-color="#0B454A" stop-opacity="0.10000000149011612"/><stop offset="100%" stop-color="#038CA2" stop-opacity="0.699999988079071"/></linearGradient><linearGradient x1="0" y1="0.434982031583786" x2="1" y2="0.434982031583786" id="master_svg2_230_01963"><stop offset="0%" stop-color="#04B3B6" stop-opacity="0.05000000074505806"/><stop offset="56.42856955528259%" stop-color="#0D747A" stop-opacity="0.4931506812572479"/><stop offset="100%" stop-color="#5DC6CD" stop-opacity="0.05000000074505806"/></linearGradient></defs><g style="opacity:0.4000000059604645;mix-blend-mode:passthrough"><g filter="url(#master_svg0_430_107704/230_19581)"><path d="M20,28L0,0L120,0L140,28" fill="url(#master_svg1_230_18887)" fill-opacity="1"/><path d="M140,28L120,0L0,0L20,28L20.4069,27.7094L20.8137,27.4188L1.94319,1L119.485,1L138.771,28L140,28Z" fill-rule="evenodd" fill="url(#master_svg2_230_01963)" fill-opacity="1"/></g><g style="mix-blend-mode:passthrough"><g style="mix-blend-mode:passthrough"><g><path d="M45.97164365081787,10.112078657073974C45.33684365081787,8.621918657073975,44.16812365081787,7.437228657073975,42.70572365081787,6.801624657073974C41.95741365081787,6.475504657073975,41.15206365081787,6.308636877073974,40.33868365081787,6.311187889373975C39.51888365081787,6.308974027073974,38.70706365081787,6.475773657073975,37.951653650817875,6.801624657073974C36.48373365081787,7.444538657073974,35.314183650817874,8.641018657073975,34.68575465081787,10.142728657073974C34.36828065081787,10.915838657073975,34.20527687081787,11.746138657073974,34.20634365081787,12.584698657073975L34.20634365081787,20.360158657073974L46.441043650817875,20.360158657073974L46.441043650817875,12.554048657073974C46.44634365081787,11.716078657073975,46.28674365081787,10.885588657073974,45.97164365081787,10.112078657073974ZM40.088963650817874,18.286058657073973L40.088963650817874,14.812098657073975L38.39111365081787,14.812098657073975L40.738183650817874,10.306208657073974L40.738183650817874,13.953838657073975L42.38611365081787,13.953838657073975L40.088963650817874,18.286058657073973Z" fill="#1EE1EB" fill-opacity="1"/></g><g><path d="M47.65455049591064,21.688522271728516L32.97293249591065,21.688522271728516C32.614402495910646,21.688522271728516,32.323750495910645,21.391182271728514,32.323750495910645,21.024385271728516C32.323750495910645,20.657597271728516,32.614402495910646,20.360254122328517,32.97293249591065,20.360254122328517L47.65455049591064,20.360254122328517C48.01865049591065,20.354571351728517,48.31825049591065,20.651938271728515,48.323750495910645,21.024389271728516C48.323950495910644,21.399312271728515,48.02085049591064,21.700052271728516,47.65455049591064,21.688522271728516Z" fill="#1EE1EB" fill-opacity="1"/></g></g><g><path d="M54.871459084472654,12.52067L54.871459084472654,17.0825L59.07327908447266,17.0825L59.07327908447266,18.0623L54.42483908447266,18.0623L54.42483908447266,18.9054L59.07327908447266,18.9054L59.07327908447266,20.104L53.37210808447266,20.104L53.37210808447266,20.9608L65.93199908447265,20.9608L65.93199908447265,20.104L60.121459084472654,20.104L60.121459084472654,18.9054L65.05239908447265,18.9054L65.05239908447265,18.0623L60.121459084472654,18.0623L60.121459084472654,17.0825L64.51919908447266,17.0825L64.51919908447266,12.52067L60.121459084472654,12.52067L60.121459084472654,11.645669999999999L65.86359908447265,11.645669999999999L65.86359908447265,10.779779999999999L60.121459084472654,10.779779999999999L60.121459084472654,9.645019999999999C61.76207908447266,9.52197,63.297899084472654,9.353349999999999,64.50559908447266,9.143709999999999L63.944999084472656,8.34163C61.73017908447265,8.729,57.769899084472655,8.988769999999999,54.506869084472655,9.0708C54.60713908447266,9.280429999999999,54.716509084472655,9.65869,54.73017908447265,9.895669999999999C56.10192908447266,10.02327,57.60127908447266,9.97314,59.07327908447266,9.895669999999999L59.07327908447266,10.779779999999999L53.458697084472654,10.779779999999999L53.458697084472654,11.645669999999999L59.07327908447266,11.645669999999999L59.07327908447266,12.52067L54.871459084472654,12.52067ZM55.89228908447266,15.1457L59.07327908447266,15.1457L59.07327908447266,16.3123L55.89228908447266,16.3123L55.89228908447266,15.1457ZM60.121459084472654,15.1457L63.45279908447266,15.1457L63.45279908447266,16.3123L60.121459084472654,16.3123L60.121459084472654,15.1457ZM55.89228908447266,13.27718L59.07327908447266,13.27718L59.07327908447266,14.4347L55.89228908447266,14.4347L55.89228908447266,13.27718ZM60.121459084472654,13.27718L63.45279908447266,13.27718L63.45279908447266,14.4347L60.121459084472654,14.4347L60.121459084472654,13.27718ZM69.96519908447266,13.68733L77.28419908447266,13.68733L77.28419908447266,16.2075L69.96519908447266,16.2075L69.96519908447266,13.68733ZM71.40529908447266,18.4497C71.58759908447266,19.3794,71.70149908447266,20.5825,71.70149908447266,21.3026L72.76339908447265,21.1567C72.74969908447265,20.4686,72.60839908447265,19.2791,72.39879908447266,18.3631L71.40529908447266,18.4497ZM74.30369908447265,18.4634C74.70929908447266,19.352,75.12859908447265,20.5552,75.28359908447266,21.2707L76.30439908447266,21.0018C76.13579908447265,20.2817,75.68919908447265,19.124200000000002,75.25619908447266,18.249200000000002L74.30369908447265,18.4634ZM77.16119908447266,18.3494C77.85839908447265,19.2518,78.64229908447265,20.5278,78.96589908447265,21.3162L79.95929908447266,20.8833C79.60839908447265,20.0994,78.79719908447265,18.8781,78.09999908447266,17.9757L77.16119908447266,18.3494ZM69.12209908447265,18.0623C68.68919908447265,19.124200000000002,67.97369908447266,20.2817,67.23539908447266,20.9425L68.18329908447265,21.4165C68.95349908447265,20.6554,69.66899908447266,19.4523,70.11559908447265,18.3358L69.12209908447265,18.0623ZM68.96719908447265,12.69384L68.96719908447265,17.1873L78.33699908447265,17.1873L78.33699908447265,12.69384L74.06679908447265,12.69384L74.06679908447265,10.770669999999999L79.38509908447266,10.770669999999999L79.38509908447266,9.777180000000001L74.06679908447265,9.777180000000001L74.06679908447265,8.29606L73.01399908447266,8.29606L73.01399908447266,12.69384L68.96719908447265,12.69384ZM89.76209908447265,13.4139L89.76209908447265,16.0298C89.76209908447265,17.410600000000002,89.33829908447265,19.2609,86.24389908447266,20.3319C86.63579908447267,20.6281,87.08699908447267,21.1704,87.29659908447266,21.5076C90.76919908447266,20.1906,91.32979908447265,17.9712,91.32979908447265,16.0435L91.32979908447265,13.4139L89.76209908447265,13.4139ZM90.78289908447266,19.3794C91.56679908447265,20.0949,92.66049908447266,21.0474,93.16179908447265,21.6444L94.32389908447266,20.5142C93.76339908447267,19.9399,92.62859908447265,18.9829,91.85839908447267,18.3221L90.78289908447266,19.3794ZM81.58169908447266,12.06038C82.24259908447266,12.47965,83.09479908447265,12.98095,83.81029908447266,13.39567L81.00749908447266,13.39567L81.00749908447266,14.8813L83.09479908447265,14.8813L83.09479908447265,19.7485C83.09479908447265,19.908,83.04009908447266,19.9536,82.84409908447266,19.9673C82.64819908447265,19.9673,81.98729908447265,19.9673,81.39949908447265,19.9536C81.60909908447266,20.4048,81.83699908447265,21.0884,81.90529908447266,21.5623C82.84409908447266,21.5623,83.54139908447266,21.5213,84.06089908447265,21.2707C84.59409908447266,21.02,84.72169908447265,20.5688,84.72169908447265,19.7759L84.72169908447265,14.8813L85.56029908447266,14.8813C85.40529908447266,15.5741,85.22299908447266,16.2485,85.06809908447266,16.7362L86.31679908447265,17.014200000000002C86.63579908447267,16.130000000000003,87.01399908447266,14.7583,87.32389908447266,13.57796L86.28939908447265,13.36377L86.06159908447265,13.39567L85.41899908447266,13.39567L85.78359908447266,12.98095C85.51919908447266,12.81233,85.15469908447265,12.58903,84.76269908447266,12.33838C85.54659908447266,11.55452,86.37149908447265,10.42887,86.95929908447266,9.40348L85.95219908447265,8.651530000000001L85.65599908447265,8.73356L81.34479908447265,8.73356L81.34479908447265,10.18733L84.60779908447266,10.18733C84.28419908447266,10.72965,83.91959908447265,11.26741,83.57329908447265,11.62288L82.46589908447265,10.92562L81.58169908447266,12.06038ZM87.47889908447266,11.317540000000001L87.47889908447266,18.130699999999997L89.03289908447266,18.130699999999997L89.03289908447266,12.81233L92.05439908447266,12.81233L92.05439908447266,18.0714L93.69499908447266,18.0714L93.69499908447266,11.317540000000001L91.20219908447265,11.317540000000001L91.53939908447265,10.18733L94.24189908447266,10.18733L94.24189908447266,8.71989L87.02769908447266,8.71989L87.02769908447266,10.18733L89.74389908447266,10.18733L89.57979908447265,11.317540000000001L87.47889908447266,11.317540000000001ZM97.14949908447267,17.479L97.14949908447267,18.3084L106.23669908447266,18.3084L106.23669908447266,17.479L97.14949908447267,17.479ZM97.14949908447267,16.3123L97.14949908447267,17.1554L106.23669908447266,17.1554L106.23669908447266,16.3123L97.14949908447267,16.3123ZM96.98539908447265,18.6685L96.98539908447265,21.6079L98.56679908447265,21.6079L98.56679908447265,21.2524L104.79659908447266,21.2524L104.79659908447266,21.6079L106.44629908447266,21.6079L106.44629908447266,18.6685L96.98539908447265,18.6685ZM98.56679908447265,20.3957L98.56679908447265,19.520699999999998L104.79659908447266,19.520699999999998L104.79659908447266,20.3957L98.56679908447265,20.3957ZM100.52639908447266,14.216L100.76339908447267,14.6808L95.47239908447266,14.6808L95.47239908447266,15.729L107.84999908447266,15.729L107.84999908447266,14.6808L102.48599908447267,14.6808C102.35839908447267,14.3983,102.17609908447265,14.0747,102.01209908447265,13.8195L100.52639908447266,14.216ZM96.50689908447265,10.06429C96.22889908447266,10.71598,95.72299908447266,11.436029999999999,94.95279908447266,11.987459999999999C95.21719908447265,12.16976,95.64099908447265,12.58447,95.83699908447267,12.86702L96.16959908447265,12.56624L96.16959908447265,14.2205L97.29069908447266,14.2205L97.29069908447266,13.86051L99.12729908447265,13.86051C99.16829908447266,14.0337,99.19569908447266,14.2069,99.19569908447266,14.3481C99.62859908447265,14.3618,100.04789908447265,14.3481,100.28939908447265,14.3208C100.59479908447265,14.2752,100.83169908447266,14.1886,101.04589908447267,13.91976C101.29659908447266,13.6372,101.40599908447265,12.94905,101.50619908447266,11.40869C101.81609908447265,11.61832,102.18979908447265,11.9191,102.37209908447267,12.11507C102.59999908447266,11.9191,102.82329908447267,11.69124,103.03289908447266,11.436029999999999C103.26989908447266,11.81884,103.54789908447265,12.16976,103.85779908447265,12.48421C103.29719908447265,12.82145,102.62729908447265,13.06298,101.87079908447265,13.24528C102.12149908447265,13.51416,102.51339908447267,14.1066,102.65469908447265,14.4028C103.49319908447265,14.1339,104.24969908447267,13.79215,104.87859908447265,13.37288C105.60779908447265,13.86051,106.44629908447266,14.2479,107.39879908447266,14.4894C107.58109908447265,14.1066,107.97299908447266,13.5415,108.29659908447266,13.2316C107.41249908447266,13.07666,106.62859908447265,12.7941,105.95869908447266,12.42496C106.41899908447266,11.83707,106.78359908447266,11.18994,107.03419908447265,10.433430000000001L107.97299908447266,10.433430000000001L107.97299908447266,9.31233L104.31809908447266,9.31233C104.45929908447266,9.025220000000001,104.57329908447267,8.73812,104.66899908447266,8.432780000000001L103.35189908447265,8.113769999999999C103.00559908447266,9.27132,102.35839908447267,10.3195,101.53359908447266,11.03955L101.53359908447266,10.97119C101.54719908447265,10.80257,101.54719908447265,10.479,101.54719908447265,10.479L97.64159908447266,10.479L97.73729908447265,10.27392L97.24969908447267,10.18733L98.14749908447266,10.18733L98.14749908447266,9.71338L99.27769908447266,9.71338L99.27769908447266,10.123529999999999L100.68139908447266,10.123529999999999L100.68139908447266,9.71338L102.05309908447265,9.71338L102.05309908447265,8.729L100.68139908447266,8.729L100.68139908447266,8.20035L99.27769908447266,8.20035L99.27769908447266,8.729L98.14749908447266,8.729L98.14749908447266,8.20035L96.77119908447266,8.20035L96.77119908447266,8.729L95.34479908447265,8.729L95.34479908447265,9.71338L96.77119908447266,9.71338L96.77119908447266,10.1053L96.50689908447265,10.06429ZM105.56679908447265,10.433430000000001C105.39809908447265,10.87548,105.16119908447266,11.26285,104.86489908447265,11.60465C104.47299908447266,11.26285,104.15399908447266,10.86181,103.89879908447266,10.433430000000001L105.56679908447265,10.433430000000001ZM100.12079908447265,11.349440000000001C100.04789908447265,12.42041,99.96589908447265,12.85335,99.85189908447265,13.01285C99.76989908447266,13.104,99.68789908447266,13.11767,99.56029908447266,13.11767L99.44629908447266,13.11767L99.44629908447266,11.645669999999999L96.92609908447265,11.645669999999999L97.16769908447266,11.349440000000001L100.12079908447265,11.349440000000001ZM97.29069908447266,12.41585L98.31159908447265,12.41585L98.31159908447265,13.104L97.29069908447266,13.104L97.29069908447266,12.41585Z" fill="#1DFFFF" fill-opacity="1"/></g></g></g></svg>