<svg xmlns="http://www.w3.org/2000/svg" xmlns:xlink="http://www.w3.org/1999/xlink" fill="none" version="1.1" width="443.1015625" height="64.552734375" viewBox="0 0 443.1015625 64.552734375"><defs><linearGradient x1="1" y1="0.0005000000237487257" x2="0" y2="0" id="master_svg0_230_06301"><stop offset="0%" stop-color="#23A9B1" stop-opacity="0"/><stop offset="99.99999403953552%" stop-color="#0FCED3" stop-opacity="1"/></linearGradient><radialGradient cx="0" cy="0" r="1" gradientUnits="userSpaceOnUse" id="master_svg1_230_02304" gradientTransform="translate(46.53013563156128 32.5) rotate(90) scale(8 19.059768132496174)"><stop offset="2.857142873108387%" stop-color="#00FFFF" stop-opacity="1"/><stop offset="100%" stop-color="#FFFFFF" stop-opacity="0"/></radialGradient><radialGradient cx="0" cy="0" r="1" gradientUnits="userSpaceOnUse" id="master_svg2_230_02304" gradientTransform="translate(46.53013563156128 32.5) rotate(90) scale(8 19.059768132496174)"><stop offset="2.857142873108387%" stop-color="#00FFFF" stop-opacity="1"/><stop offset="100%" stop-color="#FFFFFF" stop-opacity="0"/></radialGradient><filter id="master_svg3_430_70061" filterUnits="objectBoundingBox" color-interpolation-filters="sRGB" x="-20" y="-20" width="72.5167465209961" height="49.10468864440918"><feFlood flood-opacity="0" result="BackgroundImageFix"/><feBlend mode="normal" in="SourceGraphic" in2="BackgroundImageFix" result="shape"/><feGaussianBlur stdDeviation="5" result="effect1_foregroundBlur"/></filter><radialGradient cx="0" cy="0" r="1" gradientUnits="userSpaceOnUse" id="master_svg4_230_02304" gradientTransform="translate(46.257885456085205 32.05234479904175) rotate(90) scale(4.55234432220459 10.84582823888013)"><stop offset="2.857142873108387%" stop-color="#00FFFF" stop-opacity="1"/><stop offset="100%" stop-color="#FFFFFF" stop-opacity="0"/></radialGradient><filter id="master_svg5_430_70064" filterUnits="objectBoundingBox" color-interpolation-filters="sRGB" x="-20" y="-20" width="97.14286041259766" height="48"><feFlood flood-opacity="0" result="BackgroundImageFix"/><feBlend mode="normal" in="SourceGraphic" in2="BackgroundImageFix" result="shape"/><feGaussianBlur stdDeviation="5" result="effect1_foregroundBlur"/></filter><radialGradient cx="0" cy="0" r="1" gradientUnits="userSpaceOnUse" id="master_svg6_230_02297" gradientTransform="translate(46.53013563156128 32.5) rotate(90) scale(4 19.059768132496174)"><stop offset="0%" stop-color="#FFFFFF" stop-opacity="0.10000000149011612"/><stop offset="100%" stop-color="#00FFFF" stop-opacity="1"/></radialGradient><radialGradient cx="0" cy="0" r="1" gradientUnits="userSpaceOnUse" id="master_svg7_230_02297" gradientTransform="translate(46.53013563156128 32.5) rotate(90) scale(4 19.059768132496174)"><stop offset="0%" stop-color="#FFFFFF" stop-opacity="0.10000000149011612"/><stop offset="100%" stop-color="#00FFFF" stop-opacity="1"/></radialGradient><filter id="master_svg8_430_70065" filterUnits="objectBoundingBox" color-interpolation-filters="sRGB" x="-20" y="-20" width="72.5167465209961" height="44.55234432220459"><feFlood flood-opacity="0" result="BackgroundImageFix"/><feBlend mode="normal" in="SourceGraphic" in2="BackgroundImageFix" result="shape"/><feGaussianBlur stdDeviation="5" result="effect1_foregroundBlur"/></filter><radialGradient cx="0" cy="0" r="1" gradientUnits="userSpaceOnUse" id="master_svg9_230_02297" gradientTransform="translate(46.257885456085205 32.276172399520874) rotate(90) scale(2.276172161102295 10.84582823888013)"><stop offset="0%" stop-color="#FFFFFF" stop-opacity="0.10000000149011612"/><stop offset="100%" stop-color="#00FFFF" stop-opacity="1"/></radialGradient><radialGradient cx="0" cy="0" r="1" gradientUnits="userSpaceOnUse" id="master_svga_230_02304" gradientTransform="translate(46.53013467788696 32.5) rotate(90) scale(8 15.24781399704625)"><stop offset="2.857142873108387%" stop-color="#00FFFF" stop-opacity="1"/><stop offset="100%" stop-color="#FFFFFF" stop-opacity="0"/></radialGradient><radialGradient cx="0" cy="0" r="1" gradientUnits="userSpaceOnUse" id="master_svgb_230_02304" gradientTransform="translate(46.53013467788696 32.5) rotate(90) scale(8 15.24781399704625)"><stop offset="2.857142873108387%" stop-color="#00FFFF" stop-opacity="1"/><stop offset="100%" stop-color="#FFFFFF" stop-opacity="0"/></radialGradient><filter id="master_svgc_430_70053" filterUnits="objectBoundingBox" color-interpolation-filters="sRGB" x="-20" y="-20" width="66.01339530944824" height="49.10468864440918"><feFlood flood-opacity="0" result="BackgroundImageFix"/><feBlend mode="normal" in="SourceGraphic" in2="BackgroundImageFix" result="shape"/><feGaussianBlur stdDeviation="5" result="effect1_foregroundBlur"/></filter><radialGradient cx="0" cy="0" r="1" gradientUnits="userSpaceOnUse" id="master_svgd_230_02304" gradientTransform="translate(46.31233549118042 32.05234479904175) rotate(90) scale(4.55234432220459 8.676661954915744)"><stop offset="2.857142873108387%" stop-color="#00FFFF" stop-opacity="1"/><stop offset="100%" stop-color="#FFFFFF" stop-opacity="0"/></radialGradient><filter id="master_svge_430_70055" filterUnits="objectBoundingBox" color-interpolation-filters="sRGB" x="-20" y="-20" width="85.71428680419922" height="48"><feFlood flood-opacity="0" result="BackgroundImageFix"/><feBlend mode="normal" in="SourceGraphic" in2="BackgroundImageFix" result="shape"/><feGaussianBlur stdDeviation="5" result="effect1_foregroundBlur"/></filter><radialGradient cx="0" cy="0" r="1" gradientUnits="userSpaceOnUse" id="master_svgf_230_02297" gradientTransform="translate(46.53013467788696 32.5) rotate(90) scale(4 15.24781399704625)"><stop offset="0%" stop-color="#FFFFFF" stop-opacity="0.10000000149011612"/><stop offset="100%" stop-color="#00FFFF" stop-opacity="1"/></radialGradient><radialGradient cx="0" cy="0" r="1" gradientUnits="userSpaceOnUse" id="master_svgg_230_02297" gradientTransform="translate(46.53013467788696 32.5) rotate(90) scale(4 15.24781399704625)"><stop offset="0%" stop-color="#FFFFFF" stop-opacity="0.10000000149011612"/><stop offset="100%" stop-color="#00FFFF" stop-opacity="1"/></radialGradient><filter id="master_svgh_430_70056" filterUnits="objectBoundingBox" color-interpolation-filters="sRGB" x="-20" y="-20" width="66.01339530944824" height="44.55234432220459"><feFlood flood-opacity="0" result="BackgroundImageFix"/><feBlend mode="normal" in="SourceGraphic" in2="BackgroundImageFix" result="shape"/><feGaussianBlur stdDeviation="5" result="effect1_foregroundBlur"/></filter><radialGradient cx="0" cy="0" r="1" gradientUnits="userSpaceOnUse" id="master_svgi_230_02297" gradientTransform="translate(46.31233549118042 32.276172399520874) rotate(90) scale(2.276172161102295 8.676661954915744)"><stop offset="0%" stop-color="#FFFFFF" stop-opacity="0.10000000149011612"/><stop offset="100%" stop-color="#00FFFF" stop-opacity="1"/></radialGradient></defs><g style="mix-blend-mode:passthrough"><g><path d="M443.1015625,49.5L105.1015625,49.5L105.1015625,48.5L443.1015625,48.5L443.1015625,49.5Z" fill="url(#master_svg0_230_06301)" fill-opacity="1"/></g><g><path d="M104.6644625,49.7428L84.6644625,13.742821L85.1015625,13.5L85.1015625,14L5.1015625,14L5.1015625,13.5L5.6015625,13.5L5.6015625,49.5L4.6015625,49.5L4.6015625,13L85.3957625,13L105.5385625,49.2572L104.6644625,49.7428Z" fill="#0FCED3" fill-opacity="1"/></g><g style="mix-blend-mode:passthrough"><g style="opacity:0.800000011920929;mix-blend-mode:passthrough"><g style="opacity:0.699999988079071;"><g style="mix-blend-mode:passthrough"><g style="opacity:0.5;"><path d="M41.50220542526245,40.3752C57.039505425262455,41.148399999999995,71.88150542526245,38.2488,74.65240542526246,33.89062C77.42340542526244,29.532429999999998,67.08530542526245,25.332399,51.558105425262454,24.611892C36.030905425262446,23.891384,21.17875542526245,26.7207,18.40782042526245,31.07889C15.63688542526245,35.4371,25.97495542526245,39.5844,41.50220542526245,40.3752Z" fill="url(#master_svg1_230_02304)" fill-opacity="0.699999988079071"/></g><g style="opacity:0.5;mix-blend-mode:soft-light"><path d="M41.50220542526245,40.3752C57.039505425262455,41.148399999999995,71.88150542526245,38.2488,74.65240542526246,33.89062C77.42340542526244,29.532429999999998,67.08530542526245,25.332399,51.558105425262454,24.611892C36.030905425262446,23.891384,21.17875542526245,26.7207,18.40782042526245,31.07889C15.63688542526245,35.4371,25.97495542526245,39.5844,41.50220542526245,40.3752Z" fill="url(#master_svg2_230_02304)" fill-opacity="0.699999988079071" style="mix-blend-mode:soft-light"/></g><g style="opacity:0.5;" filter="url(#master_svg3_430_70061)"><path d="M43.396712195587156,36.53367047683716C52.23811219558716,36.97367047683716,60.683912195587155,35.32367047683716,62.26071219558716,32.84367047683716C63.83751219558716,30.363670476837157,57.95471219558716,27.973671476837158,49.11901219558716,27.56367157683716C40.28341219558716,27.153671476837157,31.831862195587156,28.76367047683716,30.25507819558716,31.24367047683716C28.678292195587158,33.72367047683716,34.56110219558716,36.083670476837156,43.396712195587156,36.53367047683716Z" fill="url(#master_svg4_230_02304)" fill-opacity="0.699999988079071"/></g></g><g style="mix-blend-mode:passthrough" filter="url(#master_svg5_430_70064)"><g style="opacity:0.5;"><path d="M41.50220542526245,36.4376C57.039505425262455,36.82421,71.88150542526245,35.37441,74.65240542526246,33.19531C77.42340542526244,31.01622,67.08530542526245,28.9162,51.558105425262454,28.5559458C36.030905425262446,28.195692,21.17875542526245,29.61035,18.40782042526245,31.78944C15.63688542526245,33.96854,25.97495542526245,36.0422,41.50220542526245,36.4376Z" fill="url(#master_svg6_230_02297)" fill-opacity="1"/></g><g style="opacity:0.5;mix-blend-mode:soft-light"><path d="M41.50220542526245,36.4376C57.039505425262455,36.82421,71.88150542526245,35.37441,74.65240542526246,33.19531C77.42340542526244,31.01622,67.08530542526245,28.9162,51.558105425262454,28.5559458C36.030905425262446,28.195692,21.17875542526245,29.61035,18.40782042526245,31.78944C15.63688542526245,33.96854,25.97495542526245,36.0422,41.50220542526245,36.4376Z" fill="url(#master_svg7_230_02297)" fill-opacity="1" style="mix-blend-mode:soft-light"/></g><g style="opacity:0.5;" filter="url(#master_svg8_430_70065)"><path d="M43.396712195587156,34.51684023841858C52.23811219558716,34.73684023841858,60.683912195587155,33.91183023841858,62.26071219558716,32.67184023841858C63.83751219558716,31.43184023841858,57.95471219558716,30.23683523841858,49.11901219558716,30.03183583841858C40.28341219558716,29.82683623841858,31.831862195587156,30.63183623841858,30.25507819558716,31.871840238418578C28.678292195587158,33.11184023841858,34.56110219558716,34.29184023841858,43.396712195587156,34.51684023841858Z" fill="url(#master_svg9_230_02297)" fill-opacity="1"/></g></g></g><g style="opacity:0.5;"><g style="mix-blend-mode:passthrough"><g style="opacity:0.5;"><path d="M42.507791275787355,40.3752C54.937591275787355,41.148399999999995,66.81119127578735,38.2488,69.02799127578734,33.89062C71.24479127578735,29.532429999999998,62.97429127578735,25.332399,50.552491275787354,24.611892C38.130691275787356,23.891384,26.249031275787353,26.7207,24.032283275787353,31.07889C21.815531275787354,35.4371,30.085991275787354,39.5844,42.507791275787355,40.3752Z" fill="url(#master_svga_230_02304)" fill-opacity="0.699999988079071"/></g><g style="opacity:0.5;mix-blend-mode:soft-light"><path d="M42.507791275787355,40.3752C54.937591275787355,41.148399999999995,66.81119127578735,38.2488,69.02799127578734,33.89062C71.24479127578735,29.532429999999998,62.97429127578735,25.332399,50.552491275787354,24.611892C38.130691275787356,23.891384,26.249031275787353,26.7207,24.032283275787353,31.07889C21.815531275787354,35.4371,30.085991275787354,39.5844,42.507791275787355,40.3752Z" fill="url(#master_svgb_230_02304)" fill-opacity="0.699999988079071" style="mix-blend-mode:soft-light"/></g><g style="opacity:0.5;" filter="url(#master_svgc_430_70053)"><path d="M44.023437836456296,36.53367047683716C51.0965378364563,36.97367047683716,57.8531378364563,35.32367047683716,59.1145378364563,32.84367047683716C60.3760378364563,30.363670476837157,55.6697378364563,27.973671476837158,48.6012378364563,27.56367157683716C41.5327178364563,27.153671476837157,34.7715178364563,28.76367047683716,33.5100908364563,31.24367047683716C32.2486678364563,33.72367047683716,36.954917836456296,36.083670476837156,44.023437836456296,36.53367047683716Z" fill="url(#master_svgd_230_02304)" fill-opacity="0.699999988079071"/></g></g><g style="mix-blend-mode:passthrough" filter="url(#master_svge_430_70055)"><g style="opacity:0.5;"><path d="M42.507791275787355,36.4376C54.937591275787355,36.82421,66.81119127578735,35.37441,69.02799127578734,33.19531C71.24479127578735,31.01622,62.97429127578735,28.9162,50.552491275787354,28.5559458C38.130691275787356,28.195692,26.249031275787353,29.61035,24.032283275787353,31.78944C21.815531275787354,33.96854,30.085991275787354,36.0422,42.507791275787355,36.4376Z" fill="url(#master_svgf_230_02297)" fill-opacity="1"/></g><g style="opacity:0.5;mix-blend-mode:soft-light"><path d="M42.507791275787355,36.4376C54.937591275787355,36.82421,66.81119127578735,35.37441,69.02799127578734,33.19531C71.24479127578735,31.01622,62.97429127578735,28.9162,50.552491275787354,28.5559458C38.130691275787356,28.195692,26.249031275787353,29.61035,24.032283275787353,31.78944C21.815531275787354,33.96854,30.085991275787354,36.0422,42.507791275787355,36.4376Z" fill="url(#master_svgg_230_02297)" fill-opacity="1" style="mix-blend-mode:soft-light"/></g><g style="opacity:0.5;" filter="url(#master_svgh_430_70056)"><path d="M44.023437836456296,34.51684023841858C51.0965378364563,34.73684023841858,57.8531378364563,33.91183023841858,59.1145378364563,32.67184023841858C60.3760378364563,31.43184023841858,55.6697378364563,30.23683523841858,48.6012378364563,30.03183583841858C41.5327178364563,29.82683623841858,34.7715178364563,30.63183623841858,33.5100908364563,31.871840238418578C32.2486678364563,33.11184023841858,36.954917836456296,34.29184023841858,44.023437836456296,34.51684023841858Z" fill="url(#master_svgi_230_02297)" fill-opacity="1"/></g></g></g></g><g style="mix-blend-mode:passthrough"><path d="M16.0950525,27.09489C17.0748725,27.50048,18.3326825,28.17496,18.9342425,28.65804L19.8046825,27.38655C19.1575525,26.91259,17.8723925,26.31559,16.9335925,25.98291L16.0950525,27.09489ZM15.7031245,30.33056L16.2044225,31.8983C17.3528625,31.48356,18.7975225,30.97314,20.1100225,30.47184L19.8320325,29.01806C18.3190125,29.528480000000002,16.7513025,30.029780000000002,15.7031245,30.33056ZM17.3938825,32.354L17.3938825,36.3052L19.0481725,36.3052L19.0481725,33.867000000000004L25.2643625,33.867000000000004L25.2643625,36.1457L27.0006625,36.1457L27.0006625,32.354L17.3938825,32.354ZM21.3177125,34.2498C20.8938825,36.0728,20.0279925,37.1073,15.5618485,37.6177C15.8398435,37.982299999999995,16.1907525,38.6704,16.3046825,39.0942C21.231122499999998,38.3651,22.4661425,36.8156,22.9674525,34.2498L21.3177125,34.2498ZM22.1835925,37.0343C23.865232499999998,37.544799999999995,26.189462499999998,38.438,27.3242625,39.0076L28.358762499999997,37.6177C27.128262499999998,37.0526,24.7584625,36.2323,23.1634125,35.8084L22.1835925,37.0343ZM21.5957025,25.73681C21.272132499999998,26.716630000000002,20.615882499999998,27.83772,19.5084625,28.67171C19.8730425,28.872230000000002,20.4335925,29.3872,20.6705725,29.74267C21.272132499999998,29.23226,21.7643225,28.65804,22.1562525,28.06103L23.2500025,28.06103C22.8717425,29.31429,22.0878925,30.444499999999998,19.7454425,31.114420000000003C20.0690125,31.38785,20.4609425,31.9712,20.615882499999998,32.3403C22.4661425,31.743299999999998,23.5416625,30.872880000000002,24.1842425,29.829259999999998C24.9863325,30.94124,26.1165625,31.756999999999998,27.547562499999998,32.1991C27.7571625,31.770699999999998,28.1900625,31.173659999999998,28.527362500000002,30.859209999999997C26.8320625,30.499180000000003,25.5012625,29.62874,24.804032499999998,28.46207L24.9134125,28.06103L26.2577625,28.06103C26.1301625,28.44384,25.9934625,28.80387,25.8658625,29.08642L27.3515625,29.47379C27.656862500000003,28.83121,28.0488625,27.892409999999998,28.331362499999997,27.05387L27.096362499999998,26.757649999999998L26.8320625,26.81233L22.8261725,26.81233C22.9537725,26.538899999999998,23.0677125,26.2609,23.1634125,25.96923L21.5957025,25.73681ZM35.9055625,25.4816C34.574862499999995,27.58252,32.041062499999995,29.02718,29.3795625,29.788249999999998C29.812462500000002,30.207520000000002,30.277362500000002,30.863770000000002,30.5143625,31.34684C31.1295625,31.118969999999997,31.7311625,30.863770000000002,32.3189625,30.58577L32.3189625,31.269370000000002L35.1764625,31.269370000000002L35.1764625,32.8872L30.696662500000002,32.8872L30.696662500000002,34.3957L32.738262500000005,34.3957L31.6217625,34.8879C32.0956625,35.6125,32.5696625,36.5832,32.7975625,37.234899999999996L30.0221625,37.234899999999996L30.0221625,38.770700000000005L42.203762499999996,38.770700000000005L42.203762499999996,37.234899999999996L39.1822625,37.234899999999996C39.6152625,36.6105,40.162062500000005,35.7446,40.663362500000005,34.9198L39.250662500000004,34.3957L41.474562500000005,34.3957L41.474562500000005,32.8872L36.981162499999996,32.8872L36.981162499999996,31.269370000000002L39.811162499999995,31.269370000000002L39.811162499999995,30.444499999999998C40.440062499999996,30.76806,41.0826625,31.04606,41.716162499999996,31.25569C41.9804625,30.83642,42.499962499999995,30.15283,42.878262500000005,29.801920000000003C40.763662499999995,29.20947,38.4804625,28.02002,37.1087625,26.766759999999998L37.500662500000004,26.20166L35.9055625,25.4816ZM38.5351625,29.729L33.8730625,29.729C34.6979625,29.20947,35.454462500000005,28.60335,36.1425625,27.91064C36.839862499999995,28.57145,37.6692625,29.1958,38.5351625,29.729ZM35.1764625,34.3957L35.1764625,37.234899999999996L33.1301625,37.234899999999996L34.278662499999996,36.7108C34.0826625,36.0773,33.549462500000004,35.1203,33.048162500000004,34.3957L35.1764625,34.3957ZM36.981162499999996,34.3957L39.027362499999995,34.3957C38.7447625,35.165800000000004,38.229862499999996,36.1776,37.8059625,36.8293L38.731162499999996,37.234899999999996L36.981162499999996,37.234899999999996L36.981162499999996,34.3957ZM51.0084625,32.6912L51.0084625,38.4106L52.4804625,38.4106L52.4804625,32.6912L51.0084625,32.6912ZM48.6295625,32.6912L48.6295625,34.0037C48.6295625,35.216,48.4472625,36.7153,46.838562499999995,37.8501C47.2167625,38.0871,47.7773625,38.6066,48.0143625,38.957499999999996C49.9192625,37.581199999999995,50.1425625,35.617000000000004,50.1425625,34.063L50.1425625,32.6912L48.6295625,32.6912ZM53.3463625,32.6912L53.3463625,36.929500000000004C53.3463625,37.8774,53.4466625,38.1828,53.6835625,38.4243C53.9205625,38.6613,54.2988625,38.770700000000005,54.6360625,38.770700000000005C54.8320625,38.770700000000005,55.1419625,38.770700000000005,55.3652625,38.770700000000005C55.6158625,38.770700000000005,55.9394625,38.7023,56.1354625,38.5747C56.3587625,38.4517,56.4999625,38.242000000000004,56.5956625,37.9458C56.6959625,37.6678,56.7506625,36.929500000000004,56.7779625,36.2869C56.3997625,36.1457,55.8984625,35.9041,55.6432625,35.6444C55.6295625,36.2869,55.6158625,36.8019,55.5885625,37.0298C55.5611625,37.244,55.5338625,37.3442,55.4882625,37.3989C55.4472625,37.4308,55.3788625,37.4445,55.3105625,37.4445C55.2376625,37.4445,55.1419625,37.4445,55.0826625,37.4445C55.0279625,37.4445,54.9596625,37.4126,54.9459625,37.3716C54.9003625,37.330600000000004,54.8867625,37.1847,54.8867625,36.9705L54.8867625,32.6912L53.3463625,32.6912ZM44.1087625,27.09489C44.988262500000005,27.52327,46.1093625,28.23877,46.6288625,28.7583L47.6087625,27.39567C47.048162500000004,26.86246,45.8997625,26.21077,45.0292625,25.81884L44.1087625,27.09489ZM43.534462500000004,31.02327C44.4413625,31.40608,45.603562499999995,32.076,46.1503625,32.5773L47.0891625,31.15088C46.4876625,30.663249999999998,45.311862500000004,30.06624,44.4140625,29.72444L43.534462500000004,31.02327ZM43.7851625,37.7225L45.1979625,38.8664C46.0546625,37.4855,46.9342625,35.858599999999996,47.6770625,34.3592L46.4466625,33.2199C45.603562499999995,34.8742,44.5279625,36.6561,43.7851625,37.7225ZM50.7988625,26.00569C50.9811625,26.42952,51.1633625,26.935380000000002,51.2910625,27.39567L47.6360625,27.39567L47.6360625,28.89502L50.0286625,28.89502C49.5683625,29.49658,49.0761625,30.10726,48.8665625,30.30778C48.5611625,30.58121,48.0689625,30.695149999999998,47.7454625,30.76351C47.8593625,31.123530000000002,48.0826625,31.9347,48.1419625,32.3494C48.6705625,32.1489,49.4133625,32.076,54.6907625,31.693199999999997C54.9322625,32.035,55.1282625,32.3494,55.2649625,32.6183L56.6093625,31.7342C56.1627625,30.96403,55.2102625,29.7928,54.4400625,28.89502L56.3723625,28.89502L56.3723625,27.39567L53.0410625,27.39567C52.8723625,26.86246,52.6080625,26.1652,52.3528625,25.631999999999998L50.7988625,26.00569ZM53.0136625,29.48291L53.7109625,30.35335L50.6620625,30.52197C51.0676625,30.006999999999998,51.5006625,29.43733,51.9062625,28.89502L53.9661625,28.89502L53.0136625,29.48291ZM62.9257625,25.64567C62.7571625,26.38395,62.4882625,27.29541,62.1829625,28.079259999999998L58.3046625,28.079259999999998L58.3046625,39.0487L59.9817625,39.0487L59.9817625,29.729L68.2577625,29.729L68.2577625,37.0435C68.2577625,37.316900000000004,68.16206249999999,37.3989,67.9068625,37.3989C67.6288625,37.4126,66.6627625,37.4263,65.8515625,37.367000000000004C66.0885625,37.818200000000004,66.3391625,38.5884,66.3938625,39.0623C67.6699625,39.0623,68.5540625,39.035,69.1555625,38.770700000000005C69.74346249999999,38.506299999999996,69.93946249999999,38.0142,69.93946249999999,37.0754L69.93946249999999,28.079259999999998L64.0878625,28.079259999999998C64.4068625,27.44124,64.7577625,26.70296,65.0676625,25.96468L62.9257625,25.64567ZM62.8665625,32.6457L65.3046625,32.6457L65.3046625,34.3957L62.8665625,34.3957L62.8665625,32.6457ZM61.3398625,31.18733L61.3398625,36.9979L62.8665625,36.9979L62.8665625,35.8677L66.8450625,35.8677L66.8450625,31.18733L61.3398625,31.18733Z" fill="#FFFFFF" fill-opacity="1"/></g></g></g></svg>